<svg width="373" height="349" viewBox="0 0 373 349" fill="none" xmlns="http://www.w3.org/2000/svg">
    <g clip-path="url(#clip0_331_26153)">
        <path d="M243.659 349.496C251.549 349.543 259.426 348.992 267.312 348.994C269.285 349.061 271.257 349.084 273.23 349.115C274.734 349.296 280.294 349.836 277.868 347.041C277.038 343.449 275.887 341.022 278.925 337.938C282.869 334.688 289.649 333.981 291.11 328.313C292.328 320.557 282.416 316.622 282.63 309.17C282.861 306.073 283.894 302.942 286.416 300.965C286.376 301.003 286.337 301.039 286.299 301.076C288.338 299.069 290.862 297.689 293.468 296.556C293.444 296.567 293.417 296.578 293.391 296.59C297.511 294.622 302.352 293.333 305.32 289.653C308.533 285.478 307.365 279 303.23 275.871C296.399 270.263 287.491 268.166 279.183 265.696C266.084 262.051 252.657 259.347 239.066 258.504C239.071 258.504 239.075 258.504 239.081 258.504C238.733 258.491 238.388 258.457 238.041 258.456C238.042 258.456 238.046 258.456 238.048 258.456C231.103 258.028 224.193 258.683 217.508 260.652C217.547 260.643 217.589 260.631 217.628 260.622C213.828 261.749 209.93 262.79 206.341 264.493C200.089 268.074 194.923 274.41 194.869 281.871C194.901 287.386 198.434 291.951 199.604 297.201C202.098 309.033 183.066 307.442 180.814 317.244C179.614 323.106 182.805 328.787 184.707 334.18C185.94 337.108 187.232 340.034 187.963 343.138C188.122 344.077 188.265 345.321 189.378 345.57C204.751 347.891 220.34 348.53 235.857 349.286C235.846 349.286 235.836 349.286 235.825 349.286C238.433 349.401 241.045 349.517 243.659 349.498V349.496ZM263.803 346.69C254.947 347.05 246.075 347.502 237.209 347.15C237.214 347.15 237.22 347.15 237.226 347.15C237.188 347.15 237.151 347.146 237.115 347.144C237.149 347.144 237.182 347.148 237.214 347.15C236.972 347.138 236.73 347.127 236.488 347.116C236.538 347.118 236.587 347.12 236.638 347.124C232.389 346.94 228.138 346.784 223.894 346.491C223.896 346.491 223.9 346.491 223.902 346.491C212.729 345.773 201.471 345.357 190.443 343.323C189.621 338.599 187.242 334.354 185.627 329.884C185.649 329.944 185.67 330.006 185.692 330.066C178.683 313.035 186.905 315.235 198.372 307.181C202.791 304.332 203.112 298.692 201.206 294.211C200.07 290.591 197.817 287.374 197.272 283.571C196.315 276.584 201.166 270.285 206.773 266.669C210.555 264.493 214.926 263.494 219.072 262.213C225.338 260.393 231.82 259.945 238.313 260.303C238.272 260.303 238.23 260.299 238.189 260.297C253.455 261.123 268.506 264.321 283.152 268.601C291.252 271.358 310.824 276.28 303.55 288.192C303.559 288.179 303.568 288.166 303.58 288.153C300.149 291.945 294.743 292.908 290.362 295.241C286.342 297.3 282.127 300.399 281.04 305.017C277.943 314.866 286.397 317.728 288.896 325.467C290.043 331.284 282.292 332.55 278.657 335.078C274.509 337.638 274.03 342.823 276.051 346.925C271.98 346.874 267.888 346.587 263.804 346.688L263.803 346.69Z" fill="#F8F8F9"/>
        <path d="M277.257 349.159C285.661 349.226 293.734 346.357 302.14 346.375C307.779 346.191 314.093 347.647 319.214 344.698C321.08 343.466 319.071 341.298 318.816 339.674C314.826 329.277 312.36 318.407 309.848 307.583C308.804 302.757 307.841 297.903 307.272 292.994C306.934 289.614 307.172 285.985 306.611 282.727C305.135 282.072 305.792 286.864 305.636 287.68C305.259 296.07 307.152 304.34 308.967 312.48C311.044 321.65 313.389 330.779 316.816 339.55C316.812 339.54 316.809 339.529 316.805 339.52C316.822 339.565 316.839 339.612 316.855 339.657C316.852 339.647 316.848 339.638 316.846 339.629C317.16 340.491 317.479 341.352 317.794 342.215C317.777 342.17 317.762 342.127 317.745 342.082C317.834 342.328 317.931 342.573 318.01 342.823C312.792 346.128 302.884 343.365 296.563 344.456C296.563 344.456 296.563 344.456 296.565 344.456C296.516 344.462 296.467 344.466 296.419 344.472C296.436 344.472 296.451 344.468 296.467 344.466C296.436 344.47 296.406 344.472 296.374 344.475C296.389 344.475 296.404 344.472 296.417 344.472C296.368 344.477 296.319 344.481 296.27 344.487C296.276 344.487 296.283 344.487 296.289 344.485C291.901 344.955 287.578 345.871 283.215 346.495C281.44 346.934 277.035 346.002 276.018 347.112C275.479 347.97 276.271 349.193 277.257 349.157V349.159Z" fill="#F8F8F9"/>
        <path d="M191.838 344.907C191.74 342.478 186.93 343.358 185.24 343.258C182.985 343.403 180.731 343.084 178.478 343.003C180.562 335.799 181.749 328.427 182.397 320.972C182.564 319.865 182.634 318.74 182.938 317.657C183.171 317.02 183.441 316.172 182.697 315.767C182.162 315.42 181.362 315.93 181.667 316.568C180.136 320.831 180.117 325.46 179.348 329.888C178.91 331.789 178.311 333.651 177.988 335.577C177.541 337.896 176.884 340.165 176.315 342.455C175.262 344.941 178.315 345.233 180.061 345.175C180.054 345.175 180.046 345.175 180.039 345.175C182.772 345.453 185.497 345.357 188.235 345.389C189.382 345.089 191.417 346.529 191.84 344.909L191.838 344.907Z" fill="#F8F8F9"/>
        <path d="M192.687 308.997C194.082 307.952 193.793 303.078 194.161 301.247C194.855 296.276 195.287 291.282 195.725 286.285C196.104 283.342 196.99 280.5 197.426 277.567C197.42 277.595 197.415 277.623 197.409 277.653C197.484 276.558 198.789 273.418 197.293 273.06C197.084 273.097 196.964 273.287 196.972 273.485C196.972 273.482 196.972 273.478 196.972 273.476C196.551 277.21 195.068 280.782 194.341 284.475C193.457 289.481 193.304 294.59 192.354 299.596C192.05 301.842 191.934 304.111 191.547 306.345C191.166 307.446 190.955 309.284 192.689 308.999L192.687 308.997Z" fill="#F8F8F9"/>
        <path d="M197.907 300.575C197.861 299.384 198.644 296.916 198.03 296.065C197.382 295.826 197.705 296.768 197.547 297.106C197.551 297.089 197.553 297.074 197.556 297.059C197.489 297.961 196.458 300.315 197.316 300.844C197.545 300.937 197.851 300.84 197.907 300.574V300.575Z" fill="#F8F8F9"/>
        <path d="M196.447 295.624C196.443 295.057 197.042 293.579 196.364 293.373C195.795 293.448 195.921 294.748 195.607 295.215C195.371 295.729 196.242 296.233 196.447 295.626V295.624Z" fill="#F8F8F9"/>
        <path d="M195.528 302.492C195.461 301.842 196.18 300.401 195.134 300.347C194.601 300.581 194.82 301.654 194.576 302.175C194.405 302.768 195.393 303.2 195.526 302.494L195.528 302.492Z" fill="#F8F8F9"/>
        <path d="M182.575 333.099C182.857 332.227 183.007 331.273 182.935 330.359C182.868 330.063 182.421 329.896 182.243 330.185C182.128 330.687 182.145 331.252 181.942 331.76C181.839 332.25 181.347 332.929 181.938 333.276C182.151 333.396 182.481 333.358 182.575 333.099V333.099Z" fill="#F8F8F9"/>
        <path d="M186.185 337.757C186.364 336.839 186.249 335.883 186.246 334.954C186.191 334.365 185.226 334.27 185.271 334.947C185.271 334.936 185.269 334.923 185.267 334.911C185.47 335.872 184.454 337.524 185.438 338.096C185.731 338.218 186.097 338.091 186.184 337.757H186.185Z" fill="#F8F8F9"/>
        <path d="M182.683 339.405C182.696 338.814 182.73 338.216 182.629 337.631C182.537 336.896 181.365 337.003 181.649 337.781V337.777C181.816 338.436 181.177 339.514 182.067 339.816C182.343 339.889 182.67 339.715 182.685 339.405H182.683Z" fill="#F8F8F9"/>
        <path d="M303.081 300.453C304.265 300.294 303.535 298.85 303.447 298.107C303.111 296.53 302.866 294.935 302.724 293.33C302.724 293.347 302.728 293.363 302.728 293.38C302.726 293.348 302.722 293.317 302.72 293.287C302.72 293.3 302.722 293.315 302.724 293.328C302.682 292.683 302.547 288.952 301.387 290.479C301.5 292.088 301.18 300.444 303.081 300.453V300.453Z" fill="#F8F8F9"/>
        <path d="M305.083 309.451C306.115 309.31 305.511 308.031 305.346 307.397C304.852 306.127 304.792 304.557 303.93 303.483C303.637 303.209 303.111 303.404 303.136 303.826C303.22 304.194 303.434 304.52 303.472 304.914C303.95 305.99 303.761 309.363 305.083 309.451Z" fill="#F8F8F9"/>
        <path d="M297.138 299.293C298.175 299.141 297.484 297.92 297.347 297.297C297.02 296.286 296.853 295.202 296.387 294.245C296.113 293.653 295.178 293.996 295.664 294.579C296.166 295.616 295.914 299.394 297.14 299.295L297.138 299.293Z" fill="#F8F8F9"/>
        <path d="M299.192 304.164C300.152 304.064 299.743 302.99 299.491 302.414C299.125 301.748 299.177 300.321 298.19 300.326C297.39 300.566 298.026 301.517 298.085 302.059C298.289 302.798 298.135 304.123 299.191 304.162L299.192 304.164Z" fill="#F8F8F9"/>
        <path d="M302.37 316.436C303.463 316.072 302.492 314.737 302.337 314.011C301.747 312.246 301.165 310.479 300.515 308.734C300.305 307.427 298.545 307.825 299.531 308.901C300.102 310.132 300.986 316.929 302.37 316.436Z" fill="#F8F8F9"/>
        <path d="M307.488 325.237C308.543 324.867 307.524 323.595 307.385 322.894C307.385 322.894 307.385 322.896 307.385 322.898C306.833 321.982 306.949 319.959 305.758 319.724C305.37 319.747 305.274 320.247 305.514 320.503C305.988 321.635 306.023 325.199 307.488 325.237V325.237Z" fill="#F8F8F9"/>
        <path d="M305.604 315.285C305.903 315.232 306.07 314.902 305.972 314.621C305.625 314.033 305.645 312.758 304.787 312.75C304.466 312.805 304.348 313.184 304.489 313.452C304.782 314.052 304.699 315.324 305.604 315.285V315.285Z" fill="#F8F8F9"/>
        <path d="M288.536 304.303C289.552 304.162 288.855 303.008 288.709 302.418C288.433 301.915 287.902 297.982 287.07 299.077C287.07 299.077 287.07 299.077 287.07 299.075C287.316 300.591 287.618 302.104 287.776 303.637C287.817 303.999 288.172 304.312 288.536 304.303Z" fill="#F8F8F9"/>
        <path d="M293.396 315.132C294.693 314.71 292.945 312.37 292.938 311.392C292.536 310.586 292.838 308.609 291.573 308.733C290.771 308.98 291.852 311.353 291.851 312.099C292.281 313.043 292.027 315.097 293.394 315.13L293.396 315.132Z" fill="#F8F8F9"/>
        <path d="M294.592 310.757C295.749 310.355 294.676 308.911 294.584 308.11C294.239 306.925 293.997 305.715 293.715 304.515C293.217 302.457 292.697 300.403 292.269 298.329C292.119 297.879 292.155 296.794 291.458 296.956C291.338 297.021 291.3 297.149 291.319 297.273C291.319 297.273 291.317 297.273 291.315 297.271C291.663 298.951 292.752 311.432 294.592 310.757V310.757Z" fill="#F8F8F9"/>
        <path d="M298.833 324.953C300.287 324.597 298.604 322.583 298.501 321.68C298.512 321.709 298.522 321.737 298.533 321.767C297.958 320.902 297.361 316.262 296.227 316.774C295.63 316.821 297.059 320.377 297.115 321.052C297.622 322.042 297.601 324.841 298.833 324.955V324.953Z" fill="#F8F8F9"/>
        <path d="M303.553 337.475C304.637 337.149 303.736 335.937 303.471 335.296C302.831 334.181 302.639 332.743 301.807 331.775C300.512 331.437 301.787 333.842 301.837 334.418C302.378 335.358 302.166 337.436 303.553 337.475Z" fill="#F8F8F9"/>
        <path d="M309.717 335.495C310.655 334.868 309.303 333.615 309.217 332.781C308.821 332.109 308.847 330.402 307.873 330.423C307.261 330.811 308.224 332.325 308.239 332.985C308.584 333.78 308.515 335.619 309.717 335.493V335.495Z" fill="#F8F8F9"/>
        <path d="M295.155 335.298C296.203 334.943 294.917 333.598 294.752 332.949C294.442 332.499 294.346 331.571 293.783 331.439C293.751 332.098 294.254 332.914 294.335 333.641C294.335 333.634 294.331 333.625 294.329 333.617C294.333 333.634 294.337 333.653 294.341 333.67C294.339 333.66 294.337 333.653 294.335 333.643C294.532 334.187 294.397 335.23 295.155 335.3V335.298Z" fill="#F8F8F9"/>
        <path d="M285.312 305.619C285.196 304.732 284.299 301.744 283.467 301.474C283.029 301.42 282.948 302.029 283.281 302.226C283.638 303.316 284.036 304.419 284.161 305.565C284.201 306.227 285.326 306.385 285.311 305.619H285.312Z" fill="#F8F8F9"/>
        <path d="M288.28 315.459C289.322 315.131 288.141 313.097 287.901 312.402C288.254 312.516 287.916 312.049 287.854 311.921C287.854 311.921 287.856 311.925 287.858 311.927C286.639 309.539 287.266 313.193 287.521 313.895C287.702 314.423 287.51 315.414 288.28 315.459Z" fill="#F8F8F9"/>
        <path d="M296.046 345.357C296.643 344.573 295.851 343.558 295.691 342.729C294.48 338.948 293.122 335.215 291.861 331.451C291.19 329.858 290.837 326.203 289.226 325.486C288.759 325.52 288.543 326.22 288.992 326.45C290.221 331.571 291.453 336.692 293.228 341.662C293.87 342.778 294.099 346.578 296.046 345.355V345.357Z" fill="#F8F8F9"/>
        <path d="M295.191 344.294C296.787 343.879 294.472 340.111 294.342 338.948C293.415 336.35 292.5 333.739 291.912 331.038C291.916 331.057 291.922 331.076 291.926 331.095C291.74 330.269 290.681 324.203 289.319 325.858C289.319 325.858 289.317 325.856 289.316 325.854C290.521 330.785 291.068 335.769 293.028 340.559C293.664 341.683 293.589 344.233 295.191 344.294Z" fill="#F8F8F9"/>
        <path d="M290.07 338.753C291.437 338.169 289.582 336.005 289.454 334.99C289.464 335.018 289.475 335.046 289.484 335.075C289.312 334.668 289.252 334.182 288.938 333.854C287.537 333.184 288.459 335.504 288.581 336.134C288.927 336.995 288.808 338.781 290.07 338.755V338.753Z" fill="#F8F8F9"/>
        <path d="M288.884 344.357C290.123 344.16 287.774 340.628 287.498 339.874C287.126 339.473 286.523 339.947 286.824 340.405C287.072 340.758 287.151 341.204 287.316 341.6C287.815 342.376 287.785 344.331 288.886 344.357H288.884Z" fill="#F8F8F9"/>
        <path d="M283.104 340.032C284.126 339.51 282.762 338.139 282.592 337.379C282.396 337.13 282.415 336.468 281.996 336.552C281.596 336.821 282.297 340.442 283.104 340.032V340.032Z" fill="#F8F8F9"/>
        <path d="M279.864 343.901C280.766 343.56 279.209 341.817 279.149 341.118C279.128 340.983 278.978 340.846 278.834 340.921C278.608 341.41 279.089 342.095 279.113 342.646C279.11 342.629 279.106 342.614 279.102 342.598C279.245 343.059 279.17 343.956 279.863 343.899L279.864 343.901Z" fill="#F8F8F9"/>
        <path d="M293.517 280.95C293.776 280.468 294.05 279.994 294.316 279.514C294.561 279.2 294.562 278.621 294.061 278.604C293.471 278.962 293.019 279.681 292.572 280.236C292.2 280.782 293.118 281.541 293.518 280.95H293.517Z" fill="#F8F8F9"/>
        <path d="M290.265 279.806C290.92 279.529 290.937 278.584 291.305 278.036C291.532 277.974 291.594 277.708 291.502 277.507C291.502 277.511 291.504 277.514 291.506 277.516C290.757 276.085 288.368 279.917 290.265 279.806Z" fill="#F8F8F9"/>
        <path d="M287.074 278.287C287.115 277.452 286.867 276.636 286.553 275.873C286.565 275.892 286.574 275.912 286.584 275.931C286.584 275.931 286.584 275.931 286.584 275.929C286.584 275.933 286.587 275.935 286.587 275.939C286.587 275.937 286.585 275.935 286.584 275.933C286.585 275.942 286.589 275.952 286.591 275.961C286.214 275.194 285.459 275.719 285.724 276.441C285.722 276.417 285.72 276.391 285.716 276.368C285.806 277.094 285.586 277.929 285.953 278.587C286.274 279.058 287.087 278.917 287.07 278.289L287.074 278.287Z" fill="#F8F8F9"/>
        <path d="M281.673 278.715C282.523 278.263 281.575 277.222 281.308 276.646C281.077 276.175 280.463 275.434 279.983 276.059C279.994 276.044 280.003 276.031 280.015 276.018C279.656 276.567 280.304 277.074 280.488 277.571C280.747 278.043 280.965 278.925 281.675 278.717L281.673 278.715Z" fill="#F8F8F9"/>
        <path d="M244.484 271.184C244.722 270.818 245.167 270.333 244.919 269.881C244.733 269.511 244.103 269.496 244.037 269.957C243.898 270.209 243.567 270.331 243.534 270.636C243.457 271.118 244.119 271.578 244.484 271.182V271.184Z" fill="#F8F8F9"/>
        <path d="M240.728 270.769C241.527 270.565 241.005 269.648 240.891 269.124C240.977 268.702 240.609 268.252 240.176 268.263C239.122 268.308 239.8 271 240.728 270.769Z" fill="#F8F8F9"/>
        <path d="M237.187 270.788C237.968 270.61 237.028 268.695 236.449 268.883C235.629 269.044 236.444 271.12 237.187 270.788Z" fill="#F8F8F9"/>
        <path d="M244.755 315.397C245.423 315.035 246.255 314.673 246.644 313.994C246.681 312.796 245.431 313.63 244.877 313.913C244.884 313.91 244.894 313.906 244.901 313.902C244.424 314.099 243.632 314.305 243.938 314.984C244.064 315.285 244.43 315.515 244.755 315.395V315.397Z" fill="#F8F8F9"/>
        <path d="M242.569 314.296C242.953 314.014 242.83 313.422 242.961 313.005C243.049 312.463 243.265 311.927 243.226 311.372C243.128 310.783 242.287 310.921 242.461 311.533C242.461 311.514 242.463 311.495 242.465 311.479C242.386 312.293 240.856 314.474 242.569 314.298V314.296Z" fill="#F8F8F9"/>
        <path d="M239.744 315.029C241.051 314.772 239.001 311.674 238.415 311.342C237.818 311.177 237.574 311.991 238.013 312.325C238.588 313.14 238.535 314.964 239.746 315.029H239.744Z" fill="#F8F8F9"/>
        <path d="M237.02 315.755C237.893 314.982 236.358 314.037 236.008 313.336C235.886 313.067 235.651 312.799 235.319 312.861C234.48 313.15 235.306 314.022 235.561 314.472C235.944 314.96 236.2 316.097 237.02 315.755V315.755Z" fill="#F8F8F9"/>
        <path d="M270.621 333.672C271.102 333.111 272.965 331.903 271.645 331.325C271.489 331.299 271.314 331.38 271.243 331.522C270.781 331.999 270.174 332.304 269.739 332.811C269.284 333.332 270.111 334.187 270.621 333.674V333.672Z" fill="#F8F8F9"/>
        <path d="M268.6 332.265C268.904 331.527 269.37 330.224 269.028 329.507C268.341 329.841 268.078 330.899 267.609 331.516C267.228 332.096 268.174 332.882 268.602 332.265H268.6Z" fill="#F8F8F9"/>
        <path d="M265.706 332.621C266.964 332.381 265.46 329.575 264.588 329.811C263.873 330.07 264.53 330.819 264.568 331.31C264.701 331.886 264.956 332.734 265.708 332.623L265.706 332.621Z" fill="#F8F8F9"/>
        <path d="M262.572 333.113C263.169 332.559 262.416 331.91 261.971 331.556C261.665 331.269 261.19 330.609 260.827 331.205C260.63 331.828 261.828 333.698 262.572 333.111V333.113Z" fill="#F8F8F9"/>
        <path d="M208.989 327.116C209.623 326.67 210.115 326.053 210.579 325.437C210.568 325.454 210.553 325.469 210.538 325.484C210.771 325.252 210.701 324.875 210.444 324.68C209.787 324.261 209.488 325.312 208.919 325.507C208.564 325.779 207.963 326.004 207.958 326.518C207.958 327.009 208.555 327.433 208.987 327.116H208.989Z" fill="#F8F8F9"/>
        <path d="M207.35 325.405C207.875 325.113 208.493 322.605 207.291 322.976C206.955 323.408 206.893 324.055 206.58 324.546C206.379 325 206.873 325.569 207.35 325.405V325.405Z" fill="#F8F8F9"/>
        <path d="M205.062 326.082C205.967 325.82 205.287 324.756 205.071 324.201C204.758 323.721 204.812 322.787 204.089 322.755C203.68 322.759 203.509 323.258 203.723 323.569C204.069 324.37 203.881 326.088 205.062 326.082V326.082Z" fill="#F8F8F9"/>
        <path d="M202.373 326.91C203.015 326.319 202.191 325.672 201.781 325.239C201.344 324.843 200.989 323.971 200.29 324.121C199.806 324.297 199.905 324.997 200.315 325.205C200.942 325.747 201.312 327.471 202.373 326.912V326.91Z" fill="#F8F8F9"/>
        <path d="M157.611 293.482C166.197 292.522 168.995 285.043 164.909 277.863C161.559 272.377 154.193 271.694 148.541 273.525C142.694 275.243 141.677 272.793 137.333 269.777C133.261 267.17 127.592 265.66 123.288 268.564C120.432 270.323 116.773 271.676 113.646 269.8C109.192 267.412 102.579 263.374 98.1272 267.648C98.131 267.645 98.1366 267.639 98.1404 267.635C96.0505 269.582 92.7777 270.349 90.087 269.316C87.5258 268.611 84.7393 269.102 82.3452 270.156C74.9603 273.639 73.8881 283.185 81.7387 286.878C92.1919 293.071 99.1731 280.911 108.13 288.997C111.406 291.428 116.014 292.568 119.788 290.623C121.974 289.616 123.897 287.592 126.45 287.679C128.918 287.874 130.94 289.464 133.142 290.428C136.98 291.891 140.82 288.89 144.726 289.47C145.922 289.659 146.859 290.674 148.025 290.837C150.72 292.972 154.189 294.035 157.611 293.48V293.482ZM154.007 290.685C150.038 290.757 147.28 287.037 143.427 286.956C139.923 286.746 136.316 289.483 132.945 287.891C132.996 287.915 133.047 287.939 133.095 287.964C132.981 287.907 132.868 287.853 132.754 287.797C132.804 287.821 132.855 287.846 132.904 287.87C119.672 279.63 120.201 295.937 107.101 285.683C104.784 284.085 101.817 283.757 99.0717 284.036C99.0905 284.034 99.1093 284.032 99.1299 284.03C99.0811 284.036 99.0323 284.04 98.9853 284.045C98.9929 284.045 99.0022 284.045 99.0098 284.044C98.9947 284.044 98.9816 284.047 98.9666 284.047C98.976 284.047 98.9872 284.045 98.9966 284.045C95.168 284.304 91.7506 286.683 87.8638 286.362C80.614 286.096 74.6486 279.638 81.1229 273.589C81.1097 273.602 81.0947 273.615 81.0797 273.628C86.8836 268.894 89.7452 272.788 95.2243 271.479C99.6144 270.528 99.697 266.859 104.742 268.076C110.12 268.883 114.516 274.369 120.254 272.178C123.577 271.22 126.396 268.312 130.095 269.083C137.091 270.059 139.461 275.764 144.51 276.246C148.038 276.451 151.365 274.785 154.888 274.977C160.185 274.977 163.914 278.88 163.843 284.147C163.58 288.436 159.314 290.423 155.493 290.685C155.558 290.678 155.624 290.672 155.688 290.665C155.125 290.698 154.567 290.704 154.004 290.683L154.007 290.685Z" fill="#F8F8F9"/>
        <path d="M137.309 275.515C137.341 275.464 137.362 275.406 137.367 275.348C136.569 273.236 131.974 271.559 129.796 271.598C129.156 271.69 128.296 271.553 127.83 272.075C127.481 272.634 127.994 273.416 128.632 273.399C131.344 273.146 134.457 273.624 136.573 275.428C136.718 275.689 137.132 275.796 137.309 275.515V275.515Z" fill="#F8F8F9"/>
        <path d="M122.163 275.029C122.756 274.781 124.247 274.249 123.288 273.506C122.608 273.361 120.91 273.375 121.171 274.446C121.286 274.841 121.75 275.188 122.165 275.029H122.163Z" fill="#F8F8F9"/>
        <path d="M137.675 285.122C142.018 284.546 142.14 280.705 140.516 282.228C140.527 282.216 140.539 282.207 140.552 282.196C138.01 284.385 134.384 283.522 131.464 282.683C130.854 282.546 129.941 281.697 129.487 282.485C129.105 284.52 136.177 285.375 137.675 285.124V285.122Z" fill="#F8F8F9"/>
        <path d="M126.076 282.147C126.389 281.586 125.125 281.033 124.705 281.067C124.016 281.455 124.731 282.166 125.306 282.115C125.287 282.112 125.266 282.108 125.247 282.104C125.531 282.119 125.848 282.481 126.076 282.147V282.147Z" fill="#F8F8F9"/>
        <path d="M98.9477 275.896C102.985 274.569 106.338 272.234 110.584 274.656C110.567 274.648 110.55 274.639 110.533 274.631C110.766 274.778 111.147 274.916 111.258 274.554C111.247 273.815 109.947 273.603 109.425 273.196C104.615 270.756 101.747 273.87 97.376 274.56C96.0917 274.583 90.5525 272.444 90.4361 274.393C90.4905 274.764 90.8417 275.106 91.2285 275.087C93.8741 274.59 96.3377 276.391 98.9495 275.896H98.9477Z" fill="#F8F8F9"/>
        <path d="M90.0428 283.989C91.1788 283.848 94.7878 283.43 94.0498 281.721C93.802 281.309 93.2293 281.078 92.8143 281.393C89.8382 283.814 81.9744 281.166 85.2641 276.841C85.634 276.302 87.138 275.862 86.8939 275.205C86.7888 274.965 86.4865 274.8 86.2461 274.928C82.9602 275.49 81.7716 279.163 83.914 281.642C85.4199 283.306 87.8384 284.047 90.0428 283.989Z" fill="#F8F8F9"/>
        <path d="M100.851 281.228C100.851 281.228 100.835 281.239 100.825 281.245C102.264 280.605 103.888 281.275 105.347 281.123C107.042 278.861 101.76 279.748 100.786 280.131C99.7812 280.309 99.892 281.515 100.851 281.23V281.228Z" fill="#F8F8F9"/>
        <path d="M157.089 287.067C161.826 285.887 160.868 280.605 157.055 278.908C156.597 278.784 155.66 278.058 155.431 278.763C155.342 279.422 157.607 279.649 158.161 281.136C159.376 283.068 158.285 284.627 156.291 285.248C155.374 285.767 156.129 287.268 157.087 287.067H157.089Z" fill="#F8F8F9"/>
        <path d="M36.6965 307.266C43.9313 307.242 48.9597 298.104 56.5456 301.514C56.525 301.506 56.5043 301.499 56.4818 301.493C56.5306 301.51 56.5794 301.525 56.6282 301.542C56.6226 301.54 56.617 301.538 56.6113 301.536C56.6207 301.54 56.6282 301.542 56.6376 301.545C56.632 301.545 56.6263 301.542 56.6226 301.54C59.4785 302.628 62.1205 304.237 64.9708 305.34C64.6291 305.648 65.0872 306.28 65.4928 306.043C69.4904 307.114 74.194 306.794 77.6997 304.473C78.9821 303.804 80.903 302.622 80.5162 300.947C83.1412 295.573 77.8499 290.494 72.6261 290.121C68.5347 289.393 64.5051 291.182 60.4211 290.618C53.9187 289.839 54.5496 283.941 49.3446 281.08C49.386 281.108 49.4273 281.135 49.4686 281.163C45.3959 278.407 39.9168 278.214 35.5211 280.313C35.5248 280.313 35.5286 280.309 35.5324 280.307C35.4948 280.324 35.4573 280.339 35.4216 280.356C35.4216 280.356 35.4216 280.356 35.4234 280.356C32.4116 281.562 30.1528 284.355 26.6959 284.428C22.2289 285.18 18.5918 281.917 14.2938 281.51C8.22133 280.842 -0.585055 284.903 0.0345838 291.951C1.07295 298.072 7.85329 300.805 13.4826 300.032C17.6962 299.934 23.0926 296.496 26.249 300.791C26.2415 300.784 26.234 300.776 26.2284 300.767C26.2321 300.771 26.2378 300.776 26.2415 300.78C26.2077 300.743 26.1721 300.703 26.1383 300.666C26.204 300.737 26.2678 300.808 26.3317 300.88C26.3242 300.872 26.3166 300.863 26.311 300.855C26.3448 300.893 26.3786 300.932 26.4143 300.97C26.4105 300.966 26.4068 300.96 26.4011 300.957C28.8816 304.233 32.2783 307.51 36.7003 307.266H36.6965ZM35.4516 305.021C32.0267 304.717 29.6702 302.118 27.6273 299.619C23.2278 293.711 15.9161 298.518 10.0389 297.937C6.32673 297.845 2.2634 295.412 1.79022 291.484C1.80524 286.713 7.29374 284.102 11.3965 283.393C16.1095 282.571 19.9362 286.139 24.4746 286.386C31.2625 287.026 33.1308 282.568 38.9272 281.135C43.1408 280.095 47.8406 281.47 50.7792 284.672C52.8484 287.14 53.915 290.659 57.2141 291.83C61.7937 294.054 66.7114 291.987 71.4864 292.178C76.8359 292.327 81.3105 296.481 77.5269 301.617C74.0401 304.158 69.2707 304.265 65.2637 302.909C57.3417 299.674 52.4748 295.954 44.4026 301.66C41.7043 303.43 38.8146 305.225 35.4516 305.021V305.021Z" fill="#F8F8F9"/>
        <path d="M68.8617 306.454C73.0959 305.816 79.7561 303.636 80.1992 298.679C80.0809 298.15 79.2679 298.323 79.6228 298.835C79.0425 299.969 78.3666 301.082 77.2794 301.8C77.3019 301.785 77.3226 301.77 77.3451 301.757C77.2663 301.809 77.1874 301.86 77.1085 301.913C77.1085 301.913 77.1085 301.913 77.1104 301.913C71.6069 305.122 67.4666 306.326 61.796 302.672C61.2477 302.361 60.3933 301.89 60.0215 302.68C59.186 304.608 67.4159 306.834 68.8598 306.457L68.8617 306.454Z" fill="#F8F8F9"/>
        <path d="M64.994 305.122C65.5235 304.015 59.5788 301.858 58.6117 301.048C57.6954 300.772 55.7783 299.29 55.1455 300.468C55.0516 300.817 55.2432 301.247 55.5699 301.41C58.6024 302.826 61.9165 304.103 64.9959 305.124L64.994 305.122Z" fill="#F8F8F9"/>
        <path d="M29.6305 289.211C32.7306 289.119 35.0908 286.919 37.7966 285.702C41.9557 284.01 47.692 284.771 49.9734 288.997C50.3133 289.382 51.0137 289.108 50.8822 288.575C50.8822 288.579 50.886 288.583 50.8879 288.586C49.3857 285.385 46.0077 283.243 42.4495 283.308C42.4495 283.308 42.4495 283.308 42.4514 283.308C42.4157 283.308 42.3782 283.304 42.3425 283.303C39.0584 283.014 35.8982 284.505 33.2864 286.362C33.292 286.358 33.2976 286.354 33.3033 286.35C31.9138 287.48 30.1957 287.688 28.5152 287.995C27.6646 288.751 28.7874 289.509 29.6286 289.209L29.6305 289.211Z" fill="#F8F8F9"/>
        <path d="M24.2296 289.251C24.6446 289.138 25.7994 289.487 25.7055 288.806C25.4652 288.418 24.8869 288.791 24.5 288.671C24.5076 288.671 24.5151 288.671 24.5245 288.671C22.29 288.493 20.1194 287.793 17.9863 287.133C18.0126 287.142 18.037 287.15 18.0633 287.159C17.6709 286.987 17.04 286.846 16.9573 287.431C16.5405 288.585 23.3171 289.35 24.2296 289.252V289.251Z" fill="#F8F8F9"/>
        <path d="M39.2536 300.48C41.7903 300.073 44.0661 298.689 46.2836 297.456C46.847 297.068 47.9754 296.971 47.6994 296.038C47.2732 294.785 45.8593 295.541 45.1195 296.063C43.76 296.924 42.2672 297.548 40.8477 298.299C37.1881 300.152 33.6618 297.693 30.7645 295.592C30.1956 295.117 27.6231 293.833 27.5856 295.125C27.6607 295.297 27.8522 295.408 28.0362 295.352C28.8192 295.174 29.5271 295.83 30.0998 296.28C30.0998 296.28 30.096 296.278 30.096 296.277C30.1223 296.299 30.1486 296.322 30.1749 296.344C30.1599 296.331 30.1468 296.32 30.1317 296.307C32.6309 298.636 35.6052 301.011 39.2554 300.48H39.2536Z" fill="#F8F8F9"/>
        <path d="M61.3619 297.948C62.1449 295.926 56.617 294.979 55.2163 295.241C53.8174 295.335 54.1516 296.624 55.0435 296.383C56.7635 296.096 58.6055 296.8 60.0701 297.678C60.4362 297.944 60.947 298.387 61.3619 297.948Z" fill="#F8F8F9"/>
        <path d="M71.6681 300.504C73.7655 300.482 77.0326 297.978 75.3746 295.839C74.7944 295.684 75.354 296.654 74.7043 297.16C74.7193 297.141 74.7344 297.122 74.7475 297.104C74.6442 297.237 74.5428 297.372 74.4396 297.507C74.4452 297.499 74.4527 297.492 74.4583 297.483C74.432 297.516 74.4077 297.55 74.3814 297.584C74.3983 297.563 74.4152 297.541 74.4302 297.52C73.6641 298.465 72.3872 298.822 71.225 298.991C70.2579 299.21 70.8006 300.679 71.6681 300.504V300.504Z" fill="#F8F8F9"/>
        <path d="M6.4172 293.442C7.4781 293.108 6.48293 291.934 6.54302 291.203C6.4097 288.8 9.27129 287.808 11.2729 287.967C11.4851 287.997 11.6578 287.823 11.6522 287.614C11.502 286.483 6.71952 287.496 6.35525 288.474C5.54596 289.293 5.02208 290.334 5.24177 291.505C5.34316 292.227 5.40513 293.536 6.41532 293.44L6.4172 293.442Z" fill="#F8F8F9"/>
        <path d="M182.405 223.906C187.81 223.734 189.671 219.997 193.121 216.685C193.098 216.706 193.076 216.728 193.053 216.749C195.532 214.567 196.735 214.633 199.593 215.936C202.672 216.492 205.97 216.734 208.918 215.443C214.288 212.731 214.562 205.243 210.936 200.969C208.968 198.684 206.054 197.426 203.162 196.773C198.382 195.736 193.78 197.534 189.161 198.478C186.592 198.65 183.745 198.264 182.298 195.899C179.519 192.502 175.718 189.649 171.133 189.784C163.678 188.901 160.678 194.937 153.563 194.702C147.801 194.059 144.481 188.265 138.786 187.391C138.84 187.4 138.893 187.411 138.947 187.421C129.72 185.388 115.767 194.545 123.443 204.257C126.359 207.804 131.222 207.01 135.051 208.717C139.642 210.523 141.071 215.529 144.667 218.469C149.735 222.612 156.536 218.81 160.909 215.394C164.535 212.753 168.016 214.594 170.256 217.951C173.27 221.4 177.585 224.593 182.41 223.906H182.405ZM180.313 221.64C175.104 221.477 172.126 216.743 168.727 213.519C164.869 210.647 160.659 212.369 157.388 215.19C153.543 217.681 147.739 219.845 144.453 215.378C139.432 207.931 136.779 206.296 127.931 204.694C119.677 201.449 124.59 191.988 131.345 190.426C135.243 188.981 139.727 189.297 143.187 191.682C145.121 193.007 146.759 194.803 148.978 195.67C154.797 198.785 160.469 196.058 165.513 192.845C171.608 190.443 177.532 192.179 181.272 197.57C183.09 200.339 186.735 200.815 189.801 200.671C194.662 199.819 199.649 197.698 204.561 199.498C214.558 202.458 212.731 216.002 201.636 214.232C199.734 214.248 198.258 212.952 196.487 212.53C189.26 212.77 188.424 222.297 180.313 221.638V221.64Z" fill="#F8F8F9"/>
        <path d="M183.608 218.801C188.619 218.41 189.702 213.779 193.45 211.514C193.42 211.534 193.388 211.555 193.358 211.575C194.983 210.523 197.029 209.874 198.963 210.261C198.943 210.257 198.924 210.253 198.903 210.249C203.875 212.547 198.023 205.633 190.206 211.485C187.802 213.817 186.05 216.833 182.287 216.951C181.317 217.236 179.578 216.03 179.212 217.405C179.323 219.215 182.314 218.911 183.608 218.799V218.801Z" fill="#F8F8F9"/>
        <path d="M176.437 214.092C176.471 213.974 176.399 213.864 176.305 213.8C175.75 213.32 175.455 212.644 175.053 212.046C175.06 212.057 175.068 212.069 175.077 212.082C175.042 212.029 175.006 211.977 174.968 211.924C174.987 211.95 175.006 211.979 175.023 212.005C174.277 211.09 173.547 209.96 172.343 209.634C171.724 209.454 170.642 209.053 170.505 210.011C170.421 211.245 171.966 211.071 172.704 211.573C173.481 211.904 175.879 214.631 176.435 214.092H176.437Z" fill="#F8F8F9"/>
        <path d="M155.772 201.455C159.162 201.222 161.664 198.84 164.549 197.388C168.176 196.015 173.393 194.901 176.314 198.142C176.808 199.091 177.907 198.14 177.08 197.473C172.901 192.722 164.789 193.798 160.249 197.506C158.683 198.452 157.064 199.316 155.241 199.635C154.084 199.903 154.721 201.659 155.772 201.453V201.455Z" fill="#F8F8F9"/>
        <path d="M149.651 199.112C149.664 198.994 149.578 198.86 149.46 198.834C148.337 198.44 147.212 198.024 146.14 197.501C146.164 197.512 146.19 197.525 146.215 197.536C143.885 196.096 142.321 193.507 139.602 192.586C138.522 192.333 135.709 190.973 135.497 192.759C135.642 194.535 138.682 193.723 139.919 194.717C141.757 195.597 143.115 197.217 144.87 198.228C146.044 198.62 148.63 199.524 149.651 199.114V199.112Z" fill="#F8F8F9"/>
        <path d="M128.826 198.423C128.707 197.48 129.305 196.253 130.272 196.025C130.262 196.025 130.255 196.025 130.245 196.026C130.91 195.912 130.546 194.901 129.96 195.062C129.969 195.06 129.979 195.057 129.988 195.055C128.542 195.349 126.982 196.623 127.11 198.219C127.066 199.264 128.809 199.637 128.826 198.423V198.423Z" fill="#F8F8F9"/>
        <path d="M150.978 212.288C151.731 212.273 151.883 211.273 151.375 210.836C150.886 210.375 150.141 210.647 149.557 210.395C147.794 209.803 146.324 208.679 145.049 207.353C143.569 205.808 141.83 204.51 139.767 203.859C139.175 203.748 137.827 203.054 137.628 203.917C137.649 204.482 138.244 204.431 138.653 204.465C139.622 204.744 140.525 205.211 141.372 205.749C141.361 205.742 141.351 205.736 141.34 205.729C141.348 205.734 141.357 205.74 141.365 205.746C141.361 205.742 141.355 205.74 141.351 205.736C141.376 205.751 141.398 205.768 141.423 205.783C141.417 205.78 141.413 205.778 141.408 205.774C144.42 208.137 146.647 212.281 150.978 212.288V212.288Z" fill="#F8F8F9"/>
        <path d="M207.297 204.827C207.665 203.182 203.631 200.873 202.244 201.029C201.344 201.847 202.531 202.432 203.31 202.522C204.435 202.967 205.68 203.385 206.506 204.308C206.529 204.688 206.906 205.272 207.297 204.827Z" fill="#F8F8F9"/>
        <path d="M101.912 124.311C108.844 125.02 112.708 117.87 119.044 116.649C121.282 116.294 122.904 118.095 124.857 118.841C127.136 119.689 129.568 120.203 132.007 120.175C139.561 120.267 146.781 113.447 141.936 106.061C141.942 106.07 141.95 106.079 141.955 106.087C141.905 106.012 141.852 105.939 141.801 105.865C141.831 105.909 141.861 105.952 141.891 105.993C141.816 105.886 141.743 105.777 141.668 105.67C141.689 105.7 141.709 105.73 141.73 105.762C137.385 99.854 131.585 100.126 125.088 101.452C123.116 101.638 120.816 101.302 119.522 99.657C116.188 95.2323 111.037 91.2184 105.177 92.1619C102.713 92.7358 100.644 94.3395 98.1637 94.8985C95.4091 95.8869 92.801 94.7428 90.5234 93.1972C87.1191 91.3403 83.3975 89.9336 79.4844 89.7967C69.5063 89.0145 61.2314 99.2275 66.6203 108.418C70.5409 113.481 74.5724 113.197 80.2073 111.761C82.269 111.612 84.4772 112.291 85.8235 113.918C89.4812 119.441 94.9209 124.298 101.912 124.314V124.311ZM101.245 122.343C87.2881 121.523 89.5169 107.021 76.5383 110.695C67.3019 112.867 63.3776 100.404 69.91 94.9041C73.1416 91.6723 77.9616 90.8808 82.3235 91.768C90.5684 93.1016 92.9963 99.6664 101.928 95.2004C106.024 92.462 111.204 93.8781 114.685 96.9654C116.787 98.6254 117.973 101.328 120.399 102.568C125.417 105.053 131.16 100.876 136.153 103.48C140.316 105.23 143.608 110.849 139.863 114.589C136.063 118.307 130.285 118.282 125.497 116.754C124.746 115.915 123.456 115.688 122.444 115.246C122.487 115.259 122.53 115.274 122.572 115.289C121.851 115.021 121.122 114.78 120.36 114.666C120.405 114.675 120.452 114.683 120.497 114.692C112.907 113.469 108.852 123.288 101.245 122.343V122.343Z" fill="#F8F8F9"/>
        <path d="M106.809 117.108C112.322 115.927 113.657 112.428 120.582 112.271C120.571 112.271 120.559 112.273 120.55 112.275C120.574 112.273 120.597 112.271 120.621 112.267C120.612 112.267 120.604 112.269 120.595 112.271C122.197 112.061 123.765 112.56 125.207 113.218C125.781 113.666 126.322 113.19 125.608 112.852C125.608 112.852 125.612 112.852 125.612 112.854C123.554 111.665 121.325 110.95 118.93 111.23C116.616 111.374 114.102 111.671 112.11 112.935C110.375 114.081 108.491 115.077 106.477 115.615C105.585 115.812 105.998 117.17 106.811 117.11L106.809 117.108Z" fill="#F8F8F9"/>
        <path d="M101.942 116.997C102.658 116.838 102.275 115.823 101.634 115.999C99.3022 115.718 96.4988 115.09 95.2464 112.903C94.8052 112.173 94.4277 111.4 93.7724 110.828C92.9838 109.999 91.8159 111.115 92.5594 111.965C94.67 115.684 97.663 117.303 101.944 116.995L101.942 116.997Z" fill="#F8F8F9"/>
        <path d="M90.0466 109.022C91.1639 108.094 85.9401 104.933 85.7186 106.664C85.7411 107.985 87.908 107.647 88.7604 108.358C89.2599 108.463 89.5077 109.247 90.0485 109.024L90.0466 109.022Z" fill="#F8F8F9"/>
        <path d="M97.6817 101.051C100.675 100.588 103.36 98.755 106.451 98.8919C107.479 98.9088 108.435 99.329 109.355 99.6966C109.999 99.6253 109.757 98.7644 109.228 98.7006C109.231 98.7006 109.235 98.7044 109.239 98.7062C107.387 97.7215 105.254 97.4439 103.196 97.8022C101.182 98.3742 99.1331 98.9144 97.1766 99.6666C96.3861 99.9854 96.9231 101.195 97.6798 101.051H97.6817Z" fill="#F8F8F9"/>
        <path d="M93.0117 99.5499C93.8303 99.6118 93.8416 98.5801 93.0643 98.7002C90.2271 98.5445 88.3944 96.2937 85.9328 95.264C85.5835 95.1477 85.2042 95.3765 85.1104 95.7216C84.8963 96.7307 86.1618 96.8677 86.7815 97.301C88.7061 98.4507 90.6552 99.7581 93.0136 99.5499H93.0117Z" fill="#F8F8F9"/>
        <path d="M76.2514 107.938C77.1133 107.779 81.1672 107.876 80.6546 106.543C80.2809 104.918 76.98 107.482 74.5202 106.404H74.5239C73.7109 106.16 72.9917 105.717 72.3758 105.138C72.4059 105.162 72.4359 105.188 72.466 105.215C68.5209 102.354 70.9676 98.164 74.5014 96.3615C74.4976 96.3615 74.492 96.3652 74.4882 96.3671C75.8421 95.7688 77.4794 95.3242 78.9234 95.8156C79.4003 95.992 79.4848 95.2567 79.0492 95.161C74.8338 93.6005 69.0373 96.2039 68.7613 101.002C68.5979 104.871 72.5561 108.017 76.2476 107.94L76.2514 107.938Z" fill="#F8F8F9"/>
        <path d="M138.161 111.492C139.436 109.84 139.051 106.605 136.923 105.894C136.935 105.894 136.948 105.894 136.959 105.894C136.255 105.811 136.416 106.89 137.027 106.839C138.272 108.296 137.436 109.542 136.736 110.904C136.719 111.598 137.712 112.141 138.163 111.491L138.161 111.492Z" fill="#F8F8F9"/>
        <path d="M215.518 188.736C215.518 188.736 215.514 188.736 215.514 188.738C215.554 188.723 215.593 188.7 215.629 188.676C215.625 188.676 215.621 188.68 215.619 188.682C215.646 188.663 215.67 188.638 215.693 188.612C215.679 188.638 215.655 188.653 215.634 188.674C216.226 187.196 215.467 185.264 215.439 183.66C215.103 181.016 214.91 178.352 214.465 175.723C213.595 168.824 212.544 162.222 204.201 161.683C202.472 161.543 201.492 161.029 201.095 159.266C200.474 157.551 199.89 155.822 199.496 154.04C198.277 149.28 197.836 143.818 194.516 139.973C189.178 134.434 181.021 133.946 177.592 141.728C174.226 148.297 175.837 156.859 171.55 162.957C169.244 164.534 166.698 159.534 161.912 162.186C156.664 165.866 156.547 173.314 155.648 179.101C155.635 181.38 154.596 183.882 155.308 186.063C155.779 186.74 156.987 186.545 156.943 185.626C156.895 183.713 157.255 181.811 157.396 179.907C158.106 172.793 159.14 158.18 169.753 164.615C176.128 166.217 176.447 151.365 177.459 147.256C179.226 137.484 186.466 133.775 193.793 141.518C196.63 145.894 196.78 151.442 198.226 156.349C200.665 164.707 201.003 162.1 207.915 164.596C212.651 166.86 212.675 179.855 214.194 184.927C214.581 185.741 214.436 189.068 215.52 188.738L215.518 188.736Z" fill="#F8F8F9"/>
        <path d="M193.129 149.24C193.92 149.083 193.118 146.556 193.082 145.888C193.022 145.667 192.788 145.491 192.555 145.532C191.911 145.815 192.57 146.764 192.465 147.312C192.463 147.291 192.461 147.271 192.459 147.25C192.621 147.861 192.322 149.084 193.129 149.24V149.24Z" fill="#F8F8F9"/>
        <path d="M190.372 144.834C190.648 144.354 190.377 142.45 189.577 142.598C189.059 142.711 189.239 143.234 189.328 143.594C189.247 144.243 189.508 145.445 190.372 144.834V144.834Z" fill="#F8F8F9"/>
        <path d="M190.139 151.018C190.453 150.498 190.087 149.819 190.207 149.236C190.207 149.26 190.205 149.285 190.203 149.309C190.24 148.801 190.425 147.906 189.675 147.871C189.037 147.974 189.292 148.878 189.129 149.345C188.962 150.05 189.058 151.714 190.139 151.02V151.018Z" fill="#F8F8F9"/>
        <path d="M186.61 143.414C186.658 142.876 186.587 142.328 186.446 141.807C186.337 141.321 185.547 141.405 185.705 141.938C185.735 142.338 185.609 142.743 185.558 143.139C185.438 143.763 186.503 144.142 186.61 143.412V143.414Z" fill="#F8F8F9"/>
        <path d="M186.23 148.231C186.338 147.616 186.312 146.14 185.345 146.747C185.109 147.096 185.336 147.563 185.202 147.961C185.094 148.574 186.122 148.942 186.23 148.229V148.231Z" fill="#F8F8F9"/>
        <path d="M185.984 154.967C185.941 154.053 186.66 152.273 185.276 152.123C184.251 152.221 184.842 153.965 184.636 154.711C184.589 155.471 185.864 155.844 185.984 154.967Z" fill="#F8F8F9"/>
        <path d="M206.399 175.567C207.321 175.417 206.696 174.198 206.637 173.605C206.444 173.093 206.442 171.932 205.695 172.011C205.205 172.264 205.71 172.896 205.667 173.312C205.815 174.044 205.31 175.456 206.399 175.567Z" fill="#F8F8F9"/>
        <path d="M204.579 169.657C204.88 169.281 204.403 167.477 203.806 167.578C203.363 167.685 203.59 168.222 203.595 168.539C203.502 169.133 203.825 170.217 204.577 169.657H204.579Z" fill="#F8F8F9"/>
        <path d="M200.897 169.773C201.242 169.111 200.673 168.302 200.671 167.589C200.686 167.333 200.444 167.087 200.185 167.132C199.706 167.299 200.031 167.978 199.922 168.366C199.807 169.022 199.933 170.407 200.897 169.773Z" fill="#F8F8F9"/>
        <path d="M203.355 175.346C203.312 174.29 203.027 173.228 202.467 172.328C202.467 172.329 202.471 172.333 202.471 172.335C201.35 171.482 202.281 174.687 202.105 175.199C202.075 175.961 203.35 176.231 203.355 175.347V175.346Z" fill="#F8F8F9"/>
        <path d="M204.664 182.705C204.551 181.691 204.775 179.537 203.41 179.427C202.999 179.5 202.839 179.965 203.002 180.32C203.216 180.97 203.077 181.723 203.1 182.409C203.04 183.291 204.533 183.724 204.664 182.705V182.705Z" fill="#F8F8F9"/>
        <path d="M198.055 177.225C198.504 176.861 197.987 174.205 197.268 174.389C196.833 174.725 197.336 175.484 197.171 175.989C196.992 176.595 197.236 177.664 198.057 177.225H198.055Z" fill="#F8F8F9"/>
        <path d="M194.064 177.981C193.887 177.268 194.503 175.831 193.538 175.619C192.907 175.692 193.225 177.247 193.012 177.782C192.905 178.455 194.034 178.776 194.062 177.981H194.064Z" fill="#F8F8F9"/>
        <path d="M194.391 184.403C194.365 183.572 194.784 181.798 193.518 181.803C192.658 182.13 193.269 183.431 193.098 184.157C193.06 184.887 194.275 185.243 194.391 184.401V184.403Z" fill="#F8F8F9"/>
        <path d="M176.051 173.712C175.972 172.907 176.347 171.003 175.301 170.833C175.072 170.874 174.958 171.12 175.025 171.331C175.234 172.04 175.087 172.802 175.102 173.532C175.07 174.066 175.968 174.329 176.051 173.712V173.712Z" fill="#F8F8F9"/>
        <path d="M173.198 170.178C173.314 169.521 173.605 168.675 173.156 168.09C172.916 167.826 172.413 167.852 172.3 168.218C172.302 168.21 172.304 168.201 172.308 168.193C172.186 168.593 172.173 169.03 172.075 169.439C172.075 169.429 172.079 169.422 172.081 169.412C172.075 169.441 172.069 169.469 172.064 169.497C172.064 169.493 172.064 169.489 172.066 169.486C171.694 170.225 172.847 171.072 173.2 170.176L173.198 170.178Z" fill="#F8F8F9"/>
        <path d="M167.701 171.887C168.261 171.21 168.026 170.099 168.366 169.287C168.559 168.702 167.568 168.203 167.365 168.876C167.305 169.67 166.118 172.157 167.701 171.887V171.887Z" fill="#F8F8F9"/>
        <path d="M168.16 177.307C167.974 176.517 168.468 174.792 167.36 174.67C167.105 174.717 166.958 175 167.045 175.24C167.174 175.876 166.987 176.527 166.97 177.166C166.928 177.89 168.156 178.151 168.16 177.307V177.307Z" fill="#F8F8F9"/>
        <path d="M172.891 181.315C173.683 177.512 170.82 177.69 171.682 179.271C171.815 180.076 171.141 181.413 172.176 181.792C172.499 181.878 172.863 181.674 172.893 181.315H172.891Z" fill="#F8F8F9"/>
        <path d="M177.936 184.671C178.278 184.277 178.006 183.647 178.017 183.169C178.017 183.186 178.021 183.205 178.021 183.221C178.03 182.723 177.206 182.554 177.202 183.13C177.18 183.709 176.913 185.097 177.936 184.671V184.671Z" fill="#F8F8F9"/>
        <path d="M165.868 182.623C165.964 181.76 165.605 179.701 164.409 180.77C164.161 181.289 164.512 181.892 164.419 182.452C164.379 183.336 165.849 183.653 165.868 182.623Z" fill="#F8F8F9"/>
        <path d="M25.325 259.986C26.5061 258.91 25.9672 255.061 26.4272 253.371C27.2421 248.77 27.5444 243.732 29.8897 239.615C32.5372 236.222 37.4023 236.77 40.8911 234.86C46.7739 231.227 46.0773 220.791 48.3681 214.798C52.8952 202.775 63.889 207.796 65.5639 192.828C65.5546 192.879 65.5452 192.932 65.5358 192.982C67.1243 184.752 65.8381 176.236 67.4792 167.989C68.0819 163.326 68.6452 158.648 70.5943 154.316C71.5162 151.845 72.6541 149.368 74.7046 147.629C74.7008 147.633 74.697 147.636 74.6933 147.64C81.5487 140.792 92.5032 148.632 95.2296 156.019C98.2095 163.825 95.6427 172.303 96.6886 180.385C97.5955 190.966 106.494 194.402 108.616 202.989C109.324 206.536 109.423 210.184 110.259 213.706C111.902 220.93 117.12 226.369 122.227 231.415C127.854 237.171 133.014 244.285 133.343 252.604C132.797 253.296 133.94 254.408 134.575 253.712C135.147 252.677 134.84 251.364 134.8 250.229C133.666 239.636 125.701 231.835 118.78 224.439C115.345 220.727 112.919 216.055 112.219 211.026C111.639 207.384 111.545 203.602 110.21 200.127C107.311 193.339 99.9539 188.936 99.1239 181.164C97.8133 169.747 102.303 156.557 92.1164 147.942C84.7277 141.197 75.2547 140.554 70.1906 150.279C68.0519 154.706 66.4389 159.404 65.962 164.317C65.164 169.191 64.4054 174.068 64.3547 179.018C63.9229 185.648 64.5031 192.902 61.2171 198.906C59.2155 202.394 55.1202 203.623 52.0239 205.898C47.4574 209.389 45.529 215.094 44.6915 220.581C44.6915 220.575 44.6934 220.569 44.6953 220.564C43.702 224.409 43.3997 228.984 40.6132 232.009C39.3119 233.232 37.5563 233.671 35.8457 233.965C31.5927 234.834 27.1445 237.085 26.3559 241.764C25.0847 246.433 24.2435 251.212 23.7121 256.019C23.4717 257.479 22.8014 260.697 25.325 259.988V259.986Z" fill="#F8F8F9"/>
        <path d="M87.6688 162.733C87.9786 161.073 87.5167 159.196 86.2399 158.059C85.0513 157.844 85.8625 159.078 86.0427 159.61C86.0333 159.582 86.0221 159.554 86.0127 159.526C86.4333 160.464 86.3563 161.475 86.3037 162.475C86.2549 163.244 87.5467 163.624 87.6707 162.733H87.6688Z" fill="#F8F8F9"/>
        <path d="M88.3478 172.489C88.7835 171.956 88.6933 167.179 87.6456 167.391C87.3771 167.439 87.2776 167.724 87.3602 167.959C87.5742 168.865 86.6072 173.273 88.3497 172.489H88.3478Z" fill="#F8F8F9"/>
        <path d="M81.3589 166.577C81.4078 165.993 81.4359 165.395 81.2913 164.821C81.2913 164.827 81.2932 164.832 81.2951 164.838C81.1393 164.36 81.0886 163.469 80.4032 163.533C80.1328 163.581 79.9863 163.878 80.0727 164.131C80.6717 164.981 79.7892 166.53 80.7581 166.978C81.0285 167.049 81.3364 166.879 81.3589 166.579V166.577Z" fill="#F8F8F9"/>
        <path d="M83.007 180.449C83.206 180.295 83.2473 180.057 83.2492 179.821C83.2492 179.828 83.2492 179.838 83.2492 179.845C83.2267 178.754 83.5271 175.706 81.9085 175.811C81.1255 176.15 81.8203 176.957 81.8184 177.534C81.9592 178.48 81.2494 181.096 83.0088 180.449H83.007Z" fill="#F8F8F9"/>
        <path d="M87.2578 185.673C87.1489 184.802 87.0438 182.921 85.8045 183.11C84.8581 183.602 85.9528 184.709 85.7932 185.5C85.7688 186.393 87.2353 186.712 87.2559 185.673H87.2578Z" fill="#F8F8F9"/>
        <path d="M93.1092 179.106C93.0153 178.174 92.8707 175.409 91.5319 175.658C90.8653 176.214 91.9112 177.056 91.7779 177.791C91.8811 178.44 91.5976 179.53 92.4876 179.682C92.8256 179.725 93.1185 179.453 93.1092 179.106V179.106Z" fill="#F8F8F9"/>
        <path d="M93.0876 165.517C93.9457 165.371 93.3673 164.202 93.3242 163.638C93.1477 163.113 93.2077 161.995 92.3853 162.154C91.8126 162.45 92.2858 163.248 92.2783 163.745C92.4529 164.341 92.2276 165.463 93.0894 165.517H93.0876Z" fill="#F8F8F9"/>
        <path d="M86.2513 153.057C87.4868 152.963 85.872 149.37 84.95 150.101C84.443 150.553 85.0758 151.056 85.2843 151.482C85.6523 151.98 85.4326 153.025 86.2513 153.057Z" fill="#F8F8F9"/>
        <path d="M79.971 153.683C80.0105 152.85 79.8377 152.038 79.5035 151.277C79.404 151.012 79.0754 150.828 78.8031 150.924C78.1403 151.245 78.805 152.001 78.8613 152.498C79.0435 153.044 78.7017 154 79.4735 154.145C79.7476 154.18 79.971 153.961 79.971 153.683V153.683Z" fill="#F8F8F9"/>
        <path d="M75.0268 165.817C75.0794 164.838 75.5883 162.76 74.2382 162.544C73.919 162.602 73.8045 162.934 73.8927 163.212C73.889 163.202 73.8871 163.195 73.8833 163.185C74.3584 164.144 73.0703 165.764 74.3152 166.288C74.6382 166.376 74.9855 166.17 75.0268 165.815V165.817Z" fill="#F8F8F9"/>
        <path d="M75.9219 175.327C75.8148 174.582 75.905 173.033 74.8779 173.02C73.9785 173.365 74.9323 174.507 74.8065 175.193C74.7896 175.872 75.9031 176.118 75.9219 175.327V175.327Z" fill="#F8F8F9"/>
        <path d="M67.412 217.056C67.4364 216.017 67.3444 214.97 67.5321 213.943C67.7011 213.481 67.3857 212.93 66.8918 212.872C65.7464 212.714 66.2647 216.107 66.1577 216.908C66.1351 217.671 67.3876 217.949 67.412 217.056Z" fill="#F8F8F9"/>
        <path d="M73.6445 218.733C73.5751 217.66 73.8867 214.376 72.3715 214.391C71.3162 214.755 72.3414 216.054 72.225 216.835C72.3959 217.619 71.8889 218.909 72.8766 219.243C73.2202 219.335 73.6164 219.115 73.6445 218.733V218.733Z" fill="#F8F8F9"/>
        <path d="M69.1453 207.631C69.1622 206.599 69.8814 205.181 68.9988 204.371C68.6815 204.12 68.199 204.127 67.9417 204.448C67.9492 204.437 67.9586 204.427 67.9661 204.416C67.6037 205.241 67.8535 206.314 67.615 207.23C67.4648 208.141 68.9575 208.693 69.1453 207.631V207.631Z" fill="#F8F8F9"/>
        <path d="M70.1589 224.838C70.2697 223.947 70.4499 220.262 68.7994 221.698C68.8201 222.636 68.9308 223.623 68.8726 224.596C68.8388 225.32 70.0368 225.677 70.157 224.84L70.1589 224.838Z" fill="#F8F8F9"/>
        <path d="M69.1656 233.708C68.9497 232.645 69.7947 230.675 68.4634 230.242C67.1621 230.248 68.0972 232.709 67.9414 233.564C67.9245 234.309 69.1431 234.579 69.1656 233.708Z" fill="#F8F8F9"/>
        <path d="M78.5466 229.355C78.5523 228.227 78.9184 225.245 77.604 224.879C77.3693 224.923 77.2379 225.181 77.3149 225.403C77.7298 226.586 77.6097 227.865 77.559 229.096C77.4632 229.685 78.4377 230.039 78.5466 229.355V229.355Z" fill="#F8F8F9"/>
        <path d="M58.5248 220.69C58.6994 219.714 59.3472 217.529 57.8976 217.347C57.5784 217.403 57.4113 217.75 57.5089 218.049C57.7286 218.75 57.4733 219.5 57.37 220.206C57.37 220.206 57.37 220.204 57.37 220.202C57.1541 220.888 58.2694 221.474 58.5229 220.69H58.5248Z" fill="#F8F8F9"/>
        <path d="M59.8224 234.456C59.7942 233.481 60.442 231.504 59.1877 231.168C58.2413 231.401 59.0394 232.778 58.7953 233.481C58.7671 233.971 58.5831 234.687 59.2196 234.858C59.4938 234.933 59.7904 234.757 59.8224 234.456V234.456Z" fill="#F8F8F9"/>
        <path d="M103.118 226.504C104.171 226.193 102.727 224.041 102.596 223.306C102.384 222.73 101.48 222.987 101.753 223.599C102.26 224.306 102.275 226.393 103.12 226.504H103.118Z" fill="#F8F8F9"/>
        <path d="M100.48 215.927C101.655 215.942 100.824 212.885 99.8059 213.224C99.1074 213.363 99.2314 214.154 99.4961 214.629C99.667 215.158 99.759 215.944 100.48 215.927Z" fill="#F8F8F9"/>
        <path d="M95.28 209.304C95.5091 208.293 95.8208 205.75 94.2417 205.911C93.5751 206.358 94.4745 207.005 94.3055 207.599C94.3562 208.265 93.7497 209.257 94.5628 209.632C94.8369 209.745 95.2162 209.631 95.28 209.306V209.304Z" fill="#F8F8F9"/>
        <path d="M96.8779 220.851C96.893 219.995 96.7446 217.979 95.4978 218.304C94.805 218.863 95.7776 219.902 95.5542 220.695C95.526 221.502 96.8535 221.79 96.8761 220.853L96.8779 220.851Z" fill="#F8F8F9"/>
        <path d="M97.8311 233.611C97.6227 232.512 98.4507 229.503 97.2734 229.077C96.9354 229.027 96.6876 229.359 96.7608 229.676C96.8378 230.942 96.5674 232.199 96.6237 233.468C96.5956 234.202 97.8142 234.468 97.8311 233.611Z" fill="#F8F8F9"/>
        <path d="M106.57 234.273C107.437 234.008 106.773 232.898 106.628 232.318C106.448 231.816 106.309 230.998 105.599 231.101C105.259 231.163 105.068 231.538 105.181 231.859C105.616 232.605 105.449 234.267 106.57 234.273V234.273Z" fill="#F8F8F9"/>
        <path d="M110.516 230.743C111.336 230.482 110.666 229.447 110.557 228.891C110.273 228.291 110.161 227.051 109.239 227.267C108.332 227.774 109.423 228.871 109.554 229.572C109.729 230.041 109.845 230.838 110.514 230.743H110.516Z" fill="#F8F8F9"/>
        <path d="M113.913 244.266C114.615 243.608 113.579 239.481 112.364 240.988C112.195 241.642 112.786 242.25 112.794 242.916C112.7 243.6 113.013 244.771 113.913 244.264V244.266Z" fill="#F8F8F9"/>
        <path d="M107.831 249.747C107.72 248.755 107.324 245.949 105.949 246.212C104.86 246.804 106.171 248.055 106.261 248.896C106.359 249.483 106.34 250.325 107.11 250.417C107.495 250.464 107.855 250.15 107.831 249.747Z" fill="#F8F8F9"/>
        <path d="M93.3099 243.97C93.3549 243.118 93.5202 241.301 92.3354 241.252C92.0011 241.312 91.8415 241.666 91.9354 241.976C92.1176 242.486 92.1795 243.021 92.1382 243.561C92.1382 243.533 92.142 243.505 92.142 243.476C91.896 244.236 93.1015 244.894 93.3099 243.972V243.97Z" fill="#F8F8F9"/>
        <path d="M10.3544 203.531C11.8491 197.722 9.82304 191.643 11.5806 185.907C11.5749 185.92 11.5712 185.935 11.5655 185.949C15.1726 177.874 22.3078 187.117 23.2598 167.207C23.2561 167.261 23.2542 167.314 23.2523 167.366C23.2579 167.267 23.2617 167.17 23.2673 167.068C23.2636 167.123 23.2617 167.175 23.2598 167.23C23.2748 166.909 23.2899 166.59 23.3068 166.269C23.3049 166.322 23.3011 166.376 23.2992 166.429C23.6992 162.135 23.2692 156.058 28.0723 154.167C34.6856 154.214 36.7454 161.724 37.273 167.126C37.2674 167.064 37.2617 167.003 37.2561 166.941C37.2768 174.569 38.5611 180.98 43.0788 187.295C44.5059 189.638 45.1668 192.371 45.5649 195.059C45.3828 195.4 45.8372 195.845 46.1677 195.604C46.1526 195.614 46.1395 195.623 46.1245 195.633C47.6867 189.934 42.9812 184.683 41.2763 179.448C39.4849 174.678 40.3787 169.488 39.4756 164.566C38.548 160.207 37.0383 155.578 32.9562 153.203C28.8798 150.951 25.6201 151.367 23.0345 155.426C21.6656 157.596 21.6225 160.308 21.2864 162.786C20.693 167.295 21.3765 177.591 16.2523 179.329C8.88983 181.441 8.43731 186.965 8.89171 193.673C9.15647 196.698 8.97995 199.759 8.43542 202.745C8.10495 203.865 9.93196 204.827 10.3526 203.531H10.3544Z" fill="#F8F8F9"/>
        <path d="M30.8359 168.765C30.7496 167.616 30.9448 166.396 30.5693 165.292C30.4116 164.815 29.6398 164.675 29.4877 165.226C29.5309 165.834 29.5929 166.455 29.5291 167.079C29.6042 167.818 29.2192 169.131 30.2107 169.343C30.5486 169.384 30.8472 169.114 30.8341 168.765H30.8359Z" fill="#F8F8F9"/>
        <path d="M35.9367 176.642C36.5695 175.642 35.8409 174.226 35.5442 173.183C35.2231 172.299 33.8393 172.693 34.2543 173.629C34.9509 174.473 34.228 177.317 35.9367 176.642V176.642Z" fill="#F8F8F9"/>
        <path d="M35.054 163.469C35.0465 162.927 34.793 162.441 34.6108 161.942C34.6165 161.955 34.6202 161.968 34.6258 161.983C34.547 161.208 33.3772 161.171 33.6344 162.043C34.0043 162.664 33.5781 163.825 34.4794 164.003C34.7892 164.041 35.0709 163.791 35.054 163.47V163.469Z" fill="#F8F8F9"/>
        <path d="M27.6107 161.132C27.7797 160.314 28.4519 158.523 27.0624 158.519C26.3207 158.823 26.4916 160.001 26.2437 160.674C26.0954 161.436 27.3572 161.991 27.6107 161.132V161.132Z" fill="#F8F8F9"/>
        <path d="M26.8193 174.207C26.8062 173.751 26.8175 173.295 26.8306 172.839C26.8306 172.858 26.8287 172.877 26.8268 172.896C26.84 172.044 27.2418 170.29 25.9237 170.324C25.7284 170.358 25.565 170.489 25.4862 170.669C25.473 171.8 25.4467 172.995 25.5688 174.149C25.6214 174.867 26.8212 175.043 26.8193 174.207V174.207Z" fill="#F8F8F9"/>
        <path d="M31.4591 179.873C31.4177 179.029 31.5154 177.183 30.2517 177.362C29.4068 177.795 30.3231 178.825 30.1804 179.547C30.1804 179.543 30.1804 179.539 30.1804 179.536C30.0339 180.378 31.384 180.892 31.4609 179.873H31.4591Z" fill="#F8F8F9"/>
        <path d="M38.4836 191.379C38.3296 190.435 38.431 188.074 37.0941 188.149C36.3205 188.533 37.1354 189.422 37.1786 190.017C37.4077 190.621 37.1373 191.705 37.9485 191.874C38.2358 191.909 38.5005 191.677 38.4836 191.379V191.379Z" fill="#F8F8F9"/>
        <path d="M27.6319 197.049C28.5952 196.261 28.4112 194.505 28.1089 193.401C27.7972 192.266 26.0678 192.6 26.556 193.804C27.0818 194.794 25.728 197.223 27.6319 197.049Z" fill="#F8F8F9"/>
        <path d="M22.1799 198.301C22.6775 194.605 19.5905 193.633 20.1351 195.903C20.1351 195.901 20.1332 195.899 20.1313 195.897C20.5181 196.531 20.5951 197.266 20.5557 197.994C20.5031 198.909 22.0221 199.361 22.1799 198.301V198.301Z" fill="#F8F8F9"/>
        <path d="M227.512 80.6549C229.001 80.3229 228.233 78.1996 228.58 77.1024C230 75.6881 220.061 75.0129 219.038 74.6265C210.046 73.2948 201.038 72.0831 192.003 71.0646C192.016 71.0646 192.031 71.0684 192.044 71.0684C191.704 71.0309 191.364 70.9933 191.025 70.954C191.064 70.9577 191.102 70.9633 191.141 70.9671C187.731 70.5957 184.314 70.2768 180.9 69.9524C180.962 69.4647 180.887 68.7125 180.237 68.7444C171.515 67.2589 162.557 67.3039 153.754 66.4336C153.604 65.2557 151.95 65.2763 151.03 65.1694C150.536 65.2276 149.86 65.0513 149.576 65.5727C148.857 67.6584 148.904 69.9317 148.775 72.1131C148.887 73.6755 148.035 75.9207 149.13 77.168C150.027 77.8114 152.068 78.8992 152.138 77.0048C152.213 76.9729 152.286 76.9242 152.344 76.8679C159.139 76.821 165.927 77.0367 172.721 77.228C174.088 76.9092 181.122 78.3497 180.656 76.5303C190.165 76.7254 199.613 77.8076 209.077 78.6685C209.041 78.6648 209.005 78.661 208.97 78.6554C212.177 79.0043 215.365 79.5238 218.58 79.8033C218.544 79.7996 218.506 79.7958 218.471 79.7921C221.475 80.1466 224.491 80.6061 227.516 80.653L227.512 80.6549ZM178.887 76.4421V76.4459C178.805 76.4421 178.722 76.4365 178.639 76.429C178.722 76.4328 178.805 76.4384 178.887 76.4421ZM151.696 66.9813C151.674 67.0713 151.651 67.1614 151.629 67.2495C151.631 67.1539 151.634 67.0582 151.64 66.9626C151.659 66.9701 151.678 66.9757 151.696 66.9813V66.9813Z" fill="#8DF53A"/>
        <path d="M226.434 317.805C227.16 306.507 227.294 295.103 228.214 283.775C233.89 284.689 239.273 285.769 245.092 286.219C249.997 286.24 255.069 286.966 259.898 286.957C259.699 292.07 259.658 297.138 259.235 302.298C259.002 305.19 258.907 308.815 258.736 312.04C258.589 314.277 257.93 317.961 261.043 318.209C263.58 318.087 263.129 315.151 263.323 313.343C263.558 310.018 263.603 307.065 263.894 303.852C264.853 289.247 265.105 274.408 266.239 259.512C266.577 251.949 267.506 244.409 267.938 236.869C268.41 228.067 269.301 219.266 269.752 210.475C270.599 199.54 270.272 188.567 270.642 177.591C271.038 168.334 271.958 159.052 272.204 149.912C272.708 142.553 272.503 134.145 272.878 126.518C273.885 113.282 275.141 100.355 275.688 87.0003C275.049 86.7377 274.431 86.4301 273.817 86.1168C273.851 86.1337 273.883 86.1506 273.915 86.1675C273.029 85.706 272.126 85.2709 271.202 84.8901C270.738 96.4798 269.908 108.053 268.922 119.605C268.03 128.201 268.271 137.801 267.856 146.642C267.458 156.011 266.718 165.116 266.128 174.541C265.788 184.741 265.86 194.969 265.217 205.185C257.339 204.047 249.323 205.772 241.506 204.448C241.365 206.054 241.333 207.663 241.236 209.271C248.268 209.524 255.311 209.824 262.333 210.103C262.994 210.659 263.924 210.867 264.757 211.075C263.841 222.987 263.111 234.656 262.254 246.461C251.893 243.869 240.913 244.736 230.414 243.008C230.867 232.199 229.896 220.256 229.947 209.541C229.862 201.622 230.527 192.103 230.484 184.561C231.034 167.766 230.452 150.774 231.436 134.047C231.885 128.769 231.909 123.386 231.917 118.087C231.984 110.705 232.906 102.058 233.25 94.4316C231.693 93.9552 230.114 93.5632 228.567 93.0549C227.863 104.316 227.012 115.613 227.076 126.794C225.81 142.505 226.083 158.369 225.741 174.335C225.275 193.144 224.522 211.148 225.39 229.933C225.707 251.871 223.536 273.139 222.218 295.125C222.006 301.936 221.606 308.634 221.462 315.453C220.855 318.438 224.791 321.534 226.434 317.805V317.805ZM261.764 251.831C261.143 262.331 260.465 272.874 260.056 283.393C249.678 281.174 238.868 281.977 228.595 279.069C229.72 268.404 230.067 257.908 230.354 247.187C234.436 247.665 238.547 247.853 242.646 248.052H242.623C249.126 248.16 255.562 248.988 262.042 248.676C261.939 249.738 261.841 250.777 261.764 251.831V251.831Z" fill="#8DF53A"/>
        <path d="M237.676 206.245C237.736 205.483 237.783 204.722 237.836 203.96C233.455 202.867 233.927 208.526 237.444 209.051C237.528 208.117 237.603 207.181 237.676 206.247V206.245Z" fill="#8DF53A"/>
        <path d="M235.333 60.0975C236.21 48.6916 236.631 37.7228 237.59 26.6283C237.985 18.578 239.46 10.2763 237.979 2.3254C234.331 -1.89858 234.475 11.3998 234.017 13.0729C231.991 29.3461 231.589 45.0547 230.344 61.4086C231.905 62.0895 233.688 62.2658 235.108 63.2655C235.176 62.2714 235.251 61.221 235.331 60.0994L235.333 60.0975Z" fill="#8DF53A"/>
        <path d="M276.232 74.9246C276.284 64.4172 277.37 54.268 277.995 43.8544C278.188 31.9515 278.782 20.0579 279.619 8.19439C279.989 3.33269 272.662 3.34769 274.829 8.39696C273.267 19.5496 273.962 30.7398 273.766 41.9093C273.111 52.6381 271.78 63.5281 271.778 74.2419C273.412 74.4463 274.844 75.296 276.226 76.1382C276.23 75.7312 276.232 75.326 276.234 74.9246H276.232Z" fill="#8DF53A"/>
        <path d="M266.094 176.617C267.844 176.745 269.45 174.974 267.795 173.603C265.807 172.509 263.311 172.594 261.114 172.112C255.949 171.21 250.718 170.836 245.543 170.041C245.383 171.708 245.115 173.383 244.529 174.959C251.657 175.97 258.901 176.392 266.094 176.615V176.617Z" fill="#8DF53A"/>
        <path d="M241.184 174.233C241.207 174.091 241.231 173.948 241.253 173.807C241.244 173.862 241.237 173.916 241.227 173.972C241.242 173.882 241.257 173.792 241.27 173.7C241.261 173.755 241.253 173.809 241.244 173.865C241.481 172.365 241.867 170.878 242.555 169.518C240.288 169.289 237.994 168.993 235.729 168.906C233.159 169.383 233.662 173.147 235.834 173.856C237.519 174.411 239.331 174.331 241.081 174.503C241.115 174.413 241.146 174.323 241.18 174.233H241.184Z" fill="#8DF53A"/>
        <path d="M269.147 138.639C270.134 138.752 270.914 137.844 270.615 136.885C269.669 134.668 266.33 134.948 264.317 134.391C264.248 134.846 264.263 135.306 264.233 135.764C264.169 136.611 264.047 137.452 263.855 138.279C265.619 138.386 267.384 138.534 269.147 138.641V138.639Z" fill="#8DF53A"/>
        <path d="M261.656 133.903C259.322 133.893 259.471 137.236 261.384 137.87C261.478 136.548 261.568 135.225 261.656 133.903Z" fill="#8DF53A"/>
        <path d="M262.584 134.04C262.571 134.038 262.558 134.034 262.547 134.032C262.543 134.094 262.539 134.152 262.539 134.212C262.554 134.154 262.569 134.098 262.586 134.04H262.584Z" fill="#8DF53A"/>
        <path d="M271.706 96.8736C274.42 92.115 258.457 92.0062 255.742 91.3535C255.637 92.8184 255.329 94.2627 255.256 95.7313C258.341 96.1515 261.449 96.3615 264.547 96.6522C266.781 96.6879 269.748 98.2503 271.706 96.8736V96.8736Z" fill="#8DF53A"/>
        <path d="M252.375 94.7128C252.375 94.5553 252.413 94.4034 252.443 94.2496C252.435 94.2814 252.43 94.3133 252.422 94.3471C252.647 93.2236 252.897 92.1038 253.109 90.9765C250.058 90.3745 250.047 94.8029 252.664 95.3318C252.49 95.1836 252.375 94.9623 252.373 94.7128H252.375Z" fill="#8DF53A"/>
        <path d="M252.965 91.7378C252.959 91.7644 252.953 91.7909 252.95 91.8175C252.955 91.7909 252.959 91.7644 252.965 91.7378Z" fill="#8DF53A"/>
        <path d="M265.829 61.5847C268.493 61.2208 271.434 61.2996 273.924 60.3243C274.9 59.4877 274.019 57.9628 272.863 57.914C270.086 57.4489 267.273 57.8672 264.479 57.7715C258.553 57.2276 252.599 57.0231 246.682 56.4023C243.282 55.8058 239.872 55.3857 236.436 55.1024C234.52 54.0821 232.312 55.5357 233.268 57.7171C234.552 60.2624 238.105 59.3414 240.452 59.7841C248.834 61.1552 257.349 61.459 265.831 61.5885L265.829 61.5847Z" fill="#8DF53A"/>
        <path d="M272.886 61.5324C273.855 61.5399 274.463 60.4427 273.821 59.6699C272.709 58.7377 270.922 58.9515 269.549 58.5501C262.525 57.4191 255.442 56.4025 248.314 56.4325C243.981 56.2712 239.777 54.9657 235.422 54.9282C233.165 55.0501 233.76 58.4338 235.743 58.5557C237.491 58.6908 239.255 58.6608 240.993 58.9252C246.099 60.0675 251.296 59.6643 256.471 60.0356C261.967 60.2476 267.403 61.298 272.888 61.5324H272.886Z" fill="#8DF53A"/>
        <path d="M272.37 25.6006C273.768 25.8013 275.815 24.5727 274.473 23.1303C273.526 22.2525 272.099 22.3238 270.901 22.0856C267.936 21.6729 264.949 21.4647 261.975 21.1402C253.921 20.2062 245.894 19.2215 237.784 18.9645C234.172 17.6478 233.62 22.8734 236.975 23.3798C238.188 23.4192 239.401 23.421 240.616 23.4998C240.576 23.4998 240.535 23.4961 240.496 23.4942C251.146 23.7305 261.71 25.4036 272.37 25.6006V25.6006Z" fill="#8DF53A"/>
        <path d="M234.847 82.2287C238.754 81.9417 236.845 78.5317 233.917 79.2389C232.353 79.6684 232.772 82.5494 234.847 82.2287ZM234.537 81.3977C234.389 81.3846 234.242 81.3452 234.103 81.2927C234.74 81.167 235.031 80.368 234.751 79.8147C234.886 79.8578 235.018 79.9104 235.147 79.9629C235.145 79.9629 235.142 79.961 235.14 79.9591C235.575 80.1279 236.048 80.3117 236.326 80.7075C235.975 81.3321 235.187 81.4165 234.535 81.3977H234.537Z" fill="#F8F8F9"/>
        <path d="M234.49 82.992C234.612 82.7594 234.263 82.8363 234.145 82.7575C234.15 82.7575 234.156 82.7613 234.162 82.7631C233.921 82.6637 233.707 82.5118 233.523 82.3299C233.525 82.3317 233.529 82.3355 233.531 82.3374L233.48 82.2867C233.48 82.2867 233.491 82.298 233.497 82.3036C233.362 82.1686 233.228 82.026 233.138 81.8553C232.93 81.5608 232.597 81.9622 232.853 82.1667C233.318 82.5043 233.857 83.2077 234.492 82.992H234.49Z" fill="#F8F8F9"/>
        <path d="M236.484 86.2721C236.995 86.0564 236.478 85.3849 236.412 85.0154C236.452 84.7134 236.116 84.3721 235.819 84.5409C235.567 84.7003 235.573 85.0604 235.778 85.2611C236.011 85.5687 236.024 86.2496 236.482 86.2702L236.484 86.2721Z" fill="#F8F8F9"/>
        <path d="M234.932 85.7601C235.414 85.5556 234.813 84.8935 234.72 84.5672C234.751 84.4584 234.601 84.3721 234.534 84.4715C234.46 84.6459 234.579 84.8429 234.616 85.0155C234.725 85.248 234.599 85.7113 234.932 85.7601Z" fill="#F8F8F9"/>
        <path d="M233.564 85.3399C233.997 85.3662 233.56 84.2258 233.395 84.1301C233.096 84.0832 233.258 85.4224 233.564 85.3399Z" fill="#F8F8F9"/>
        <path d="M242.258 250.285C244.967 248.82 237.586 244.902 236.613 243.644C238.343 235.944 237.49 227.957 238.048 220.13C238.681 201.376 239.101 182.33 244.665 164.262C252.867 166.899 261.534 168.085 269.471 171.553C269.435 171.54 269.401 171.525 269.366 171.51C272.107 172.875 274.995 174.111 277.549 175.786C278.563 178.836 277.746 182.246 276.807 185.226C276.816 185.2 276.824 185.172 276.833 185.146C275.055 190.039 272.44 194.552 270.143 199.209C268.237 203.182 266.444 207.222 263.952 210.866C263.614 211.937 264.876 212.723 265.349 213.569C266.731 215.195 267.926 212.346 269.007 211.65C270.402 215.109 273.247 218.065 276.82 219.256C276.79 219.243 276.758 219.232 276.728 219.219C280.292 221.104 281.285 220.023 278.777 216.812C277.761 215.321 277.002 213.687 276.118 212.123C279.327 205.922 282.457 199.688 285.612 193.46C287.799 189.867 289.365 185.963 291.074 182.13C292.161 179.624 293.357 177.153 293.847 174.443C298.001 161.6 274.12 157.682 265.793 153.865C265.779 153.871 265.764 153.876 265.749 153.882C265.759 153.878 265.77 153.875 265.779 153.871C265.766 153.875 265.755 153.88 265.742 153.884C265.755 154.184 265.488 154.428 265.209 154.49C259.611 156.956 253.201 157.309 247.141 157.652C245.624 157.791 243.809 157.9 242.419 157.307C240.861 155.574 239.372 153.79 237.939 151.95C237.539 154.047 237.53 156.396 236.585 158.305C233.192 159.293 229.345 159.136 225.83 158.804C225.129 168.625 226.138 178.525 226.32 188.362C226.663 197.116 226.596 205.9 226.691 214.661C226.476 219.825 226.528 224.992 226.263 230.154C226.085 235.89 225.405 241.618 225.775 247.359C225.933 249.057 228.252 248.535 229.442 248.796C230.622 248.434 230.439 246.742 230.74 245.761C233.622 248.824 238.168 250.025 242.252 250.28L242.258 250.285ZM266.046 212.337C266.046 212.337 266.039 212.329 266.037 212.324C266.117 212.245 266.192 212.161 266.264 212.074C266.192 212.163 266.119 212.251 266.046 212.337V212.337Z" fill="#F8F8F9"/>
        <path d="M253.152 101.921C253.17 101.87 253.18 101.818 253.18 101.763C252.945 101.728 252.71 101.681 252.476 101.647C252.598 101.876 252.962 102.309 253.152 101.921Z" fill="#F8F8F9"/>
        <path d="M234.718 100.484C234.836 100.379 234.956 100.274 235.078 100.173C234.475 100.086 233.869 100.043 233.261 100.04C233.199 100.141 233.14 100.244 233.084 100.347C233.283 100.394 233.486 100.433 233.687 100.465C233.997 100.508 234.31 100.531 234.62 100.578C234.652 100.546 234.684 100.514 234.718 100.484Z" fill="#F8F8F9"/>
        <path d="M277.956 86.3359C278.166 85.9758 278.476 85.6869 278.752 85.3793C277.565 84.7585 276.348 84.1995 275.096 83.725C275.128 83.7381 275.16 83.7512 275.192 83.7644C273.68 83.1398 271.983 83.0028 270.527 82.2395C270.554 82.2357 270.582 82.232 270.61 82.2263C270.588 82.2301 270.567 82.2338 270.546 82.2357C271.183 82.08 271.804 82.2282 272.431 82.3107C273.842 81.5717 271.459 80.7689 270.899 80.3469C271.72 80.1912 272.482 80.7652 273.263 80.6827C274.219 79.8968 272.636 79.4035 272.026 79.199C272.03 79.199 272.033 79.2028 272.035 79.2028C272.018 79.1953 272.001 79.1896 271.985 79.1821C271.99 79.184 271.996 79.1859 272.001 79.1896C271.66 79.0246 271.23 78.912 271.006 78.5894C271.064 78.52 271.141 78.4731 271.218 78.43C271.202 78.4394 271.185 78.4469 271.168 78.4544C272.05 78.2331 272.972 78.8389 273.857 78.9008C275.505 77.9254 272.174 77.2934 271.765 76.5693C275.242 76.56 277.82 79.4579 280.569 81.2229C280.947 81.5004 281.313 81.7893 281.664 82.0969C281.88 81.8512 282.094 81.598 282.344 81.3823C280.072 79.3359 277.511 77.5091 274.769 76.1511C273.492 75.4421 269.292 74.9394 271.412 77.4171C270.398 77.3459 269.75 78.5969 270.559 79.2984C269.375 79.3116 269.613 80.7164 270.434 81.1347C268.263 81.5717 270.007 83.5974 271.339 83.8807C273.528 84.781 275.727 85.6494 277.854 86.7035C277.854 86.5704 277.888 86.4391 277.957 86.3303L277.956 86.3359Z" fill="#F8F8F9"/>
        <path d="M192.518 76.213C192.734 74.3336 193.725 71.8446 192.225 70.2972C191.639 69.8696 190.804 69.9408 190.464 70.6311C190.244 69.667 188.795 69.3106 188.509 70.4173C187.983 69.5282 186.981 68.853 186.693 70.3103C185.608 68.5847 184.358 69.939 184.607 71.4883C185.013 73.7484 184.823 76.0986 184.649 78.3757C185.032 78.2988 185.424 78.3044 185.813 78.3213C186.282 75.7272 185.878 73.0807 185.509 70.5579C185.503 70.5786 185.499 70.5973 185.494 70.618C185.518 70.4942 185.561 70.361 185.685 70.3085C186.361 70.6761 186.479 71.4808 186.568 72.1729C187.565 73.5083 187.15 70.6536 187.465 70.2334C188.002 70.7324 188.391 71.4489 188.226 72.1954C188.087 72.6287 188.569 73.2345 188.947 72.7825C189.281 72.156 188.808 70.995 189.433 70.5748C189.425 70.5748 189.42 70.5748 189.412 70.5748C189.412 70.5748 189.414 70.5748 189.416 70.5748C189.405 70.5748 189.392 70.5748 189.38 70.5729C190.483 70.6874 189.388 74.5587 190.834 73.4652C191.078 72.9363 190.699 70.8974 191.643 71.2275C192.308 73.7616 191.027 76.4456 190.958 79.0321C191.296 79.064 191.649 79.0509 191.977 79.1391C192.201 78.1731 192.36 77.1959 192.518 76.2168V76.213Z" fill="#F8F8F9"/>
        <path d="M230.213 85.0342C230.213 85.0342 230.223 85.038 230.227 85.038C230.223 85.038 230.219 85.0342 230.213 85.0342Z" fill="#F8F8F9"/>
        <path d="M231.049 159.025C238.483 158.643 236.585 158.935 237.942 151.956C239.373 153.796 240.864 155.581 242.423 157.313C243.81 157.905 245.63 157.795 247.143 157.658C253.202 157.315 259.615 156.962 265.21 154.495C265.991 154.3 265.785 153.445 265.267 153.068C264.574 152.153 264.065 151.153 263.704 150.063C261.894 145.717 261.86 141.775 262.285 137.183C262.76 131.609 264.108 126.091 265.31 120.629C275.338 120.263 290.797 121.57 298.843 114.739C305.434 107.747 302.732 98.9066 296.831 92.4919C292.895 88.0034 288.456 83.7119 282.981 81.2098C281.775 81.1929 281.05 83.2674 280.1 83.9558C279.436 84.9742 276.739 86.4129 278.44 87.5833C280.373 89.7122 282.936 91.3233 284.995 93.3716L284.971 93.3453C304.82 110.346 273.573 104.429 264.136 103.59C258.618 103.084 253.2 102.328 247.671 101.645C244.355 101.671 241.226 101.257 237.954 101.217L237.976 101.225C236.252 101.032 234.433 101.216 232.769 100.724C226.764 99.5575 220.487 99.4693 214.441 100.186H214.514C208.887 100.608 203.271 101.184 197.628 101.319C195.011 101.197 192.251 102.031 189.706 101.315L189.697 101.289H189.699C189.44 98.3758 189.881 95.99 190.238 93.2346C190.778 89.187 191.46 85.1843 193.045 81.3917C193.877 79.4298 191.582 78.9084 190.099 78.9609C188.317 78.8596 184.901 77.5035 183.578 78.8896C182.96 78.854 182.877 81.0335 182.445 81.6131C179.982 87.724 179.178 94.0655 178.07 100.544L178.078 100.512C177.391 105.413 177.46 112.321 183.063 114.204C187.75 116.031 192.863 116.577 197.839 116.988H197.835C197.852 116.988 198.145 117.01 198.171 117.012H198.137C202.347 117.629 206.495 117.506 210.738 117.444C213.889 117.391 217.111 117.618 220.305 117.41C220.51 123.776 223.281 130.018 221.914 136.36C220.991 140.719 219.702 144.836 218.223 149.028C217.382 150.986 217.286 153.325 216.557 155.281C214.864 157.823 223.458 158.573 224.932 158.71C225.182 158.881 225.521 158.931 225.801 158.806C227.529 159.102 229.305 159.029 231.053 159.027L231.049 159.025ZM235.67 157.016H235.657C235.674 156.981 235.689 156.945 235.7 156.911C235.691 156.947 235.68 156.983 235.67 157.016ZM279.685 118.624H279.674C279.89 118.62 280.1 118.618 280.307 118.614C280.104 118.618 279.897 118.622 279.685 118.624ZM228.041 101.208C227.914 101.199 227.784 101.187 227.656 101.178C227.784 101.189 227.914 101.193 228.041 101.208Z" fill="#8DF53A"/>
        <path d="M257.747 103.652C258.683 102.174 254.033 102.124 253.179 101.763C252.944 101.728 252.71 101.681 252.475 101.647C252.011 101.582 251.54 101.563 251.076 101.505C251.08 101.505 251.082 101.505 251.085 101.505C245.742 100.912 240.379 101.053 235.078 100.175C232.186 99.8297 229.274 99.9741 226.373 100.064C225.757 100.145 224.886 99.8128 224.454 100.372C224.244 100.766 224.456 101.227 224.858 101.386C228.942 101.595 233.071 101.343 237.149 101.844C237.123 101.84 237.097 101.837 237.072 101.835C243.077 102.57 249.181 102.249 255.175 103.243C255.438 103.281 255.701 103.315 255.966 103.348C255.966 103.348 255.964 103.348 255.962 103.348C256.563 103.362 257.201 103.836 257.751 103.654L257.747 103.652Z" fill="#8DF53A"/>
        <path d="M253.098 101.352C253.012 100.208 252.454 99.2217 251.292 98.886C251.388 97.9088 251.369 96.9259 251.374 95.9468C253.32 96.8678 254.79 94.9077 253.228 93.3978C254.765 93.6773 255.126 91.8392 253.804 91.2239C255.015 90.9764 255.216 89.352 254.037 88.8925C253.368 88.5511 252.599 88.568 251.9 88.3261C252.769 83.1886 252.026 77.4941 248.984 73.1595C248.984 73.1614 248.988 73.1632 248.99 73.167C246.68 69.8883 242.617 68.4872 238.719 69.0368H238.722C235.371 69.6333 234.704 67.6132 234.287 64.7978C233.81 62.7552 230.603 62.1025 230.547 64.7059C228.774 63.4023 226.906 64.7434 227.988 66.771C227.021 66.4409 225.872 66.8085 225.849 67.9677C225.851 67.947 225.853 67.9283 225.857 67.9095C225.851 67.9564 225.845 68.0052 225.84 68.0539C225.842 68.0333 225.843 68.0146 225.847 67.9939C225.749 69.2169 226.542 70.2991 227.391 71.0981C227.385 71.0925 227.379 71.0869 227.374 71.0813C228.626 72.3323 230.198 73.2401 231.893 73.7447C231.123 75.8698 231.334 78.2144 230.669 80.3601C230.256 81.8156 228.728 82.1645 227.593 82.8754C227.068 83.6538 228.202 84.2971 228.835 84.5035C229.293 84.7117 229.768 84.8786 230.239 85.0493H230.243C230.329 85.083 230.416 85.1187 230.5 85.1524C230.357 92.1374 227.492 92.4225 235.508 94.1462C235.483 94.1406 235.457 94.135 235.431 94.1293C235.609 94.1706 235.784 94.2137 235.957 94.27C235.897 95.4836 235.906 96.699 235.778 97.9069C234.783 98.3739 233.886 99.1467 233.258 100.045C233.867 100.049 234.473 100.092 235.076 100.178C237.476 98.2689 240.934 99.5575 243.749 99.5462C246.19 100.169 251.314 99.1936 252.475 101.651C252.709 101.684 252.944 101.731 253.179 101.767C253.181 101.63 253.136 101.484 253.098 101.358V101.352ZM245.88 83.5037C247.737 83.8095 247.918 86.7392 246.74 87.8909C245.886 88.2585 246.556 89.624 246.603 90.333C247.093 92.43 248.349 94.36 250.263 95.4104C250.383 96.457 250.422 97.528 250.379 98.584C245.903 98.042 241.331 97.5637 236.813 97.6556C236.785 96.3089 237.104 94.8458 236.837 93.5535C235.106 92.3287 232.674 92.55 230.769 91.6403C230.643 90.5318 232.075 84.4284 230.714 84.5016C229.854 84.1902 228.701 84.1377 228.082 83.4268C230.66 82.6653 232.359 80.8366 232.4 78.0643C232.406 78.0043 232.413 77.9443 232.419 77.8843C232.415 77.9068 232.413 77.9312 232.412 77.9537C232.425 77.8261 232.438 77.6967 232.451 77.5673C233.32 78.0024 234.229 78.3944 235.177 78.6308C235.155 78.6252 235.13 78.6195 235.106 78.6139C235.989 78.8915 238.792 79.0584 237.722 77.4885C236.143 76.7064 234.355 76.0049 232.56 76.2731C232.637 75.5266 232.637 74.7707 232.804 74.0354C235.733 75.1646 238.61 76.515 241.582 77.5748C241.573 80.0113 241.058 82.414 240.777 84.828C240.249 87.6471 240.677 87.3845 243.31 87.9959C244.725 87.2475 243.849 83.4231 245.878 83.5056L245.88 83.5037Z" fill="#F8F8F9"/>
        <path d="M265.55 117.645C266.304 116.364 265.275 115.803 265.172 116.6C265.091 116.808 264.971 116.998 264.842 117.178C264.56 117.598 265.29 118.144 265.55 117.645Z" fill="#F8F8F9"/>
        <path d="M219.962 114.373C220.317 113.741 219.742 112.541 219.461 111.918C218.535 111.406 218.94 112.972 218.869 113.445C218.869 113.419 218.873 113.39 218.873 113.364C218.663 114.021 219.305 114.94 219.962 114.373Z" fill="#F8F8F9"/>
        <path d="M237.972 149.807C238.566 148.113 237.839 146.023 238.055 144.202C238.019 143.544 238.609 141.805 237.43 142.045C236.596 143.6 236.979 145.658 236.879 147.396C236.896 148.214 236.538 150.388 237.974 149.805L237.972 149.807Z" fill="#F8F8F9"/>
        <path d="M230.866 100.828C231.448 100.867 232.761 100.379 231.721 99.8728C231.721 99.8728 231.721 99.8728 231.721 99.871C231.026 99.9441 230.326 99.9572 229.629 99.8503C229.37 99.8222 229.159 100.021 229.165 100.282C229.244 101.09 230.303 100.811 230.866 100.828V100.828Z" fill="#F8F8F9"/>
        <path d="M181.182 73.8256C181.608 73.4074 181.292 72.6346 181.369 72.085C181.435 71.9913 181.405 71.8656 181.351 71.7699C180.967 71.0122 180.643 72.0494 180.65 72.4452C180.558 72.9497 180.297 74.0714 181.183 73.8256H181.182Z" fill="#F8F8F9"/>
        <path d="M152.998 75.3337C153.212 73.7094 153.005 72.0963 153.054 70.472C152.898 69.7461 153.702 67.0846 152.485 67.3115C151.599 69.3166 152.128 71.7868 151.918 73.9514C151.918 73.9439 151.918 73.9364 151.918 73.927C151.918 73.9551 151.916 73.9814 151.914 74.0095C151.914 74.0058 151.914 74.002 151.914 73.9982C151.948 74.5703 151.742 75.5757 152.496 75.7276C152.737 75.7557 152.979 75.5869 152.996 75.3337H152.998Z" fill="#F8F8F9"/>
        <path d="M245.366 73.1088C246.1 72.6417 244.566 71.8502 244.183 71.6214C243.663 71.4075 243.464 72.1841 243.913 72.396C244.399 72.6023 244.829 73.0844 245.368 73.1088H245.366Z" fill="#F8F8F9"/>
        <path d="M244.11 74.5533C244.196 74.4857 244.23 74.3845 244.226 74.2832C244.226 74.2832 244.226 74.2851 244.226 74.2869C244.223 74.2344 244.213 74.1819 244.192 74.1331C244.192 74.1331 244.192 74.1331 244.192 74.135C243.823 73.5723 243.235 73.1053 242.707 72.6889C242.219 72.4244 241.967 73.1447 242.407 73.3754C242.403 73.3735 242.401 73.3716 242.397 73.3697C242.681 73.5686 242.934 73.8086 243.203 74.0281C243.199 74.0243 243.195 74.0206 243.19 74.0168C243.203 74.03 243.218 74.0412 243.233 74.0543C243.229 74.0506 243.225 74.0487 243.222 74.045C243.515 74.2213 243.697 74.8215 244.112 74.5551L244.11 74.5533Z" fill="#F8F8F9"/>
        <path d="M242.493 75.1817C243.274 74.574 241.776 73.8706 241.348 73.5142C241.19 73.4167 240.968 73.4467 240.865 73.608C240.613 74.2007 241.513 74.4596 241.821 74.8309C241.821 74.8309 241.819 74.8309 241.817 74.8291C241.881 74.8872 241.946 74.9397 242.001 75.0072C241.999 75.0035 241.995 74.9997 241.992 74.9941C241.999 75.0016 242.005 75.0091 242.012 75.0166C241.993 74.996 241.977 74.9754 241.962 74.9529C241.963 74.9566 241.965 74.9585 241.969 74.9622C241.96 74.9454 241.95 74.9266 241.941 74.9078C242.04 75.1067 242.268 75.2642 242.489 75.1836L242.493 75.1817Z" fill="#F8F8F9"/>
        <path d="M285.95 175.535C286.855 175.165 288.055 174.85 288.508 173.907C288.695 173.346 287.706 172.915 287.601 173.599C287.129 174.346 285.122 174.244 285.336 175.227C285.434 175.452 285.706 175.625 285.95 175.537V175.535Z" fill="#F8F8F9"/>
        <path d="M284.137 173.494C284.548 172.967 286.191 171.669 285.81 171.037C285.273 170.853 284.943 172.093 284.468 172.359C284.261 172.71 283.416 173.025 283.76 173.479C283.865 173.582 284.028 173.601 284.135 173.492L284.137 173.494Z" fill="#F8F8F9"/>
        <path d="M240.972 163.795C241.419 163.761 241.26 163.082 240.867 163.114C240.334 163.275 239.267 162.536 239.055 163.219C239.275 163.874 240.394 163.694 240.974 163.797L240.972 163.795Z" fill="#F8F8F9"/>
        <path d="M238.93 166.877C239.418 166.723 240.654 167.04 240.579 166.277C240.273 165.607 239.33 166.196 238.765 166.134C238.32 166.22 238.528 166.914 238.93 166.877V166.877Z" fill="#F8F8F9"/>
    </g>
    <defs>
        <clipPath id="clip0_331_26153">
            <rect width="373" height="348" fill="white" transform="matrix(-1 0 0 1 373 0.5)"/>
        </clipPath>
    </defs>
</svg>
