<svg width="371" height="349" viewBox="0 0 371 349" fill="none" xmlns="http://www.w3.org/2000/svg">
    <path d="M183.598 65.7729C179.495 70.1399 185.519 75.6409 190.255 74.0468C192.281 73.4177 199.089 71.6057 195.837 68.7025C194.935 68.3096 194.184 69.124 193.496 69.5841C191.641 70.7038 189.363 71.7686 187.164 71.1863C179.518 67.6092 192.299 64.5493 193.828 60.7177C194.748 58.747 193.94 56.4505 193.881 54.3657C193.614 52.7594 193.669 51.0797 193.362 49.5141C192.085 47.9648 190.876 50.357 191.263 51.6091C191.468 54.1784 191.747 56.7457 191.843 59.3252C189.561 62.0329 185.906 63.1058 183.6 65.7749L183.598 65.7729Z" fill="white"/>
    <path d="M191.766 80.6858C191.025 78.9349 188.745 80.867 189.588 82.2066C190.978 85.2095 194.008 87.3656 197.4 86.5899C203.229 86.0992 203.564 75.4393 200.673 77.4365C199.464 78.8555 200.618 81.1886 199.466 82.7522C197.341 85.5027 192.436 83.9636 191.766 80.6858Z" fill="white"/>
    <path d="M207.423 55.6096C206.079 55.2696 204.416 55.066 203.671 53.7549C205.01 52.0345 206.012 49.8866 208.076 48.9114C211.476 47.3764 216.623 46.3747 219.241 49.6912C218.822 55.182 211.749 56.0147 207.423 55.6096ZM203.186 50.3162C202.663 51.4726 200.955 52.9466 201.863 54.2251C200.833 57.564 207.433 58.7693 209.778 58.5189C213.588 58.5229 217.67 57.0693 219.995 53.9279C226.845 42.8933 206.501 42.307 203.188 50.3162H203.186Z" fill="white"/>
    <path d="M213.788 47.5511C208.206 47.488 208.297 56.8267 213.739 55.8678C218.784 55.7578 218.925 47.9583 213.788 47.5511Z" fill="white"/>
    <path d="M170.961 55.3714C174.787 51.4421 182.368 52.682 185.386 57.0938C182.11 61.2511 172.511 60.9844 170.961 55.3714ZM174.088 50.5972C168.066 52.5375 166.672 57.3055 172.075 61.1371C176.527 63.4336 184.174 63.7919 186.766 58.6594C188.604 57.6557 187.228 55.2676 186.288 54.0786C183.399 50.7621 178.276 49.7299 174.088 50.5952V50.5972Z" fill="white"/>
    <path d="M177.505 56.8799C176.988 59.5917 179.918 62.1549 182.514 61.6358C189.36 58.4984 178.444 46.6556 177.505 56.8799Z" fill="white"/>
    <path d="M193.882 43.7502C193.758 45.0979 195.366 45.7107 196.183 44.6521C200.92 42.8299 205.489 40.5111 210.497 39.4687C213.903 38.752 217.442 38.6971 220.827 37.9743L220.823 37.9702C227.161 31.1235 195.124 34.499 193.88 43.7502H193.882Z" fill="white"/>
    <path d="M304.608 159.689C303.708 160.396 302.039 161.063 302.493 162.478C302.68 163.069 303.397 163.284 303.906 162.951C305.366 161.882 307.611 160.937 308 159.019C307.676 156.54 305.606 159.133 304.61 159.689H304.608Z" fill="white"/>
    <path d="M298.242 154.237C298.108 155.931 295.251 162.861 297.507 163.305C298.106 163.341 298.55 162.83 298.733 162.307C299.262 160.707 299.38 159.005 299.737 157.362C299.899 155.923 300.695 154.379 300.215 152.956C299.486 151.649 297.69 153.076 298.242 154.239V154.237Z" fill="white"/>
    <path d="M317.22 231.579C315.972 231.888 315.339 234.234 317.059 234.168C319.005 233.497 323.362 233.969 323.344 231.196C322.949 228.568 318.69 231.155 317.22 231.579Z" fill="white"/>
    <path d="M46.5132 108.201C46.444 106.719 47.6106 105.121 49.1578 105.057C51.7414 104.772 54.2273 105.766 56.6765 106.444C62.0431 108.016 67.2937 109.913 71.9681 113.044C74.2483 114.39 76.779 115.63 78.3283 117.861C79.1182 119.531 80.8223 121.239 80.9688 123.12C88.6971 142.956 94.929 163.433 103.869 182.788C110.866 198.174 117.387 213.94 122.919 229.932C127.76 207.94 135.553 141.278 150.603 128.975C161.519 122.377 174.105 119.402 185.836 114.61C187.634 114.178 198.666 109.789 202.72 110.51C202.614 107.547 202.484 104.589 202.52 101.625C198.306 102.545 193.955 102.189 189.674 102.23C185.046 101.879 179.574 103.203 175.598 100.283C172.741 97.7791 172.584 93.5363 171.536 90.0936C168.179 75.201 166.676 60.4895 163.826 45.4279C162.806 44.8477 162.857 43.9275 163.356 43.2251C163.095 41.9526 162.859 40.6476 162.721 39.4566C156.387 39.534 149.611 38.3857 144.051 35.1629C139.823 33.2145 138.426 26.3027 144.121 25.5494C142.553 23.8392 142.292 21.3004 142.62 19.0874C143.221 15.8503 147.18 16.3654 149.626 16.797C145.338 9.79963 149.461 4.53275 157.244 7.36061C160.42 8.50276 163.058 10.6018 165.579 12.7863C185.244 10.6751 211.888 0.849797 230.828 6.61751C231.251 6.46685 231.76 6.50554 232.297 6.83942C234.677 9.17257 237.99 10.4491 240.058 13.1426C247.17 22.7805 253.581 35.8633 251.264 48.0929C256.433 52.2889 258.707 62.6598 248.344 68.7777C251.018 80.8302 254.128 92.7749 256.254 104.946C260.012 106.173 263.887 106.027 267.586 107.108C268.142 105.548 268.875 104.082 269.878 102.779C272.193 101.081 275.811 100.238 278.4 101.739C279.663 103.001 278.574 106.796 278.551 108.569C279.854 108.345 281.251 109.203 282.527 109.471C295.231 114.294 308.683 117.35 320.855 123.466C335.953 129.071 343.875 143.347 344.977 158.889C347.701 185.746 344.455 212.83 341.442 239.533C339.366 261.175 334.593 295.341 306.303 294.293C304.195 294.529 300.447 292.652 300.983 290.166C298.658 287.666 296.382 283.954 294.315 279.954C292.982 287.79 292.9 295.671 292.874 303.586C292.141 312.296 291.642 321.014 291.581 329.76C291.457 332.052 291.835 334.502 291.056 336.692C291.141 339.402 291.243 342.114 291.394 344.822C291.614 345.899 291.345 347.546 289.946 347.501C244.187 345.819 198.341 344.85 152.541 343.588C151.032 343.836 151.024 341.984 151.116 340.943C151.448 338.987 149.776 336.171 151.763 334.85C152.704 311.25 154.53 287.708 155.483 264.108C109.966 316.4 91.924 263.532 79.4969 220.562C72.7784 198.224 65.8054 175.986 62.1388 152.889C58.5067 150.753 54.4166 149.155 51.5969 145.894C48.2702 143.111 48.4616 136.239 53.5717 135.901C50.7886 133.452 49.3961 127.815 54.3209 127.088C51.0553 123.635 54.2496 117.57 58.918 118.077C55.0273 115.351 47.6879 113.199 46.5132 108.201ZM246.925 76.3004C246.789 73.9672 244.287 68.3013 246.146 66.8273C249.175 64.6591 252.988 61.9737 253.121 57.8917C252.958 53.8525 249.932 48.3841 245.256 49.2921C242.679 49.8275 243.629 54.2678 242.949 56.2874C242.381 59.3555 242.066 62.4664 241.345 65.506C240.201 69.3824 240.922 72.8963 235.695 72.6581C234.714 72.6418 233.431 73.1712 232.711 72.2713C231.045 57.9508 230.536 43.1823 230.486 28.6704C230.292 28.5299 230.131 28.2938 230.025 27.9416C208.105 23.3323 185.647 29.9021 164.357 34.9349C164.602 35.053 164.758 35.281 164.86 35.5599C165.363 37.4492 165.2 39.5686 165.77 41.5108C169.362 40.5601 173.364 40.7779 177.006 41.3907C180.056 41.9221 182.847 43.1497 185.633 44.4446C187.064 44.8599 186.783 47.0119 185.464 47.3946C184.433 48.6935 182.465 47.5107 181.076 47.4801C176.304 46.5131 171.491 45.4239 166.595 45.6519C169.541 60.1394 170.909 74.8915 173.883 89.3668C174.916 93.0436 174.804 98.9131 179.771 99.2552C186.374 99.5341 193.035 99.4974 199.64 99.2104C201.118 99.2694 203.284 98.0377 204.522 98.7604C205.155 99.4811 204.9 100.57 204.984 101.454C205.002 103.71 205.071 105.965 205.169 108.219C204.965 109.84 206.087 112.609 204.733 113.751C209.098 125.704 213.404 137.685 218.744 149.253C231.778 136.241 242.935 120.858 253.218 105.713C251.787 95.3381 249.165 86.3597 246.925 76.3004ZM263.388 109.502C260.82 108.854 258.412 108.928 255.604 108.193C255.352 108.372 254.965 108.433 254.711 108.378C249.967 115.306 245.016 122.137 239.841 128.766C239.924 128.735 240.012 128.715 240.103 128.707C240.993 128.66 241.591 129.521 242.369 129.847C242.797 130.132 243.393 130.427 243.89 130.785C245.252 128.733 247.958 128.295 250.847 128.546C243.937 119.181 254.853 117.994 262.468 120.86C262.801 117.096 263.602 113.274 263.388 109.502ZM265.998 109.913C265.892 112.908 265.67 115.656 265.363 118.606C265.802 115.783 266.108 112.794 266.759 109.97C266.505 109.958 266.25 109.94 265.998 109.913ZM269.693 110.045C269.029 112.324 268.416 119.219 267.146 122.796C268.592 123.328 269.98 124.154 270.475 124.883C271.096 126.101 270.192 127.86 268.769 127.837C268.107 127.89 267.604 127.402 267.111 127.035C266.087 126.278 264.902 125.746 263.64 125.557C262.818 125.49 262.476 124.895 262.486 124.232C258.98 123.271 255.069 122.049 251.453 122.813C251.738 125.62 254.986 126.952 256.857 128.68C258.353 130.144 256.838 133.159 254.747 132.192C254.438 132.269 253.984 132.257 253.768 131.915C251.221 131.545 248.114 130.665 245.832 132.227C246.581 135.81 250.674 136.724 252.956 138.978C253.864 140.566 252.034 142.017 250.527 141.235C248.261 140.582 246.042 139.597 243.633 139.672C240.028 139.513 242.554 142.437 244.036 143.579C245.492 145.177 249.603 145.442 249.48 147.938C248.798 150.886 244.963 148.096 242.89 148.579C236.398 149.007 245.869 154.505 247.766 155.479C249.904 157.376 258.581 158.433 256.928 162.055C262.52 183.415 269.125 204.471 276.257 225.369C282.837 221.397 299.368 217.071 301.822 216.047C301.579 215.558 301.412 215.051 301.201 214.548C300.848 214.288 300.738 213.938 300.793 213.589C285.931 180.39 271.104 140.205 276.33 104.239C271.204 103.976 270.743 105.53 269.693 110.045ZM309.01 232.544C306.732 228.091 304.539 223.584 302.807 218.895C294.692 222.486 285.367 223.936 277.348 228.067C279.803 233.751 281.782 239.625 283.899 245.437C284.083 244.893 284.537 244.382 285.314 244.132C290.518 241.96 295.38 239.048 300.5 236.707C303.332 235.534 306.667 234.889 308.884 232.67C308.943 232.652 309.002 232.637 309.065 232.629C309.065 232.629 309.065 232.627 309.063 232.625C309.004 232.637 308.941 232.645 308.886 232.668C308.929 232.629 308.97 232.586 309.01 232.544ZM308.049 291.019C324.648 291.102 332.692 274.909 335.168 260.596C339.325 239.749 340.907 218.425 342.305 197.223C346.117 130.618 336.768 131.697 278.197 111.778C278.061 113.272 277.983 114.771 278.063 116.279C278.168 124.449 278.521 132.506 279.539 140.602C283.578 158.665 289.036 176.626 295.716 193.971C296.046 186.534 296.738 179.101 297.86 171.741C298.018 170.212 298.36 166.462 300.688 167.839C300.688 167.839 300.688 167.839 300.69 167.839C301.274 168.346 301.089 169.178 301.038 169.856C300.816 174.742 299.979 179.565 299.513 184.427C298.92 189.397 298.963 194.46 297.815 199.334C303.68 213.078 308.709 226.733 316.063 239.798C316.987 239.305 318.233 240.176 319.149 240.616C320.588 241.522 323.933 242.365 322.856 244.639C321.256 246.685 318.905 243.658 317.254 242.98C318.491 247.302 319.691 249.128 320.709 253.007C320.725 254.316 318.958 255.055 318.31 253.76C316.228 249.491 314.967 245.014 313.102 240.604C312.119 239.329 311.117 237.041 310.309 235.205C308.049 237.741 304.354 238.721 301.294 240.02C296.345 242.373 291.43 244.784 286.406 246.986C285.65 247.459 285.029 247.508 284.586 247.318C289.767 259.428 296.099 285.143 308.049 291.021V291.019ZM289.966 295.099C290.16 288.596 291.07 282.126 292.255 275.735C276.609 237.992 263.251 202.372 254.108 162.891C248.092 160.723 229.757 151.181 241.575 145.881C237.2 142.262 238.725 136.097 244.888 136.734C243.982 135.734 243.464 134.672 243.304 133.654C243.11 133.707 242.931 133.788 242.788 133.953C241.807 134.932 240.771 133.393 241.612 132.54C240.698 131.722 238.709 131.404 238.985 129.849C232.662 137.284 226.89 145.543 219.355 151.777C217.144 180.339 216.381 209.112 215.391 237.782C216.369 257.225 213.634 276.527 212.694 295.909C238.44 295.797 264.322 297.768 289.966 295.099ZM155.587 261.965L155.593 261.861C155.581 261.875 155.568 261.889 155.554 261.903C155.566 261.924 155.577 261.944 155.587 261.965ZM94.8944 256.476C108.908 289.089 128.312 291.709 150.617 264.208C150.346 262.673 151.924 261.547 152.712 260.399C154.001 259.251 154.522 257.339 155.902 256.429C158.368 228.879 159.909 201.286 160.009 173.623C160.314 171.855 159.895 160.438 162.995 162.028C164.219 163.248 163.113 165.882 163.232 167.588C163.745 210.008 159.369 252.217 156.994 294.531C160.444 293.961 164.129 294.545 167.631 294.673C181.868 296.127 196.166 295.716 210.452 295.887C214.485 247.998 212.814 199.796 216.853 151.928C213.712 145.232 210.886 138.41 208.107 131.563C204.74 134.816 200.083 136.626 196.085 139.118C193.788 140.053 193.53 136.59 193.053 135.107C191.871 130.541 190.299 126.094 188.994 121.561C188.703 120.516 188.037 119.492 188.259 118.376C188.674 117.548 189.059 117.114 189.415 116.98C191.437 116.224 192.567 125.093 193.19 126.569C194.389 129.627 195.148 132.803 196.022 135.962C199.699 133.723 203.406 131.001 207.319 129.378C205.802 124.114 203.371 119.156 201.728 113.942C197.514 114.465 193.434 115.614 189.415 116.98C186.247 118.055 183.118 119.268 179.995 120.416C168.551 125.569 149.896 127.025 145.965 140.81C135.617 171.298 130.824 203.499 124.612 235.03C123.462 237.672 121.359 235.598 122.204 233.509C121.019 233.806 120.797 232.269 120.592 231.357C120.054 229.667 119.472 227.993 118.861 226.33C109.486 232.562 99.6014 237.707 89.4484 242.499C91.0547 247.235 92.828 251.909 94.8944 256.476ZM88.461 239.515C93.8826 237.304 98.4939 233.553 103.907 231.298C108.671 228.977 113.242 226.167 117.727 223.313C115.958 218.926 114.121 214.565 112.375 210.169C109.188 212.918 100.656 215.831 99.0273 216.865C94.0475 219.573 89.4647 223.335 84.2527 225.493C85.5944 230.188 86.9605 234.875 88.461 239.515ZM63.5985 121.017C61.5952 121.66 59.3374 120.644 57.2546 121.056C53.2826 122.45 56.5156 125.801 58.9139 126.888C60.5752 127.666 62.3892 129.224 60.0174 130.537C57.8654 130.482 55.5486 129.061 53.4027 130.095C53.0526 133.648 62.4523 137.062 58.2034 139.218C56.5176 139.531 53.4923 137.876 52.2036 139.228C50.4323 143.992 61.0883 148.109 64.4414 149.858C65.2394 150.641 65.2211 151.843 65.4858 152.869C65.9765 155.56 66.6218 158.217 67.1695 160.894C70.7791 181.939 77.6401 202.27 83.4771 222.775C87.2476 220.495 91.0628 218.042 94.7743 215.585C100.314 212.254 105.493 210.89 111.314 207.524C101.098 183.865 90.3666 160.438 82.4306 135.873C80.8996 131.49 78.9248 127.112 77.9414 122.585C72.5626 114.195 58.3825 109.942 48.9583 107.779C50.1555 111.717 68.2017 116.923 63.5985 121.017Z" fill="white"/>
    <path d="M283.405 90.692C283.506 91.3313 284.221 91.7446 284.814 91.4514C286.503 90.7165 288.106 89.7168 289.891 89.2486C291.807 88.084 290.367 85.814 288.395 86.9541C286.809 87.7949 283.211 88.4464 283.405 90.692Z" fill="white"/>
    <path d="M279.013 87.7116C279.662 86.0992 280.884 84.3178 280.747 82.5689C278.726 79.9691 277.203 85.5597 277.018 87.052C276.73 88.3591 278.437 88.8843 279.013 87.7116Z" fill="white"/>
    <path d="M268.619 86.9806C270.28 86.3963 269.777 84.1995 269.704 82.8314C269.398 81.7239 270.021 79.3765 268.417 79.2563C266.731 79.692 267.275 82.0028 267.102 83.32C267.122 84.5293 266.731 87.2351 268.619 86.9806Z" fill="white"/>
    <path d="M30.6594 98.7829C31.9176 98.901 33.1941 100.42 34.3729 99.6238C36.0667 98.0928 34.3953 96.4009 32.6607 96.063C31.2702 95.7332 29.0388 94.2978 28.1939 96.1505C27.4305 97.8261 29.4562 98.3758 30.6594 98.7829Z" fill="white"/>
    <path d="M25.0348 103.767C25.8533 105.273 30.09 104.881 31.7859 105.286C33.6935 104.685 33.0298 102.686 31.2097 102.466C29.3326 102.055 24.5482 100.288 25.0348 103.767Z" fill="white"/>
    <path d="M26.0195 111.719C27.3428 113.168 29.7717 112.059 31.5144 112.495C32.5344 112.495 33.1329 110.782 32.1109 110.302C30.2582 109.349 25.0463 108.038 26.0195 111.719Z" fill="white"/>
    <path d="M222.239 68.0284C223.707 67.4237 221.854 62.8083 220.686 62.5518C219.825 62.3747 219.059 63.301 219.24 64.1235C219.497 64.7526 220.041 65.2107 220.242 65.8947C220.725 66.6826 220.912 68.7185 222.239 68.0284Z" fill="white"/>
    <path d="M214.931 67.8515C215.906 67.2815 215.558 66.1068 215.238 65.2476C214.89 64.3579 214.729 62.3098 213.316 63.0672C212.184 63.7838 212.641 65.2619 213.066 66.2696C213.408 67.0494 213.815 68.4969 214.929 67.8515H214.931Z" fill="white"/>
    <path d="M206.897 67.4378C208.225 67.0245 207.641 64.2211 206.781 63.6571C206.781 63.6571 206.781 63.6571 206.781 63.6592C204.615 62.9995 204.963 68.1443 206.895 67.4378H206.897Z" fill="white"/>
    <path d="M179.763 70.28C181.072 69.7608 180.74 66.8332 179.275 66.8556C177.454 67.0022 178.112 70.907 179.763 70.28Z" fill="white"/>
    <path d="M174.977 69.9643C176.459 69.2049 175.172 66.0391 173.668 67.4256C172.717 68.2501 173.627 70.7237 174.977 69.9643Z" fill="white"/>
    <path d="M157.328 171.391C158.888 170.44 157.528 168.221 157.383 166.816C156.876 165.678 157.21 163.757 155.989 163.14C153.59 163.172 154.944 166.261 155.237 167.643C155.797 168.655 155.691 171.87 157.326 171.391H157.328Z" fill="white"/>
    <path d="M152.765 174.581C153.709 173.653 152.866 172.552 152.103 171.841C151.034 170.894 149.845 169.129 148.227 169.549C146.789 170.206 147.374 171.678 148.583 172.187C149.823 172.869 151.238 175.834 152.765 174.583V174.581Z" fill="white"/>
    <path d="M151.661 201.881C152.923 201.626 154.399 201.191 154.88 199.853C155.136 199.216 154.86 198.239 154.068 198.216C153.08 198.426 152.313 199.277 151.327 199.591C150.193 199.998 150.256 202.164 151.661 201.883V201.881Z" fill="white"/>
    <path d="M126.638 246.958C128.425 245.917 126.794 243.564 126.562 242.053C126.025 240.766 126.218 239.064 125.261 238.018C123.852 237.149 122.378 239.991 123.602 240.811C124.003 241.994 124.923 247.792 126.635 246.958H126.638Z" fill="white"/>
    <path d="M116.513 245.178C117.443 243.922 121.232 240.282 118.97 239.048C117.757 238.67 115.857 242.821 115.047 243.788C114.32 244.79 115.572 246.211 116.513 245.178Z" fill="white"/>
    <path d="M216.092 17.8719C218.94 15.5877 212.633 12.4544 210.911 11.5057C209.811 11.0822 208.93 12.8982 209.874 13.5497C211.523 14.7387 213.223 15.8931 214.714 17.2795C214.95 17.8231 215.53 18.2425 216.092 17.8719Z" fill="white"/>
    <path d="M209.582 19.1709C210.748 18.9959 210.962 17.359 210.015 16.7421C208.215 15.2742 206.383 13.7147 204.248 12.766C203.109 12.3364 202.187 14.2074 203.175 14.8813C204.944 16.168 206.851 17.2572 208.572 18.6111C208.871 18.8635 209.136 19.2442 209.582 19.1689V19.1709Z" fill="white"/>
    <path d="M202.427 18.2914C201.214 16.2738 198.63 15.0726 196.547 14.0526C195.305 13.6129 194.391 15.5429 195.403 16.3105C196.924 17.4404 198.63 18.2771 200.22 19.3012C201.183 20.2601 202.624 19.7002 202.427 18.2894V18.2914Z" fill="white"/>
    <path d="M167.259 22.0906C168.144 21.1785 167.344 20.0995 166.34 19.7819C164.881 19.0265 163.445 18.2102 161.937 17.5587C160.809 17.1209 159.897 18.996 160.872 19.6597C162.21 20.2359 166.133 23.2327 167.259 22.0906Z" fill="white"/>
    <path d="M163.523 25.9523C165.484 25.0809 164.073 23.1733 162.678 22.5747C161.644 22.0881 160.013 20.4268 159.103 21.8581C158.295 23.2201 160.072 23.8227 160.926 24.4946C161.817 24.8834 162.516 26.0439 163.525 25.9523H163.523Z" fill="white"/>
    <path d="M159.806 29.6209C162.015 28.8921 160.484 26.6811 158.99 26.1029C157.642 25.3272 154.509 23.4257 154.635 26.3737C155.124 27.524 156.744 27.7133 157.705 28.4096C158.493 28.6559 159.004 29.5802 159.806 29.6209Z" fill="white"/>
    <path d="M281.407 313.458C282.625 312.695 281.769 311.27 281.285 310.313C280.444 309.122 279.992 307.165 278.551 306.632C276.757 306.878 277.278 308.625 278.184 309.586C279.09 310.48 279.909 314.334 281.407 313.458Z" fill="white"/>
    <path d="M278.637 322.514C280.518 321.572 274.97 313.737 274.119 312.227C272.993 310.001 270.89 311.345 271.898 312.99C273.543 315.285 274.781 317.844 276.188 320.287C276.845 321.085 277.246 323.436 278.637 322.516V322.514Z" fill="white"/>
    <path d="M168.019 310.918C169.395 309.943 175.409 306.754 174.917 305.117C174.094 303.057 171.649 305.993 170.495 306.486C169.237 307.642 166.321 308.391 166.647 310.458C166.83 311.032 167.52 311.237 168.017 310.918H168.019Z" fill="white"/>
    <path d="M295.724 35.69C296.019 35.2645 296.332 34.8512 296.656 34.4481C298.114 32.6361 299.806 30.9911 301.2 29.1242C302.916 27.1005 304.425 24.8447 306.259 22.9208C306.701 22.4566 307.163 22.0128 307.65 21.5954C307.984 21.3694 308.326 21.2676 308.676 21.2575C310.321 21.2025 312.086 23.1875 313.428 23.9326C316.991 26.3269 320.293 29.0835 323.945 31.3433C325.283 32.5913 330.063 34.3442 329.833 36.1623C330.786 39.0981 325.191 41.9809 323.375 43.858C320.606 46.4579 318.304 49.9433 314.664 51.3786C313.662 51.7146 312.554 51.1486 312.229 50.149C308.36 46.3927 303.798 43.4366 299.439 40.2932C298.553 39.4462 296.853 38.7337 296.039 37.6811C295.614 37.1334 295.428 36.4921 295.724 35.69ZM314.287 47.6855C316.862 46.1627 318.758 43.7684 320.963 41.7875C322.887 40.0183 325.189 38.6604 326.818 36.5858C321.779 33.534 317.058 30.0281 312.271 26.616C311.475 26.0479 310.679 25.484 309.879 24.9262C309.46 24.633 309.04 24.3419 308.619 24.0528H308.617C308.617 24.0528 308.616 24.0541 308.613 24.0568C305.166 27.8477 302.098 31.9806 298.714 35.8284C298.706 35.8366 298.7 35.8427 298.694 35.8508C299.62 36.5125 300.551 37.1742 301.481 37.8379C301.499 37.8501 301.518 37.8643 301.536 37.8765C302.204 38.3529 302.872 38.8293 303.537 39.3098C307.239 41.9707 310.891 44.6968 314.287 47.6876V47.6855Z" fill="#8DF63A"/>
    <path d="M290.243 33.8904C292.14 35.2096 294.162 36.3375 296.037 37.6812C296.412 37.9479 296.778 38.2248 297.138 38.5119C298.187 39.0331 299.582 40.6129 300.722 40.277C301.021 40.1895 301.304 39.9696 301.556 39.5624C301.968 38.8926 301.868 38.3368 301.534 37.8746C301.52 37.8543 301.505 37.836 301.491 37.8176C301.108 37.327 300.463 36.9463 299.895 36.6551C299.504 36.3762 299.111 36.0993 298.712 35.8265C298.034 35.3603 297.348 34.9022 296.654 34.4482C292.118 31.4738 287.348 28.6683 283.51 24.9324C283.337 22.5443 288.488 25.8995 285.173 19.8101C286.615 19.8284 289.034 20.8565 288.987 18.4908C288.671 17.4627 287.999 16.5017 288.123 15.3596C289.123 15.3067 290.106 15.4756 291.029 15.8075C292 15.8401 292.686 14.7061 292.429 13.8204C292.517 11.2593 293.384 3.62669 297.14 4.79122C294.803 16.8601 298.576 16.8804 306.257 22.9209C306.728 23.2915 307.214 23.6844 307.713 24.1038C308.031 24.2259 308.342 24.1913 308.611 24.0549C308.613 24.0549 308.615 24.0529 308.617 24.0529C309.154 23.778 309.525 23.1021 309.462 22.4934C309.346 22.0984 309.063 21.6831 308.674 21.2576C307.188 19.637 304.144 17.8841 302.855 16.687C295.272 12.6539 301.996 6.8597 298.568 2.43161C292.753 0.00888693 290.318 8.38052 290.08 12.7455C287.03 12.1795 285.251 14.305 285.957 17.2428C283.461 16.8499 282.089 19.637 283.227 21.6709C276.692 26.612 286.888 30.9098 290.243 33.8904Z" fill="#8DF63A"/>
    <path d="M303.045 40.0591C306.217 35.1302 310.381 30.6817 312.899 25.3802C313.485 22.2918 309.102 23.9144 309.751 26.1559C306.716 30.5636 303.031 34.7922 300.565 39.4667C300.413 40.9956 302.424 41.3661 303.045 40.0571V40.0591Z" fill="#8DF63A"/>
    <path d="M70.4612 20.3519C73.0956 13.8778 79.5535 13.0512 79.7266 21.205C79.5474 24.6294 77.1573 27.2659 75.5041 30.0917C74.8099 31.3092 74.0891 32.5144 73.5863 33.8337C73.3033 34.6033 73.171 35.5886 72.3159 35.9531C70.9192 36.6412 69.6814 33.3227 68.5678 32.5226C66.2611 29.825 63.024 27.6364 61.947 24.1082C59.6444 17.3123 66.8047 14.403 70.4612 20.3519ZM73.5191 19.9163C73.8998 19.4643 74.2948 19.0714 74.5656 18.54C74.0464 19.053 73.5944 19.6373 73.2463 20.2786C73.3359 20.1565 73.4254 20.0343 73.5191 19.9163Z" fill="#8DF63A"/>
    <path d="M312.657 40.2017C313.396 39.3344 312.771 37.496 311.484 38.0151C308.619 38.1963 310.761 42.49 312.657 40.2017Z" fill="#8DF63A"/>
    <path d="M113.424 62.9082C110.44 49.1943 114.393 51.7453 121.761 59.9011C122.008 59.8156 122.272 59.7016 122.553 59.5652C122.555 59.5652 122.557 59.5652 122.557 59.5652C124.565 58.6043 127.315 56.6457 129.042 57.1751C130.043 57.8428 129.51 59.5265 128.463 59.8482C128.05 61.4545 127.226 62.9061 126.334 64.2905C126.894 64.6366 127.429 64.9787 127.934 65.3126C137.006 71.2981 137.301 75.1684 123.972 71.3287C122.333 74.297 122.795 78.9735 119.567 80.7936C117.313 81.4186 116.063 73.0897 114.976 71.3918C101.402 70.8685 101.49 68.682 113.424 62.9102V62.9082ZM114.933 57.0305C114.961 57.2565 114.992 57.4764 115.02 57.6881C116.228 66.1717 118.031 63.4925 109.454 67.9735C119.053 69.2765 116.154 67.1693 119.526 76.5894C120.652 74.0099 120.658 70.4268 123.023 68.6291C124.994 68.0325 126.996 69.362 128.954 69.6083C124.943 65.732 121.735 67.0268 124.764 61.6887C124.85 61.536 124.941 61.3772 125.039 61.2143C123.659 61.6357 122.492 62.5254 121.124 62.8919C120.827 62.8837 120.607 62.7494 120.411 62.5641C120.346 62.501 120.283 62.4338 120.22 62.3625C118.836 60.856 117.119 59.2537 115.578 57.6922C115.358 57.4703 115.143 57.2504 114.933 57.0305Z" fill="#8DF63A"/>
    <path d="M120.012 78.3156C120.372 78.2199 120.675 77.9593 120.871 77.6356C122.528 76.8558 121.537 71.6134 122.046 69.6834C122.424 69.8483 122.813 69.9948 123.202 70.1374C123.63 71.6602 126.867 71.76 128.208 71.7132C129.994 71.2408 129.558 68.187 127.659 68.3254C128.043 66.3832 125.317 65.6991 124.251 64.4999C124.68 63.9502 124.959 63.1909 124.711 62.521C124.975 61.9123 125.354 61.3769 125.692 60.8109C126.323 59.8886 125.592 58.2721 124.379 58.8076C122.948 59.6789 122.516 61.5194 121.235 62.6004C120.993 62.4702 120.745 62.3215 120.484 62.2075C119.582 60.9595 118.07 56.1792 116.068 58.0665C115.362 57.0994 114.028 57.9912 113.922 58.9664C113.833 60.2877 114.505 61.5316 114.967 62.7348C113.542 63.1563 112.542 64.392 111.524 65.408C110.447 65.2634 109.582 66.4279 109.93 67.4276C108.739 68.0445 108.625 70.3776 110.254 70.3471C112.127 71.8068 115.044 71.0678 117.033 70.0681C117.064 71.3182 117.082 72.3545 117.105 73.5312C116.852 74.6713 116.76 77.2834 118.615 76.4222C118.599 77.2936 118.857 78.6026 120.014 78.3135L120.012 78.3156Z" fill="#8DF63A"/>
    <path d="M120.413 62.5642C120.449 62.9978 120.708 63.4172 121.276 63.8061C122.261 63.8773 123.558 62.7942 124.765 61.6887C125.077 61.4037 125.38 61.1167 125.671 60.8499C126.17 60.3878 126.632 59.9765 127.023 59.7139C126.604 61.5584 125.49 63.4376 125.667 65.333C125.722 65.4837 125.792 65.6079 125.875 65.7096C126.011 65.8807 126.18 65.9865 126.366 66.0374C126.917 66.1922 127.599 65.8664 127.935 65.3106C128.017 65.1803 128.078 65.0378 128.112 64.8851C129.645 59.6712 133.672 49.5181 124.603 57.8857C124.169 58.3254 123.357 58.9097 122.558 59.5633C122.558 59.5633 122.556 59.5633 122.554 59.5633C121.579 60.3654 120.633 61.2693 120.443 62.1448C120.413 62.2853 120.4 62.4257 120.413 62.5621V62.5642Z" fill="#8DF63A"/>
</svg>
