<svg width="379" height="526" viewBox="0 0 379 526" fill="none" xmlns="http://www.w3.org/2000/svg">
    <path d="M63.3704 142.677C60.721 150.247 65.4382 164.463 73.6786 166.809C77.3206 167.92 81.5406 167.719 84.3239 164.837C87.1181 162.8 86.9971 159.727 85.725 156.823C94.5707 161.471 105.606 154.79 101.059 144.423C104.751 145.661 108.963 146.662 112.799 145.565C119.04 142.99 119.278 135.168 117.33 129.624C122.167 132.736 127.44 136.218 133.4 136.137C138.392 135.888 143.267 132.203 144.231 127.182C147.665 132.716 157.181 141.932 161.705 132.508C163.181 138.11 165.128 143.577 167.525 148.85C168.766 152.577 170.37 156.172 172.314 159.584C173.944 162.822 175.243 166.464 177.622 169.206C178.924 169.84 180.901 168.132 182.289 167.813C188.549 165.635 186.94 165.854 184.786 160.359C183.062 156.821 181.659 153.139 179.977 149.581C179.315 147.521 177.242 145.307 178.619 143.178C180.93 142.689 183.285 142.437 185.647 142.426C188.77 142.384 192.017 143.285 195.085 142.673C195.684 142.398 195.936 141.778 196.058 141.175C196.385 140.627 196.821 140.153 197.123 139.601C198.201 137.12 196.592 133.618 194.028 132.799C195.921 128.182 194.248 122.611 191.17 118.906C187.694 115.537 181.821 114.727 177.593 117.124C178.738 108.108 171.32 99.9643 163.084 97.4715C155.147 94.2841 145.156 96.8446 140.544 104.279C134.619 96.8472 123.589 94.711 115 98.4051C108.974 100.674 102.66 105.731 103.172 112.809C97.6211 109.744 90.2464 107.711 84.2476 110.624C75.4211 115.277 68.0308 126.047 72.3953 136.086C67.7447 135.264 64.6921 138.533 63.3704 142.677Z" fill="#F4B913"/>
    <path d="M139.147 213.814C138.432 214.531 138.759 216.139 139.866 216.185C143.895 216.415 147.97 216.236 149.565 211.824C150.416 209.341 151.566 206.88 152.044 204.335C152.013 202.832 150.203 203.281 150.313 204.592C148.962 207.424 148.364 212.463 145.053 213.498C143.37 214.112 140.254 212.994 139.147 213.814Z" fill="black"/>
    <path d="M134.985 168.991C135.155 166.801 135.646 164.661 136.87 162.829C137.618 162.059 138.498 161.429 139.467 160.968C143.887 158.858 149.673 160.396 153.843 162.638C152.235 163.88 150.292 164.557 148.516 165.51C146.803 166.573 145.115 167.683 143.409 168.768C141.595 169.926 139.767 171.055 137.877 172.075C136.929 172.593 135.953 173.079 134.962 173.525C134.883 172.015 134.89 170.501 134.985 168.991ZM136.006 160.532C133.218 163.375 132.727 167.756 132.767 171.566C133.074 173.133 132.371 177.149 135.074 176.137C140.056 174.424 144.493 171.43 148.902 168.601C150.802 167.377 152.911 166.584 154.848 165.438C155.889 165.11 156.567 163.938 156.064 162.902C156.306 160.705 152.231 159.708 150.651 158.896C145.928 157.144 139.984 157.061 136.006 160.532Z" fill="black"/>
    <path d="M138.862 166.23C138.824 165.993 138.826 165.751 138.869 165.515C140.019 165.879 140.848 166.923 141.406 167.95C141.371 168.072 141.336 168.198 141.303 168.315C141.236 168.312 141.17 168.302 141.105 168.286C140.033 168.003 139.831 166.586 138.862 166.23ZM136.58 166.316C136.673 166.994 136.9 167.646 137.248 168.234C137.596 168.819 138.016 169.358 138.499 169.838C137.411 169.059 136.359 167.718 136.579 166.31L136.58 166.316ZM139.261 160.913C136.047 160.084 134.657 164.112 134.498 166.64C134.492 167.452 134.66 168.256 134.992 168.996C135.562 170.335 136.585 171.429 137.882 172.085C138.508 172.39 139.195 172.546 139.892 172.541C141.588 172.411 143.002 170.453 143.427 168.782C143.484 168.562 143.524 168.337 143.546 168.111C143.686 165.205 142.432 161.959 139.485 160.982C139.4 160.95 139.331 160.93 139.259 160.91L139.261 160.913Z" fill="black"/>
    <path d="M124.707 158.765C128.225 159.072 131.385 157.025 134.468 155.623C137.324 154.333 140.45 152.914 143.201 151.589C146.472 149.953 150.124 148.826 153.072 146.661C154.639 144.692 153.223 142.564 150.778 143.07C150.963 141.783 149.808 141.539 148.833 141.987C147.133 142.405 145.497 142.908 143.844 143.466C140.291 144.639 136.69 145.69 133.286 147.264C130.581 148.671 122.442 151.025 122.954 154.721C123.252 156.082 123.048 158.327 124.707 158.765ZM125.09 156.407C125.04 156.195 124.999 155.98 124.959 155.762C124.871 155.266 124.779 154.767 124.734 154.264C124.867 154.152 125.003 154.048 125.147 153.946L125.376 153.794C125.28 154.069 125.272 154.367 125.353 154.646C125.434 154.926 125.6 155.173 125.827 155.354C125.816 155.702 125.921 156.044 126.125 156.326C125.96 156.355 125.793 156.377 125.627 156.397C125.461 156.418 125.27 156.412 125.09 156.407ZM136.568 150.488C135.948 150.728 135.33 150.966 134.708 151.193C134.88 151.102 135.053 151.022 135.229 150.927C136.503 150.37 137.81 149.892 139.123 149.435C138.277 149.801 137.426 150.156 136.568 150.488Z" fill="black"/>
    <path d="M125.127 157.544C127.134 157.515 126.333 151.664 124.363 153.849C123.067 154.592 123.732 157.317 125.127 157.544Z" fill="black"/>
    <path d="M162.101 180.509C162.895 180.791 163.386 179.741 163.008 179.126C162.183 178.072 160.694 177.76 159.569 177.106C158.512 176.76 155.921 175.134 155.342 176.684C155.222 177.111 155.403 177.694 155.851 177.85C158.01 178.545 160.102 179.435 162.101 180.509Z" fill="black"/>
    <path d="M156.431 182.956C157.203 182.919 157.458 181.794 156.944 181.296C156.56 180.979 156.021 180.929 155.589 180.687C154.077 180.231 152.746 178.914 151.217 178.744C148.615 180.383 155.231 182.711 156.431 182.956Z" fill="black"/>
    <path d="M151.285 186.224C152.636 186.522 152.633 184.416 151.39 184.292C150.229 184.08 146.636 181.245 146.155 182.852C145.982 183.294 146.103 183.909 146.54 184.152C148.1 184.894 149.648 185.678 151.285 186.224Z" fill="black"/>
    <path d="M114.65 204.696C117.012 202.951 111.206 201.137 110.034 200.505C108.989 200.211 108.598 201.905 109.451 202.359C110.901 203.167 112.52 203.652 113.94 204.512C114.029 204.607 114.143 204.675 114.268 204.708C114.394 204.74 114.527 204.736 114.65 204.696Z" fill="black"/>
    <path d="M277.379 423.831C277.384 423.824 277.391 423.817 277.398 423.812C277.398 423.812 277.394 423.827 277.391 423.837C277.392 423.828 277.394 423.82 277.398 423.812L277.379 423.831ZM304.951 179.402C301.667 168.99 300.792 159.898 304.255 149.345C306.287 143.92 309.495 134.757 315.058 132.308C318.067 132.623 321.016 133.353 323.824 134.478C323.813 135.048 323.974 135.482 324.43 135.658C324.648 135.68 324.869 135.652 325.075 135.576C325.281 135.501 325.468 135.38 325.621 135.222C327.231 135.942 328.804 136.742 330.334 137.62C335.56 140.716 346.649 145.709 348.151 151.869C344.577 152.044 341.051 149.726 337.754 148.498C335.559 147.513 333.395 146.468 331.194 145.497C330.709 145.323 330.194 145.007 329.66 145.13C328.465 145.425 328.276 147.15 329.577 147.454C332.974 149.38 336.342 151.302 339.652 153.364C342.432 155.271 348.571 158.038 348.369 161.917C344.707 164.294 329.717 154.722 325.457 153.071C324.653 152.691 323.488 152.141 322.872 153.106C322.562 153.541 322.46 154.293 322.976 154.632C324.041 155.236 325.082 155.883 326.136 156.509C331.276 159.653 343.101 167.121 344.597 172.95C339.443 175.598 326.257 165.787 321.434 162.949C320.761 162.492 319.84 161.965 319.201 162.754C318.897 163.113 318.707 163.721 319.024 164.134C320.796 165.824 323.062 166.877 325.024 168.297C330.246 172.273 336.322 175.576 340.071 181.121C331.756 180.681 324.266 174.672 317.603 170.151C315.084 168.655 312.81 166.759 310.281 165.273C307.996 164.446 307.681 168.177 307.199 169.651C306.502 172.913 305.846 176.185 304.951 179.402ZM233.798 385.106C235.186 379.995 236.613 374.831 239.552 370.363C241.712 366.875 244.003 363.199 247.843 361.386C246.845 364.617 246.619 368.002 246.013 371.312C245.776 372.704 244.85 375.766 247.237 375.506C254.985 380.145 278.353 389.693 279.769 398.532C275.178 400.412 268.181 397.655 263.476 396.494C260.193 394.344 256.76 392.433 253.202 390.777C252.126 390.282 251.02 392.123 252.022 392.785C254.386 394.192 256.649 395.772 259.082 397.064C261.068 398.06 263.123 398.799 264.958 400.076C269.485 402.863 274.568 405.217 277.95 409.454C272.797 410.218 267.424 409.064 262.431 407.798C259.418 405.782 256.275 403.969 253.022 402.37C251.878 401.633 250.421 403.37 251.489 404.286C254.519 406.344 257.542 408.536 261.003 409.816C263.983 411.787 266.753 414.069 269.697 416.076C272.423 418.198 276.935 419.885 277.381 423.711C275.847 425.183 271.758 423.105 269.868 422.701C266.286 421.517 262.668 420.361 259.363 418.507C256.41 416.552 253.56 414.373 250.477 412.627C249.429 412.351 248.465 413.964 249.336 414.694C253.549 418 258.196 420.669 262.421 423.96C265.533 426.49 270.409 428.524 271.985 432.349C270.109 433.261 267.891 432.466 265.974 432.025C258.218 429.74 251.056 425.793 243.983 421.949C236.528 418.054 231.102 414.655 231.033 405.405C230.51 398.562 232.332 391.745 233.798 385.106ZM221.929 185.725C222.151 184.631 222.371 183.533 222.589 182.431C226.428 185.054 229.992 188.086 233.862 190.675C243.572 197.673 253.521 204.372 262.317 212.545C255.328 216.337 247.634 218.791 240.848 222.942C239.335 223.959 237.803 224.949 236.246 225.898C236.073 225.999 235.928 226.142 235.826 226.315C231.647 216.481 227.406 206.669 223.288 196.817C223.148 195.974 222.78 195.469 222.351 195.246C222.075 194.616 221.675 194.048 221.175 193.577C220.809 193.112 220.455 192.641 220.108 192.165C221.155 190.811 221.552 186.875 221.929 185.725ZM190.726 286.312C192.082 280.269 193.506 274.292 195.036 268.381C195.012 268.96 195.337 269.496 196.215 269.671C204.111 270.1 212.078 270.188 220.014 270.152C221.099 270.19 222.184 270.227 223.267 270.264C223.185 270.746 223.161 271.235 223.193 271.722C223.334 281.091 225.79 290.167 227.492 299.318C220.532 296.78 213.564 294.249 206.579 291.792C201.358 289.929 195.924 288.683 190.917 286.355C190.855 286.334 190.791 286.32 190.726 286.312ZM195.207 267.728L195.211 267.713C195.211 267.713 195.207 267.728 195.205 267.732L195.207 267.728ZM103.185 181.031C106.411 180.769 109.281 182.945 111.515 185.097C110.847 185.372 110.171 185.629 109.495 185.867C108.607 186.174 107.75 186.503 106.884 186.835C106.914 184.793 105.211 182.244 103.183 181.036L103.185 181.031ZM103.45 185.469L103.455 185.452L103.485 185.508L103.463 185.489L103.45 185.469ZM99.4315 189.864C98.8236 188.274 98.4209 186.249 98.6841 184.545C99.1663 186.301 100.211 187.85 101.657 188.953L99.4315 189.864ZM100.847 184.255C100.795 183.852 100.729 183.166 101.34 183.352L101.285 183.336L101.207 183.33L101.345 183.369L101.37 183.376C101.275 183.446 101.193 183.531 101.128 183.629C101 183.817 100.906 184.025 100.85 184.245L100.847 184.255ZM98.6934 170.075C100.023 169.378 101.382 168.744 102.755 168.14C101.43 168.845 100.079 169.492 98.6994 170.082L98.6934 170.075ZM96.6795 185.41C94.9918 182.36 93.3636 179.278 91.8247 176.154C96.9067 174.238 102.195 172.405 106.97 169.741C107.898 169.227 108.771 168.618 109.574 167.923C109.704 168.572 109.858 169.181 109.908 169.583C110.624 173.533 111.546 177.444 112.425 181.362C112.637 182.118 112.907 183.136 113.228 184.34L113.164 184.367C112.026 181.766 109.066 180.48 106.71 179.167C102.395 177.684 96.7197 179.535 96.6838 184.788C96.6748 184.943 96.6741 185.155 96.6795 185.41ZM90.382 173.154L90.3396 173.067C90.4755 172.911 90.6413 172.784 90.8271 172.693C90.6657 172.832 90.517 172.986 90.3827 173.151L90.382 173.154ZM83.7456 161.35C83.4431 162.368 83.8679 163.422 84.1189 164.4C84.7536 166.334 85.5203 168.222 86.4137 170.05C87.9771 173.296 89.2285 176.681 90.9344 179.858C94.9852 187.528 99.2245 195.221 103.614 202.687C107.849 209.474 112.468 216.006 117.209 222.441C120.134 226.757 123.184 230.983 126.359 235.12C129.863 239.587 133.078 245.311 138.763 247.15C143.952 247.502 148.579 244.184 152.787 241.537C156.511 239.347 159.668 236.45 162.686 233.388C163.776 232.431 164.791 231.397 165.8 230.356C169.164 235.854 173.948 240.331 177.751 245.5C182.375 251.621 186.834 257.85 191.883 263.646C192.457 264.389 193.031 265.129 193.626 265.855C189.114 271.999 183.891 306.823 182.836 310.046C179.636 327.109 175.346 343.999 173.256 361.249C172.934 364.071 172.506 366.874 172.086 369.685C171.877 372.22 170.804 374.884 171.646 377.381C179.607 394.055 214.705 408.706 231.233 416.81C231.419 416.854 231.613 416.855 231.8 416.814C232.403 417.557 233.063 418.251 233.773 418.89C233.406 418.865 232.974 419.08 232.548 419.656C231.884 419.858 231.343 420.755 231.942 421.304C224.645 441.577 220.043 462.708 214.042 483.379C212.132 490.731 209.581 497.897 207.795 505.284C207.777 506.96 204.619 513.007 206.891 513.24C209.067 513.05 208.736 509.945 209.436 508.396C210.54 504.474 211.606 500.545 212.784 496.646C217.055 483.277 220.387 469.638 224.128 456.121C226.872 447.676 228.702 438.83 231.381 430.436C232.322 427.311 233.338 424.433 234.418 421.385C234.581 421.125 234.684 420.832 234.719 420.527C234.754 420.222 234.72 419.914 234.62 419.624C237.923 422.337 242.093 424.333 245.709 426.28C251.972 429.459 258.307 432.691 265.099 434.571C267.982 435.428 273.595 436.02 273.994 431.905C273.298 428.285 269.409 426.363 266.743 424.242C270.061 425.157 273.533 426.879 277.029 426.166C279.875 425.388 279.819 421.865 278.097 419.972C275.125 416.289 270.62 414.304 267.104 411.207C284.228 413.618 283.213 408.489 270.115 400.513C284.817 403.629 284.535 396.126 274.345 388.334C266.565 382.54 257.777 378.38 249.352 373.652C250.502 372.177 251.073 368.306 251.61 367.161C253.246 361.831 255.064 356.56 256.61 351.202C262.422 331.42 267.236 311.379 272.742 291.526C277.434 276.625 280.598 261.343 285.543 246.512C289.045 233.956 293.713 221.761 297.246 209.212C300.296 200.503 303.72 191.909 305.962 182.94C306.346 182.676 306.42 182.14 306.306 181.717C308.213 177.403 308.734 172.677 309.932 168.155C316.673 172.569 323.13 177.53 330.455 180.965C333.037 182.054 343.174 185.933 341.623 179.955C340.26 177.67 338.205 175.828 336.299 173.988C339.29 175.352 346.805 177.058 346.18 171.666C344.635 167.567 340.974 164.528 337.762 161.702C340.975 162.874 345.732 165.503 349.008 163.633C352.962 159.697 346.123 155.039 343.088 153.014C351.48 156.18 351.569 150.168 346.264 145.424C341.712 141.284 336.274 138.302 330.934 135.337C329.493 134.521 328.036 133.718 326.522 133.048C326.624 132.569 326.776 132.102 326.973 131.654C327.686 129.587 328.36 127.507 328.974 125.412C328.939 125.231 328.922 125.047 328.925 124.863C328.939 124.516 328.989 124.171 329.073 123.834C329.121 123.665 329.149 123.488 329.19 123.315C329.278 122.946 329.372 122.582 329.468 122.215C329.614 121.646 329.787 121.082 329.946 120.516C330 120.323 330.055 120.129 330.109 119.936C330.204 119.598 330.299 119.261 330.395 118.921C330.456 118.703 330.517 118.487 330.579 118.269C330.612 118.15 330.648 118.021 330.681 117.906L330.787 117.529C331.013 116.726 331.258 115.922 331.432 115.104C331.53 114.697 331.728 114.321 332.007 114.01C334.094 106.266 336.2 98.5274 338.381 90.8099C341.29 82.7353 344.135 74.6507 346.827 66.5017C347.152 65.0081 349.368 62.4996 347.491 61.468C346.516 61.0783 345.274 62.3296 346.247 63.0962C343.128 69.8937 341.423 77.2148 338.357 84.0407C334.958 93.5247 332.562 103.364 329.84 113.062C329.529 114.166 329.215 115.28 328.901 116.396C324.073 111.905 318.745 108.051 313.14 104.591C305.003 99.3719 296.702 94.4114 287.743 90.7917C280.804 88.2565 273.66 86.3232 266.389 85.013C260.542 84.3683 254.311 86.1507 249.585 89.6524C244.76 94.2803 241.748 100.564 239.129 106.632C234.745 117.837 230.796 129.225 228.81 141.13C225.674 153.62 222.858 166.213 220.838 178.942C220.276 181.839 219.678 184.73 219.116 187.629C219.033 188.238 218.724 189.109 218.506 189.958C217.807 188.958 217.098 187.982 216.353 187.023C209.613 177.45 201.799 168.622 195.704 158.609C199.912 154.356 203.287 147.256 198.223 142.353C194.277 139.51 188.801 139.588 184.196 140.447C183.759 140.492 183.345 140.666 183.007 140.947C181.647 141.1 179.543 142.529 178.603 142.735C177.913 143.106 176.873 142.976 176.49 143.784C176.037 144.567 176.447 145.914 177.455 145.93C178.734 145.487 179.873 144.935 181.243 144.756C181.749 145.417 182.673 144.85 183.312 144.677C183.621 144.598 183.901 144.434 184.121 144.202C184.34 143.971 184.49 143.682 184.552 143.369C186.04 142.829 187.708 142.902 189.267 142.822C199.413 142.669 201.395 148.699 194.719 155.869C194.042 156.813 192.867 157.626 193.079 158.933C193.686 161.781 195.742 164.084 197.261 166.498C201.943 173.379 207.456 179.643 212.296 186.398C214.351 189.083 216.442 191.746 218.419 194.49C219.122 195.258 219.654 196.415 220.501 197.052C220.542 197.249 220.603 197.44 220.685 197.623C224.226 207.682 228.895 217.336 232.908 227.21C238.925 240.308 244.679 253.606 249.606 267.153C238.09 268.02 226.568 267.499 215.045 267.329C211.603 267.31 208.169 266.999 204.716 266.999C202.371 267.062 199.995 267.528 197.709 266.842C197.587 266.756 197.455 266.687 197.315 266.637C196.729 265.511 195.51 264.391 195.045 263.481C192.709 260.313 190.257 257.232 187.989 254.012C184.714 249.642 181.003 245.607 178.02 241.014C174.544 236.799 171.113 232.403 167.565 228.31L167.524 228.22C167.604 227.977 167.625 227.718 167.584 227.465C167.543 227.212 167.442 226.973 167.289 226.767C165.771 224.889 164.176 228.656 163.001 229.458C161.177 231.191 159.425 233.003 157.644 234.79C155.48 236.783 152.774 238.506 150.413 240.117C147.273 242.33 143.8 244.215 139.969 244.828C136.672 244.789 134.147 241.259 132.093 239.015C127.337 232.804 122.792 226.425 118.437 219.93C114.826 215.026 111.338 210.028 108.057 204.918C108.243 205.002 108.423 205.096 108.598 205.201C108.847 205.539 109.179 205.983 109.666 205.697C111.224 204.425 108.745 202.493 107.384 202.886C107.223 202.981 107.097 203.124 107.025 203.296C104.695 199.615 102.471 195.866 100.353 192.048C104.833 190.23 109.429 188.673 113.878 186.793C114.914 190.595 116.307 195.404 117.98 199.749C117.369 199.074 116.221 198.536 115.612 198.175C114.554 197.692 111.904 195.83 111.412 197.718C111.271 198.57 112.058 198.821 112.706 199.027C114.242 199.843 115.906 200.464 117.314 201.5C117.409 201.554 117.517 201.582 117.626 201.583C117.735 201.583 117.843 201.555 117.939 201.502C118.165 201.303 118.318 201.034 118.373 200.738C120.67 206.409 123.467 211.06 126.601 211.225C131.932 211.272 136.08 204.462 138.14 200.174C138.873 197.987 143.767 192.145 141.163 190.499C139.262 189.656 139.111 192.282 138.564 193.448C137.425 195.682 136.261 197.887 135.238 200.193C133.222 204.251 127.197 213.521 123.354 206.158C118.541 197.396 116.408 187.463 114.041 177.836C113.213 173.98 112.353 170.132 111.608 166.257C111.542 165.735 111.415 165.151 110.929 164.875L110.872 164.859C110.363 163.877 108.569 163.263 105.435 163.288C103.722 163.593 102.105 164.326 100.472 164.916C98.6316 165.624 92.041 168.751 89.434 171.101C89.3574 170.927 89.2653 170.751 89.2004 170.583C87.7514 167.605 86.1523 164.638 85.5595 161.352C85.4987 161.16 85.3783 160.992 85.2158 160.872C85.0533 160.752 84.857 160.688 84.6552 160.687C84.4535 160.687 84.2567 160.751 84.0934 160.869C83.93 160.988 83.8085 161.156 83.7463 161.348L83.7456 161.35Z" fill="black"/>
    <path d="M291.555 155.547C293.1 154.673 291.534 152.216 291.597 150.796C291.119 147.792 290.946 144.746 291.077 141.706C291.081 141.599 291.06 141.493 291.017 141.396C290.973 141.298 290.908 141.212 290.826 141.144C290.744 141.076 290.647 141.028 290.544 141.003C290.44 140.978 290.332 140.977 290.228 141.001C288.551 141.519 289.636 146.702 289.546 148.267C289.881 149.476 289.914 156.137 291.555 155.547Z" fill="white"/>
    <path d="M298.173 193.781C299.771 192.735 297.828 191.208 297.063 190.302C294.943 188.026 292.716 185.865 290.508 183.664C286.234 179.133 281.633 174.947 277.113 170.668C274.453 168.109 271.912 165.413 269.04 163.076C268.67 162.824 268.188 163.001 267.906 163.31C266.832 164.78 269.437 165.728 270.166 166.766C276.803 173.185 283.661 179.351 290.085 185.984C292.474 188.394 294.995 190.697 297.177 193.303C297.189 193.413 297.229 193.518 297.293 193.608C297.357 193.699 297.442 193.771 297.542 193.819C297.642 193.867 297.752 193.888 297.862 193.882C297.972 193.875 298.079 193.841 298.173 193.781Z" fill="white"/>
    <path d="M240.357 359.014C241.157 359.126 241.994 358.213 241.638 357.436C240.8 356.464 239.162 356.607 238.003 356.185C234.928 355.464 231.907 354.538 228.908 353.552C222.812 351.619 216.851 348.988 210.484 348.074C209.577 347.955 208.927 349.542 209.927 349.853C220.072 352.058 229.54 356.605 239.751 358.586C239.797 358.71 239.879 358.818 239.988 358.894C240.096 358.971 240.225 359.012 240.357 359.014Z" fill="white"/>
    <path d="M169.851 120.289C173.6 119.58 169.315 111.943 167.62 110.486C166.105 108.349 158.341 106.35 157.363 109.408C157.327 110.911 160.82 109.372 161.999 109.91C166.335 110.55 169.109 114.905 169.592 119.008C169.27 119.373 169.276 120.178 169.851 120.289Z" fill="white"/>
    <path d="M135.914 114.518C140.274 112.12 131.536 106.341 129.07 105.609C126.005 104.155 122.353 104.789 119.712 106.862C118.62 108.091 120.021 108.981 121.082 107.888C125.832 104.751 131.347 108.445 134.788 111.874C135.782 112.604 134.819 114.242 135.914 114.518Z" fill="white"/>
    <path d="M128.569 128.211C134.407 127.595 136.26 121.496 133.154 123.569C132.26 125.266 130.283 125.957 128.548 126.454C127.564 126.606 127.368 128.384 128.569 128.211Z" fill="white"/>
    <path d="M101.33 132.871C104.082 133.45 107.204 133.003 109.227 130.904C109.902 130.093 111.226 128.814 110.518 127.715C109.268 126.675 108.655 130.165 106.625 130.635C104.859 131.364 102.876 131.137 101.036 130.879C100.804 130.845 100.568 130.893 100.368 131.015C100.168 131.137 100.017 131.326 99.9415 131.548C99.5652 132.505 100.625 132.736 101.33 132.871Z" fill="white"/>
    <path d="M83.285 127.432C83.7802 127.571 84.2986 127.163 84.4645 126.706C86.6063 119.516 94.0143 119.827 99.2626 123.499C99.7662 124.321 100.936 123.414 100.71 122.64C99.81 120.995 97.5538 120.504 95.9497 119.729C93.9189 118.759 91.5904 118.619 89.4567 119.339C88.1992 119.721 87.0338 120.358 86.0337 121.213C85.0336 122.067 84.2204 123.118 83.645 124.302C83.3388 125.19 82.0377 126.832 83.285 127.432Z" fill="white"/>
    <path d="M88.0849 148.321C91.4534 147.746 93.4318 144.059 93.7292 140.895C93.776 140.33 93.8817 139.404 93.1103 139.297C92.3284 139.227 91.4503 140.372 92.0907 141.02C91.8383 143.284 90.5422 145.818 88.1926 146.429C87.2111 146.565 86.898 148.332 88.0849 148.321Z" fill="white"/>
    <path d="M72.0275 149.888C73.6625 149.671 72.8637 145.551 75.1577 143.439C75.4713 142.325 74.0879 142.227 73.522 142.909C72.391 143.784 70.0001 149.43 72.0275 149.888Z" fill="white"/>
    <path d="M176.615 131.654C177.878 129.485 180.337 127.403 182.983 128.282C183.143 129.339 184.696 128.842 184.92 128.048C185.152 125.817 181.448 126 180.001 126.538C178.386 127.025 174.193 130.187 175.382 132C175.791 132.284 176.372 132.041 176.615 131.654Z" fill="white"/>
    <path d="M178.151 136.9C179.433 135.879 180.952 135.201 182.567 134.931C184.173 135.616 184.55 132.758 182.392 133.275C180.831 133.551 176.399 134.782 177.011 136.868C177.283 137.261 177.82 137.185 178.151 136.9Z" fill="white"/>
    <path d="M248.449 79.7381C252.052 76.0995 259.647 73.5727 264.63 75.3081C265.102 75.4391 265.224 75.9611 265.043 76.3719C264.506 77.9366 261.179 75.6311 257.741 76.9157C255.197 77.5766 252.735 78.626 250.457 79.9329C249.846 80.316 249.368 81.4281 248.514 80.9233C248.11 80.6524 248.185 80.0951 248.448 79.7424L248.449 79.7381Z" fill="black"/>
    <path d="M251.717 73.1365C254.224 71.3924 257.428 70.4523 260.47 70.232C261.757 70.3269 268.183 70.0325 267.702 71.8911C267.564 72.3464 267.063 72.7764 266.565 72.6962C263.77 72.2975 260.76 71.7523 257.98 72.391C256.053 72.7935 254.245 73.6133 252.456 74.3967C251.675 74.6735 251.189 73.6975 251.717 73.1365Z" fill="black"/>
    <path d="M259.367 67.7032C260.453 64.6597 268.486 65.6376 271.198 65.9387C271.65 66.0302 271.802 66.5547 271.685 66.9435C271.331 68.1218 270.014 67.6866 269.101 67.6709C266.581 67.6492 264.011 67.3855 261.527 67.8878C260.776 68.1307 259.482 69.2137 259.366 67.7001L259.367 67.7032Z" fill="black"/>
    <path d="M207.693 423.205C209.067 427.001 189.414 419.269 191.632 418.372C195.008 419.546 198.444 420.613 201.985 421.197C201.951 421.199 201.881 421.17 201.847 421.172C203.666 421.938 207.224 420.747 207.693 423.205Z" fill="black"/>
    <path d="M204.988 438.696C204.923 442.315 192.971 436.39 190.859 435.814C190.15 435.384 185.969 433.854 186.737 433.121C186.942 433.141 187.35 433.148 187.335 433.422C191.387 435.063 195.749 435.728 200.052 436.534L200.018 436.536C200.085 436.532 200.155 436.561 200.189 436.559C200.189 436.559 200.189 436.559 200.155 436.561C201.721 437.105 204.704 436.464 204.988 438.696Z" fill="black"/>
    <path d="M169.536 404.018C168.784 406.524 158.218 395.869 160.89 395.146C162.788 394.543 163.288 397.476 164.412 398.527C165.639 400.117 166.971 401.733 168.647 402.918C169.218 402.812 169.773 403.491 169.536 404.018Z" fill="black"/>
    <path d="M157.249 408.892C156.771 411.925 148.891 406.923 150.97 404.944C153.014 403.99 153.564 407.67 155.704 407.631C155.67 407.633 155.6 407.603 155.566 407.606C156.317 407.658 157.222 407.973 157.249 408.892Z" fill="black"/>
</svg>
