<svg width="45" height="45" viewBox="0 0 45 45" fill="none" xmlns="http://www.w3.org/2000/svg">
    <path d="M30.35 23C30.35 18.7188 26.8813 15.25 22.6 15.25C18.3188 15.25 14.85 18.7188 14.85 23C14.85 26.875 17.6625 30.0938 21.3813 30.6562V25.25H19.4125V23H21.3813V21.3125C21.3813 19.375 22.5375 18.2812 24.2875 18.2812C25.1625 18.2812 26.0375 18.4375 26.0375 18.4375V20.3438H25.0688C24.1 20.3438 23.7875 20.9375 23.7875 21.5625V23H25.9438L25.6 25.25H23.7875V30.6562C27.5063 30.0938 30.35 26.875 30.35 23Z" fill="#9694A1"/>
    <rect x="0.5" y="0.5" width="44" height="44" rx="22" stroke="#E6DBDB"/>
</svg>
