<svg width="46" height="45" viewBox="0 0 46 45" fill="none" xmlns="http://www.w3.org/2000/svg">
    <path d="M23.1625 19.4062C21.1625 19.4062 19.5687 21.0312 19.5687 23C19.5687 25 21.1625 26.5938 23.1625 26.5938C25.1312 26.5938 26.7562 25 26.7562 23C26.7562 21.0312 25.1312 19.4062 23.1625 19.4062ZM23.1625 25.3438C21.8812 25.3438 20.8187 24.3125 20.8187 23C20.8187 21.7188 21.85 20.6875 23.1625 20.6875C24.4437 20.6875 25.475 21.7188 25.475 23C25.475 24.3125 24.4437 25.3438 23.1625 25.3438ZM27.725 19.2812C27.725 18.8125 27.35 18.4375 26.8812 18.4375C26.4125 18.4375 26.0375 18.8125 26.0375 19.2812C26.0375 19.75 26.4125 20.125 26.8812 20.125C27.35 20.125 27.725 19.75 27.725 19.2812ZM30.1 20.125C30.0375 19 29.7875 18 28.975 17.1875C28.1625 16.375 27.1625 16.125 26.0375 16.0625C24.8812 16 21.4125 16 20.2562 16.0625C19.1312 16.125 18.1625 16.375 17.3187 17.1875C16.5062 18 16.2562 19 16.1937 20.125C16.1312 21.2812 16.1312 24.75 16.1937 25.9062C16.2562 27.0312 16.5062 28 17.3187 28.8438C18.1625 29.6562 19.1312 29.9062 20.2562 29.9688C21.4125 30.0312 24.8812 30.0312 26.0375 29.9688C27.1625 29.9062 28.1625 29.6562 28.975 28.8438C29.7875 28 30.0375 27.0312 30.1 25.9062C30.1625 24.75 30.1625 21.2812 30.1 20.125ZM28.6 27.125C28.3812 27.75 27.8812 28.2188 27.2875 28.4688C26.35 28.8438 24.1625 28.75 23.1625 28.75C22.1312 28.75 19.9437 28.8438 19.0375 28.4688C18.4125 28.2188 17.9437 27.75 17.6937 27.125C17.3187 26.2188 17.4125 24.0312 17.4125 23C17.4125 22 17.3187 19.8125 17.6937 18.875C17.9437 18.2812 18.4125 17.8125 19.0375 17.5625C19.9437 17.1875 22.1312 17.2812 23.1625 17.2812C24.1625 17.2812 26.35 17.1875 27.2875 17.5625C27.8812 17.7812 28.35 18.2812 28.6 18.875C28.975 19.8125 28.8812 22 28.8812 23C28.8812 24.0312 28.975 26.2188 28.6 27.125Z" fill="#9694A1"/>
    <rect x="1.0625" y="0.5" width="44" height="44" rx="22" stroke="#E6DBDB"/>
</svg>
