<svg width="46" height="45" viewBox="0 0 46 45" fill="none" xmlns="http://www.w3.org/2000/svg">
    <path d="M29.7875 19.75C30.4125 19.2812 30.975 18.7188 31.4125 18.0625C30.85 18.3125 30.1938 18.5 29.5375 18.5625C30.225 18.1562 30.725 17.5312 30.975 16.75C30.35 17.125 29.6313 17.4062 28.9125 17.5625C28.2875 16.9062 27.4438 16.5312 26.5063 16.5312C24.6938 16.5312 23.225 18 23.225 19.8125C23.225 20.0625 23.2563 20.3125 23.3188 20.5625C20.6 20.4062 18.1625 19.0938 16.5375 17.125C16.2563 17.5938 16.1 18.1562 16.1 18.7812C16.1 19.9062 16.6625 20.9062 17.5688 21.5C17.0375 21.4688 16.5063 21.3438 16.0688 21.0938V21.125C16.0688 22.7188 17.1938 24.0312 18.6938 24.3438C18.4438 24.4062 18.1313 24.4688 17.85 24.4688C17.6313 24.4688 17.4438 24.4375 17.225 24.4062C17.6313 25.7188 18.85 26.6562 20.2875 26.6875C19.1625 27.5625 17.7563 28.0938 16.225 28.0938C15.9438 28.0938 15.6938 28.0625 15.4438 28.0312C16.8813 28.9688 18.6 29.5 20.475 29.5C26.5063 29.5 29.7875 24.5312 29.7875 20.1875C29.7875 20.0312 29.7875 19.9062 29.7875 19.75Z" fill="#9694A1"/>
    <rect x="1.34375" y="0.5" width="44" height="44" rx="22" stroke="#E6DBDB"/>
</svg>
