<svg width="46" height="45" viewBox="0 0 46 45" fill="none" xmlns="http://www.w3.org/2000/svg">
    <path d="M31.0375 18.9062C30.85 18.1562 30.2563 17.5625 29.5375 17.375C28.1938 17 22.8813 17 22.8813 17C22.8813 17 17.5375 17 16.1938 17.375C15.475 17.5625 14.8813 18.1562 14.6938 18.9062C14.3188 20.2188 14.3188 23.0312 14.3188 23.0312C14.3188 23.0312 14.3188 25.8125 14.6938 27.1562C14.8813 27.9062 15.475 28.4688 16.1938 28.6562C17.5375 29 22.8813 29 22.8813 29C22.8813 29 28.1938 29 29.5375 28.6562C30.2563 28.4688 30.85 27.9062 31.0375 27.1562C31.4125 25.8125 31.4125 23.0312 31.4125 23.0312C31.4125 23.0312 31.4125 20.2188 31.0375 18.9062ZM21.1313 25.5625V20.5L25.5688 23.0312L21.1313 25.5625Z" fill="#9694A1"/>
    <rect x="0.78125" y="0.5" width="44" height="44" rx="22" stroke="#E6DBDB"/>
</svg>
