<svg width="24" height="24" viewBox="0 0 24 24" fill="none" xmlns="http://www.w3.org/2000/svg">
    <path opacity="0.4" d="M10 3.75H11.25V8.5C11.25 8.91 11.59 9.25 12 9.25C12.41 9.25 12.75 8.91 12.75 8.5V3.75H14C14.41 3.75 14.75 3.41 14.75 3C14.75 2.59 14.41 2.25 14 2.25H10C9.59 2.25 9.25 2.59 9.25 3C9.25 3.41 9.59 3.75 10 3.75Z" fill="#3A6CFF"/>
    <path opacity="0.4" d="M14 20.25H12.75V15.5C12.75 15.09 12.41 14.75 12 14.75C11.59 14.75 11.25 15.09 11.25 15.5V20.25H10C9.59 20.25 9.25 20.59 9.25 21C9.25 21.41 9.59 21.75 10 21.75H14C14.41 21.75 14.75 21.41 14.75 21C14.75 20.59 14.41 20.25 14 20.25Z" fill="#3A6CFF"/>
    <path opacity="0.4" d="M2.82354 9.88C2.94354 9.95 3.07354 9.98 3.19354 9.98C3.45354 9.98 3.70354 9.85 3.84354 9.6L4.47354 8.52L8.59354 10.9C8.70354 10.97 8.83354 11 8.96354 11C9.22354 11 9.47354 10.87 9.61354 10.62C9.82354 10.26 9.69354 9.8 9.34354 9.6L5.23354 7.22L5.85354 6.14C6.06354 5.78 5.93354 5.32 5.58354 5.12C5.22354 4.91 4.76354 5.03 4.56354 5.39L2.56354 8.85C2.34354 9.22 2.46354 9.67 2.82354 9.88Z" fill="#3A6CFF"/>
    <path opacity="0.4" d="M21.1646 14.12C20.8046 13.91 20.3446 14.03 20.1446 14.39L19.5146 15.47L15.3946 13.1C15.0346 12.89 14.5746 13.02 14.3746 13.37C14.1646 13.73 14.2946 14.19 14.6446 14.39L18.7546 16.77L18.1346 17.85C17.9246 18.21 18.0546 18.67 18.4046 18.87C18.5246 18.94 18.6546 18.97 18.7746 18.97C19.0346 18.97 19.2846 18.84 19.4246 18.59L21.4246 15.13C21.6446 14.78 21.5246 14.33 21.1646 14.12Z" fill="#3A6CFF"/>
    <path opacity="0.4" d="M18.7646 7.22L14.6546 9.6C14.2946 9.81 14.1746 10.27 14.3846 10.62C14.5246 10.86 14.7746 11 15.0346 11C15.1646 11 15.2946 10.97 15.4046 10.9L19.5146 8.52L20.1446 9.6C20.2846 9.84 20.5346 9.98 20.7946 9.98C20.9246 9.98 21.0546 9.95 21.1646 9.88C21.5246 9.67 21.6446 9.21 21.4346 8.86L19.4346 5.4C19.2246 5.04 18.7646 4.92 18.4146 5.13C18.0546 5.34 17.9346 5.8 18.1446 6.15L18.7646 7.22Z" fill="#3A6CFF"/>
    <path opacity="0.4" d="M5.22646 16.78L9.33646 14.4C9.69646 14.19 9.81646 13.73 9.60646 13.38C9.39646 13.02 8.93646 12.9 8.58646 13.11L4.47646 15.49L3.84646 14.41C3.63646 14.05 3.17646 13.93 2.82646 14.14C2.46646 14.35 2.34646 14.81 2.55646 15.16L4.55646 18.62C4.69646 18.86 4.94646 19 5.20646 19C5.33646 19 5.46646 18.97 5.57646 18.9C5.93646 18.69 6.05646 18.23 5.84646 17.88L5.22646 16.78Z" fill="#3A6CFF"/>
    <path d="M15.5 12C15.5 12.64 15.33 13.23 15.03 13.75C14.42 14.8 13.29 15.5 12 15.5C10.71 15.5 9.58 14.8 8.97 13.75C8.67 13.23 8.5 12.64 8.5 12C8.5 11.36 8.67 10.77 8.97 10.25C9.58 9.2 10.71 8.5 12 8.5C13.29 8.5 14.42 9.2 15.03 10.25C15.33 10.77 15.5 11.36 15.5 12Z" fill="#3A6CFF"/>
</svg>
