<svg width="24" height="24" viewBox="0 0 24 24" fill="none" xmlns="http://www.w3.org/2000/svg">
    <path fill-rule="evenodd" clip-rule="evenodd" d="M9.05347 4.32224C8.88715 6.87558 8.72462 9.37081 5.9715 11.6608C2.64081 14.4312 3.36927 21.6123 9.39275 23.0003C6.9689 21.5588 6.86241 18.043 8.5875 16.5701C10.2243 15.1726 10.3209 13.6498 10.4198 12.0916C10.4588 11.4773 10.4981 10.8575 10.6323 10.2377C12.4819 9.09854 13.5215 13.8795 13.7776 15.4661C13.8025 14.6273 14.4205 13.8598 14.9031 13.6474C15.1178 13.553 15.1297 13.737 15.1523 14.0885C15.188 14.6434 15.2505 15.6159 16.1801 16.5701C17.5321 17.9579 17.1989 20.952 15.1805 22.5601C20.1989 20.5057 21.3862 14.3046 18.7424 11.6608C17.1789 10.0972 17.0737 8.50375 17.0136 7.59446C16.9756 7.01837 16.9557 6.71691 16.5945 6.87169C15.7828 7.21959 14.7432 8.47728 14.7013 9.85168C14.2706 7.25202 12.522 -0.582168 9.41087 1.28441C9.18518 2.30004 9.11903 3.31565 9.05347 4.32224Z" fill="#FF3AD4"/>
</svg>
