<svg width="534" height="382" viewBox="0 0 534 382" fill="none" xmlns="http://www.w3.org/2000/svg">
    <rect x="25" width="440" height="363" fill="#FDFDFD"/>
    <path d="M317.329 320.222C333.549 319.7 349.768 320.831 365.929 319.264C372.168 318.597 379.276 320.483 384.934 317.204C390.824 317.349 388.358 304.206 388.387 300.318C387.778 290.249 386.878 280.21 385.282 270.287C385.282 270.229 385.253 270.142 385.253 270.084C385.253 270.113 385.253 270.113 385.253 270.142C385.224 269.852 385.166 269.591 385.137 269.301V269.272C385.137 269.214 385.108 269.156 385.108 269.098C384.499 262.511 382.729 256.186 381.307 249.774C380.379 243.216 378.551 236.833 377.535 230.305C376.955 222.645 374.083 215.478 371.5 208.34C369.092 201.928 367.177 195.284 363.173 189.626C360.184 184.374 356.848 179.209 352.438 175.06C352.525 175.147 352.583 175.205 352.67 175.292C346.112 167.835 338.162 161.713 329.661 156.607C326.092 154.779 320.434 148.221 319.68 156.142C318.838 170.621 315.153 184.809 315.037 199.375C312.6 198.243 310.163 197.083 307.958 195.545C306.188 194.094 304.215 196.154 304.969 198.069C305.259 207.76 304.273 217.625 304.505 227.374C304.128 238.342 304.186 249.338 303.257 260.248C301.981 270.2 300.269 280.065 298.934 290.017C298.847 290.279 298.818 290.569 298.847 290.859C290.404 289.553 281.902 289.553 273.401 289.524C271.022 289.843 262.172 288.393 261.795 291.033C261.737 291.004 261.708 290.975 261.65 290.946C261.65 290.627 261.592 290.308 261.476 290.017C268.758 283.953 269.803 277.28 269.774 268.256C269.89 261.728 270.209 255.228 270.267 248.7C270.441 227.548 269.832 206.309 266.292 185.419C266.292 185.506 266.321 185.593 266.321 185.68C265.393 176.424 262.52 167.487 261.592 158.232C261.505 153.56 261.476 146.8 255.063 151.152C253.323 152.138 251.146 151.79 249.318 152.748C229.24 160.03 222.625 176.076 214.094 193.949C208.03 208.079 199.007 220.875 195.177 235.934C194.625 235.237 194.074 234.512 193.523 233.815C193.552 233.873 193.61 233.931 193.639 233.961C185.428 222.471 177.652 210.603 168.367 199.926C166.829 197.924 165.059 196.096 163.405 194.181C161.838 191.889 160.039 192.904 158.589 194.674C158.647 194.616 158.705 194.558 158.763 194.5C154.469 198.475 149.101 201.348 145.619 206.193C142.689 209.037 145.126 211.88 147.186 214.317C150.552 218.989 153.047 224.153 156.5 228.767C156.5 228.767 156.5 228.767 156.5 228.738C163.84 240.315 172.748 250.789 180.35 262.221C183.164 266.457 186.617 270.258 189.519 274.436C193.668 279.369 197.875 288.393 205.622 286.274C213.862 283.402 215.719 274.175 219.375 267.241C223.785 257.695 227.47 247.83 233.128 238.922C233.215 238.748 233.302 238.574 233.418 238.429C235.246 241.737 238.699 243.913 240.382 247.307C240.353 254.706 239.86 262.105 240.063 269.504C240.063 269.417 240.063 269.33 240.063 269.243C240.585 275.945 239.889 282.909 241.165 289.437C242.036 290.714 243.806 290.133 245.082 290.337C250.276 291.149 255.586 291.671 260.721 292.716C260.866 293.905 261.157 295.066 261.302 296.256C261.302 296.169 261.273 296.11 261.273 296.023C262.317 299.94 260.431 318.51 266.205 317.727C273.981 317.553 281.699 318.887 289.446 319.38C298.789 319.903 308.074 320.048 317.329 320.222ZM339.265 242.578C342.34 257.927 343.269 273.653 346.257 289.002C342.166 289.031 338.075 288.131 334.071 287.493C334.216 278.615 336.16 269.939 337.089 261.148C337.089 261.235 337.06 261.293 337.06 261.38C337.93 254.271 338.133 247.104 338.771 239.938C338.946 240.808 339.12 241.678 339.265 242.578Z" fill="#D600F9"/>
    <path d="M272.702 116.886C274.095 116.712 274.675 115.406 275.343 114.332C276.445 113.81 275.168 112.185 274.443 113.607C273.602 115.696 270.439 116.567 269.017 114.623C267.596 112.156 267.363 117.727 272.702 116.886Z" fill="#070707"/>
    <path d="M287.821 99.0702C289.475 99.1572 296.091 95.8495 294.408 93.9055C294.437 93.6444 294.176 93.3542 293.915 93.4703C291.332 91.5843 288.228 90.5978 285.036 91.062C282.773 91.1781 280.742 92.1936 278.711 93.1801C277.318 93.8475 278.276 95.7044 279.204 96.3427C279.175 96.3137 279.146 96.3137 279.117 96.2847C281.699 98.0836 284.688 99.2442 287.821 99.0702ZM287.096 97.4743C284.398 97.3873 281.148 96.6039 279.349 94.5148C281.38 93.4993 283.44 92.4257 285.761 92.3387C285.732 92.3387 285.703 92.3387 285.674 92.3387C287.125 92.2226 288.605 92.2807 290.056 92.6288C290.027 92.6288 289.998 92.6288 289.969 92.5998C291.158 92.919 292.232 93.4993 293.334 93.9925C292.174 95.5013 290.462 96.7199 288.634 97.2132H288.663C288.141 97.3873 287.647 97.5034 287.096 97.4743Z" fill="#070707"/>
    <path d="M285.325 96.8068C287.472 95.6172 285.905 91.7583 283.584 92.4256C280.828 93.8473 282.278 98.2866 285.325 96.8068ZM284.426 95.124C284.338 95.0369 284.251 94.9499 284.193 94.8338C284.222 94.8338 284.28 94.8629 284.309 94.8919C284.338 94.9789 284.367 95.066 284.426 95.124C284.455 95.124 284.455 95.124 284.426 95.124Z" fill="#070707"/>
    <path d="M260.254 97.3002C261.705 97.2422 263.301 97.0391 264.345 95.9655C264.78 95.3562 265.477 94.95 265.825 94.2826C266.057 93.6153 265.448 92.7449 264.722 92.948C263.91 91.4392 262.111 91.004 260.573 90.5978C260.602 90.5978 260.631 90.5977 260.66 90.6268C257.991 89.9884 253.116 89.7563 251.927 92.6288C253.435 95.7044 256.801 97.7354 260.254 97.3002ZM260.022 95.5303C257.324 95.7914 254.944 94.8339 253.203 92.7158C255.641 91.2071 258.542 91.4102 261.241 91.9905C261.241 91.9905 261.241 91.9905 261.211 91.9905C261.241 91.9905 261.27 91.9905 261.299 92.0195H261.27C262.285 92.3096 263.475 92.5127 264.055 93.4702C263.156 94.892 261.734 95.6754 260.022 95.5303Z" fill="#070707"/>
    <path d="M257.415 95.9946C260.491 95.8495 260.404 92.0195 257.27 92.2226C254.63 92.2226 254.92 96.0816 257.415 95.9946ZM257.212 94.3117C257.212 94.2827 257.241 94.2247 257.241 94.1957C257.357 94.1666 257.473 94.1666 257.589 94.1666C257.589 94.1957 257.618 94.2247 257.618 94.2537C257.473 94.2827 257.357 94.3117 257.212 94.3117Z" fill="#070707"/>
    <path d="M265.62 94.6302C266.926 94.0499 263.241 90.6261 262.805 92.2509C262.747 93.2955 264.285 93.1794 264.778 93.9628C264.662 94.427 265.214 94.6592 265.62 94.6302Z" fill="#070707"/>
    <path d="M297.741 91.1775C298.205 89.6397 296 89.9008 295.159 89.3786C291.3 87.4056 286.977 87.3475 282.74 87.4346C280.506 87.6667 277.257 86.9993 275.777 89.0014C275.516 89.9589 276.56 90.5101 277.315 89.9298C282.334 89.3786 287.586 89.6687 292.606 90.3361C293.998 90.4521 296.668 92.106 297.741 91.1775Z" fill="#070707"/>
    <path d="M266.175 89.5822C270.063 85.7523 251.523 85.8393 251.349 88.4506C251.639 89.7273 253.176 88.5377 253.96 88.4506C257.848 87.8123 261.852 88.5667 265.566 89.6693H265.537C265.74 89.7273 265.943 89.6983 266.175 89.5822Z" fill="#070707"/>
    <path d="M296.147 97.7354C296.263 96.865 295.219 96.894 294.668 96.6039C294.377 96.4878 294.116 96.3717 293.855 96.2267C293.797 96.1977 293.768 96.1686 293.71 96.1396C293.739 96.1396 293.739 96.1686 293.768 96.1686C292.027 94.7759 291.476 96.6619 292.666 96.6039C293.536 96.9811 295.509 99.0121 296.147 97.7354Z" fill="#070707"/>
    <path d="M294.17 99.0994C294.576 98.1999 293.155 98.0258 292.69 97.5035C292.661 97.5035 292.661 97.4745 292.632 97.4745C292.632 97.4745 292.661 97.4745 292.661 97.5035C292.284 97.2424 291.094 95.9367 291.24 97.1264C291.849 97.6776 293.329 99.7377 294.17 99.0994Z" fill="#070707"/>
    <path d="M291.763 100.086C291.908 99.7664 291.763 99.3892 291.473 99.2151C291.009 98.954 290.719 98.4897 290.632 97.9674C290.632 97.9964 290.632 98.0255 290.632 98.0545C290.748 97.5032 289.964 96.9809 289.703 97.6483C289.529 98.5477 290.69 101.101 291.763 100.086Z" fill="#070707"/>
    <path d="M255.845 98.7512C256.164 98.1999 257.179 97.3005 256.628 96.6912C256.048 96.4881 255.642 97.6487 255.148 97.9678C254.713 98.374 255.38 99.2155 255.845 98.7512Z" fill="#070707"/>
    <path d="M253.604 97.7351C254.214 97.2418 256.158 96.3424 255.287 95.4429C254.533 95.2398 253.894 96.3134 253.14 96.5165C253.14 96.5165 253.14 96.5165 253.169 96.5165C252.473 96.8066 252.908 97.9962 253.604 97.7351Z" fill="#070707"/>
    <path d="M252.792 96.0815C253.372 95.6753 254.475 93.6733 252.995 94.0505C253.024 94.0505 253.024 94.0215 253.053 94.0215C252.937 94.0795 252.85 94.1955 252.821 94.3406C252.589 94.6308 252.27 94.8339 251.98 95.037C251.341 95.5012 252.154 96.6908 252.792 96.0815Z" fill="#070707"/>
    <path d="M130.531 213.911C132.62 213.592 134.71 212.983 136.799 212.751C138.946 212.2 143.994 212.896 144.604 210.256C143.327 200.565 140.164 191.512 136.857 182.343C140.077 182.43 135.493 177.643 134.826 176.598C132.795 173.987 126.992 173.378 127.543 169.112C129.371 168.271 134.797 171.23 136.828 172.217C141.238 174.567 145.126 176.888 148.608 180.66L148.579 180.602C150.116 182.169 151.625 183.736 153.192 185.303L153.163 185.274C155.542 187.595 157.805 190.061 160.011 192.556C161.026 193.369 161.577 194.965 162.825 195.371C166.916 194.558 150 178.252 148.201 176.859C145.938 174.857 142.979 173.087 140.454 171.434C138.656 170.128 136.828 169.17 134.68 168.184C134.158 167.952 133.636 167.691 133.114 167.459C132.678 167.226 132.127 166.791 131.663 167.139C131.634 167.139 131.605 167.11 131.576 167.11C130.531 161.569 128.326 155.969 127.166 150.514C126.44 148.541 126.382 144.624 124.989 143.289C124.177 142.796 123.045 143.086 122.117 143.144C122.001 142.274 121.827 141.403 121.653 140.562C120.985 137.283 120.144 134.236 119.535 130.871C118.664 128.579 114.457 129.681 112.774 130.61C110.946 132.902 114.602 141.142 114.776 144.392C110.511 145.001 111.759 147.641 112.484 150.804C113.79 155.504 114.602 160.901 116.111 165.66C110.308 164.325 111.033 168.851 114.283 171.782C108.857 171.84 110.801 176.627 114.051 178.571C111.12 180.573 114.254 183.533 116.14 184.838C117.272 185.68 120.231 188.494 120.202 185.361C119.128 183.33 116.227 182.662 114.834 180.805C120.55 177.469 113.674 177.643 112.542 174.335V174.306C113.703 173.407 115.56 174.277 116.778 173.61C118.316 171.521 113.761 169.635 113.442 167.604C114.341 166.965 115.56 167.168 116.604 167.459C117.765 172.159 118.403 176.975 119.738 181.618C121.798 188.756 124.003 195.864 125.831 203.06V203.002C125.889 203.176 125.976 203.553 126.034 203.727L126.005 203.669C126.411 205.265 126.933 206.89 127.456 208.486C128.123 210.372 127.949 214.202 130.531 213.911Z" fill="#070707"/>
    <path d="M111.091 133.337C113.151 133.105 115.24 133.192 117.3 133.134C117.213 133.134 117.097 133.163 117.01 133.163C118.78 132.843 121.681 132.524 121.971 130.348C131.053 127.911 139.554 122.253 145.125 114.622C150.986 106.643 155.948 97.7933 158.327 88.1314C158.298 88.2184 158.298 88.3055 158.269 88.3635C171.239 38.4578 118.257 -1.52479 72.5587 18.0893C72.5877 18.0893 72.6168 18.0603 72.6168 18.0603C58.8637 23.8052 47.925 35.3242 41.8899 48.8741C39.3076 54.1839 36.8704 59.7257 36.3191 65.6448C33.6207 89.6401 48.3313 113.519 68.6997 125.474C81.4373 133.134 96.5831 134.439 111.091 133.337ZM100.906 129.42C84.8611 130.522 68.7868 123.994 57.5 112.62L57.529 112.649C51.2037 106.469 46.4453 98.8959 42.9635 90.7717C42.9925 90.8588 43.0215 90.9458 43.0796 91.0329C40.9325 85.6071 39.5107 79.8331 39.1916 74.0011C39.1916 74.0301 39.1916 74.0591 39.1916 74.1171C39.1916 74.0301 39.1916 73.9431 39.1916 73.856C39.1916 73.885 39.1916 73.914 39.1916 73.9431C39.1916 73.6239 39.1916 73.3047 39.1626 73.0146C39.1626 73.0726 39.1626 73.1016 39.1626 73.1597C38.7854 64.8324 41.1065 56.7952 45.0236 49.5125C47.6929 43.7095 51.0877 38.3127 55.585 33.7864C75.3442 11.3868 111.961 11.0677 134.709 29.086C155.483 44.3188 163.433 74.6394 150.957 97.5322C143.529 112.446 136.624 121.092 121.014 127.882C119.505 126.576 117.822 128.172 116.313 128.607C111.178 129.013 106.071 129.565 100.906 129.42Z" fill="#070707"/>
    <path d="M107.583 124.342C109.092 124.226 120.785 122.775 120.32 121.354C131.607 117.495 138.571 107.281 143.068 96.7198C146.84 87.6962 149.916 78.0342 149.19 68.1401V68.1691C148.668 47.2494 131.665 29.6373 112.457 23.3701C94.381 17.48 71.8944 24.3566 60.0273 39.2122L60.0563 39.1832C53.1798 47.3074 49.0306 57.9559 49.3788 68.6624C49.3788 68.6334 49.3788 68.6044 49.3788 68.5753C49.3788 68.7494 49.3788 68.9235 49.3788 69.0976C49.3788 69.0686 49.3788 69.0396 49.3788 69.0106C49.5819 74.8136 50.4814 80.7036 52.6285 86.1294C52.6285 86.1294 52.6285 86.1294 52.6285 86.1004C52.6285 86.1294 52.6575 86.1584 52.6575 86.1874V86.1584C52.6865 86.2164 52.7155 86.2745 52.7445 86.3615C52.7445 86.3615 52.7445 86.3615 52.7445 86.3325C52.7445 86.3615 52.7736 86.3905 52.7736 86.4195C57.7061 98.2286 64.4956 110.676 76.3917 116.595C86.1697 121.005 96.7312 124.777 107.583 124.342ZM106.683 122.63C102.766 122.63 98.7912 122.427 94.9613 121.47C94.9903 121.47 95.0193 121.47 95.0483 121.499C90.1448 120.338 85.3863 118.742 80.6279 117.088C80.6569 117.088 80.6859 117.117 80.7149 117.117C80.5409 117.059 80.3377 116.972 80.1637 116.914C80.1927 116.914 80.1927 116.914 80.2217 116.943C80.1347 116.914 80.0766 116.885 79.9896 116.856C79.9896 116.856 80.0186 116.856 80.0186 116.885C78.1906 116.131 76.4207 115.26 74.6798 114.332C62.4936 106.991 53.9051 89.8433 51.2938 76.1773C51.2938 76.2063 51.2938 76.2353 51.2938 76.2933C50.9166 73.769 50.6555 71.2447 50.6265 68.6914C50.6265 68.7204 50.6265 68.7494 50.6265 68.7785C50.3653 59.4647 53.702 50.0348 59.389 42.665C59.418 42.636 59.418 42.607 59.447 42.578C59.447 42.578 59.447 42.607 59.418 42.607C68.3256 30.3337 83.1232 23.8343 98.0078 22.9349C97.9788 22.9349 97.9498 22.9349 97.9208 22.9349C99.8938 22.8188 101.867 22.7317 103.84 22.8768C107.902 23.225 111.819 24.4436 115.591 25.8363C115.562 25.8363 115.562 25.8363 115.533 25.8073C120.349 27.7223 124.876 30.4497 129.054 33.4963C129.054 33.4963 129.054 33.4963 129.025 33.4963C134.712 37.8195 139.296 43.5355 142.981 49.6286C145.97 55.4026 147.914 61.9309 148.03 68.4593C148.03 68.4303 148.03 68.4013 148.03 68.3722C148.755 77.1928 145.999 85.6942 142.981 93.8764C141.588 97.097 140.138 100.289 138.484 103.364C138.484 103.364 138.484 103.335 138.513 103.335C138.484 103.364 138.484 103.393 138.484 103.422L138.513 103.393C134.189 110.531 129.692 115.928 121.8 119.177C120.756 119.874 117.1 120.222 117.071 121.441C113.589 121.905 110.165 122.485 106.683 122.63Z" fill="#070707"/>
    <path d="M230.94 317.959C233.232 317.727 235.031 315.986 237.12 315.144C242.082 314.216 247.247 315.377 252.266 315.406C253.833 315.522 255.4 315.696 256.996 315.812C256.938 315.812 256.88 315.812 256.822 315.812C256.996 315.812 257.17 315.841 257.315 315.841C257.257 315.841 257.199 315.841 257.141 315.841C259.085 315.841 266.455 317.901 263.901 313.752C263.64 313.52 263.234 313.346 262.857 313.433C260.477 313.752 258.098 313.026 255.719 313.026C255.777 313.026 255.835 313.026 255.893 313.026C249.655 312.62 243.33 312.214 237.091 312.794C234.538 313.375 232.652 316.276 229.983 316.044C229.431 314.1 233.958 310.618 234.422 308.645C234.016 304.612 226.501 311.866 224.499 312.214C224.528 312.185 224.557 312.185 224.615 312.156C223.57 312.533 222.149 313.317 221.133 312.446C222.323 310.56 223.948 308.819 225.689 307.397C226.704 306.672 228.097 306.179 228.648 304.989C229.025 299.679 217.1 309.458 214.547 308.993C216.288 305.279 220.843 304.003 223.338 301.101C223.686 295.937 211.471 305.308 208.541 303.858C210.688 299.505 215.301 296.372 219.566 294.254C219.508 294.283 219.479 294.283 219.421 294.312C233.755 287.957 249.481 293.615 264.336 292.919C264.54 293.151 264.888 293.122 265.149 292.977C272.374 293.035 279.714 292.513 286.939 293.122C291.262 293.586 295.789 293.296 300.083 292.484C301.766 292.426 301.127 290.395 301.534 289.263C304.261 270.403 304.667 251.254 305.973 232.249C306.408 220.643 308.207 209.153 309.164 197.605C311.718 199.114 317.927 205.265 317.637 198.533C317.637 194.384 317.927 190.264 318.304 186.144C319.581 176.018 322.685 166.153 322.366 155.881C349.698 166.124 364.206 190.177 373.055 216.668C373.868 219.105 374.651 221.542 375.202 224.038C375.435 227.926 378.626 227.897 381.586 226.765C390.9 223.341 392.06 213.505 387.882 205.497C386.344 202.538 384.11 199.984 382.63 196.996C381.818 195.11 382.514 193.021 382.34 191.048C381.789 188.436 381.383 185.303 379.323 183.446C376.624 174.712 362.987 173.987 364.815 165.224C364.815 165.282 364.815 165.34 364.786 165.398C367.833 150.717 356.024 142.883 345.578 135.542C344.098 133.801 344.098 131.364 343.605 129.246C343.054 126.605 342.183 123.994 340.936 121.586C337.483 114.738 330.548 110.299 327.618 103.19C327.618 103.219 327.647 103.248 327.647 103.277C325.065 96.4879 324.252 89.0891 320.48 82.7639C309.89 61.5539 290.943 53.1686 268.108 59.697C268.137 59.697 268.137 59.668 268.166 59.668C268.166 59.668 268.166 59.668 268.195 59.668C268.021 59.726 267.905 59.9001 267.905 60.0742C259.723 63.8171 249.191 68.9527 248.32 79.0499C247.885 80.0655 248.494 81.2841 248.581 82.3576C247.044 82.6478 245.012 81.8934 243.794 82.996C242.865 83.1991 243.01 84.4177 242.981 85.1721V85.1431C242.981 85.1721 242.981 85.2011 242.981 85.2591C242.981 85.2591 242.981 85.2591 242.981 85.2301C243.039 87.2902 242.836 89.3793 243.185 91.4393C243.185 91.3813 243.185 91.3523 243.156 91.2942C243.185 95.9366 245.477 100.666 250.206 102.088C251.019 106.846 251.686 111.663 251.28 116.479C250.409 119.178 248.929 121.818 249.394 124.806C250.235 128.84 253.137 132.147 254.065 136.18C255.603 141.287 243.707 140.3 241.85 150.601C240.95 151.79 240.399 153.183 239.79 154.518C239.18 155.823 237.236 158.58 239.674 159.073C241.531 158.377 243.33 157.274 245.187 156.491C250.264 154.576 255.516 153.154 260.855 152.197C257.199 163.512 257.17 175.438 255.661 187.131C253.92 201.348 254.007 198.882 264.685 191.831C262.712 199.897 262.857 208.224 262.973 216.465C262.973 216.378 262.973 216.32 262.973 216.233C262.973 216.465 262.973 216.697 262.973 216.958C262.973 216.929 262.973 216.929 262.973 216.9C263.669 229.666 262.799 242.404 262.189 255.142C261.928 267.009 261.87 278.934 260.564 290.743C255.371 289.611 250.003 289.611 244.722 289.437C239.297 289.205 233.842 288.48 228.474 289.466C211.094 290.308 195.89 312.388 216.375 304.061C214.634 305.453 210.775 308.819 213.647 310.85C216.694 311.663 219.566 309.109 222.323 308.123C221.307 309.487 219.595 310.618 219.45 312.446C219.595 314.564 222.207 315.057 223.89 314.419C223.861 314.419 223.832 314.419 223.803 314.448C226.298 313.81 228.387 312.301 230.592 311.053C228.793 313.026 226.211 317.959 230.94 317.959ZM317.231 97.0392C322.482 105.483 312.066 104.467 312.182 107.514C311.66 115.145 311.689 122.804 311.486 130.464C311.602 137.254 310.441 144.711 313.023 151.094C310.499 153.966 307.337 156.23 304.928 159.189C298.429 167.807 292.713 177.004 285.604 185.129C284.154 179.558 281.948 174.19 279.917 168.822C277.915 162.149 275.333 155.736 272.49 149.411C273.418 148.251 272.49 146.336 272.635 144.914C272.519 138.153 272.228 131.335 272.693 124.574C272.693 124.632 272.693 124.69 272.664 124.719C272.954 123.617 272.403 122.253 271.068 122.485C251.425 122.717 255.806 119.584 252.121 102.755C252.121 102.813 252.121 102.842 252.15 102.9C252.121 102.784 252.121 102.697 252.092 102.581C256.647 103.742 262.508 103.539 265.584 99.5055C265.294 101.827 264.365 104.061 264.133 106.382C265.41 109.603 270.197 107.514 272.17 106.005C272.141 106.034 272.112 106.034 272.083 106.063C273.331 105.628 274.085 104.061 272.693 103.277C271.242 102.465 268.108 108.239 265.236 106.353C265.7 104.38 266.396 102.494 266.774 100.492C266.774 100.521 266.745 100.55 266.745 100.579C267.093 99.2153 267.383 97.8516 267.702 96.4879V96.4589V96.4299C267.702 96.4299 267.702 96.4009 267.702 96.3719V96.4009C268.224 94.3408 268.747 92.2517 269.675 90.3367C270.168 90.2497 270.662 90.1336 271.155 90.1627C270.517 99.8246 279.134 108.239 288.767 107.485C288.738 107.485 288.738 107.485 288.709 107.485C288.738 107.485 288.796 107.485 288.825 107.485H288.854C295.615 106.295 299.967 99.5635 301.476 93.2963C302.607 93.5864 303.71 93.8185 304.841 94.0797C304.783 94.0797 304.725 94.0507 304.667 94.0507C307.714 94.805 310.76 95.4724 313.807 96.1107C313.894 96.2558 314.068 96.3428 314.213 96.2268C314.271 96.2268 314.3 96.2268 314.358 96.2268C314.329 96.2268 314.329 96.2268 314.3 96.2268C315.142 96.3138 315.983 96.4299 316.795 96.5459C316.999 96.7491 317.115 96.8941 317.231 97.0392ZM286.098 84.5628C290.798 84.3887 295.295 85.2591 299.88 86.0716C299.474 94.1957 295.208 105.831 285.43 105.279C276.087 104.177 270.72 94.776 273.534 86.0425C277.596 84.7949 281.861 84.4757 286.098 84.5628ZM266.774 89.2342C266.832 89.6694 266.977 90.1046 267.325 90.3948C266.977 99.1863 259.752 102.407 251.86 100.579C251.57 96.8071 251.106 93.0351 251.077 89.2342C251.338 88.915 251.309 88.3927 251.077 88.0446C251.077 87.029 251.077 86.0425 251.048 85.027C256.183 85.2882 261.377 85.6944 266.425 86.5358C266.454 86.7389 266.484 86.971 266.513 87.1741C266.513 87.1161 266.513 87.0871 266.484 87.0581C266.513 87.2612 266.542 87.4933 266.571 87.6964C266.571 87.6384 266.542 87.5803 266.542 87.5223C266.687 88.0736 266.687 88.6539 266.774 89.2342ZM245.651 90.1046C246.811 90.5108 248.001 90.859 249.22 91.1492C249.336 94.1667 249.829 97.1553 250.003 100.144C248.988 99.8246 248.088 99.1863 247.247 98.548C247.276 98.577 247.305 98.606 247.334 98.606C246.637 98.1418 246.202 97.4744 245.825 96.7491C244.635 94.631 245.07 92.1067 244.809 89.7855C245.1 89.9015 245.39 89.9886 245.651 90.1046ZM296.05 78.1795C299.59 78.4406 301.911 81.6033 305.247 82.5027C309.513 83.7213 310.557 88.3637 311.921 92.0486C308.729 91.0621 305.625 89.6694 302.317 88.973C302.317 87.3772 303.768 84.5047 301.301 84.1276C299.735 82.967 297.675 82.8799 295.818 82.7929C295.847 82.7929 295.847 82.7929 295.876 82.7929C289.783 82.2416 283.196 81.8644 277.248 82.7929C272.403 83.7213 271.039 83.6053 271.213 89.1181C270.459 88.799 269.675 88.7409 268.921 88.5088C269.153 84.1566 267.47 83.7794 263.582 83.6053C259.462 83.2571 255.342 82.7348 251.193 82.3867C251.338 81.6613 251.425 80.9359 251.512 80.2105C257.228 74.2335 266.542 77.3381 269.443 69.3009C272.954 72.1444 277.161 73.9723 281.368 75.5681C281.31 75.5391 281.252 75.5391 281.223 75.5101C285.865 77.5992 290.914 78.6437 296.05 78.1795ZM268.137 90.7139C268.137 90.6849 268.137 90.6559 268.137 90.6269C268.166 90.6269 268.166 90.6269 268.195 90.6269C268.195 90.6559 268.166 90.6849 268.137 90.7139ZM249.133 85.3752C249.133 86.0425 249.133 86.7389 249.133 87.4062C247.74 87.3482 246.26 86.6228 244.925 86.855C244.925 86.3617 244.954 85.8685 244.983 85.3752C246.376 85.3172 247.769 85.2011 249.133 85.0851C249.162 85.1721 249.133 85.2591 249.133 85.3752Z" fill="#070707"/>
    <path d="M475.243 201.58C476.672 199.888 476.823 197.369 477.499 195.301C477.462 195.414 477.462 195.489 477.424 195.602C478.289 192.255 479.191 188.909 479.53 185.45C480.883 184.247 481.748 180.75 479.755 179.735C476.447 178.531 472.837 177.629 469.378 177.253C468.024 178.043 468.137 180.073 467.686 181.427C466.257 186.315 465.016 191.203 463.587 196.091C463.099 198.083 465.505 198.459 466.859 199.099C469.491 199.813 472.461 202.52 475.243 201.58ZM477.199 183.382C475.356 188.157 473.627 193.007 472.875 198.083C470.543 197.595 468.4 196.467 466.069 195.865C467.46 190.488 469.19 185.224 470.393 179.81C472.837 180.637 475.206 181.577 477.65 182.329C477.499 182.705 477.311 183.043 477.199 183.382Z" fill="#070707"/>
    <path d="M455.116 194.512C457.259 192.82 457.109 189.248 458.011 186.767C458.989 181.916 460.23 177.103 460.681 172.178C460.681 172.253 460.681 172.328 460.643 172.403C460.681 172.103 460.719 171.764 460.756 171.463V171.501C460.756 171.426 460.756 171.351 460.794 171.275C460.794 171.313 460.794 171.313 460.794 171.351C461.019 167.929 462.223 164.319 461.546 160.935C462.448 158.04 460.004 157.326 457.673 157.138C455.831 156.987 454.101 156.348 452.259 156.16C449.439 156.311 450.341 161.048 449.589 163.041C448.047 170.787 446.205 178.532 445.002 186.353C445.002 186.315 445.002 186.278 445.039 186.24C445.039 186.278 445.002 186.353 445.002 186.391C443.686 190.414 444.739 191.429 448.611 192.557C450.679 193.309 452.86 194.851 455.116 194.512ZM453.612 190.865C453.575 190.978 453.575 191.053 453.537 191.166C451.243 190.564 449.1 189.587 446.769 189.135C448.611 179.171 451.206 169.32 453.011 159.356C454.928 159.845 456.883 160.221 458.839 160.559C458.801 161.462 458.651 162.703 459.666 163.154C456.996 172.215 456.169 181.766 453.612 190.865Z" fill="#070707"/>
    <path d="M434.265 187.292C436.221 186.503 435.807 183.532 436.785 181.878C436.785 181.915 436.747 181.953 436.747 181.991C436.785 181.915 436.822 181.84 436.822 181.765C439.943 170.936 440.883 159.581 443.289 148.602C444.455 147.624 444.305 145.669 444.793 144.315C445.433 142.548 445.921 139.578 443.365 139.239C439.943 139.202 436.296 137.134 432.987 138.111C430.957 141.157 431.445 145.218 430.242 148.602C427.385 158.077 425.805 167.966 424.264 177.742C424.301 179.509 423.249 181.652 424.339 183.231C427.309 185.074 430.769 186.766 434.265 187.292ZM432.949 183.908C430.769 183.194 428.701 182.179 426.633 181.276C428.325 167.74 432.085 154.543 435.017 141.27C435.506 141.345 435.995 141.458 436.521 141.571C436.484 141.571 436.484 141.571 436.446 141.571C438.326 141.871 440.131 142.548 442.049 142.699C441.861 143.714 441.748 144.729 441.673 145.744C441.673 145.669 441.673 145.594 441.71 145.556C436.897 157.851 436.559 171.275 432.949 183.908Z" fill="#070707"/>
    <path d="M487.915 173.342C489.231 173.117 489.682 171.575 490.397 170.673C492.239 168.68 494.232 166.838 495.285 164.243C496.262 163.303 496.563 161.273 494.721 161.348C489.757 157.212 485.885 151.835 480.959 147.586C480.959 147.586 480.959 147.586 480.997 147.624C469.679 136.457 459.602 123.823 451.969 109.874C453.361 108.971 455.579 108.708 456.218 107.054C456.369 106.226 455.729 105.174 454.827 105.211C453.436 105.324 452.045 104.91 450.766 104.422C447.42 102.842 444.186 101.038 440.953 99.3079C440.426 98.8567 439.599 98.8567 439.373 99.6087C438.358 103.557 438.283 107.655 437.456 111.641C436.102 114.837 437.305 116.078 440.464 114.461C440.464 114.461 440.426 114.461 440.426 114.498C440.689 114.386 440.953 114.273 441.178 114.16C441.178 114.16 441.178 114.16 441.141 114.16C441.817 113.859 442.494 113.671 443.171 113.446C445.615 118.935 448.961 123.898 452.195 128.899C455.617 135.028 459.038 141.232 463.4 146.759C468.889 153.264 473.853 160.258 480.019 166.123C482.914 168.116 484.757 171.838 487.915 173.342Z" fill="#D600F9"/>
    <path d="M415.879 178.982C417.872 179.095 417.947 177.065 418.21 175.598C418.699 173.267 419.037 170.936 419.488 168.642C421.143 157.701 424.038 147.286 425.316 136.156C425.805 130.967 427.046 125.891 427.685 120.74C427.986 116.905 430.242 112.28 424.188 112.694C421.895 112.844 417.872 110.024 417.308 113.746C414.262 125.177 412.269 136.946 410.803 148.677C410.088 155.407 408.396 162.025 407.682 168.68C407.644 171.011 406.366 173.982 407.419 176.125C409.562 178.118 413.021 178.719 415.879 178.982Z" fill="#D600F9"/>
    <path d="M138.164 365.374C131.531 363.459 124.543 363.317 117.768 362.04C106.382 359.841 94.9963 357.783 83.5749 355.903C77.1548 354.804 70.7702 353.598 64.3146 352.818C59.3133 352.144 53.9218 351.895 49.4171 349.412C47.0051 349.377 46.6504 342.354 45.6572 340.368C42.6423 329.514 40.0529 318.589 37.7474 307.558C35.5482 299.328 33.9166 290.957 32.4623 282.586C32.5332 279.891 29.4473 274.464 32.0367 272.832C33.7392 269.604 46.7213 269.143 50.4457 268.895C63.6052 267.724 76.871 268.256 90.1014 267.76C97.4083 267.583 104.68 267.689 111.987 267.405C114.789 267.228 117.591 267.228 120.358 267.228C123.337 266.731 124.969 268.292 123.621 271.236C124.33 272.158 125.678 272.442 124.614 273.967C128.161 284.644 129.757 295.923 131.814 306.955C133.907 306.316 137.419 302.095 139.121 305.039C153.38 307.203 168.03 310.04 181.65 314.084C181.686 314.084 181.721 314.084 181.757 314.12H181.721C181.757 314.12 181.757 314.12 181.792 314.12C181.792 314.12 181.792 314.12 181.827 314.12C181.863 314.12 181.898 314.12 181.898 314.155C181.863 314.155 181.827 314.12 181.792 314.12C188.673 315.822 195.519 317.702 202.471 319.227C205.38 320.22 216.801 321.214 213.431 326.073C198.534 336.076 181.579 342.886 165.972 351.753C160.084 355.052 154.054 358.103 148.166 361.401C144.903 362.714 141.746 365.658 138.164 365.374ZM139.76 309.473C139.653 309.437 139.511 309.437 139.405 309.402C139.405 309.402 139.405 309.402 139.37 309.437C139.511 309.437 139.653 309.437 139.76 309.473Z" fill="#070707"/>
    <path d="M129.322 308.763C129.286 308.196 129.996 307.877 130.35 307.522C130.315 307.522 130.315 307.557 130.279 307.557C132.017 306.174 134.075 305.216 135.955 304.117C135.955 304.117 135.955 304.117 135.919 304.152C136.38 303.691 137.231 303.833 137.338 304.542C137.196 306.635 132.124 307.345 130.492 308.621C130.528 308.621 130.528 308.586 130.563 308.586C130.457 308.657 130.315 308.728 130.208 308.799C130.137 309.118 129.393 309.224 129.322 308.763Z" fill="#070707"/>
    <path d="M152.927 309.366C152.395 309.189 151.863 309.011 151.331 308.869H151.367C151.331 308.869 151.296 308.834 151.26 308.834H151.296C151.296 308.834 151.296 308.834 151.26 308.834C151.26 308.834 151.26 308.834 151.296 308.834C151.26 308.834 151.225 308.798 151.154 308.798H151.189C146.578 308.018 142.109 306.883 137.64 305.393C137.072 306.28 135.086 303.797 138.81 304.365C142.96 305.074 147.075 305.925 151.189 306.706C152.147 307.131 154.382 307.167 153.991 308.692C153.885 309.224 153.388 309.508 152.927 309.366Z" fill="#070707"/>
    <path d="M167.988 312.7C162.49 311.14 156.957 309.721 151.352 308.48C150.43 308.231 149.508 307.983 148.55 307.735C148.586 307.735 148.621 307.77 148.692 307.77C147.77 307.557 146.919 307.238 145.996 306.954C146.032 306.954 146.067 306.99 146.103 306.99C143.123 306.387 140.073 305.89 137.129 305.323C136.313 303.939 139.186 304.436 139.931 304.471C139.895 304.471 139.86 304.471 139.86 304.471C142.769 304.684 145.748 304.649 148.55 305.606C148.515 305.606 148.479 305.571 148.408 305.571C151.778 306.458 155.183 307.025 158.517 307.947C158.482 307.947 158.482 307.947 158.446 307.912C161.923 308.586 165.186 309.898 168.591 310.856C169.655 311.282 169.017 313.055 167.988 312.7Z" fill="#070707"/>
    <path d="M125.187 287.375C123.981 281.451 123.449 275.386 122.136 269.498C120.718 268.966 122.491 267.334 123.201 268.505C124.477 269.463 130.011 292.483 125.187 287.375Z" fill="#070707"/>
    <path d="M138.733 360.622C137.988 360.267 138.556 359.026 138.272 358.316C138.272 358.352 138.272 358.352 138.272 358.387C138.023 355.372 137.172 352.428 136.995 349.378V349.413C136.853 347.994 136.569 346.611 136.427 345.228V345.192C136.427 345.05 136.392 344.909 136.392 344.802C136.392 344.838 136.392 344.838 136.392 344.873C135.434 339.198 134.335 333.523 134.015 327.741C134.015 327.776 134.015 327.812 134.015 327.847C133.98 327.635 133.98 327.422 133.944 327.209V327.173V327.138V327.102C133.944 327.138 133.944 327.138 133.944 327.173C133.767 325.648 133.483 324.123 133.306 322.598C133.306 322.633 133.306 322.633 133.306 322.669C133.27 322.491 133.27 322.314 133.235 322.137V322.172C133.129 321.108 133.022 320.079 132.916 319.015C132.916 319.051 132.916 319.086 132.916 319.122C133.058 317.064 130.823 310.254 132.064 309.296C132.419 309.261 132.561 309.616 132.561 309.935C133.306 313.908 134.193 317.845 134.476 321.888C134.654 323.591 135.008 325.258 135.186 326.961V326.925C135.186 326.89 135.186 326.89 135.186 326.854C135.186 326.89 135.186 326.961 135.186 326.996V326.961C135.221 327.173 135.221 327.351 135.257 327.564C135.257 327.528 135.257 327.493 135.257 327.457C135.789 335.544 137.456 343.49 138.094 351.577C138.094 351.541 138.094 351.541 138.094 351.506C138.165 353.102 140.329 360.161 138.733 360.622Z" fill="white"/>
    <path d="M140.544 361.614C140.189 361.188 140.686 360.763 141.04 360.55C144.978 358.031 148.773 355.336 152.888 353.137C152.852 353.137 152.852 353.172 152.817 353.172C153.916 352.534 155.087 351.966 156.186 351.328C158.066 350.263 159.875 349.057 161.755 348.029L161.72 348.064C162.074 347.851 162.429 347.674 162.819 347.461C162.926 347.39 163.032 347.355 163.138 347.284C163.174 347.284 163.174 347.248 163.209 347.248H163.245C163.458 347.107 163.671 347 163.919 346.858C163.883 346.858 163.883 346.894 163.848 346.894C163.919 346.858 163.954 346.823 164.025 346.787C163.99 346.787 163.99 346.823 163.954 346.823C163.99 346.787 164.025 346.787 164.096 346.752C164.096 346.752 164.132 346.752 164.132 346.716C165.373 346.007 166.685 345.369 167.927 344.695L167.891 344.73C168.033 344.659 168.14 344.588 168.282 344.517C168.246 344.517 168.246 344.553 168.211 344.553C175.908 339.764 184.35 336.253 192.295 331.89C198.36 328.733 204.532 325.753 210.81 323.129C211.13 322.809 211.697 322.561 212.016 323.022C212.974 324.796 205.916 326.498 204.568 327.35C204.603 327.35 204.639 327.314 204.639 327.314C193.324 332.386 182.505 338.416 171.438 344.021C168.778 345.688 165.941 347.071 163.209 348.632C160.762 349.909 158.456 351.398 156.08 352.817C156.009 352.853 155.938 352.888 155.832 352.959C155.796 352.959 155.796 352.995 155.761 352.995C155.761 352.995 155.761 352.995 155.796 352.995C155.761 352.995 155.761 353.03 155.725 353.03C154.945 353.491 154.129 353.917 153.349 354.342L153.384 354.307C153.207 354.413 153.065 354.484 152.888 354.591C152.852 354.591 152.852 354.626 152.817 354.626C152.285 354.945 151.717 355.229 151.185 355.548L151.22 355.513C151.043 355.619 150.866 355.726 150.688 355.797C150.724 355.797 150.724 355.761 150.759 355.761C147.673 357.606 144.658 359.557 141.502 361.295C141.431 361.685 140.828 361.898 140.544 361.614Z" fill="white"/>
    <path d="M163.706 322.455C162.713 320.894 172.325 316.283 173.815 314.793C168.388 313.303 162.784 312.629 157.286 311.388H157.322C157.286 311.388 157.286 311.388 157.251 311.388H157.286C154.023 310.82 151.327 312.984 148.383 314.084C148.028 314.225 147.674 314.438 147.283 314.403C146.787 314.261 147.106 313.551 147.532 313.658C150.547 312.416 153.278 309.863 156.648 310.146C162.536 311.033 168.53 312.026 174.312 313.481C178.178 313.871 174.773 315.715 173.319 316.708C170.658 318.517 167.927 320.255 165.267 322.064L165.302 322.029C165.267 322.064 165.231 322.064 165.196 322.1C165.196 322.1 165.196 322.1 165.231 322.064C164.806 322.384 164.203 323.093 163.706 322.455Z" fill="white"/>
    <path d="M162.61 322.987C161.226 322.667 159.843 322.313 158.46 321.958C158.495 321.958 158.531 321.958 158.566 321.993C158.495 321.993 158.424 321.958 158.389 321.958H158.424C158.389 321.958 158.353 321.958 158.318 321.922C158.282 321.922 158.247 321.887 158.176 321.887H158.211C158.176 321.887 158.105 321.852 158.07 321.852C157.928 321.816 157.786 321.781 157.644 321.745C157.644 321.745 157.644 321.745 157.679 321.745C157.254 321.639 156.864 321.497 156.438 321.39C156.473 321.39 156.509 321.39 156.509 321.426C155.196 321.142 153.919 320.716 152.607 320.362H152.643C152.607 320.362 152.572 320.362 152.572 320.326H152.607C150.302 319.723 147.996 319.191 145.761 318.446C138.951 317.134 146.542 314.154 148.989 312.807C149.982 312.523 153.175 310.253 153.707 311.352C153.671 311.778 153.139 311.672 152.82 311.849H152.855C151.649 312.345 150.514 313.019 149.379 313.658C147.712 314.616 146.01 315.573 144.484 316.744C146.896 317.595 149.379 318.234 151.898 318.837C153.175 319.12 154.416 319.475 155.658 319.83C155.622 319.83 155.587 319.83 155.587 319.794C156.331 319.936 157.076 320.113 157.821 320.326C157.786 320.326 157.75 320.326 157.715 320.291C159.205 320.646 160.73 321.036 162.22 321.355C162.184 321.355 162.184 321.355 162.149 321.355C162.468 321.426 162.752 321.532 163.106 321.568C163.106 321.568 163.106 321.568 163.071 321.568C163.106 321.568 163.142 321.568 163.177 321.568C163.142 321.568 163.142 321.568 163.106 321.568C163.603 321.603 164.135 320.929 164.49 321.532C165.128 322.632 163.461 323.164 162.61 322.987Z" fill="white"/>
    <path d="M175.765 332.741C175.587 332.706 175.375 332.635 175.162 332.564C172.466 331.961 169.735 331.642 167.074 330.932C167.11 330.932 167.145 330.932 167.181 330.968C162.57 329.407 157.781 328.733 153.135 327.456C153.17 327.456 153.206 327.456 153.241 327.492C146.644 326.428 140.259 323.98 134.3 321.001C132.491 318.34 140.649 322.703 141.536 322.632H141.5C141.536 322.632 141.571 322.632 141.607 322.668C141.607 322.668 141.607 322.668 141.571 322.668C144.338 323.413 146.998 324.583 149.765 325.293H149.73C151.468 325.647 153.241 325.825 154.944 326.392C154.908 326.392 154.908 326.392 154.873 326.392C159.094 327.421 163.386 328.024 167.5 329.443H167.465C167.536 329.443 167.571 329.478 167.607 329.478C167.571 329.478 167.536 329.478 167.5 329.443C167.571 329.478 167.642 329.478 167.713 329.514C167.677 329.514 167.642 329.478 167.607 329.478C169.735 330.046 171.934 330.259 174.062 330.791H174.027C174.701 330.968 175.41 331.039 176.119 331.252C176.084 331.252 176.048 331.252 176.013 331.216C177.042 331.216 176.758 332.954 175.765 332.741Z" fill="white"/>
    <path d="M168.392 337.033C168.073 336.927 167.754 336.82 167.434 336.749C157.148 333.522 146.507 331.535 136.469 327.527H136.504C136.469 327.492 136.398 327.492 136.327 327.456H136.363C135.618 327.101 134.802 326.782 134.199 326.25C133.986 325.576 134.802 325.576 135.227 325.825C138.065 326.924 141.08 327.35 143.918 328.414C143.882 328.414 143.847 328.378 143.811 328.378C145.23 328.698 146.613 329.23 148.032 329.584C147.997 329.584 147.961 329.549 147.926 329.549C148.174 329.62 148.387 329.655 148.635 329.726C148.6 329.726 148.564 329.691 148.529 329.691C150.019 330.116 151.544 330.471 153.069 330.861C153.104 330.861 153.14 330.861 153.14 330.897H153.104C153.14 330.897 153.175 330.897 153.211 330.932H153.175C153.317 330.968 153.459 331.003 153.566 331.039C153.53 331.039 153.495 331.003 153.459 331.003C155.836 331.642 158.212 332.209 160.624 332.741C160.589 332.741 160.589 332.741 160.553 332.741C163.036 333.522 165.448 334.408 167.967 334.976C167.931 334.976 167.896 334.94 167.86 334.94C167.931 334.976 168.037 334.976 168.108 335.011C168.073 335.011 168.073 335.011 168.037 334.976C168.037 334.976 168.037 334.976 168.073 334.976H168.037C168.818 335.118 169.882 335.437 169.527 336.43C169.35 336.856 168.853 337.175 168.392 337.033Z" fill="white"/>
    <path d="M157.816 341.041C155.404 340.473 153.098 339.586 150.615 339.303C150.651 339.303 150.686 339.338 150.722 339.338C150.651 339.338 150.615 339.303 150.544 339.303C150.58 339.303 150.58 339.303 150.615 339.303C145.756 337.316 140.648 336.181 135.682 334.514C135.221 334.692 134.654 334.23 134.689 333.734C135.328 332.067 138.449 334.23 139.797 334.124C145.649 335.224 151.147 337.671 157 338.913C156.964 338.913 156.929 338.877 156.893 338.877C156.929 338.877 157 338.913 157.035 338.913C157.035 338.913 157.035 338.913 157 338.913C157.035 338.913 157.071 338.948 157.106 338.948C157.071 338.948 157.071 338.948 157.035 338.913C157.851 339.09 159.305 339.232 158.915 340.402C158.702 340.899 158.241 341.183 157.816 341.041Z" fill="white"/>
    <path d="M147.663 344.801C143.832 343.595 139.824 342.531 136.313 340.545C135.887 340.616 135.78 339.942 136.1 339.729C136.703 339.552 137.306 340.048 137.909 340.119C141.456 341.148 145.499 341.715 148.692 343.418C149.046 344.092 148.443 345.014 147.663 344.801Z" fill="white"/>
    <path d="M139.974 348.065C139.336 347.781 138.768 347.355 138.2 346.965L138.236 347C137.917 346.717 136.604 346.327 137.385 345.901C137.527 345.936 137.739 345.865 137.846 345.972C138.768 346.397 140.009 346.61 140.719 347.32C140.896 347.745 140.435 348.313 139.974 348.065Z" fill="white"/>
    <path d="M338.975 236.166C339.294 236.166 339.323 235.788 339.294 235.556C339.294 232.365 339.527 229.173 339.497 225.981V226.01C339.497 225.952 339.497 225.894 339.497 225.807C339.497 225.836 339.497 225.865 339.497 225.865C339.497 225.807 339.497 225.72 339.497 225.662C339.497 225.691 339.497 225.72 339.497 225.749C339.236 224.734 339.933 222.703 338.656 222.354C337.408 222.442 338.627 227.055 338.337 228.245C338.337 228.245 338.337 228.245 338.337 228.216C338.366 229.231 338.366 230.218 338.395 231.233V231.204V231.175C338.395 231.204 338.395 231.233 338.395 231.262V231.233C338.395 231.291 338.395 231.32 338.395 231.378C338.395 231.378 338.395 231.378 338.395 231.349C338.395 231.465 338.395 231.581 338.395 231.697C338.395 231.726 338.395 231.726 338.395 231.755C338.395 231.784 338.395 231.784 338.395 231.813C338.598 232.916 338.076 235.585 338.975 236.166Z" fill="white"/>
    <path d="M307.748 290.859C315.785 290.395 323.822 290.627 331.859 290.192H331.888C332.527 290.221 333.861 289.931 332.817 289.263C326.172 289.234 319.586 288.016 312.941 288.712C311.52 289.089 306.645 287.871 306.761 289.815C306.79 290.337 307.197 290.859 307.748 290.859Z" fill="white"/>
    <path d="M232.92 233.728C234.748 232.944 232.282 229.347 232.601 227.722C232.601 227.751 232.601 227.751 232.601 227.78C232.659 221.832 234.4 215.884 237.418 210.748C239.362 207.121 238.984 202.972 238.723 198.997C238.636 198.504 238.868 196.763 237.998 197.285C237.795 199.49 237.853 201.811 237.592 204.075C237.592 204.046 237.592 204.017 237.592 204.017C237.36 206.86 236.199 209.442 234.603 211.764C233.152 215.274 231.557 218.872 231.121 222.702C230.918 225.168 230.425 227.751 231.15 230.188C231.644 231.291 231.295 233.67 232.92 233.728Z" fill="white"/>
    <path d="M305.985 194.935C308.829 193.92 302.881 191.541 302.155 190.583C300.356 189.074 298.47 187.711 296.439 186.55C295.54 186.144 294.292 184.258 293.422 185.564C292.928 187.537 297.165 188.755 298.412 189.887C300.646 191.483 302.881 193.079 305.26 194.442C305.405 194.703 305.666 194.935 305.985 194.935Z" fill="white"/>
    <path d="M268.811 188.843C272.351 187.479 275.978 186.347 279.576 185.071C280.272 185.361 280.62 184.113 279.895 183.91C278.85 183.997 277.806 184.49 276.732 184.723C273.889 185.883 270.523 186.115 267.97 187.74C267.709 188.262 268.202 189.046 268.811 188.843Z" fill="white"/>
    <path d="M280.686 286.825C281.498 274.175 282.311 261.495 281.759 248.845C281.759 248.816 281.759 248.787 281.759 248.758C281.295 233.003 283.065 217.335 283.558 201.579C283.79 196.908 284.516 192.295 284.922 187.652C283.384 184.809 283.587 192.237 283.297 192.991C283.297 192.962 283.297 192.933 283.297 192.904C283.239 193.513 283.152 194.152 283.094 194.761C283.094 194.732 283.094 194.703 283.094 194.674C281.875 214.346 280.018 234.076 281.005 253.835V253.806C281.005 253.835 281.005 253.864 281.005 253.864C281.208 262.917 280.773 271.941 280.28 280.964C280.483 281.69 279.206 288.827 280.686 286.825Z" fill="white"/>
    <path d="M194.946 242.694C195.642 241.533 196.977 238.951 195.207 238.196C194.133 238.37 195.062 239.618 194.626 240.256C194.365 241.098 193.06 242.142 194.046 242.955C194.336 243.158 194.771 243.071 194.946 242.694Z" fill="white"/>
    <path d="M201.611 249.28C202.452 248.671 199.434 245.828 198.97 246.785C198.477 247.772 199.986 248.236 200.479 248.903C200.74 249.251 201.204 249.716 201.611 249.28Z" fill="white"/>
    <path d="M354.109 223.719C354.457 223.283 356.024 222.645 354.893 222.239C354.37 222.413 353.152 222.906 353.529 223.602C353.645 223.777 353.906 223.893 354.109 223.719Z" fill="white"/>
    <path d="M346.485 147.64C347.239 145.899 342.8 143.549 341.61 142.505C336.271 138.414 334.646 136.383 334.559 129.477C334.356 121.237 326.058 121.672 324.955 114.273C324.955 114.302 324.955 114.331 324.955 114.36C324.781 113.055 324.578 111.778 324.23 110.53C324.23 110.559 324.23 110.588 324.259 110.588C324.23 110.472 324.201 110.385 324.172 110.269C324.172 110.298 324.172 110.327 324.201 110.327C323.128 106.236 320.748 108.731 322.518 108.847C322.576 108.876 322.634 108.905 322.692 108.934C322.692 108.934 322.692 108.934 322.721 108.934L322.75 108.963C322.721 108.934 322.692 108.905 322.692 108.905C323.621 109.979 323.679 111.546 323.969 112.88V112.851C323.969 112.88 323.969 112.909 323.969 112.909C323.969 112.909 323.969 112.909 323.969 112.88C324.201 116.101 325.449 119.467 328.118 121.44C328.118 121.44 328.089 121.44 328.089 121.411C328.176 121.469 328.263 121.556 328.35 121.614C328.408 121.643 328.437 121.672 328.495 121.73C328.466 121.701 328.437 121.701 328.437 121.672C336.881 126.256 329.685 136.296 337.635 141.286C339.956 143.52 343.032 144.768 345.353 147.002C345.585 147.292 345.933 147.989 346.485 147.64Z" fill="white"/>
    <path d="M337.316 153.937C338.245 153.502 337.519 152.4 337.519 151.645C337.519 151.674 337.519 151.732 337.548 151.761C336.736 143.608 326.291 142.099 326.436 133.395C326.175 130.813 325.623 128.23 323.737 126.315C323.592 126.112 323.331 126.025 323.128 126.17C322.606 126.75 323.563 127.331 323.824 127.795C325.449 129.797 325.043 132.553 325.478 134.933C325.478 134.904 325.478 134.875 325.449 134.846C325.478 134.991 325.507 135.136 325.507 135.281C325.507 135.281 325.507 135.281 325.507 135.252C325.391 142.796 334.995 144.798 335.982 151.819C336.156 152.632 336.156 154.17 337.316 153.937Z" fill="white"/>
    <path d="M348.133 164.237C349.584 163.947 348.017 160.669 348.046 159.566C347.698 157.535 347.292 155.359 345.754 153.908L345.725 153.879C345.261 153.589 344.535 152.399 343.984 152.98C343.81 153.328 344.158 153.56 344.419 153.734C348.307 155.997 345.957 163.077 348.133 164.237Z" fill="white"/>
    <path d="M358.961 161.771C359.106 158.173 358.265 154.43 355.45 151.964C355.247 151.761 354.899 151.674 354.696 151.906C354.202 153.154 356.35 153.908 356.727 155.04C357.858 157.013 357.771 159.363 357.655 161.568C357.568 162.439 358.903 162.758 358.961 161.771Z" fill="white"/>
    <path d="M373.44 193.368C375.093 192.904 373.411 190.206 373.091 189.161C371.031 184.838 366.592 182.923 363.168 179.934C363.197 179.963 363.226 179.992 363.226 179.992C363.168 179.934 363.11 179.876 363.052 179.818C362.994 179.76 362.936 179.702 362.878 179.644L362.907 179.673C362.878 179.644 362.849 179.615 362.82 179.586C362.849 179.615 362.878 179.644 362.878 179.644C361.689 178.513 361.282 176.888 360.818 175.379C360.818 175.35 360.789 175.321 360.789 175.292V175.321C360.209 174.334 360.586 171.114 359.657 170.911C358.903 171.955 360.093 176.307 360.441 177.758C362.385 183.764 370.712 184.78 372.25 191.221C372.598 191.975 372.395 193.281 373.44 193.368Z" fill="white"/>
    <path d="M380.235 208.747C380.554 207.558 379.162 201.552 377.595 202.19C377.305 202.422 377.334 202.828 377.508 203.118C378.378 204.656 378.93 206.426 378.872 208.196C378.872 208.167 378.872 208.138 378.872 208.08C378.523 209.037 379.945 209.937 380.235 208.747Z" fill="white"/>
    <path d="M266.722 140.04C266.983 137.602 266.026 135.165 265.155 132.931C264.343 131.161 262.486 129.855 262.631 127.737C262.573 127.244 262.689 126.403 261.992 126.374C261.673 126.374 261.47 126.693 261.499 126.983C261.267 130 263.762 131.973 264.488 134.672C264.894 136.239 265.387 137.892 265.184 139.517C264.952 140.562 266.49 141.2 266.722 140.04Z" fill="white"/>
    <path d="M258.628 144.885C261.181 142.1 261.326 138.386 260.311 134.904C260.079 133.076 258.425 132.902 258.947 134.382C258.947 134.382 258.947 134.382 258.947 134.353C259.905 136.819 260.427 140.185 258.483 142.274C258.512 142.245 258.512 142.216 258.541 142.187C258.454 142.274 258.396 142.361 258.309 142.477C258.309 142.477 258.309 142.477 258.338 142.448C258.019 142.883 257.671 143.289 257.351 143.724C256.742 144.537 257.961 145.814 258.628 144.885Z" fill="white"/>
    <path d="M252.624 147.119C252.653 147.061 252.682 147.003 252.682 146.945C252.682 146.974 252.653 146.974 252.653 147.003C252.653 146.974 252.682 146.945 252.682 146.916C252.682 146.916 252.682 146.916 252.682 146.945C252.682 146.916 252.711 146.916 252.711 146.887C252.74 146.829 252.769 146.742 252.798 146.684C253.378 146.306 252.566 145.465 252.159 146.074C251.434 146.568 251.898 147.902 252.624 147.119Z" fill="white"/>
    <path d="M264.204 146.626C264.204 145.929 264.669 144.653 263.798 144.333C262.87 144.392 263.479 145.726 263.189 146.336C263.073 146.974 264.059 147.38 264.204 146.626Z" fill="white"/>
    <path d="M302.295 73.3919C302.411 70.8676 296.666 68.1402 294.548 67.3858C293.562 67.2408 292.285 65.4999 291.473 66.5444C291.066 68.8656 298.03 69.3008 299.51 71.1868C299.481 71.1868 299.481 71.1578 299.452 71.1578C300.148 71.7091 300.902 72.2603 301.512 72.9277C301.512 72.8987 301.483 72.8987 301.483 72.8697C301.512 72.9277 301.57 72.9857 301.599 73.0147C301.483 73.3919 302.034 73.7691 302.295 73.3919Z" fill="white"/>
    <path d="M295.883 73.3629C296.521 72.3184 291.385 70.0262 290.486 69.3879C290.138 69.1267 289.558 68.9817 289.383 69.533C288.89 70.5775 293.91 72.0863 294.838 72.8987C294.809 72.8987 294.809 72.8697 294.78 72.8697C295.157 72.9567 295.477 73.595 295.883 73.3629Z" fill="white"/>
    <path d="M288.25 73.1885C287.67 72.0859 285.871 71.6507 284.913 70.7512C284.681 70.5771 284.362 70.6642 284.217 70.9253C283.956 71.9989 285.668 72.202 286.306 72.7823C286.857 72.9564 288.018 74.175 288.25 73.1885Z" fill="white"/>
    <path d="M261.162 69.0981C261.887 68.4597 263.309 68.0245 263.367 66.9219C263.309 66.4867 262.671 66.4287 262.613 66.8929C262.091 67.6473 260.176 67.7053 260.466 68.8369C260.582 69.069 260.901 69.2431 261.162 69.0981Z" fill="white"/>
    <path d="M264.374 72.4633C265.07 71.941 266.405 70.4032 265.07 69.8809C264.403 69.8519 264.345 70.9835 263.591 71.3027C262.952 71.7959 263.707 72.9855 264.374 72.4633Z" fill="white"/>
</svg>
