<svg width="487" height="543" viewBox="0 0 487 543" fill="none" xmlns="http://www.w3.org/2000/svg">
    <g clip-path="url(#clip0_1853_26661)">
        <path d="M484.095 395.677C484.715 394.525 485.335 393.417 486 392.266C486.576 391.512 486.576 390.139 485.38 390.139C484.006 390.981 482.943 392.664 481.88 393.993C480.994 395.278 483.165 397.05 484.095 395.677Z" fill="#231F20"/>
        <path d="M476.44 392.975C477.99 392.311 478.035 390.096 478.876 388.811C479.408 388.678 479.541 388.014 479.319 387.571C479.319 387.571 479.319 387.571 479.319 387.615C477.592 384.204 471.966 393.241 476.44 392.975Z" fill="#231F20"/>
        <path d="M468.897 389.387C468.986 387.394 468.41 385.489 467.657 383.672C467.701 383.717 467.701 383.761 467.745 383.805C467.745 383.805 467.745 383.805 467.745 383.85V383.894C466.859 382.078 465.087 383.318 465.708 385.046C465.708 385.001 465.708 384.913 465.708 384.869C465.929 386.596 465.398 388.545 466.284 390.096C467.037 391.203 468.942 390.849 468.897 389.387Z" fill="#231F20"/>
        <path d="M456.146 390.406C458.14 389.343 455.925 386.862 455.305 385.533C454.773 384.425 453.311 382.653 452.159 384.159C452.204 384.115 452.204 384.115 452.248 384.071C451.406 385.356 452.912 386.552 453.355 387.748C453.976 388.811 454.507 390.893 456.146 390.406Z" fill="#231F20"/>
        <path d="M434.899 493.777C436.494 492.935 438.443 492.049 439.373 490.454C439.462 487.619 436.494 489.613 435.209 490.277C435.209 490.277 435.253 490.277 435.253 490.233C434.146 490.72 432.241 491.207 432.994 492.802C433.304 493.555 434.146 494.087 434.899 493.777Z" fill="#231F20"/>
        <path d="M429.751 491.208C430.682 490.544 430.372 489.126 430.682 488.151C430.903 486.867 431.39 485.582 431.302 484.297C431.08 482.924 429.087 483.234 429.486 484.696C429.486 484.652 429.486 484.607 429.486 484.563C429.308 486.468 425.676 491.607 429.751 491.208Z" fill="#231F20"/>
        <path d="M423.064 492.935C426.165 492.315 421.292 485.005 419.919 484.208C418.501 483.809 417.925 485.758 418.988 486.512C420.362 488.461 420.229 492.758 423.064 492.935Z" fill="#231F20"/>
        <path d="M243.441 421.651C263.552 419.407 270.109 401.848 260.56 384.993C252.726 372.143 235.431 370.515 222.185 374.827C208.499 378.876 206.079 373.111 195.913 366.026C186.363 359.909 173.073 356.344 162.995 363.165C156.306 367.302 147.725 370.471 140.376 366.07C129.946 360.481 114.455 350.975 103.982 361.009C103.982 361.009 103.982 361.009 104.026 360.965C99.1408 365.542 91.4395 367.346 85.1465 364.926C79.1615 363.254 72.6043 364.442 67.0154 366.906C49.7205 375.091 47.2121 397.491 65.6072 406.161C90.1193 420.683 106.49 392.166 127.437 411.133C135.095 416.854 145.921 419.495 154.766 414.962C159.871 412.586 164.404 407.833 170.389 408.053C176.154 408.493 180.906 412.234 186.055 414.522C195.033 417.955 204.054 410.913 213.208 412.278C216.024 412.718 218.225 415.094 220.953 415.49C227.29 420.463 235.431 422.971 243.441 421.651ZM234.991 415.094C225.706 415.27 219.237 406.513 210.215 406.337C201.986 405.853 193.536 412.278 185.659 408.537C185.791 408.581 185.879 408.669 186.011 408.713C185.747 408.581 185.483 408.449 185.219 408.317C185.351 408.361 185.439 408.449 185.571 408.493C154.546 389.174 155.822 427.416 125.105 403.344C119.692 399.604 112.739 398.811 106.27 399.472C106.314 399.472 106.358 399.472 106.402 399.472C106.27 399.472 106.182 399.516 106.05 399.516H106.094C106.05 399.516 106.006 399.516 106.006 399.516C106.05 399.516 106.05 399.516 106.094 399.516C97.1164 400.132 89.1071 405.721 79.9976 404.972C63.0107 404.356 49.0164 389.218 64.199 375.003C64.155 375.047 64.1109 375.047 64.1109 375.091C77.7092 364.002 84.3983 373.111 97.2485 370.031C107.546 367.786 107.722 359.205 119.56 362.065C132.146 363.958 142.488 376.808 155.91 371.703C163.699 369.459 170.301 362.637 178.97 364.442C195.385 366.73 200.93 380.108 212.768 381.252C221.041 381.737 228.83 377.82 237.104 378.26C249.514 378.26 258.271 387.413 258.095 399.78C257.479 409.857 247.489 414.522 238.512 415.138C238.644 415.138 238.82 415.094 238.952 415.094C237.632 415.138 236.312 415.138 234.991 415.094Z" fill="#231F20"/>
        <path d="M195.86 379.492C195.948 379.36 195.992 379.228 195.992 379.096C194.1 374.124 183.362 370.207 178.257 370.295C176.761 370.515 174.737 370.207 173.636 371.395C172.8 372.715 174.033 374.52 175.529 374.52C181.866 373.948 189.171 375.048 194.144 379.272C194.496 379.889 195.464 380.153 195.86 379.492Z" fill="#231F20"/>
        <path d="M160.351 378.349C161.759 377.776 165.235 376.5 162.991 374.784C161.407 374.432 157.402 374.476 158.018 376.984C158.326 377.908 159.382 378.745 160.351 378.349Z" fill="#231F20"/>
        <path d="M196.742 402.024C206.908 400.66 207.216 391.682 203.387 395.247C203.431 395.203 203.431 395.203 203.475 395.159C197.534 400.308 188.997 398.283 182.176 396.303C180.724 395.995 178.611 393.97 177.555 395.819C176.631 400.616 193.222 402.64 196.742 402.024Z" fill="#231F20"/>
        <path d="M169.553 395.072C170.301 393.751 167.309 392.475 166.341 392.519C164.712 393.443 166.385 395.116 167.749 394.984C167.705 394.984 167.661 394.984 167.617 394.94C168.277 394.984 169.025 395.864 169.553 395.072Z" fill="#231F20"/>
        <path d="M105.959 380.372C115.421 377.247 123.298 371.79 133.244 377.467C133.2 377.467 133.156 377.423 133.112 377.423C133.64 377.775 134.564 378.084 134.828 377.247C134.784 375.531 131.748 375.003 130.515 374.079C119.25 368.358 112.516 375.663 102.263 377.291C99.2702 377.335 86.2881 372.319 85.98 376.895C86.112 377.775 86.9481 378.568 87.8283 378.524C94.0773 377.335 99.8423 381.56 105.959 380.372Z" fill="#231F20"/>
        <path d="M85.0916 399.384C87.732 399.076 96.2254 398.064 94.4651 394.059C93.893 393.091 92.5288 392.563 91.5606 393.267C84.5635 398.944 66.1684 392.739 73.8697 382.573C74.7498 381.297 78.2704 380.285 77.6983 378.745C77.4343 378.172 76.7302 377.776 76.1581 378.084C68.4568 379.405 65.6843 388.03 70.7011 393.839C74.2657 397.8 79.8987 399.516 85.0916 399.384Z" fill="#231F20"/>
        <path d="M110.396 392.915L110.352 392.959C113.741 391.463 117.525 393.047 120.958 392.651C124.919 387.326 112.553 389.439 110.264 390.319C107.888 390.759 108.152 393.575 110.396 392.915Z" fill="#231F20"/>
        <path d="M242.205 406.601C253.295 403.828 251.051 391.418 242.117 387.457C241.061 387.149 238.861 385.477 238.333 387.105C238.113 388.646 243.437 389.174 244.714 392.694C247.574 397.227 245.022 400.88 240.313 402.332C238.201 403.564 239.961 407.085 242.205 406.601Z" fill="#231F20"/>
        <path d="M109.521 292.463C129.919 294.564 141.306 273.502 159.936 269.909C166.514 268.859 171.323 274.166 177.073 276.377C183.761 278.865 190.948 280.412 198.134 280.302C220.357 280.578 241.639 260.456 227.377 238.731L227.433 238.787C227.267 238.565 227.156 238.344 226.99 238.123C227.101 238.234 227.156 238.4 227.267 238.51C227.046 238.179 226.824 237.902 226.603 237.57C226.659 237.681 226.714 237.736 226.769 237.847C213.999 220.434 196.918 221.208 177.791 225.132C171.987 225.685 165.243 224.69 161.428 219.826C151.589 206.78 136.442 194.95 119.194 197.714C111.953 199.427 105.872 204.126 98.5751 205.785C90.4489 208.714 82.7651 205.342 76.0762 200.754C66.0705 195.281 55.1251 191.135 43.5716 190.748C14.218 188.427 -10.1605 218.554 5.70486 245.641C17.2584 260.567 29.1436 259.738 45.7275 255.481C51.8083 255.039 58.2761 257.029 62.2562 261.838C72.9252 278.091 88.9011 292.408 109.521 292.463ZM107.53 286.659C66.4575 284.227 72.9805 241.495 34.7821 252.33C7.58443 258.743 -3.96909 221.982 15.2683 205.785C24.7765 196.276 38.9834 193.899 51.8083 196.553C76.0762 200.478 83.2073 219.826 109.521 206.669C121.572 198.598 136.829 202.744 147.056 211.865C153.247 216.785 156.73 224.746 163.861 228.394C178.62 235.746 195.536 223.419 210.24 231.103C222.513 236.244 232.187 252.828 221.186 263.828C210.019 274.774 192.993 274.719 178.897 270.186C176.686 267.698 172.871 267.035 169.886 265.763C169.997 265.818 170.163 265.874 170.273 265.874C168.172 265.1 166.017 264.381 163.75 264.05C163.861 264.05 164.027 264.105 164.137 264.105C141.859 260.512 129.919 289.423 107.53 286.659Z" fill="#231F20"/>
        <path d="M123.947 271.236C140.2 267.753 144.125 257.471 164.468 256.973C164.412 256.973 164.412 256.973 164.357 256.973C164.412 256.973 164.523 256.973 164.578 256.973H164.523C169.222 256.365 173.865 257.802 178.122 259.737C179.835 261.064 181.383 259.682 179.282 258.632C173.202 255.149 166.679 252.993 159.603 253.822C152.803 254.265 145.396 255.094 139.536 258.853C134.451 262.225 128.867 265.155 122.952 266.758C120.299 267.421 121.515 271.401 123.947 271.236Z" fill="#231F20"/>
        <path d="M109.579 270.904C111.68 270.462 110.574 267.422 108.695 267.975C101.84 267.145 93.5483 265.321 89.8998 258.853C88.5731 256.697 87.4675 254.431 85.5327 252.717C83.2109 250.285 79.7836 253.546 81.9395 256.089C88.1861 267.035 96.9756 271.789 109.579 270.904Z" fill="#231F20"/>
        <path d="M74.5853 247.41C77.8468 244.646 62.479 235.359 61.8156 240.444C61.8709 244.314 68.2834 243.319 70.771 245.42C72.2635 245.751 72.9822 248.073 74.5853 247.41Z" fill="#231F20"/>
        <path d="M97.0853 223.917C105.875 222.535 113.78 217.173 122.901 217.559C125.941 217.615 128.761 218.831 131.469 219.936C133.349 219.715 132.63 217.173 131.082 217.007C131.082 217.007 131.082 217.007 131.138 217.007C125.665 214.077 119.418 213.303 113.338 214.353C107.423 216.067 101.397 217.615 95.5928 219.826C93.2711 220.766 94.8189 224.304 97.0853 223.917Z" fill="#231F20"/>
        <path d="M83.3185 219.493C85.7508 219.659 85.7509 216.618 83.4844 217.005C75.1371 216.563 69.7197 209.929 62.478 206.889C61.4277 206.557 60.3221 207.221 60.0457 208.216C59.4376 211.201 63.1414 211.588 64.9656 212.859C70.6042 216.231 76.3533 220.101 83.3185 219.493Z" fill="#231F20"/>
        <path d="M33.9509 244.203C36.4938 243.761 48.4343 244.037 46.9417 240.113C45.8361 235.303 36.1068 242.877 28.8651 239.726C26.4881 239.007 24.3322 237.68 22.5632 235.967C22.6738 236.022 22.7291 236.132 22.8396 236.188C11.2308 227.73 18.4173 215.403 28.8099 210.096C28.8099 210.096 28.8099 210.096 28.7546 210.096C32.7348 208.327 37.5441 207 41.8007 208.493C43.1827 208.99 43.459 206.834 42.1876 206.558C29.7496 201.969 12.7234 209.653 11.8942 223.75C11.452 235.137 23.1161 244.424 33.9509 244.203Z" fill="#231F20"/>
        <path d="M193.406 192.192C196.419 188.293 195.488 180.629 190.482 178.946C190.527 178.946 190.527 178.946 190.571 178.946C188.932 178.769 189.286 181.294 190.748 181.161C193.672 184.616 191.723 187.54 190.039 190.774C189.995 192.457 192.343 193.742 193.406 192.192Z" fill="#231F20"/>
        <path d="M294.223 119.362C297.723 118.565 295.907 113.559 296.749 110.989C300.115 107.667 276.636 106.072 274.244 105.142C253.024 101.996 231.76 99.117 210.452 96.7248C210.496 96.7248 210.496 96.7248 210.541 96.7248C209.743 96.6362 208.946 96.5476 208.149 96.459C208.237 96.459 208.326 96.459 208.414 96.5033C200.352 95.6173 192.289 94.8642 184.271 94.1111C184.404 92.9593 184.227 91.1873 182.72 91.2759C162.121 87.7762 140.99 87.8648 120.257 85.827C119.903 83.0361 116.005 83.0804 113.834 82.8589C112.682 82.9918 111.087 82.5931 110.423 83.7892C108.739 88.7065 108.828 94.0668 108.518 99.2499C108.784 102.927 106.79 108.243 109.36 111.211C111.486 112.717 116.27 115.286 116.448 110.812C116.625 110.724 116.802 110.635 116.935 110.502C132.971 110.413 148.964 110.901 165 111.344C168.234 110.591 184.802 114.002 183.739 109.705C206.155 110.148 228.482 112.717 250.809 114.755C250.721 114.755 250.632 114.755 250.544 114.711C258.119 115.552 265.65 116.748 273.225 117.413C273.137 117.413 273.048 117.413 272.959 117.369C279.959 118.166 287.091 119.273 294.223 119.362ZM179.486 109.439C179.309 109.439 179.088 109.439 178.911 109.395C179.132 109.395 179.309 109.395 179.486 109.439ZM115.34 87.0674C115.296 87.2889 115.251 87.5104 115.163 87.6876C115.163 87.4661 115.163 87.2446 115.207 87.0231C115.251 87.0674 115.296 87.0674 115.34 87.0674Z" fill="#8DF63A"/>
        <path d="M299.752 530.012L373.854 527.847C373.854 527.847 371.949 541.846 379.303 542.422C385.283 542.156 384.663 530.948 384.663 530.948C384.663 530.948 384.743 528.244 384.992 526.532C385.253 524.738 385.996 522 385.996 522C385.996 522 388.542 506.146 389.517 488.337C390.624 467.56 392.751 446.784 393.814 426.007C395.807 400.18 395.054 374.265 395.896 348.349C396.826 326.509 398.997 304.581 399.573 282.962C400.769 265.597 400.281 245.706 401.167 227.72C403.56 196.444 406.484 165.922 407.812 134.38C406.306 133.76 404.844 133.051 403.382 132.298C403.471 132.342 403.515 132.387 403.604 132.431C401.522 131.323 399.396 130.304 397.181 129.418C396.073 156.796 394.124 184.129 391.82 211.418C389.738 231.707 390.27 254.389 389.295 275.298C388.365 297.448 386.593 318.934 385.219 341.172C384.422 365.272 384.599 389.415 383.093 413.559C364.487 410.856 345.615 414.932 327.142 411.831C326.832 415.641 326.743 419.406 326.522 423.216C343.09 423.836 359.747 424.545 376.315 425.165C377.866 426.494 380.081 426.982 382.03 427.469C379.859 455.599 378.131 483.154 376.138 511.063C351.684 504.95 325.769 506.987 301.005 502.912C302.068 477.395 299.765 449.176 299.898 423.881C299.721 405.186 301.271 382.682 301.182 364.873C302.467 325.224 301.094 285.089 303.442 245.573C304.505 233.125 304.549 220.411 304.593 207.874C304.771 190.42 306.941 169.997 307.739 152.011C304.062 150.904 300.341 149.974 296.708 148.778C295.025 175.358 293.031 202.07 293.208 228.473C290.24 265.597 290.861 303.03 290.063 340.774C288.956 385.207 287.184 427.735 289.221 472.079C289.449 518 289.496 516 289.496 516C289.496 516 289.496 518 288.996 530.012C287.534 536.923 295.898 538.828 299.752 530.012ZM375.03 523.644C374.496 526 373.854 527.847 373.854 527.847L299.752 530.012C299.752 530.012 300.917 527.5 300.917 512.702C310.53 513.81 320.231 514.297 329.933 514.74H329.889C345.217 515.006 360.411 516.955 375.695 516.202C375.429 518.727 375.208 521.163 375.03 523.644Z" fill="#8DF63A"/>
        <path d="M318.195 415.995C318.328 414.179 318.461 412.407 318.594 410.591C308.272 408.021 309.379 421.356 317.663 422.596C317.841 420.425 318.018 418.21 318.195 415.995Z" fill="#8DF63A"/>
        <path d="M312.651 70.8094C314.733 43.875 312.707 66.9595 314.967 40.7782C315.897 21.7735 318.397 21.1486 314.897 2.36542C306.303 -7.60208 306.613 23.8066 305.55 27.7493C300.765 66.2017 303.835 35.2808 300.867 73.9104C304.544 75.5052 308.752 75.9482 312.119 78.2961C312.296 75.9482 312.473 73.4674 312.651 70.8094Z" fill="#8DF63A"/>
        <path d="M409.183 105.851C409.316 81.0427 408.885 87.0764 410.347 62.4456C410.79 34.3151 412.208 43.2289 414.201 15.2313C415.087 3.75758 397.81 3.80187 402.905 15.7186C399.228 42.0771 400.867 31.4799 400.38 57.8827C398.829 83.2223 398.684 78.9606 398.684 104.256C402.538 104.743 405.905 106.737 409.183 108.73C409.139 107.756 409.139 106.781 409.183 105.851Z" fill="#8DF63A"/>
        <path d="M385.263 346.002C389.383 346.312 393.193 342.103 389.294 338.869C384.598 336.3 378.707 336.477 373.523 335.37C361.341 333.243 348.981 332.357 336.799 330.497C336.444 334.439 335.78 338.382 334.407 342.103C351.196 344.495 368.296 345.514 385.263 346.002Z" fill="#8DF63A"/>
        <path d="M326.48 340.376C326.524 340.021 326.568 339.711 326.657 339.357C326.657 339.49 326.613 339.623 326.613 339.755C326.657 339.534 326.701 339.312 326.701 339.135C326.701 339.268 326.657 339.401 326.657 339.534C327.233 335.99 328.119 332.49 329.758 329.256C324.398 328.725 318.993 328.016 313.677 327.794C307.608 328.902 308.804 337.806 313.943 339.49C317.93 340.819 322.183 340.597 326.302 341.04C326.302 340.819 326.391 340.597 326.48 340.376Z" fill="#8DF63A"/>
        <path d="M392.444 256.337C394.792 256.603 396.608 254.477 395.899 252.218C393.684 246.99 385.799 247.655 381.059 246.326C380.882 247.389 380.926 248.496 380.882 249.56C380.749 251.553 380.439 253.547 379.996 255.496C384.116 255.717 388.28 256.072 392.444 256.337Z" fill="#8DF63A"/>
        <path d="M374.766 245.129C369.272 245.129 369.627 253.015 374.101 254.477C374.367 251.376 374.588 248.275 374.766 245.129Z" fill="#8DF63A"/>
        <path d="M376.977 245.44C376.932 245.44 376.932 245.44 376.888 245.44C376.888 245.573 376.888 245.706 376.888 245.883C376.888 245.75 376.932 245.573 376.977 245.44Z" fill="#8DF63A"/>
        <path d="M398.51 157.682C404.889 146.43 367.234 146.209 360.855 144.658C360.589 148.114 359.88 151.525 359.703 154.98C366.968 155.955 374.322 156.486 381.631 157.151C386.859 157.239 393.858 160.916 398.51 157.682Z" fill="#8DF63A"/>
        <path d="M352.876 152.588C352.876 152.233 352.965 151.834 353.054 151.48C353.054 151.569 353.009 151.613 353.009 151.702C353.541 149.044 354.117 146.386 354.648 143.728C347.472 142.31 347.428 152.765 353.585 154.005C353.142 153.695 352.876 153.163 352.876 152.588Z" fill="#8DF63A"/>
        <path d="M354.25 145.543C354.25 145.587 354.206 145.674 354.206 145.718C354.25 145.674 354.25 145.631 354.25 145.543Z" fill="#8DF63A"/>
        <path d="M384.644 74.3527C390.934 73.511 397.845 73.6882 403.737 71.3846C406.041 69.3911 403.958 65.8028 401.212 65.6699C394.655 64.5624 388.01 65.5813 381.41 65.3155C367.411 64.0308 353.368 63.5435 339.413 62.0816C331.395 60.664 323.332 59.6894 315.226 59.0249C310.707 56.6327 305.48 60.0438 307.739 65.1826C310.751 71.2074 319.168 69.0367 324.706 70.0556C344.508 73.2895 364.62 74.0426 384.644 74.3527Z" fill="#8DF63A"/>
        <path d="M401.303 74.2206C403.607 74.2206 405.024 71.6511 403.518 69.8348C400.904 67.6198 396.696 68.1514 393.462 67.1768C376.894 64.5188 360.193 62.1267 343.359 62.171C333.125 61.7723 323.202 58.7156 312.925 58.627C307.609 58.9371 309.026 66.911 313.678 67.1768C317.798 67.4869 321.962 67.4426 326.082 68.0628C338.131 70.7651 350.402 69.7906 362.585 70.6766C375.521 71.1639 388.323 73.6447 401.303 74.2206Z" fill="#8DF63A"/>
        <path d="M311.54 123.083C320.754 122.419 316.236 114.356 309.369 116.04C305.648 117.059 306.623 123.836 311.54 123.083ZM310.787 121.134C310.433 121.09 310.078 121.001 309.768 120.868C311.274 120.558 311.939 118.698 311.319 117.369C311.629 117.457 311.939 117.59 312.249 117.723C313.268 118.122 314.375 118.565 315.04 119.495C314.198 120.957 312.337 121.178 310.787 121.134Z" fill="#231F20"/>
        <path d="M310.657 124.9C310.923 124.368 310.126 124.545 309.86 124.324H309.904C309.328 124.102 308.841 123.748 308.398 123.305C308.354 123.261 308.31 123.216 308.265 123.172L308.31 123.216C307.999 122.906 307.689 122.552 307.468 122.153C306.981 121.444 306.183 122.419 306.803 122.906C307.911 123.748 309.196 125.387 310.657 124.9Z" fill="#231F20"/>
        <path d="M315.397 132.653C316.593 132.166 315.397 130.571 315.219 129.685C315.308 128.976 314.511 128.179 313.802 128.577C313.226 128.932 313.226 129.818 313.713 130.261C314.289 130.97 314.289 132.609 315.397 132.653Z" fill="#231F20"/>
        <path d="M311.726 131.412C312.878 130.925 311.46 129.374 311.239 128.577C311.327 128.311 310.973 128.134 310.796 128.355C310.618 128.754 310.884 129.241 310.973 129.64C311.239 130.216 310.929 131.323 311.726 131.412Z" fill="#231F20"/>
        <path d="M308.49 130.437C309.509 130.481 308.49 127.823 308.092 127.558C307.383 127.469 307.782 130.614 308.49 130.437Z" fill="#231F20"/>
        <path d="M329.001 520.012C335.38 516.557 317.97 507.298 315.666 504.33C319.742 486.167 317.749 467.295 319.033 448.778C320.539 404.478 321.514 359.513 334.627 316.808C353.986 323.054 374.408 325.845 393.147 334.041C393.059 333.997 392.97 333.952 392.881 333.952C399.349 337.186 406.171 340.11 412.196 344.053C414.588 351.274 412.683 359.292 410.468 366.336C410.468 366.291 410.513 366.203 410.513 366.158C406.304 377.721 400.147 388.353 394.742 399.383C390.268 408.775 386.015 418.299 380.123 426.938C379.326 429.463 382.294 431.324 383.401 433.317C386.679 437.171 389.47 430.438 392.04 428.799C395.318 436.95 402.051 443.949 410.468 446.784C410.38 446.74 410.336 446.74 410.247 446.696C418.664 451.17 421.012 448.601 415.076 441.025C412.683 437.526 410.911 433.627 408.785 429.95C416.36 415.287 423.758 400.579 431.201 385.872C436.384 377.366 440.061 368.152 444.092 359.115C446.662 353.178 449.497 347.375 450.649 340.952C460.439 310.606 404.089 301.347 384.464 292.355C384.42 292.355 384.376 292.399 384.376 292.399C384.42 292.399 384.42 292.399 384.464 292.355C384.42 292.355 384.42 292.355 384.376 292.399C384.42 293.108 383.756 293.684 383.135 293.816C369.934 299.62 354.783 300.461 340.519 301.303C336.93 301.613 332.678 301.879 329.399 300.506C325.723 296.43 322.223 292.177 318.812 287.836C317.881 292.798 317.837 298.335 315.622 302.854C307.604 305.202 298.522 304.803 290.238 304.05C288.599 327.263 290.947 350.609 291.39 373.867C292.187 394.555 292.055 415.287 292.276 435.975C291.744 448.158 291.877 460.384 291.257 472.567C290.814 486.123 289.219 499.634 290.105 513.19C290.46 517.221 295.953 515.981 298.744 516.601C301.535 515.759 301.092 511.728 301.801 509.425C308.667 516.557 319.388 519.392 329.001 520.012Z" fill="#231F20"/>
        <path d="M354.693 169.598C354.737 169.465 354.737 169.332 354.781 169.244C354.205 169.155 353.674 169.067 353.098 168.978C353.408 169.51 354.25 170.529 354.693 169.598Z" fill="#231F20"/>
        <path d="M311.236 166.187C311.502 165.921 311.812 165.7 312.078 165.434C310.661 165.213 309.243 165.124 307.781 165.124C307.648 165.346 307.515 165.611 307.382 165.833C307.87 165.921 308.313 166.054 308.8 166.099C309.553 166.187 310.262 166.232 311.015 166.364C311.059 166.364 311.148 166.276 311.236 166.187Z" fill="#231F20"/>
        <path d="M413.222 132.785C413.71 131.944 414.463 131.235 415.083 130.526C412.292 129.064 409.413 127.735 406.444 126.628C406.533 126.672 406.577 126.672 406.666 126.716C403.122 125.254 399.091 124.9 395.68 123.128C395.724 123.128 395.812 123.128 395.857 123.084C395.812 123.084 395.768 123.084 395.724 123.128C397.23 122.774 398.692 123.128 400.154 123.305C403.476 121.577 397.85 119.673 396.521 118.654C398.47 118.299 400.242 119.628 402.103 119.451C404.362 117.59 400.641 116.439 399.179 115.951C399.179 115.951 399.179 115.951 399.224 115.951C399.179 115.951 399.135 115.907 399.091 115.907H399.135C398.338 115.508 397.319 115.243 396.787 114.489C396.92 114.312 397.097 114.224 397.274 114.091C397.23 114.091 397.186 114.135 397.141 114.135C399.224 113.603 401.394 115.065 403.476 115.198C407.375 112.895 399.489 111.388 398.559 109.705C406.755 109.705 412.868 116.527 419.336 120.691C420.222 121.356 421.108 122.02 421.905 122.774C422.437 122.198 422.924 121.577 423.5 121.09C418.14 116.261 412.115 111.92 405.647 108.73C402.635 107.047 392.711 105.851 397.717 111.743C395.325 111.566 393.775 114.534 395.724 116.173C392.933 116.217 393.509 119.54 395.414 120.514C390.275 121.533 394.395 126.318 397.54 126.982C402.723 129.108 407.906 131.146 412.912 133.627C413.001 133.361 413.089 133.051 413.222 132.785Z" fill="#231F20"/>
        <path d="M210.977 99.8257L208.984 116.438L194.365 114.002L195.251 109.793L194.808 103.813L193.922 97.8322V94.9527L195.251 93.8452L196.801 94.9527L198.352 97.8322L198.795 94.5097L199.902 93.8452L201.674 96.0602L202.56 100.047L202.782 98.9397L202.56 96.9462L202.782 95.3957L203.889 94.5097L205.661 95.3957L206.104 97.6107L206.769 100.712L206.99 98.2752L207.655 96.0602H209.87L210.977 99.8257Z" fill="white"/>
        <path d="M211.646 108.908C212.133 104.478 214.481 98.5861 210.937 94.9535C209.564 93.9346 207.57 94.1118 206.773 95.7509C206.241 93.4916 202.83 92.6499 202.166 95.2636C200.925 93.1815 198.577 91.5867 197.869 94.9978C195.299 90.9222 192.375 94.1118 192.951 97.7887C193.926 103.105 193.483 108.686 193.04 114.047C193.926 113.87 194.856 113.87 195.787 113.914C196.894 107.8 195.919 101.554 195.078 95.5737C195.078 95.618 195.033 95.6623 195.033 95.7066C195.078 95.3965 195.211 95.0864 195.476 94.9535C197.071 95.8395 197.337 97.7001 197.559 99.3392C199.906 102.484 198.932 95.7509 199.685 94.7763C200.97 95.9724 201.856 97.6558 201.457 99.4278C201.147 100.447 202.254 101.864 203.14 100.801C203.938 99.3392 202.83 96.5926 204.292 95.5737H204.248C204.204 95.5737 204.204 95.5737 204.159 95.5737C206.773 95.8395 204.159 104.965 207.57 102.396C208.146 101.155 207.26 96.3268 209.475 97.1242C211.026 103.105 208.013 109.44 207.836 115.553C208.634 115.642 209.475 115.597 210.228 115.819C210.893 113.515 211.292 111.212 211.646 108.908Z" fill="#231F20"/>
        <path d="M302.549 304.492C320.092 303.606 315.617 304.27 318.807 287.791C322.174 292.132 325.718 296.341 329.395 300.461C332.673 301.878 336.97 301.612 340.514 301.258C354.823 300.461 369.929 299.619 383.131 293.771C384.991 293.328 384.504 291.29 383.263 290.404C381.624 288.234 380.428 285.886 379.587 283.316C375.334 273.039 375.245 263.736 376.22 252.882C377.327 239.725 380.517 226.701 383.352 213.765C407.008 212.879 443.467 215.98 462.472 199.855C478.021 183.331 471.642 162.466 457.732 147.315C448.429 136.728 437.974 126.583 425.038 120.691C422.203 120.647 420.475 125.564 418.26 127.159C416.71 129.551 410.331 132.962 414.362 135.709C418.925 140.715 424.95 144.525 429.823 149.398L429.778 149.353C476.604 189.489 402.888 175.535 380.605 173.541C367.581 172.345 354.823 170.573 341.754 168.934C333.913 168.978 326.559 168.004 318.807 167.915H318.851C314.776 167.472 310.479 167.871 306.58 166.719C292.404 163.972 277.608 163.751 263.343 165.434H263.521C250.231 166.453 236.985 167.782 223.695 168.136C217.537 167.871 211.025 169.82 205 168.136L204.956 168.092C204.336 161.226 205.399 155.555 206.241 149.087C207.525 139.519 209.12 130.083 212.886 121.134C214.835 116.483 209.43 115.287 205.931 115.375C201.722 115.154 193.659 111.92 190.558 115.198C189.097 115.109 188.919 120.248 187.9 121.621C182.097 136.063 180.192 151.037 177.579 166.32V166.232C175.939 177.794 176.117 194.141 189.362 198.571C200.437 202.868 212.487 204.152 224.226 205.127C224.271 205.127 224.98 205.171 225.024 205.171H224.935C234.858 206.633 244.649 206.323 254.661 206.19C262.103 206.057 269.678 206.589 277.209 206.102C277.697 221.119 284.253 235.871 281.019 250.845C278.848 261.122 275.792 270.868 272.292 280.747C270.298 285.354 270.077 290.892 268.349 295.499C264.362 301.479 284.652 303.251 288.107 303.606C288.683 304.005 289.48 304.137 290.145 303.827C294.265 304.669 298.429 304.492 302.549 304.492ZM313.447 299.707C313.447 299.619 313.491 299.53 313.535 299.442C313.491 299.575 313.491 299.663 313.447 299.707ZM417.33 209.07C417.817 209.07 418.305 209.07 418.792 209.025C418.305 209.025 417.817 209.025 417.33 209.07Z" fill="#8DF63A"/>
        <path d="M365.542 173.674C367.757 170.174 356.771 170.041 354.778 169.2C354.202 169.111 353.67 169.022 353.094 168.934C351.987 168.801 350.879 168.757 349.772 168.579C337.146 167.162 324.521 167.516 312.028 165.434C305.206 164.637 298.339 164.947 291.473 165.168C290.011 165.346 287.973 164.592 286.954 165.877C286.467 166.807 286.954 167.915 287.885 168.269C297.542 168.757 307.244 168.181 316.901 169.333C316.857 169.333 316.768 169.333 316.724 169.288C330.9 171.016 345.297 170.263 359.429 172.611C360.049 172.699 360.669 172.788 361.29 172.877C362.752 173.009 364.258 174.117 365.542 173.674Z" fill="#8DF63A"/>
        <path d="M354.612 168.269C354.39 165.566 353.106 163.218 350.359 162.421C350.581 160.117 350.536 157.814 350.536 155.466C355.143 157.637 358.599 153.029 354.922 149.441C358.555 150.106 359.396 145.764 356.295 144.302C359.175 143.726 359.618 139.872 356.827 138.809C355.232 138.012 353.416 138.056 351.777 137.48C353.814 125.342 352.087 111.919 344.91 101.641C339.461 93.8889 329.892 90.6107 320.678 91.8954C312.748 93.313 311.198 88.5286 310.223 81.8836C309.116 77.0549 301.54 75.5044 301.408 81.6621C297.243 78.5611 292.813 81.7507 295.383 86.5351C293.079 85.7377 290.377 86.6237 290.333 89.3703C290.333 89.326 290.333 89.2817 290.333 89.2374C290.333 89.3703 290.288 89.4589 290.288 89.5918C290.288 89.5475 290.288 89.5032 290.288 89.4589C290.067 92.3384 291.927 94.9078 293.921 96.8127L293.877 96.7684C296.845 99.7365 300.522 101.863 304.553 103.059C302.737 108.065 303.224 113.602 301.673 118.697C300.699 122.152 297.11 122.95 294.408 124.633C293.168 126.494 295.826 128 297.332 128.487C298.395 128.975 299.547 129.373 300.654 129.772C300.876 129.861 301.053 129.949 301.275 130.038C300.92 146.517 294.187 147.226 313.103 151.257C313.058 151.257 312.97 151.213 312.926 151.213C313.324 151.302 313.767 151.435 314.166 151.523C314.033 154.403 314.033 157.238 313.767 160.117C311.419 161.225 309.293 163.041 307.831 165.168C309.249 165.168 310.711 165.301 312.128 165.478C317.799 160.959 325.95 164.016 332.595 163.972C338.354 165.433 350.448 163.13 353.194 168.933C353.77 169.022 354.302 169.11 354.878 169.199C354.789 168.889 354.7 168.534 354.612 168.269ZM337.556 126.095C341.942 126.804 342.385 133.759 339.594 136.461C337.556 137.347 339.151 140.537 339.284 142.22C340.436 147.182 343.404 151.745 347.923 154.226C348.188 156.706 348.277 159.231 348.188 161.712C337.645 160.428 326.836 159.32 316.204 159.542C316.115 156.352 316.913 152.897 316.248 149.84C312.172 146.96 306.413 147.492 301.939 145.321C301.629 142.708 305.04 128.31 301.806 128.443C299.768 127.69 297.066 127.601 295.604 125.918C301.673 124.102 305.705 119.804 305.793 113.248C305.793 113.115 305.838 112.982 305.838 112.805C305.838 112.849 305.838 112.894 305.838 112.982C305.882 112.672 305.882 112.362 305.926 112.052C307.964 113.071 310.135 114.001 312.35 114.577C312.305 114.577 312.217 114.533 312.172 114.533C314.255 115.197 320.855 115.596 318.33 111.875C314.609 110.014 310.4 108.375 306.148 108.995C306.325 107.223 306.325 105.451 306.724 103.724C313.634 106.382 320.412 109.571 327.456 112.096C327.412 117.855 326.216 123.526 325.551 129.24C324.311 135.885 325.33 135.265 331.532 136.727C334.854 134.955 332.772 125.918 337.556 126.095Z" fill="#241F20"/>
        <path d="M383.976 206.722C385.748 203.71 383.311 202.381 383.09 204.241C382.912 204.728 382.602 205.171 382.292 205.614C381.628 206.633 383.355 207.918 383.976 206.722Z" fill="white"/>
        <path d="M276.422 199.014C277.264 197.508 275.891 194.672 275.226 193.21C273.056 192.014 273.986 195.691 273.809 196.799C273.809 196.754 273.809 196.666 273.809 196.622C273.366 198.172 274.872 200.343 276.422 199.014Z" fill="white"/>
        <path d="M318.897 282.696C320.315 278.709 318.587 273.748 319.075 269.451C318.986 267.9 320.404 263.78 317.613 264.356C315.663 268.033 316.549 272.906 316.328 276.982C316.372 278.931 315.531 284.07 318.897 282.696Z" fill="white"/>
        <path d="M302.152 167.029C303.525 167.118 306.626 165.966 304.146 164.77C302.506 164.947 300.867 164.992 299.228 164.726C298.608 164.637 298.121 165.124 298.121 165.745C298.298 167.65 300.823 166.985 302.152 167.029Z" fill="white"/>
        <path d="M184.946 103.237C185.965 102.262 185.212 100.401 185.389 99.1167C185.522 98.8952 185.477 98.5851 185.345 98.3636C184.459 96.5916 183.661 99.028 183.705 99.9583C183.44 101.154 182.819 103.812 184.946 103.237Z" fill="white"/>
        <path d="M118.404 106.825C118.891 102.971 118.404 99.1614 118.537 95.3516C118.182 93.6239 120.043 87.3333 117.208 87.9092C115.126 92.6493 116.366 98.4969 115.879 103.591V103.547C115.879 103.591 115.879 103.68 115.879 103.724C115.879 103.724 115.879 103.724 115.879 103.68C115.967 105.053 115.48 107.401 117.252 107.756C117.828 107.8 118.36 107.401 118.404 106.825Z" fill="white"/>
        <path d="M336.353 101.554C338.08 100.446 334.448 98.5855 333.562 98.0539C332.321 97.5666 331.878 99.3829 332.941 99.8702C334.049 100.358 335.068 101.509 336.353 101.554Z" fill="white"/>
        <path d="M333.39 104.965C333.612 104.788 333.656 104.566 333.656 104.345C333.656 104.212 333.612 104.079 333.568 103.991C332.682 102.662 331.308 101.554 330.068 100.579C328.916 99.9593 328.34 101.643 329.359 102.219C329.359 102.219 329.359 102.219 329.315 102.219C329.979 102.706 330.6 103.237 331.22 103.769C331.22 103.769 331.22 103.769 331.175 103.725C331.22 103.769 331.264 103.769 331.264 103.813C331.264 103.813 331.264 103.813 331.22 103.813C331.973 104.168 332.416 105.585 333.39 104.965Z" fill="white"/>
        <path d="M329.578 106.427C331.439 105.009 327.895 103.326 326.876 102.484C326.521 102.263 325.99 102.307 325.724 102.706C325.148 104.123 327.274 104.699 327.983 105.585C328.116 105.718 328.293 105.851 328.426 105.984C328.426 105.984 328.426 105.984 328.426 105.94L328.471 105.984C328.426 105.94 328.382 105.895 328.338 105.851C328.293 105.807 328.293 105.762 328.249 105.718C328.515 106.25 329.046 106.648 329.578 106.427Z" fill="white"/>
        <path d="M432.084 343.476C434.21 342.59 437.045 341.881 438.109 339.622C438.552 338.293 436.204 337.274 435.982 338.913C434.875 340.685 430.135 340.419 430.622 342.767C430.888 343.255 431.508 343.698 432.084 343.476Z" fill="white"/>
        <path d="M427.832 338.647C428.807 337.407 432.661 334.35 431.775 332.844C430.49 332.401 429.737 335.325 428.63 335.945C428.142 336.787 426.149 337.54 426.946 338.603C427.168 338.869 427.566 338.913 427.832 338.647Z" fill="white"/>
        <path d="M325.99 315.744C327.053 315.655 326.655 314.061 325.724 314.149C324.484 314.548 321.959 312.776 321.427 314.415C321.959 315.921 324.617 315.478 325.99 315.744Z" fill="white"/>
        <path d="M321.164 323.009C322.316 322.654 325.24 323.407 325.063 321.591C324.354 319.996 322.094 321.414 320.765 321.237C319.702 321.458 320.234 323.097 321.164 323.009Z" fill="white"/>
    </g>
    <defs>
        <clipPath id="clip0_1853_26661">
            <rect width="487" height="543" fill="white" transform="matrix(-1 0 0 1 487 0)"/>
        </clipPath>
    </defs>
</svg>
