<svg width="18" height="18" viewBox="0 0 18 18" fill="none" xmlns="http://www.w3.org/2000/svg">
    <path d="M13.4392 10.7401C13.2449 10.9283 13.1557 11.2006 13.1999 11.4676L13.8667 15.1576C13.9229 15.4703 13.7909 15.7868 13.5292 15.9676C13.2727 16.1551 12.9314 16.1776 12.6517 16.0276L9.32991 14.2951C9.21441 14.2336 9.08616 14.2006 8.95491 14.1968H8.75166C8.68116 14.2073 8.61216 14.2298 8.54916 14.2643L5.22666 16.0051C5.06241 16.0876 4.87641 16.1168 4.69416 16.0876C4.25016 16.0036 3.95391 15.5806 4.02666 15.1343L4.69416 11.4443C4.73841 11.1751 4.64916 10.9013 4.45491 10.7101L1.74666 8.08508C1.52016 7.86533 1.44141 7.53533 1.54491 7.23758C1.64541 6.94058 1.90191 6.72383 2.21166 6.67508L5.93916 6.13433C6.22266 6.10508 6.47166 5.93258 6.59916 5.67758L8.24166 2.31008C8.28066 2.23508 8.33091 2.16608 8.39166 2.10758L8.45916 2.05508C8.49441 2.01608 8.53491 1.98383 8.57991 1.95758L8.66166 1.92758L8.78916 1.87508H9.10491C9.38691 1.90433 9.63516 2.07308 9.76491 2.32508L11.4292 5.67758C11.5492 5.92283 11.7824 6.09308 12.0517 6.13433L15.7792 6.67508C16.0942 6.72008 16.3574 6.93758 16.4617 7.23758C16.5599 7.53833 16.4752 7.86833 16.2442 8.08508L13.4392 10.7401Z" fill="#FDC43A"/>
</svg>
