<svg width="428" height="472" viewBox="0 0 428 472" fill="none" xmlns="http://www.w3.org/2000/svg">
    <path d="M195.499 22.3491V51.8491C195.499 54.1825 194.899 60.3491 192.5 66.3491C190.101 72.3491 184.834 74.8491 182.5 75.3491L180.999 94.8491L182.5 98.3491L154.5 115.849L152 118.849L144.499 121.349L129 112.849L131 105.849L132.5 96.3491V75.3491V68.3491V51.8491C135.833 50.5158 142.9 47.6491 144.499 46.8491C146.498 45.8491 145.499 32.8491 144.499 30.8491C143.699 29.2491 154.499 23.5158 159.999 20.8491H180.999L195.499 22.3491Z" fill="white"/>
    <path d="M179.522 64.3992C181.209 66.2976 177.716 67.5644 176.17 67.1387C174.57 67.0171 173.399 65.6997 172.646 64.3891C172.12 63.9668 172.096 62.9095 172.849 62.7204C174.597 62.6258 174.054 65.6085 177.298 65.193C178.266 65.2336 178.503 63.6121 179.522 64.3958V64.3992Z" fill="black"/>
    <path d="M185.55 52.8567C185.611 53.9039 185.607 54.995 185.155 55.9611C184.274 57.8156 181.739 59.258 179.785 58.2142C178.695 57.5927 178.418 56.3158 178.243 55.1673C178.027 54.4579 177.584 53.279 178.587 52.9817C180.156 52.8534 179.91 54.9545 180.214 55.9847C180.497 57.0657 182.063 56.2482 182.634 55.7956C184.284 54.6538 183.542 52.421 183.555 50.732C183.437 49.2051 183.359 47.6614 183.056 46.1582C182.327 43.3883 180.463 40.8818 180.7 37.8923C180.744 36.9735 180.862 36.031 181.23 35.1933C181.965 34.386 182.995 35.5615 182.705 36.3925C182.448 37.3316 182.37 38.3044 182.482 39.2705C182.887 41.9155 184.743 44.101 185.013 46.7899C185.307 48.7964 185.432 50.83 185.55 52.8567Z" fill="black"/>
    <path d="M168.363 48.1851C165.677 48.1107 161.859 46.9183 161.809 43.7025C161.96 41.2298 164.813 40.0475 166.996 40.1962C169.173 40.2164 171.408 40.5272 173.393 41.4629C174.766 42.4763 175.219 44.7024 173.97 46.013C172.539 47.425 170.331 48.0803 168.363 48.1817V48.1851ZM168.62 46.0738C169.605 45.8036 174.081 44.851 172.404 43.3478C170.284 42.6891 164.401 41.2737 163.648 44.2362L163.631 44.2565C164.647 45.8441 166.885 46.0941 168.62 46.0705V46.0738Z" fill="black"/>
    <path d="M171.185 46.4284C169.875 46.2764 169.129 44.78 169.423 43.5706C169.534 42.9322 170.064 42.2262 170.783 42.4221C171.938 41.8952 173.2 43.0673 173.345 44.1956C173.588 45.3745 172.38 46.6514 171.185 46.425V46.4284Z" fill="black"/>
    <path d="M161.784 37.5073C160.232 37.2877 157.163 36.6831 157.859 34.5178C157.687 32.8491 160.046 33.2679 161.113 32.9538C163.468 32.7207 165.831 32.4978 168.19 32.3086C170.327 32.3153 172.909 32.1127 174.61 33.6192C175.292 34.1935 175.457 35.2981 174.695 35.8791C172.865 37.0445 170.496 36.781 168.413 36.8587C166.162 36.656 164.019 37.5816 161.784 37.5073Z" fill="black"/>
    <path d="M166.26 55.4072C165.814 55.2146 165.5 54.6336 165.632 54.154C165.861 53.4919 166.236 52.1812 167.174 52.6676C167.724 52.9987 167.765 53.725 167.532 54.2722C167.323 54.8329 167.039 55.7551 166.26 55.4072Z" fill="black"/>
    <path d="M168.789 55.3936C168.036 55.1876 167.978 54.3329 168.11 53.6911C168.06 53.2216 168.205 52.6102 168.762 52.5696C170.081 52.492 170.172 55.6605 168.792 55.3936H168.789Z" fill="black"/>
    <path d="M171.59 54.8531C170.169 54.5322 170.952 51.5393 172.316 52.4277C172.718 52.7452 172.843 53.3398 172.596 53.789C172.529 54.3329 172.252 55.0389 171.587 54.8531H171.59Z" fill="black"/>
    <path d="M187.402 55.191C186.562 54.8194 186.72 53.7959 186.987 53.0932C187.149 52.5257 187.588 51.7927 188.256 52.2048C189.184 52.7892 188.533 53.9445 188.371 54.7687C188.253 55.1842 187.77 55.3463 187.402 55.1876V55.191Z" fill="black"/>
    <path d="M189.804 55.2483C189.008 55.0186 188.964 54.0931 189.069 53.4107C188.984 52.9614 189.173 52.4075 189.69 52.3703C190.928 52.2892 191.296 55.5625 189.801 55.2483H189.804Z" fill="black"/>
    <path d="M192.641 54.7957C191.645 54.6235 191.612 52.4582 192.479 52.1846C193.843 51.9616 194.116 55.0457 192.641 54.7957Z" fill="black"/>
    <path d="M160.381 41.8918C159.227 39.9326 164.016 37.9599 165.505 37.6896C167.435 37.2978 169.44 37.5782 171.269 38.2673C172.144 38.6929 173.744 38.9699 173.524 40.2535C173.082 41.6148 171.695 40.2434 170.864 40.0441C169.872 39.7097 168.849 39.4394 167.796 39.4259C165.91 39.3719 164.03 40.0373 162.497 41.1183C161.91 41.6216 161.15 42.8681 160.381 41.8952V41.8918Z" fill="black"/>
    <path d="M148.44 388.428C149 389.489 150.195 390.374 150.06 391.641C150.002 392.076 149.675 392.306 149.331 392.485C147.987 393.694 146.732 395.086 145.149 395.978C143.674 396.478 142.178 393.829 141.024 393.09C139.904 400.923 134.878 413.395 126.247 415.104C122.659 414.32 127.726 404.423 127.864 401.977C113.934 394.157 101.874 383.51 91.0803 371.808C86.9254 367.606 83.3004 362.958 79.7563 358.249C79.2129 357.493 78.0687 356.996 78.2645 355.918C78.6256 356.219 78.9901 356.51 79.3648 356.79C80.2086 357.324 80.8297 356.574 80.8533 355.807C81.9232 356.26 83.0607 356.54 84.1509 356.932C90.5572 358.861 97.3415 359.303 103.673 361.522C106.515 356.803 109.371 352.051 112.402 347.457C113.337 345.97 114.279 344.481 115.014 342.879C115.146 342.434 115.291 341.991 115.47 341.636C116.115 342.859 117.836 343.846 117.839 341.991C124.715 351.382 130.075 361.962 136.191 371.802C138.651 375.197 140.845 378.797 143.498 382.044C145.317 384.033 146.914 386.209 148.44 388.425V388.428Z" fill="black"/>
    <path d="M99.0804 225.714C100.589 231.477 101.19 238.206 98.807 243.797C97.3185 245.83 94.8816 245.08 94.2808 242.746C93.8892 244.175 93.6158 245.732 92.6809 246.925C91.0945 248.891 89.0052 246.567 88.5664 244.841C88.1108 247.067 86.2071 250.289 83.5711 248.82C81.4818 246.986 82.0286 243.675 82.1197 241.172C78.2111 240.27 74.2486 239.74 70.2658 239.321C64.8923 238.409 59.4413 237.537 54.0982 236.561C53.4299 236.399 52.7414 236.321 52.0562 236.237C52.3228 235.639 52.1473 234.828 51.3204 234.416C50.5542 234.21 49.7847 234.011 49.0117 233.822C49.0961 233.616 49.2345 233.423 49.4336 233.261C54.8644 226.88 57.9427 225.046 66.023 222.928C65.9555 221.695 65.3041 215.003 65.9792 211.726C66.2998 211.797 66.634 211.855 66.9816 211.888C67.9537 211.966 68.1157 210.791 67.6702 210.105C70.205 211.662 73.1887 212.247 76.0307 213.067C80.6852 214.533 85.1912 216.442 89.8288 217.962C95.1853 220.11 97.7033 219.168 99.0804 225.718V225.714Z" fill="black"/>
    <path d="M333.342 69.6487C332.66 69.5912 332.191 70.4763 332.478 71.1215C332.785 71.689 333.095 72.2531 333.409 72.8172C332.771 72.9996 331.924 73.0064 331.273 73.1483C329.406 73.2766 327.59 73.7732 325.727 73.9015C321.539 73.9792 317.296 73.0807 313.445 71.4356C313.269 75.9824 311.993 80.5798 309.323 84.3057C308.551 85.1907 307.518 87.4438 306.309 88.1498C306.164 87.7546 306.019 87.356 305.874 86.9574C306.343 85.9271 304.706 84.755 303.953 85.6468C303.845 85.9812 303.805 86.346 303.815 86.7277C301.793 83.8834 300.733 78.9449 299.343 76.2458C295.33 66.2808 292.025 56.1334 287.968 46.192C286.51 45.2529 286.368 42.7465 285.622 41.2804C282.99 42.0608 279.871 43.4626 277.194 42.2803C275.193 40.9899 275.787 38.1119 277.204 36.5952C273.222 36.0682 273.789 32.6869 276.114 30.427C274.254 30.6635 271.699 29.7784 271.767 27.5557C272.04 24.4953 283.27 19.2121 286.203 18.0265C289.747 16.4253 293.821 16.6415 297.385 18.0636C305.628 21.5598 315.146 41.1723 319.891 49.3234C322.936 54.6065 326.018 59.8796 329.717 64.7405C330.939 66.3619 332.208 67.9664 333.345 69.652L333.342 69.6487Z" fill="black"/>
    <path d="M193.789 43.7699C193.847 43.1687 193.755 42.5437 193.583 41.9796C187.373 39.8211 183.781 44.959 190.009 45.3947C189.509 44.0672 190.461 42.0505 192.253 42.2634C193.084 42.3546 193.61 43.0133 193.789 43.7699ZM194.37 37.2977C194.37 37.1694 194.37 37.0376 194.363 36.9059C194.16 36.9667 193.938 37.0039 193.708 37.0241C193.938 37.1018 194.16 37.193 194.37 37.2977ZM194.4 40.2197C194.4 39.963 194.397 39.7062 194.393 39.4495C193.863 39.1083 193.293 38.5611 192.729 38.5915C191.561 38.4023 190.363 38.5915 189.239 38.9293C188.122 39.2536 186.077 41.0676 185.506 39.1725C185.408 38.551 185.82 38.1997 186.418 38.2064C187.329 37.693 188.274 37.2234 189.27 36.9363C187.747 36.7809 186.249 36.3823 185.216 35.2102C184.561 34.5278 184.197 33.1057 185.24 32.6091C188.078 31.3694 191.315 31.5991 194.306 32.099C194.299 30.9269 194.295 29.7547 194.306 28.5826C194.299 27.1402 194.235 25.6978 194.191 24.2588C194.106 24.2689 194.022 24.2757 193.938 24.2824C191.504 24.6945 189.165 24.0054 186.836 23.3839C186.188 23.2792 185.537 23.4548 184.895 23.5291C184.46 23.4987 184.041 23.4852 183.626 23.546C184.565 25.5728 184.247 28.0488 181.922 29.4406C180.653 30.2716 178.992 30.5756 177.632 29.7784C176.477 29.2413 176.096 26.9578 177.659 26.7686C178.347 26.7585 178.793 27.4746 178.695 28.1063C179.782 28.3225 180.943 27.7752 181.706 26.9544C181.672 26.6233 181.76 26.2416 181.814 25.8667C181.631 24.4074 180.163 23.1879 178.779 22.867C176.174 22.6745 174.344 24.9073 172.012 25.61C170.854 26.0052 169.629 26.0052 168.424 25.9376C166.76 25.9309 165.096 25.9917 163.452 25.7147C157.866 24.7249 158.305 30.0047 152.905 32.0349C151.585 32.6496 149.917 32.653 148.885 33.7914C147.72 35.9094 149.705 38.6388 150.387 40.6858C150.933 42.2161 151.308 43.8071 151.659 45.3947C151.993 47.0702 151.777 48.766 151.484 50.4279C151.126 53.2688 151.193 56.1435 150.91 58.9877C150.647 60.7611 150.778 62.5684 150.555 64.3317C150.157 65.1593 149.05 65.264 148.26 65.5004C146.809 65.8011 145.125 65.6153 144.392 64.1526C142.161 60.6733 143.44 53.9782 138.651 52.5966C135.991 52.9952 135.748 56.7582 137.726 58.1939C138.668 58.9742 139.636 59.7309 140.727 60.2916C141.142 60.4842 141.452 60.8895 141.527 61.3422C141.682 62.4805 140.561 63.2 139.954 64.0175C139.235 64.8384 138.506 65.6457 137.8 66.4801C136.43 68.1454 135.228 69.9425 133.912 71.6484C133.811 71.8679 133.666 72.0841 133.473 72.2327C133.095 81.0526 133.196 89.9806 132.991 98.7633C132.761 102.591 132.282 106.472 131.239 110.171C131.134 110.505 131.026 110.965 130.864 111.373C135.303 114.258 139.684 117.305 144.304 119.916C149.327 117.683 153.603 114.258 158.332 111.512C160.391 110.427 162.369 109.208 164.239 107.82C168.168 105.367 172.36 103.351 176.407 101.094C177.78 100.327 179.083 99.4389 180.312 98.4593C180.491 98.2871 180.71 98.1452 180.95 98.0742C180.602 96.1116 180.737 94.0511 180.659 92.0581C180.673 86.3223 180.659 80.4885 181.436 74.8236C181.631 74.3507 182.104 74.219 182.553 74.0906C184.433 73.4691 186.144 72.4523 187.673 71.2058C194.525 65.112 194.049 55.7111 194.174 47.0364C193.3 47.4722 192.156 47.5127 191.234 47.5668C189.469 47.5499 187.488 47.3067 186.134 46.067C183.14 42.7126 186.509 39.0273 190.353 39.3684C191.676 39.4765 193.29 39.4461 194.397 40.2163L194.4 40.2197ZM218.84 90.5954C217.453 90.3927 216.066 90.2374 216.019 91.7237C216.106 92.3013 216.349 92.6898 216.694 92.9431C208.704 97.5574 201.043 102.776 192.662 106.678C187.353 108.614 182.374 111.255 177.206 113.512C173.517 114.903 169.788 116.184 166.092 117.562C162.163 119.041 158.16 120.274 154.231 121.74C151.149 122.973 148.095 124.368 144.801 124.912C143.876 126.497 142.121 126.162 140.565 126.399C136.292 127.155 132.116 128.324 128.019 129.733C122.605 131.101 117.292 132.938 111.736 133.648C108.935 134.104 106.103 134.3 103.268 134.36C98.9982 134.6 94.7555 135.296 90.4689 135.215C88.913 135.171 86.6616 135.07 85.2204 134.617C85.7638 133.857 85.9427 133.252 85.4702 132.969C84.9706 132.415 84.4947 132.476 84.0391 132.783C84.3665 132.259 85.0854 131.624 86.3309 130.847C89.3517 127.996 93.078 126.165 96.8009 124.409C102.465 121.399 108.51 119.197 114.582 117.173C118.71 115.984 122.743 114.532 126.669 112.782C127.317 112.674 128.134 112.035 128.879 111.721C128.164 110.677 129.382 109.232 129.609 108.087C130.543 103.854 130.982 99.4964 130.921 95.1624C131.04 90.2306 130.891 85.319 131.185 80.4041C131.202 77.4652 131.195 74.523 131.478 71.5977C128.515 68.7838 125.7 59.6802 126.247 57.0048C126.571 54.826 127.148 52.7047 128.066 50.7184C128.606 49.3301 129.75 48.0262 129.615 46.4656C129.311 44.709 129.139 42.9288 129.237 41.1486C129.845 36.6154 132.11 32.0045 135.839 29.2582C139.515 27.3969 143.207 25.5525 146.39 22.8704C149.431 20.3741 152.419 17.1143 156.449 16.4151C158.474 16.1246 160.546 16.0942 162.507 15.4591C165.859 14.2296 168.535 11.6826 171.85 10.3854C175.023 8.98356 178.634 9.00721 182.047 8.92276C184.22 9.16597 186.37 9.24705 188.557 9.07477C191.865 8.85858 195.507 9.92264 197.816 12.3784C199.449 14.1688 201.144 16.4962 200.536 19.0533C199.912 21.4956 198.238 23.1305 196.047 23.8602C196.223 28.1299 196.182 32.4031 196.223 36.6762C196.375 41.2162 196.118 45.7528 195.932 50.2894C195.966 60.751 194.461 72.3307 183.066 76.1039C182.796 81.458 182.448 86.8053 182.536 92.1695C182.458 93.6288 182.627 95.0915 182.701 96.5474C183.052 96.3481 183.414 96.1657 183.771 95.9731C183.771 95.9731 183.778 95.9731 183.781 95.9664C186.029 94.3956 188.608 93.7302 191.204 92.9971C195.18 91.6189 199.308 90.7001 203.446 89.9637C205.41 89.5651 217.997 87.6904 218.844 90.5853L218.84 90.5954Z" fill="black"/>
    <path d="M335.443 359.114C335.878 360.661 338.373 362.563 336.884 364.073C336.276 364.485 335.524 364.066 335.18 363.495C334.437 362.016 329.971 354.942 332.044 354.091C334.17 353.601 334.511 357.763 335.443 359.117V359.114Z" fill="#8DF63A"/>
    <path d="M154.971 144.488C158.691 143.978 171.328 138.147 173.346 141.603C171.972 143.451 169.731 144.322 167.784 145.45C165.158 146.933 162.221 147.605 159.359 148.436C153.543 150.608 147.512 152.078 141.507 153.595C141.305 152.699 141.122 151.801 140.859 150.919C140.697 150.382 140.501 149.855 140.292 149.332C140.245 149.21 140.191 149.085 140.137 148.963C144.97 147.092 149.986 145.862 154.971 144.481V144.488Z" fill="#8DF63A"/>
    <path d="M182.296 162.634C184.116 164.195 182.219 166.482 180.43 166.982C173.17 169.025 165.511 169.333 158.227 171.329C153.883 171.903 149.506 172.444 145.347 173.91C144.733 171.704 144.591 169.356 144.055 167.117C152.27 165.921 160.242 163.306 168.448 161.975C172.974 161.307 177.976 160.915 182.296 162.634Z" fill="#8DF63A"/>
    <path d="M337.689 75.8844C345.348 89.1193 355.959 106.404 355.129 122.017C353.917 133.32 347.295 144.119 337.004 149.237C326.571 155.49 314.406 157.408 302.407 156.838C301.233 156.844 300.058 156.838 298.887 156.824C298.772 156.696 298.657 156.564 298.543 156.432C298.522 156.175 298.411 155.925 298.229 155.736C298.07 155.567 297.874 155.476 297.665 155.415C297.631 155.378 297.598 155.338 297.564 155.301V155.311C297.257 154.986 296.815 154.801 296.372 154.993C295.734 155.446 295.711 156.067 296.031 156.756C281.926 156.341 267.949 154.328 254.06 151.835C250.28 151.365 246.621 150.534 242.888 150.092C241.2 153.635 239.948 157.466 238.595 161.182C233.154 176.285 229.083 191.877 226.714 207.72C226.461 211.274 226.417 214.817 226.558 218.344C226.42 218.195 226.228 218.097 225.975 218.067C225.391 218.111 224.854 218.212 224.297 218.317C224.23 216.32 224.226 214.324 224.294 212.328C226.248 212.422 227.011 210.085 225.029 209.963C224.827 209.976 224.618 209.973 224.402 209.963C223.733 209.933 223.025 209.824 222.363 209.882C222.039 209.814 221.664 209.818 221.266 209.902C212.953 210.172 204.68 208.875 196.357 209.257C177.907 209.433 159.414 211.122 141.249 214.364C134.137 215.547 126.971 216.631 119.88 217.969C117.865 218.401 115.843 218.83 113.852 219.377C113.291 219.529 112.731 219.695 112.177 219.871C111.975 219.941 111.806 220.07 111.671 220.232C111.27 217.02 110.888 213.804 110.544 210.584C108.964 201.204 109.909 191.59 107.837 182.28C107.442 180.774 106.986 179.274 106.284 177.882C106.237 177.828 106.19 177.771 106.146 177.713C101.785 178.234 97.6537 180 93.8127 182.071C85.7863 185.733 78.2966 190.516 71.6169 196.289C69.0551 198.978 63.3577 201.501 63.0269 205.308C62.2573 207.926 64.7381 209.419 67.0198 209.652C67.3 209.703 67.5194 209.875 67.6712 210.108C68.1134 210.791 67.9548 211.966 66.9827 211.892C66.6317 211.858 66.2975 211.804 65.9802 211.73C65.3052 215.006 65.9566 221.698 66.0241 222.931C57.9471 225.046 54.8689 226.883 49.4347 233.264C49.2355 233.426 49.0972 233.619 49.0128 233.825C49.7857 234.018 50.5553 234.213 51.3215 234.419C52.145 234.828 52.3239 235.639 52.0573 236.24C51.8041 236.811 51.1459 237.193 50.2549 236.852C41.7425 234.953 33.0309 233.102 25.4771 228.532C19.7459 225.674 17.2313 220.472 18.254 214.182C21.177 201.346 28.5384 189.874 36.261 179.406C41.8066 173.197 46.3328 166.08 52.5298 160.469C59.4288 153.679 67.2426 147.933 74.5365 141.613C77.0275 139.12 79.8998 137.039 82.3266 134.482C82.8566 134.08 83.4304 133.215 84.0446 132.8C84.5003 132.493 84.9762 132.432 85.4758 132.986C85.9483 133.269 85.7728 133.871 85.226 134.634C86.6672 135.087 88.9219 135.188 90.4745 135.232C94.7611 135.31 99.0038 134.617 103.274 134.377C106.109 134.317 108.941 134.121 111.742 133.665C117.298 132.955 122.614 131.118 128.024 129.75C132.122 128.338 136.3 127.172 140.57 126.416C142.126 126.179 143.881 126.513 144.806 124.929C148.104 124.385 151.155 122.99 154.237 121.757C158.165 120.291 162.169 119.058 166.097 117.579C169.793 116.201 173.523 114.92 177.212 113.529C182.376 111.272 187.358 108.627 192.667 106.695C201.048 102.79 208.71 97.5744 216.699 92.9601C216.355 92.7067 216.112 92.3216 216.024 91.7406C216.071 90.2543 217.459 90.4097 218.846 90.6124C219.659 90.7306 220.469 90.8657 221.016 90.6934C230.369 90.5279 239.762 91.9737 248.623 94.9835C260.767 98.8817 272.678 103.337 284.117 109.002C288.677 111.319 293.335 113.414 297.993 115.522C303.906 118.325 314.44 124 312.844 112.272C311.963 105.736 308.081 100.088 306.167 93.8316C305.651 91.8318 303.879 88.9572 303.822 86.7412C303.811 86.3595 303.852 85.9947 303.96 85.6603C304.713 84.7685 306.35 85.944 305.881 86.9709C306.026 87.3695 306.171 87.7681 306.316 88.1633C307.524 87.4573 308.554 85.2042 309.33 84.3192C312 80.5933 313.276 75.9993 313.451 71.4491C317.299 73.0976 321.545 73.9927 325.734 73.9151C327.597 73.7867 329.416 73.2901 331.279 73.1618C331.931 73.0165 332.778 73.0098 333.416 72.8307C333.102 72.27 332.788 71.7025 332.484 71.135C332.197 70.4932 332.667 69.6081 333.348 69.6622C333.45 69.6689 333.558 69.6993 333.666 69.7534C335.485 71.3545 336.336 73.8982 337.696 75.8979L337.689 75.8844Z" fill="#8DF63A"/>
    <path d="M256.291 322.662C256.706 324.936 267.079 354.496 266.63 360.34C266.545 361.482 266.046 361.718 264.979 360.675C264.952 360.742 264.932 360.813 264.915 360.891C264.01 362.681 262.643 364.201 261.263 365.64C258.279 368.512 255.397 371.484 252.535 374.474C250.195 374.916 247.593 373.869 245.227 373.528C241.055 372.957 237.089 371.403 232.907 370.964C232.006 370.981 231.081 370.755 230.177 370.559C230.379 371.018 230.575 371.477 230.767 371.933C231.402 373.312 229.667 374.538 228.79 373.011C228.398 372.143 228 371.275 227.598 370.41C219.757 353.473 210.587 337.103 202.226 320.43C194.352 304.61 186.454 288.244 173.466 275.931C162.361 264.845 152.043 278.228 143.929 285.812C141.728 287.812 139.618 289.903 137.583 292.055C136.614 290.697 135.241 291.126 135.909 293.652C135.923 293.706 135.933 293.76 135.946 293.814C131.96 298.169 128.224 302.756 124.538 307.377C119.262 313.994 113.605 320.561 110.139 328.351C112.586 332.857 115.657 337.046 117.821 341.697C117.828 341.799 117.834 341.897 117.834 341.984C117.831 343.839 116.11 342.852 115.465 341.63C115.286 341.984 115.144 342.427 115.009 342.873C114.274 344.474 113.335 345.96 112.397 347.45C109.366 352.047 106.507 356.797 103.668 361.516C97.3399 359.296 90.5556 358.854 84.146 356.925C83.0524 356.533 81.9149 356.253 80.8483 355.8C80.8247 356.567 80.2037 357.317 79.3598 356.783C78.9852 356.499 78.6206 356.209 78.2595 355.912C73.7873 352.213 70.358 347.376 67.5734 342.322C65.4065 337.242 65.0251 331.516 65.6191 326.071C68.3193 317.535 73.7805 310.069 78.1785 302.33C89.0266 284.961 100.87 268.125 110.122 249.843C112.927 243.854 114.395 239.233 113.247 232.541C112.802 229.096 112.35 225.654 111.914 222.208C111.992 222.239 112.08 222.262 112.174 222.272C112.174 222.276 112.174 222.279 112.167 222.282C112.724 222.073 113.477 222.1 114.206 222.09C114.476 224.171 114.736 226.255 114.966 228.343C114.729 228.403 114.493 228.471 114.257 228.535C113.298 229.038 113.254 230.852 114.517 230.903C114.749 230.846 114.982 230.788 115.215 230.734C121.551 229.261 128.257 229.059 134.755 228.157C144.297 226.515 153.98 225.836 163.633 225.242C183.618 223.184 203.732 222.353 223.744 220.837C223.963 220.796 224.182 220.769 224.405 220.745C224.935 220.691 225.472 220.654 225.975 220.499C226.258 220.404 226.481 220.192 226.626 219.928C227.196 230.18 229.309 240.277 232.418 250.117C234.882 259.889 239.374 268.946 242.631 278.451C246.82 293.294 251.65 307.941 256.288 322.656L256.291 322.662Z" fill="#8DF63A"/>
    <path d="M336.883 364.073C338.371 362.566 335.877 360.661 335.442 359.114C334.507 357.759 334.169 353.598 332.043 354.088C329.97 354.939 334.432 362.016 335.178 363.492C335.526 364.063 336.275 364.482 336.883 364.07V364.073ZM374.436 176.575C376.694 177.572 380.9 177.497 380.397 180.939C377.342 192.864 374.824 205.153 375.074 217.513C374.608 235.821 374.703 254.15 377.713 272.249C379.83 287.633 381.602 303.121 380.13 318.653C380.076 332.999 375.692 346.274 367.351 357.935C359.116 369.424 345.048 373.872 332.438 378.75C320.702 384.114 308.048 386.895 295.843 390.955C293.372 391.583 281.032 395.481 274.218 396.154C274.393 397.211 274.572 398.272 274.761 399.325C277.235 412.814 279.314 426.4 280.442 440.071C280.945 445.725 280.313 451.417 280.756 457.065C282.382 458.386 292.177 464.466 290.358 466.523C290.078 466.892 289.687 466.936 289.335 466.929C286.726 467.199 284.104 467.53 281.478 467.24C277.755 466.956 274.066 466.128 270.664 464.585C270.491 464.514 270.285 464.433 270.066 464.341C270.329 465.409 270.495 466.534 270.751 467.452C270.9 468.307 271.467 469.385 270.788 470.138C268.925 470.753 266.829 470.753 264.899 471.057C262.458 471.972 258.921 457.596 257.78 455.356C251.003 438.564 245.535 421.296 239.922 404.085C239.149 401.761 238.362 399.44 237.545 397.13C234.467 396.515 231.22 395.731 229.934 396.072C221.067 396.072 212.373 398.19 203.57 399.011C194.983 400.031 186.336 400.579 177.834 402.139C175.187 400.889 174.698 397.099 173.199 394.755C168.548 385.121 164.579 375.18 160.495 365.299C156.117 355.52 152.86 345.322 149.259 335.242C144.476 321.561 139.288 307.934 135.96 293.814C135.947 293.76 135.936 293.706 135.923 293.652C135.255 291.122 136.628 290.697 137.597 292.055C139.636 289.899 141.742 287.812 143.943 285.812C152.057 278.228 162.375 264.845 173.48 275.931C186.468 288.248 194.366 304.614 202.24 320.43C210.601 337.103 219.771 353.469 227.612 370.41C228.014 371.275 228.412 372.14 228.804 373.011C229.681 374.538 231.413 373.312 230.781 371.933C230.589 371.474 230.393 371.018 230.191 370.559C231.099 370.755 232.02 370.981 232.921 370.964C237.103 371.4 241.069 372.957 245.241 373.528C247.61 373.872 250.209 374.916 252.548 374.474C255.407 371.484 258.293 368.508 261.277 365.64C262.657 364.201 264.024 362.685 264.929 360.891C264.946 360.813 264.966 360.739 264.993 360.675C266.056 361.718 266.556 361.479 266.644 360.34C267.092 354.496 256.724 324.936 256.305 322.662C251.664 307.948 246.838 293.301 242.649 278.458C239.392 268.953 234.903 259.896 232.435 250.124C229.327 240.287 227.21 230.187 226.643 219.935C226.498 220.198 226.275 220.411 225.992 220.506C225.486 220.664 224.952 220.698 224.422 220.752C224.2 220.776 223.98 220.8 223.761 220.843C203.746 222.36 183.632 223.191 163.651 225.248C153.998 225.843 144.311 226.525 134.772 228.164C128.275 229.065 121.568 229.268 115.233 230.741C115 230.795 114.767 230.849 114.534 230.91C113.272 230.859 113.315 229.045 114.274 228.542C114.51 228.474 114.747 228.41 114.983 228.349C114.753 226.262 114.493 224.181 114.223 222.097C113.498 222.11 112.742 222.08 112.185 222.289C112.185 222.286 112.188 222.282 112.192 222.279C112.097 222.269 112.009 222.249 111.932 222.215C111.189 221.928 111.182 220.84 111.682 220.229C111.813 220.067 111.986 219.938 112.188 219.867C112.742 219.692 113.302 219.529 113.862 219.374C115.85 218.83 117.875 218.398 119.89 217.965C126.982 216.628 134.148 215.547 141.259 214.361C159.428 211.122 177.921 209.429 196.367 209.254C204.691 208.875 212.963 210.169 221.277 209.899C221.675 209.814 222.05 209.814 222.374 209.879C223.032 209.821 223.744 209.926 224.412 209.96C224.628 209.973 224.838 209.973 225.04 209.96C227.021 210.085 226.255 212.419 224.304 212.324C224.237 214.321 224.24 216.317 224.308 218.313C224.861 218.209 225.398 218.107 225.985 218.063C226.235 218.094 226.427 218.192 226.569 218.34C226.427 214.817 226.471 211.274 226.724 207.717C229.094 191.874 233.164 176.278 238.605 161.178C239.959 157.463 241.211 153.632 242.899 150.088C246.632 150.531 250.287 151.365 254.071 151.831C267.96 154.324 281.937 156.334 296.042 156.753C295.721 156.064 295.745 155.443 296.383 154.99C296.825 154.797 297.267 154.983 297.574 155.307V155.297C297.612 155.334 297.642 155.372 297.676 155.412C297.885 155.473 298.081 155.564 298.239 155.733C298.422 155.922 298.536 156.172 298.553 156.429C298.668 156.561 298.783 156.689 298.898 156.821C310.049 169.187 333.545 169.63 349.027 172.177C357.573 173.271 366.298 173.508 374.446 176.575H374.436Z" fill="black"/>
    <path d="M334.145 369.113C331.918 363.333 330.011 357.425 327.78 351.652C327.621 351.112 327.763 350.416 328.323 350.172C329.72 349.727 330.041 351.601 330.645 352.449C330.568 351.459 331.212 349.956 332.394 350.679C334.095 352.095 334.479 354.648 335.441 356.587C334.307 353.371 334.564 351.605 337.899 354.253C338.807 354.706 338.537 356.493 337.382 356.06C338.415 359.114 339.401 362.188 340.501 365.218C340.923 368.066 338.111 366.481 337.288 365.093C336.697 365.313 336.106 364.911 335.799 364.417C335.516 363.965 335.33 363.461 335.148 362.961C335.07 362.978 334.996 362.985 334.918 362.985C335.185 365.086 336.39 367.11 336.434 369.16C336.194 370.437 334.496 370.2 334.149 369.116L334.145 369.113Z" fill="black"/>
    <path d="M235.156 392.691C233.907 389.117 232.803 385.334 231.487 381.824C231.385 380.446 226.917 373.301 230.187 374.166C232.601 378.534 234.015 383.645 235.696 388.398C235.848 389.914 237.761 392.12 236.442 393.35C235.932 393.573 235.341 393.174 235.159 392.688L235.156 392.691Z" fill="white"/>
    <path d="M273.645 391.505C272.234 382.3 268.889 372.954 267.812 363.887C269.794 362.63 269.763 366.535 270.27 367.677C271.157 371.146 271.981 374.632 272.764 378.129C272.828 379.476 278.242 396.593 273.645 391.505Z" fill="white"/>
    <path d="M173.703 346.487C169.848 334.566 165.815 322.504 163.098 310.319C163.378 309.154 164.887 309.829 164.829 310.812C167.273 319.453 169.74 328.108 172.471 336.674C172.65 337.894 177.885 350.375 173.703 346.487Z" fill="white"/>
    <path d="M195.959 382.324C193.266 379.689 192.284 375.511 190.566 372.173C186.589 363.735 183.13 355.057 179.518 346.46C179.005 344.788 178.06 342.866 178.614 341.126C179.137 340.471 180.089 341.167 180.062 341.873C180.227 344.372 181.425 346.642 182.36 348.902C186.67 358.584 190.65 368.41 195.193 377.99C195.581 379.226 198.545 382.054 195.959 382.327V382.324Z" fill="white"/>
    <path d="M194.723 337.546C194.118 335.613 190.622 330.269 191.445 328.787C192.343 328.104 193.494 329.729 193.386 330.563C194.388 332.593 195.246 334.691 196.164 336.762C196.7 337.792 195.269 338.616 194.723 337.549V337.546Z" fill="white"/>
    <path d="M343.731 324.395C331.985 302.391 311.44 289.413 292.164 274.803C281.97 267.517 273.573 258.305 265.155 249.114C261.027 244.938 258.867 239.426 255.319 234.818C254.85 233.474 250.952 230.798 252.842 229.89C255.134 230.68 256.261 233.686 257.847 235.456C260.045 238.402 261.719 241.756 263.828 244.736C266.964 248.634 270.65 252.056 273.924 255.839C283.665 266.889 295.978 275.198 307.636 284.055C320.209 292.798 332.09 303.07 340.656 315.856C341.598 317.815 346.398 323.209 345.01 324.824C344.551 325.135 343.991 324.817 343.724 324.392L343.731 324.395Z" fill="white"/>
    <path d="M337.119 342.42C331.613 334.218 327.421 325.138 321.319 317.352C314.612 308.627 306.063 301.584 298.914 293.24C298.141 292.558 298.978 291.051 299.879 291.96C305.769 298.699 312.645 304.492 318.575 311.181C324.711 317.764 329.075 325.564 333.578 333.283C334.152 334.414 341.766 344.673 337.119 342.423V342.42Z" fill="white"/>
    <path d="M355.987 350.71C353.516 348.166 351.727 344.302 351.501 340.701C351.45 339.404 353.206 339.775 353.152 340.88C353.121 341.707 353.411 342.552 353.668 343.308C353.668 344.866 358.866 350.72 355.987 350.71Z" fill="white"/>
    <path d="M291.563 189.327C287.925 187.05 284.438 184.54 280.671 182.47C279.719 181.612 276.354 181.027 277.667 179.318C278.845 179.034 279.969 180.2 281.026 180.632C283.847 182.166 286.564 183.878 289.254 185.635C290.341 186.651 292.994 187.128 292.717 188.942C292.535 189.445 291.985 189.577 291.563 189.327Z" fill="white"/>
    <path d="M325.79 196.964C321.818 196.799 317.899 195.873 314.294 194.191C312.863 193.573 304.948 189.719 308.097 188.165C313.167 192.789 320.451 194.853 327.323 194.928C333.462 195.792 358.244 191.533 360.789 195.897C361.241 197.87 354.2 195.836 352.776 196.228C343.767 195.968 334.799 197.579 325.79 196.964Z" fill="white"/>
    <path d="M353.362 211.939C349.808 210.547 346.061 209.71 342.291 209.162C341.501 209.007 340.678 209.071 339.902 208.882C339.247 208.618 338.956 207.443 339.706 207.109C341.093 206.301 359.481 209.872 353.365 211.939H353.362Z" fill="white"/>
    <path d="M268.766 321.243C268.361 318.119 258.019 302.469 261.556 302.536C262.751 302.82 262.663 305.664 263.619 306.732C264.256 307.826 274.237 325.145 268.766 321.243Z" fill="white"/>
    <path d="M96.1578 326.341C95.6178 324.138 101.896 324.507 103.34 324.473C103.945 324.611 104.285 325.358 104.093 325.919C103.688 326.81 102.436 326.375 101.653 326.591C100.06 326.408 96.9342 328.168 96.1578 326.341Z" fill="white"/>
    <path d="M102.583 318.984C101.351 318.855 99.1566 319.18 99.0115 317.477C98.9642 316.937 99.376 316.393 99.9498 316.457C101.621 316.541 103.271 316.862 104.949 316.856C105.472 316.856 105.877 317.295 105.961 317.795C106.083 319.447 103.639 318.774 102.586 318.984H102.583Z" fill="white"/>
    <path d="M179.793 264.092C177.697 262.362 182.712 260.764 183.634 259.497C185.007 258.856 188.406 254.539 189.605 256.241C190.31 257.738 187.947 258.373 187.171 259.315C185.109 260.622 182.122 264.058 179.796 264.088L179.793 264.092Z" fill="white"/>
    <path d="M189.2 269.53C188.37 269.503 187.526 269.55 186.699 269.425C185.906 269.236 185.623 267.865 186.503 267.601C188.232 267.439 189.983 267.503 191.722 267.517C192.187 267.557 192.538 268.013 192.613 268.453C192.731 270.172 190.267 269.341 189.2 269.527V269.53Z" fill="white"/>
    <path d="M155.403 118.075C153.699 116.14 157.432 115.528 158.596 114.761C161.067 113.589 163.501 112.353 165.907 111.056C174.73 106.303 182.078 99.3477 190.611 94.1389C191.553 93.5849 192.45 95.23 191.6 95.8279C184.738 99.9997 178.619 105.232 171.939 109.664C167.176 112.728 162.107 115.271 156.99 117.68C156.889 118.399 155.886 118.481 155.403 118.075Z" fill="white"/>
    <path d="M185.08 106.475C184.368 105.084 186.514 104.675 187.358 104.074C188.928 103.263 190.447 102.452 191.945 101.537C194.507 99.9659 197.035 98.3479 199.691 96.9359C200.795 96.5981 202.311 94.5848 203.293 95.9157C203.516 96.294 203.546 96.9392 203.117 97.1993C201.082 98.4188 199.151 99.3511 197.18 100.55C193.95 102.58 190.68 104.536 187.254 106.225C186.575 106.566 185.65 107.458 185.083 106.475H185.08Z" fill="white"/>
    <path d="M112.476 126.99C109.934 126.973 107.393 126.861 104.851 126.875C104.034 126.868 102.792 127.169 102.623 126.047C102.127 124.233 108.027 125.27 109.198 125.054C112.219 125.091 115.24 125.135 118.258 125.068C118.75 125.054 119.135 125.49 119.213 125.953C119.284 126.388 119.061 126.898 118.568 126.929C116.54 127.044 114.501 127.01 112.472 126.99H112.476Z" fill="white"/>
    <path d="M126.221 121.595C124.145 121.588 122.069 121.565 119.997 121.48C119.042 121.514 117.418 121.443 117.81 120.062C118.377 119.119 119.845 119.764 120.77 119.612C124.591 119.67 128.412 119.548 132.232 119.666C133.164 119.714 133.491 121.447 132.431 121.555C130.362 121.612 128.29 121.602 126.221 121.595Z" fill="white"/>
    <path d="M136.207 47.4047C135.171 47.452 133.568 46.8439 134.277 45.5637C134.405 45.361 134.685 45.2597 134.915 45.2968C135.775 45.4657 136.656 45.5029 137.531 45.5232C138.033 45.5299 138.418 45.9386 138.503 46.4251C138.692 47.7492 137.044 47.4351 136.207 47.4047Z" fill="white"/>
    <path d="M136.11 43.8882C135.179 43.8612 134.079 42.9627 134.71 42.0033C134.939 41.6925 135.425 41.6486 135.739 41.902C136.34 42.0472 136.968 42.1114 137.589 42.0979C138.038 42.0743 138.406 42.456 138.524 42.8613C138.898 44.3443 137.018 44.047 136.114 43.8848L136.11 43.8882Z" fill="white"/>
    <path d="M138.112 39.767C133.131 39.1556 135 35.271 136.776 37.4396C137.572 37.8078 138.906 37.7065 138.926 38.8854C138.949 39.3583 138.609 39.8245 138.112 39.7704V39.767Z" fill="white"/>
    <path d="M172.54 17.0434C172.381 16.432 171.818 15.9253 171.949 15.2632C172.621 13.6654 173.954 15.5807 174.086 16.5333C174.444 17.6886 172.972 18.1345 172.54 17.0434Z" fill="white"/>
    <path d="M176.316 16.1179C175.375 13.179 177.835 13.125 177.855 15.1112C177.859 15.0808 177.862 15.0538 177.869 14.9052C177.876 15.6011 178.281 16.8712 177.282 17.0198C176.768 17.0536 176.414 16.5739 176.313 16.1213L176.316 16.1179Z" fill="white"/>
    <path d="M182.584 15.9219C181.521 15.7057 181.504 13.3276 182.314 12.8783C183.873 12.3412 184.153 16.2496 182.584 15.9219Z" fill="white"/>
    <path d="M7.92737 224.515C5.89209 219.816 6.37475 211.828 9.84114 207.848C10.1382 207.46 10.6681 207.541 10.982 207.862C12.2342 208.943 8.85557 211.172 8.76781 214.841C8.43366 217.449 8.49104 220.124 8.85557 222.725C8.98383 223.434 9.83777 224.292 9.05133 224.897C8.64968 225.171 8.16026 224.894 7.93075 224.519L7.92737 224.515Z" fill="black"/>
    <path d="M3.01608 219.026C2.33091 216.05 2.65156 212.726 3.57975 209.821C4.1468 208.662 6.26646 202.589 7.81234 203.727C8.18361 204.024 8.39626 204.649 8.13636 205.082C6.7255 207.527 5.09862 210.118 4.65646 212.936C4.31219 214.875 4.39994 216.857 4.4607 218.81C4.42695 219.637 3.34011 219.725 3.01608 219.026Z" fill="black"/>
    <path d="M0.822631 209.902C-1.59743 207.761 2.301 200.67 3.59035 198.265C3.84349 197.88 4.38691 197.934 4.70419 198.187C5.66614 198.954 4.77169 200.015 4.41729 200.856C3.45871 203.187 2.25712 205.474 1.79808 207.967C1.74408 208.754 2.26724 210.358 0.819256 209.902H0.822631Z" fill="black"/>
    <path d="M286.756 10.1524C284.19 7.18659 290.792 5.99754 292.767 5.89282C294.255 5.94349 298.961 6.53464 298.731 8.52089C298.225 10.5916 293.827 5.72055 287.964 9.42956C288.089 10.1187 287.296 10.6423 286.756 10.1524Z" fill="black"/>
    <path d="M289.932 2.90326C289.098 2.78503 288.723 1.52505 289.331 0.954169C290.701 0.031982 292.534 0.204259 294.117 0.0522498C295.663 -0.150429 301.772 0.133321 299.696 2.77827C296.804 1.95067 293.601 1.7615 290.6 2.52155C290.485 2.7749 290.208 2.93704 289.932 2.90326Z" fill="black"/>
    <path d="M259.416 89.072C258.522 88.6801 255.298 83.0321 256.82 82.6166C258.417 82.2417 259.254 86.3628 260.094 87.4167C261.019 87.9944 260.621 89.68 259.416 89.072Z" fill="black"/>
    <path d="M266.234 87.0993C265.15 85.6366 268.404 81.4851 269.464 80.2825C269.811 80.0123 270.311 80.2555 270.54 80.5595C271.118 81.2587 270.48 81.9749 270.135 82.6066C269.315 83.9713 268.299 85.2279 267.621 86.6736C267.668 87.481 266.672 87.7512 266.234 87.0993Z" fill="black"/>
    <path d="M279.243 92.4938C277.117 91.6426 279.382 89.6361 280.556 89.0449C281.643 88.5281 282.497 87.0823 283.732 87.1229C286.227 88.6058 283.577 89.9198 282.116 90.6968C281.387 91.1325 280.597 91.5108 279.945 92.0648C279.827 92.3351 279.554 92.5276 279.243 92.4905V92.4938Z" fill="black"/>
    <path d="M47.7583 155.358C46.2226 155.284 44.5991 155.209 43.222 154.453C42.6077 154.108 42.3917 153.061 43.0127 152.622C44.4337 152.355 45.9694 153.2 47.4208 153.348C48.6156 153.2 49.1186 155.348 47.7617 155.361L47.7583 155.358Z" fill="black"/>
    <path d="M53.6977 147.619C51.9223 147.92 47.4264 138.914 51.1595 141.181C52.2328 142.545 52.621 144.315 53.6572 145.68C54.8048 145.721 55.0106 147.842 53.6977 147.622V147.619Z" fill="black"/>
    <path d="M62.7263 139.34C61.3627 138.532 59.0675 133.202 61.1264 132.513C62.9187 132.83 62.3314 135.509 63.0436 136.81C63.1752 137.671 64.3194 138.083 63.965 139.039C63.7963 139.573 63.1381 139.688 62.7297 139.34H62.7263Z" fill="black"/>
    <path d="M205.795 36.4836C204.027 34.5075 208.337 33.6123 209.515 32.7645C210.48 32.3828 211.277 34.0109 210.433 34.5751C209.319 34.9703 206.636 37.2166 205.795 36.4836Z" fill="black"/>
    <path d="M209.11 44.8442C207.051 42.76 211.007 42.6452 212.33 42.7026C213.356 42.6654 213.785 44.4591 212.651 44.628C211.483 44.628 210.241 45.1922 209.11 44.8442Z" fill="black"/>
    <path d="M210.437 55.9442C209.363 55.0118 207.436 54.7044 206.906 53.333C206.987 50.7691 210.217 53.6674 211.203 54.2214C212.108 54.7957 211.554 56.5894 210.437 55.9442Z" fill="black"/>
    <path d="M379.764 115.964C378.589 115.018 379.403 108.782 379.504 107.164C379.598 104.945 379.49 104.303 377.192 103.952C376.054 103.837 374.897 103.324 373.769 103.634C373.027 103.78 372.696 102.513 373.385 102.249C373.577 101.466 374.482 101.787 375.049 101.898C375.373 101.831 375.693 101.763 376.017 101.695C377.675 101.321 379.149 101.354 379.895 99.5572C380.732 97.6622 380.999 95.5678 381.242 93.5275C381.273 93.1627 381.222 92.7641 381.492 92.477C381.661 92.3047 381.937 92.3114 382.13 92.4364C382.532 92.6999 382.498 93.2134 382.437 93.6356C382.42 95.7941 382.366 97.9662 382.673 100.108C382.815 100.959 383.021 101.608 383.929 101.861C385.269 102.344 386.639 102.763 388.006 103.168C388.523 103.378 389.238 103.347 389.535 103.891C389.697 104.202 389.677 104.655 389.39 104.891C389.066 105.134 388.637 105.144 388.253 105.222C387.422 105.361 386.767 105.445 385.974 105.56C385.097 105.732 384.047 105.719 383.402 106.421C382.143 108.073 381.904 110.167 381.401 112.113C381.202 113.018 381.013 113.927 380.813 114.832C380.722 115.373 380.513 116.403 379.757 115.967L379.764 115.964ZM380.77 106.567C380.77 107.016 380.729 107.465 380.692 107.914C380.621 108.745 380.533 109.576 380.466 110.407C380.952 108.587 381.33 106.587 382.636 105.155C383.5 104.263 384.827 104.222 385.974 104.013C382.808 103.111 381.593 102.8 381.343 99.1991C380.847 100.696 379.98 102.341 378.282 102.635C380.267 103.114 380.776 104.769 380.773 106.57L380.77 106.567Z" fill="#8DF63A"/>
    <path d="M417.414 135.796C416.985 135.256 417.208 134.475 417.157 133.833C417.12 131.749 417.437 129.679 417.474 127.608C417.532 127.047 416.911 126.892 416.536 126.638C415.804 126.196 415.125 125.774 414.295 125.581C413.562 125.777 412.82 125.932 412.074 126.064C411.652 126.149 411.132 126.179 410.913 125.723C410.761 125.432 410.781 124.97 411.085 124.78C411.227 124.693 411.426 124.662 411.595 124.699C412.047 124.639 412.492 124.541 412.941 124.449C412.968 124.102 413.218 123.747 413.603 123.797C413.937 123.841 414.268 123.919 414.589 124.024C418.602 122.703 418.926 117.541 419.658 114.039C419.78 113.218 420.779 113.437 420.826 114.177C420.944 116.602 420.843 119.031 420.927 121.457C420.914 122.365 421.309 123.206 422.166 123.585C423.327 124.162 424.62 124.487 425.879 124.743C426.162 124.811 426.463 124.851 426.75 124.892C427.317 125.037 427.489 125.902 427.013 126.25C426.885 126.348 426.729 126.331 426.577 126.338C425.737 126.392 424.917 126.605 424.09 126.767C422.666 127.101 420.877 127.311 420.249 128.844C419.527 130.611 419.176 132.503 418.716 134.347C418.554 135.006 418.419 136.614 417.41 135.796H417.414ZM418.595 129.631C419.29 127.003 420.401 125.949 423.074 125.449C419.918 124.487 419.581 122.598 419.678 119.616C419.067 121.612 418.16 123.75 416.253 124.814C418.905 126.284 418.845 126.74 418.595 129.635V129.631Z" fill="#8DF63A"/>
    <path d="M381.592 157.996C380.582 157.75 381.031 156.432 380.984 155.682C381.075 154.179 381.21 152.679 381.322 151.176C381.335 150.663 381.5 150.058 381.018 149.707C380.417 149.061 379.718 148.524 378.881 148.23C378.054 147.899 377.079 147.937 376.346 147.393C375.654 146.761 376.201 145.484 377.153 145.656C378.392 145.636 379.634 145.67 380.862 145.521C381.504 145.461 382.067 145.13 382.314 144.511C382.905 143.164 383.198 141.697 383.374 140.242C383.391 139.799 383.35 139.161 383.866 139.009C384.322 138.904 384.687 139.39 384.666 139.809C384.575 141.258 384.761 142.731 385.119 144.136C385.642 145.741 387.589 146.116 388.977 146.69C389.763 146.788 390.266 147.666 389.736 148.328C389.375 148.717 388.811 148.852 388.342 149.072C387.346 149.487 386.334 149.876 385.382 150.382C382.932 151.683 382.577 154.726 382.26 157.186C382.277 157.581 382.037 158.054 381.588 157.996H381.592ZM380.775 147.525C381.322 147.954 381.824 148.467 382.246 149.021C382.634 149.538 382.678 150.163 382.651 150.788C383.755 149.143 385.642 148.352 387.414 147.643C385.831 147.028 384.18 146.028 383.856 144.221C383.269 146.241 382.304 147.092 380.171 147.123C380.38 147.244 380.582 147.376 380.775 147.528V147.525Z" fill="#8DF63A"/>
</svg>
