<svg width="595" height="419" viewBox="0 0 595 419" fill="none" xmlns="http://www.w3.org/2000/svg">
    <g clip-path="url(#clip0_1744_26954)">
        <path d="M202.623 193.366C193.151 199.927 183.897 206.78 174.696 213.718L174.692 213.721M202.623 193.366L171.731 215.956C172.714 215.208 173.702 214.461 174.689 213.721C174.689 213.721 174.69 213.721 174.691 213.721C174.691 213.721 174.692 213.721 174.692 213.721M202.623 193.366C203.525 192.74 204.43 192.117 205.335 191.498C206.233 190.883 207.135 190.267 208.04 189.659C210.71 187.625 213.479 185.712 216.247 183.799C221.074 180.463 225.902 177.127 230.207 173.15C230.306 173.194 230.405 173.238 230.504 173.282L230.814 172.581L230.287 172.025C230.21 172.098 230.132 172.171 230.055 172.244M202.623 193.366L230.055 172.244M174.692 213.721C174.693 213.721 174.695 213.721 174.696 213.721L174.692 213.721ZM230.055 172.244C229.958 172.2 229.86 172.157 229.763 172.114C229.414 171.959 229.064 171.803 228.715 171.649C228.361 171.49 228.005 171.332 227.65 171.174C227.295 171.015 226.939 170.857 226.584 170.699L230.055 172.244ZM402.766 103.129C402.779 103.155 402.787 103.176 402.791 103.193L402.657 103.328L402.614 103.559C398.193 127.366 391.567 150.84 384.659 174.084L384.657 174.09C383.063 179.605 381.922 185.224 380.788 190.807C380.696 191.258 380.605 191.709 380.513 192.159C379.283 198.198 378.019 204.185 376.154 210.019L376.15 210.029L376.148 210.038C373.596 218.827 371.365 227.696 369.138 236.549C368.944 237.32 368.751 238.09 368.557 238.86C366.133 248.485 363.681 258.083 360.788 267.56L360.783 267.577L360.779 267.594C358.172 277.81 354.96 287.845 351.649 297.871C351.048 299.691 350.444 301.51 349.839 303.33C347.122 311.51 344.401 319.705 341.958 327.985C341.72 328.471 341.557 329.119 341.417 329.719C341.38 329.88 341.343 330.039 341.307 330.198C341.192 330.705 341.08 331.199 340.944 331.657C340.759 332.275 340.569 332.681 340.379 332.886C340.298 332.974 340.244 332.995 340.217 333.001C340.192 333.007 340.118 333.018 339.963 332.957L339.253 332.676L338.969 333.384C338.847 333.688 338.79 334.019 338.75 334.287C338.705 334.586 338.68 334.81 338.632 335.038C338.536 335.486 338.43 335.542 338.325 335.571L337.855 335.701L337.774 336.182C337.512 337.732 337.235 338.787 336.962 339.435C336.848 339.705 336.749 339.871 336.674 339.967C336.572 339.868 336.436 339.691 336.274 339.41C335.94 338.83 335.574 337.945 335.186 336.769C333.631 332.066 331.926 323.387 330.313 313.768C328.705 304.169 327.198 293.695 326.035 285.436C325.838 284.039 325.651 282.704 325.475 281.448C325.131 278.995 324.829 276.84 324.578 275.099C324.388 273.783 324.227 272.698 324.098 271.896C323.981 271.164 323.88 270.598 323.801 270.33C322.74 265.802 321.86 261.222 320.984 256.629L320.893 256.151C320.046 251.713 319.198 247.264 318.191 242.867L317.876 241.488L316.892 242.506C309.185 250.489 300.924 257.946 292.636 265.427C292.287 265.742 291.939 266.056 291.59 266.371C282.959 274.163 274.326 282.005 266.334 290.484L266.328 290.49L266.323 290.496C237.513 322.353 206.163 351.645 174.449 380.634L174.442 380.641L174.435 380.647C167.889 386.938 161.19 393.069 154.484 399.206L154.105 399.553C147.274 405.804 140.439 412.065 133.767 418.501L133.759 418.509L133.75 418.518C133.745 418.523 133.716 418.548 133.643 418.543C133.587 418.54 133.54 418.521 133.51 418.501C133.44 418.383 133.454 418.324 133.468 418.278C133.501 418.168 133.606 418.001 133.844 417.765C134.037 417.573 134.26 417.39 134.508 417.186C134.561 417.143 134.614 417.099 134.669 417.054C134.953 416.819 135.296 416.529 135.531 416.212L135.929 415.677L135.455 415.209C131.496 411.303 127.724 407.195 124.629 402.623L124.607 402.591L124.582 402.561C115.413 391.599 105.213 381.501 95.0491 371.438C89.9822 366.422 84.9241 361.414 80.0068 356.312C73.2618 349.224 66.9358 341.762 60.6072 334.272L60.062 333.627C53.9187 326.356 47.7613 319.068 41.2263 312.114L40.9041 311.771L40.4526 311.903C40.3854 311.922 40.3345 311.914 40.281 311.884C40.2164 311.849 40.1445 311.777 40.096 311.676C40.0475 311.576 40.0415 311.486 40.0529 311.43C40.0608 311.391 40.0797 311.344 40.1571 311.294C41.8254 310.285 43.3785 309.114 44.8899 307.97L44.8956 307.966L44.9013 307.961C56.3131 298.979 68.1739 290.615 80.1639 282.414L79.7311 281.781L80.164 282.414C84.5196 279.434 88.8939 276.474 93.2702 273.512C102.96 266.955 112.659 260.392 122.186 253.593C126.645 250.519 131.056 247.379 135.434 244.196C135.434 244.196 135.434 244.196 135.435 244.196L135.647 244.042L135.861 243.887L135.863 243.886C136.548 243.387 137.233 242.885 137.917 242.383C146.372 236.19 154.717 229.844 163.057 223.503C166.102 221.188 169.145 218.873 172.194 216.567L172.195 216.566C173.002 215.953 173.811 215.34 174.619 214.732L175.463 215.574L175.46 214.102C184.558 207.244 193.704 200.477 203.06 193.997L203.061 193.996C203.96 193.371 204.864 192.749 205.768 192.131L205.769 192.131C206.666 191.516 207.565 190.902 208.468 190.295L208.486 190.283L208.504 190.269C211.16 188.246 213.905 186.349 216.667 184.44C217.814 183.647 218.965 182.853 220.112 182.046C224.009 179.308 227.853 176.45 231.342 173.137L232.176 172.346L231.125 171.88C230.776 171.725 230.427 171.57 230.076 171.414C229.727 171.259 229.376 171.103 229.027 170.948C228.68 170.793 228.333 170.639 227.987 170.484L227.962 170.473C227.606 170.315 227.251 170.157 226.897 169.999L226.896 169.998L226.873 169.988C220.848 167.309 214.823 164.63 208.805 161.943L208.804 161.943C208.139 161.648 207.477 161.351 206.812 161.052C206.605 160.96 206.398 160.867 206.19 160.773L206.189 160.773C189.072 153.128 171.988 145.419 154.984 137.527L154.897 137.486L154.802 137.468C154.753 137.459 154.701 137.45 154.647 137.44C154.2 137.358 153.599 137.248 153.15 137.08C183.312 131.001 213.407 126.584 243.62 122.708L243.625 122.708C244.095 122.644 244.565 122.584 245.038 122.528L245.046 122.527C246.777 122.303 248.511 122.082 250.242 121.866L250.247 121.865C250.392 121.846 250.538 121.827 250.688 121.809C250.835 121.79 250.986 121.771 251.136 121.751C254.37 121.346 257.608 120.944 260.842 120.546C261.276 120.492 261.711 120.439 262.143 120.386C270.904 119.312 279.68 118.263 288.473 117.212C302.158 115.576 315.885 113.936 329.664 112.188L329.665 112.188C338.7 111.021 347.659 109.602 356.604 108.185C370.295 106.017 383.952 103.854 397.793 102.609C398.368 102.618 398.98 102.522 399.535 102.419C399.703 102.388 399.865 102.357 400.023 102.327C400.427 102.249 400.799 102.177 401.157 102.133C401.659 102.071 401.994 102.085 402.203 102.156C402.345 102.205 402.443 102.276 402.507 102.511L402.548 102.658L402.637 102.772C402.637 102.772 402.637 102.772 402.638 102.774C402.64 102.778 402.645 102.789 402.653 102.81C402.661 102.832 402.67 102.858 402.683 102.898L402.691 102.923C402.701 102.955 402.715 102.997 402.728 103.036L402.744 103.084L402.766 103.129ZM152.801 137.229C152.8 137.229 152.803 137.224 152.81 137.214C152.805 137.224 152.802 137.229 152.801 137.229Z" stroke="#27282D" stroke-width="1.53333"/>
        <path d="M336.651 45.4641C333.971 50.6802 331.262 55.8874 328.271 60.9271C325.483 64.7083 326.145 52.4591 326.026 51.2447C321.199 57.3135 316.334 63.341 311.194 69.1275C309.61 70.5124 306.454 77.7513 304.691 77.0222C299.936 71.9443 294.077 68.0455 288.803 63.5145C286.732 61.8327 288.017 61.13 289.58 59.8774C291.948 58.0985 294.506 56.5872 296.824 54.729C302.454 49.5776 309.065 45.7758 315.046 41.092C312.41 40.8391 309.784 40.4333 307.133 40.3422C305.836 40.0217 299.881 41.5271 301.511 38.8309C314.968 33.0209 329.301 29.6484 343.28 25.4203C350.094 23.0269 337.295 43.2854 336.651 45.4641Z" fill="#27282D"/>
        <path d="M424.58 47.0007C422.619 50.807 420.636 54.6069 418.448 58.2845C416.408 61.0437 416.892 52.1051 416.805 51.219C413.273 55.6475 409.714 60.046 405.953 64.2686C404.794 65.2791 402.484 70.5616 401.194 70.0295C397.715 66.3241 393.428 63.479 389.569 60.1726C388.053 58.9453 388.994 58.4325 390.138 57.5185C391.87 56.2204 393.742 55.1175 395.438 53.7615C399.558 50.0024 404.395 47.2281 408.771 43.8102C406.842 43.6257 404.921 43.3296 402.981 43.2631C402.032 43.0292 397.675 44.1277 398.868 42.1602C408.714 37.9205 419.201 35.4595 429.43 32.3741C434.416 30.6276 425.051 45.4108 424.58 47.0007Z" fill="#27282D"/>
        <path d="M508.51 59.2006C507.334 61.4562 506.144 63.708 504.831 65.8873C503.607 67.5224 503.898 62.2254 503.846 61.7003C501.726 64.3246 499.591 66.9311 497.334 69.4334C496.639 70.0323 495.253 73.1626 494.479 72.8473C492.392 70.6515 489.819 68.9655 487.504 67.0062C486.595 66.2789 487.159 65.975 487.845 65.4333C488.884 64.6641 490.008 64.0106 491.025 63.207C493.497 60.9794 496.399 59.3354 499.025 57.3099C497.868 57.2006 496.715 57.0251 495.551 56.9857C494.982 56.8471 492.367 57.4981 493.083 56.3322C498.991 53.8197 505.283 52.3613 511.42 50.533C514.412 49.498 508.793 58.2584 508.51 59.2006Z" fill="#27282D"/>
        <path d="M616.8 175.856C614.381 180.367 611.936 184.871 609.237 189.229C606.722 192.5 607.319 181.906 607.211 180.855C602.855 186.104 598.465 191.317 593.827 196.322C592.397 197.519 589.549 203.78 587.957 203.149C583.667 198.758 578.379 195.386 573.62 191.467C571.751 190.013 572.911 189.405 574.321 188.321C576.458 186.783 578.766 185.476 580.858 183.869C585.939 179.414 591.905 176.126 597.303 172.075C594.923 171.856 592.554 171.505 590.162 171.426C588.992 171.149 583.617 172.451 585.088 170.119C597.232 165.094 610.167 162.177 622.782 158.521C628.931 156.451 617.381 173.972 616.8 175.856Z" fill="#27282D"/>
        <path d="M609.146 112.285C608.041 115.064 607.004 117.871 606.11 120.721C605.824 121.529 605.735 122.845 604.634 122.852C603.134 122.931 601.769 117.658 601.21 116.37C599.72 112.239 598.231 108.112 597.122 103.86C587.583 116.686 576.005 127.794 565.033 139.34C562.26 144.221 552.838 134.441 549.464 132.768C547.104 130.776 544.229 129.417 541.866 127.495C540.487 123.215 553.715 115.043 556.755 112.018C560.835 108.777 564.078 104.625 568.201 101.434C571.529 98.7403 575.527 96.9791 578.642 94.0047C580.563 92.2577 582.084 90.4361 584.008 88.7638C581.022 87.1948 562.663 83.3167 565.271 79.0471C582.875 72.5966 601.741 70.8034 619.79 66.0216C628.346 62.8479 610.553 108.283 609.146 112.285Z" fill="#27282D"/>
        <path d="M489.261 108.524C485.683 119.262 481.211 129.79 478.823 140.905C478.06 143.715 476.086 141.794 475.933 139.844C475.295 137.201 474.629 134.547 473.446 132.088C465.175 142.499 456.736 152.792 449.795 164.159C448.9 165.383 447.642 168.5 445.771 167.045C443.708 163.768 430.637 156.278 431.357 153.272C432.03 151.287 433.816 149.853 435.159 148.302C443.541 140.314 452.189 132.536 461.116 125.139C446.929 120.966 454.844 118.771 463.272 114.793C466.076 113.964 489.995 103.938 489.261 108.524Z" fill="#27282D"/>
        <path d="M523.351 229.618C521.623 232.945 519.698 227.803 518.829 226.423C517.478 223.918 515.918 221.531 514.685 218.962C505.042 232.528 492.758 243.583 481.815 256C480.549 257.387 479.79 258.551 477.966 256.961C473.893 253.652 469.481 250.816 465.187 247.802C462.917 246.088 454.347 241.412 454.414 238.644C454.86 236.872 457.611 235.4 459.015 234.289C462.653 231.77 466.57 229.661 470.073 226.949C474.224 223.075 479.042 220.129 483.906 217.251C490.207 212.397 496.553 207.548 503.331 203.371C498.189 201.489 492.986 199.763 487.823 197.942C486.49 197.177 481.038 196.803 483.222 194.451C482.83 194.426 482.435 194.412 482.043 194.366C481.212 194.156 481.422 193.092 482.274 192.982C498.955 188.008 515.665 183.44 532.506 179.11C540.613 177.64 524.712 224.466 523.351 229.618Z" fill="#27282D"/>
        <path d="M428.193 339.355C424.237 358.824 418.112 377.821 413.734 397.143C411.294 398.905 410.356 391.471 409.691 390.048C408.38 385.604 406.583 381.253 406.14 376.607C398.943 386.66 391.861 396.77 384.862 406.966C382.365 410.814 378.876 414.079 376.717 418.111C375.45 420.858 372.251 416.417 370.61 415.806C368.76 414.586 367.035 413.193 365.292 411.834C363.3 410.399 361.282 409 359.437 407.378C356.598 404.807 354.64 405.198 357.772 401.402C361.818 396.508 366.75 392.437 371.23 387.954C375.824 383.415 380.346 378.82 384.638 373.994C386.171 372.676 392.78 363.202 394.05 364.395C394.065 364.329 394.086 364.266 394.113 364.207C385.991 363.744 377.381 364.114 369.499 363.536C365.346 361.967 386.315 353.652 388.076 352.653C400.842 346.984 413.662 341.297 427.094 337.363C428.271 337.196 428.384 338.494 428.193 339.355Z" fill="#27282D"/>
        <path d="M441.099 278.219C439.335 283.713 437.068 289.046 434.951 294.372C433.159 297.261 426.506 286.726 426.053 285.004C420.163 294.892 413.923 304.58 406.742 313.567C406.062 314.261 405.624 315.794 404.43 315.517C399.476 313.251 395.492 309.479 391.074 306.398C386.124 304.317 394.915 297.923 396.476 295.472C403.546 287.641 411.763 280.941 418.837 273.156C416.717 272.804 402.406 274.914 403.239 272.352C403.015 271.619 403.642 271.406 404.241 271.335C418.021 265.204 432.603 261.07 447.11 257.281C450.285 257.476 441.533 275.33 441.099 278.219Z" fill="#27282D"/>
        <path d="M285.399 360.916C283.204 366.396 280.496 371.633 278.108 377.03C278.586 378.012 277.538 379.154 276.569 378.521C274.534 373.924 274.138 368.48 273.027 363.535C266.227 371.113 259.467 378.702 252.686 386.291C250.908 387.665 245.826 395.731 243.802 393.941C241.254 392.208 239.904 389.248 237.986 386.925C235.966 384.249 233.154 382.378 230.695 380.154C226.191 377.002 259.154 356.373 262.739 353.089C262.735 353.064 262.732 353.039 262.728 353.018C259.115 351.918 255.376 351.2 251.66 350.559C250.313 352.765 247.758 348.659 250.794 349.001C259.827 345.009 269.499 342.977 278.721 339.594C283.785 337.566 289.048 336.242 294.383 335.242C299.586 334.061 286.012 358.095 285.399 360.916Z" fill="#27282D"/>
        <path d="M222.023 44.5917C219.255 54.3048 215.075 63.4771 211.818 73.0053C210.47 75.3784 207.331 86.3795 205.057 86.4685C201.373 84.1522 199.666 74.8874 198.101 70.7246C191.192 80.0642 183.879 89.176 178.092 99.277C177.005 100.832 175.437 104.628 173.175 102.486C170.334 99.9601 167.038 98.0424 163.984 95.7973C161.329 93.8191 158.692 91.8053 155.927 89.9872C154.94 89.0373 152.663 88.6566 152.72 87.0591C163.614 75.9619 176.585 67.0706 188.398 56.927C177.062 56.4822 150.368 59.905 179.678 50.0958C191.484 45.5523 203.632 42.0086 215.456 37.5541C217.159 37.241 223.595 34.3484 224.297 36.0597C224.621 38.9844 222.729 41.7951 222.023 44.5917Z" fill="#27282D"/>
        <path d="M92.0319 211.251C94.6225 212.767 87.7485 213.408 86.9004 214.041C85.8812 214.233 84.4094 215.699 83.6647 214.39C82.7702 212.287 90.6064 211.817 92.0319 211.251Z" fill="#27282D"/>
        <path d="M150.574 183.845C148.888 182.991 151.297 182.216 151.846 181.522C153.453 179.96 154.483 177.943 155.616 176.036C156.422 175.121 157.181 172.595 158.663 173.182C159.002 173.435 159.098 173.954 158.827 174.292C156.062 177.317 154.836 182.717 150.549 183.838H150.574V183.845Z" fill="#27282D"/>
        <path d="M155.77 183.18C155.197 182.781 155.581 181.803 156.28 181.92C157.524 181.518 158.671 180.938 159.829 180.348C160.724 179.857 161.607 179.341 162.406 178.697C163.175 178.096 164.109 179.248 163.346 179.867C162.341 180.707 156.829 183.916 155.774 183.18H155.77Z" fill="#27282D"/>
        <path d="M151.195 165.422C151.766 165.24 152.275 165.945 151.908 166.418C150.932 168.225 150.19 170.164 149.674 172.153C149.446 173.107 147.956 172.74 148.198 171.794C148.936 169.645 149.624 167.066 151.195 165.422Z" fill="#27282D"/>
        <path d="M245.952 115.242C245.896 115.27 245.842 115.298 245.789 115.327C245.8 115.309 245.81 115.295 245.821 115.281C245.864 115.266 245.906 115.256 245.952 115.242Z" fill="#27282D"/>
        <path d="M102.904 232.297C100.185 232.187 102.447 229.753 103.392 231.052C106.724 230.917 109.842 229.646 113.045 228.853C117.76 230.088 103.841 232.742 102.904 232.297Z" fill="#27282D"/>
        <path d="M130.118 114.793C129.284 114.636 127.695 114.48 128.087 113.267C128.664 112.068 129.986 113.256 130.927 113.174C132.021 113.235 133.254 111.943 132.748 110.872C130.667 108.328 127.937 106.087 126.58 103.063C126.576 103.116 126.58 103.166 126.58 103.215C126.94 100.262 130.692 106.873 131.775 107.293C132.752 108.389 134.131 109.317 134.494 110.808C134.915 113.167 132.403 115.302 130.118 114.793Z" fill="#27282D"/>
        <path d="M128.76 123.151C127.531 122.891 126.355 122.29 125.311 121.614C124.655 120.934 125.763 120.102 126.309 120.792C130.603 123.243 129.787 120.013 131.604 121.041C132.427 122.105 129.594 123.389 128.764 123.151H128.76Z" fill="#27282D"/>
        <path d="M114.792 114.707C109.71 114.739 109.307 111.416 112.197 107.961C114.068 105.147 118.106 105.542 120.255 107.812C120.472 107.876 120.647 108.04 120.707 108.26C122.692 111.139 117.557 115.003 114.788 114.707H114.792ZM115.415 112.96C116.516 112.864 117.425 112.146 118.248 111.466C115.978 112.224 115.344 108.883 116.962 107.755C114.439 107.036 112.871 109.787 112.13 111.783C111.663 112.9 114.717 113.01 115.415 112.96ZM119.392 109.922C119.421 109.819 119.442 109.712 119.464 109.609C119.453 109.609 119.439 109.609 119.428 109.609C119.414 109.715 119.399 109.819 119.396 109.925L119.392 109.922Z" fill="#27282D"/>
        <path d="M108.662 104.948C106.734 103.721 110.54 101.127 111.58 100.458C113.569 99.2379 119.025 97.3095 120.225 100.049C119.645 101.319 117.667 101.344 116.584 102.173C114.866 103.095 110.508 105.731 108.662 104.948Z" fill="#27282D"/>
        <path d="M115.714 118.803C115.799 118.138 115.404 116.893 116.369 116.786C117.371 116.832 116.989 118.095 117.068 118.761C117.068 119.647 115.756 119.686 115.714 118.803Z" fill="#27282D"/>
        <path d="M119.321 116.739C119.078 115.658 120.012 114.54 120.639 115.825C120.611 116.398 120.828 117.326 120.001 117.38C119.641 117.39 119.335 117.099 119.321 116.743V116.739Z" fill="#27282D"/>
        <path d="M122.832 114.643C122.747 114.102 122.643 113.309 123.402 113.263C124.176 113.252 124.29 114.408 124.023 114.935C123.709 115.401 122.893 115.213 122.832 114.647V114.643Z" fill="#27282D"/>
        <path d="M136.216 110.267C136.17 109.766 136.213 109.065 136.865 109.043C137.824 109.008 137.841 110.886 136.908 110.918C136.548 110.929 136.22 110.634 136.216 110.267Z" fill="#27282D"/>
        <path d="M139.048 108.588C139.012 107.663 140.455 107.62 140.48 108.545C140.516 109.47 139.072 109.513 139.048 108.588Z" fill="#27282D"/>
        <path d="M264.973 195.881C263.376 195.12 261.662 195.017 259.92 195.173C261.53 194.689 266.452 193.921 266.708 192.06C266.11 189.733 262.471 189.844 260.504 190.004C264.948 188.499 263.982 184.77 259.421 185.289C255.651 185.008 252.365 186.777 249.012 188.2C245.252 189.659 241.215 190.833 237.338 192.017C236.967 191.071 236.443 189.787 235.203 190.007C229.195 190.11 223.226 190.833 217.218 190.947C213.255 191.153 209.289 191.338 205.326 191.498C192.601 192.017 179.861 192.306 167.125 192.387C160.205 192.27 153.039 192.38 146.364 190.132C146.389 190.007 146.371 189.868 146.3 189.733C146.492 188.876 146.749 188.04 146.931 187.182C158.027 188.609 169.235 189.086 180.41 189.395C196.574 188.477 212.4 183.29 225.364 173.523C226.098 172.815 227.905 172.445 228.707 171.648C229.045 171.314 229.206 170.901 229.031 170.353C228.76 169.908 228.183 169.784 227.741 170.04C227.349 170.257 226.961 170.474 226.576 170.698C220.158 174.399 214.363 179.081 207.4 181.82C202.718 183.4 197.968 184.848 193.125 185.841C184.227 187.933 175.136 187.883 166.099 186.826C159.763 186.791 153.452 186.165 147.155 185.485C147.775 183.478 148.499 181.425 149.119 179.387C149.397 179.227 149.578 178.906 149.397 178.554C149.4 178.544 149.404 178.536 149.404 178.526C150.523 178.33 151.214 174.295 152.81 173.047C153.302 172.392 152.429 171.563 151.791 172.068C150.808 173.004 149.268 175.16 148.552 177.028C147.027 178.195 147.141 181.322 146.321 183.116C145.687 185.297 145.117 187.381 144.967 189.673C137.819 187.14 130.987 183.831 124.27 180.337C124.299 173.829 124.598 167.229 123.839 160.729C123.903 160.626 123.942 160.505 123.935 160.38C126.141 162.412 128.749 163.974 130.731 166.244C131.198 166.866 132.099 167.322 132.619 166.5C133.011 165.646 132.284 164.703 132.064 163.871C130.859 160.747 130.246 157.438 129.32 154.225C134.49 156.171 139.782 157.68 145.127 159.199C153.651 161.444 161.876 164.927 170.728 165.71C178.521 166.742 186.493 167.496 194.329 166.61C199.136 165.767 203.808 164.056 208.484 162.643C208.623 162.597 208.762 162.558 208.901 162.515C209.995 162.085 209.314 160.355 208.241 160.729C207.45 160.978 206.659 161.227 205.868 161.473C203.356 162.255 200.84 163.02 198.324 163.782C186.611 166.721 174.117 164.451 162.411 162.401C150.815 159.05 138.923 155.2 127.349 152.201C127.221 152.023 127.018 151.891 126.811 151.838C128.404 151.325 127.345 148.821 127.687 147.522C127.969 143.324 128.325 139.125 128.457 134.92C131.269 134.432 133.881 133.255 136.09 131.451C144.094 126.772 145.601 117.849 144.016 109.37C142.672 99.8636 140.402 89.8409 133.471 82.7428C134.921 79.4411 132.591 75.1182 129.017 74.5383C127.16 74.2109 125.364 75.2178 123.493 75.0826C120.518 74.8087 117.738 73.3464 114.709 73.4495C109.97 73.4816 108.466 75.9757 105.893 79.345C102.312 83.7284 95.9221 85.0306 92.9287 89.9726C90.1919 94.6441 93.7555 97.4193 90.6481 102.102C85.4774 110.288 89.1015 110.409 89.6396 118.087C89.4935 121.368 87.0917 123.944 86.493 127.139C85.8587 130.042 87.9184 131.376 90.4414 130.042C89.3937 133.13 90.9225 135.703 94.2722 134.077C93.7377 136.457 95.7261 139.428 98.3453 138.008C97.6789 142.185 96.8807 146.334 95.9043 150.45C95.605 150.297 95.2058 150.215 94.9493 150.479C88.5313 156.381 80.6631 162.415 76.6505 170.62C71.323 181.643 69.4094 194.031 67.959 206.085C67.3354 215.24 67.0788 224.427 66.6726 233.588C66.6583 238.63 64.6378 241.551 71.323 241.928C71.2268 252.527 69.0887 269.015 75.4282 277.941C76.7325 279.489 78.1721 280.756 79.7223 281.78C89.2975 288.11 103.046 285.285 113.929 283.865C136.931 280.891 157.839 270.132 179.537 262.607C179.491 262.77 179.444 262.934 179.394 263.098C173.483 277.337 167.008 291.675 161.021 306.021C159.396 309.077 157.978 312.233 156.616 315.417C156.274 316.773 153.545 320.067 155.088 321.021C155.009 321.505 155.177 321.843 155.48 322.099C153.295 329.012 148.784 335.174 147.789 342.436C147.903 343.471 149.161 343.674 149.945 344.058C153.373 346.165 153.071 342.087 154.496 339.988C157.461 345.03 163.198 347.652 168.494 349.584C171.156 350.808 174.462 352.448 177.335 350.978C178.906 348.726 168.928 342.792 167.378 340.988C167.863 336.551 170.418 332.467 171.515 328.137C171.776 328.137 172.029 327.991 172.1 327.781C174.434 328.382 177.278 329.699 178.247 326.628C179.608 323.917 180.524 321.021 181.625 318.199C186.693 305.722 191.022 292.87 197.7 281.144C202.493 270.712 208.156 260.632 211.78 249.699C218.725 232.471 208.662 228.532 193.125 230.845C174.299 232.649 155.444 236.047 137.437 241.917C137.444 241.868 137.448 241.814 137.455 241.764C137.815 238.537 137.815 235.275 138.239 232.048C138.464 231.649 138.342 231.087 138.293 230.653C138.396 230.283 138.481 229.902 138.581 229.543C139.975 230.02 141.232 218.912 142.116 217.008C152.002 217.524 161.873 216.941 171.722 215.955C180.745 215.048 189.75 213.806 198.734 212.76C212.428 211.305 225.924 208.857 239.319 205.765C240.452 205.808 240.94 204.741 240.563 203.776C245.972 202.464 251.567 201.179 257.137 200.713C259.064 200.425 272.56 197.938 264.973 195.881ZM169.174 329.25C169.142 329.343 169.11 329.439 169.074 329.535C168.682 330.62 168.233 331.687 167.834 332.773C167.831 332.787 167.824 332.801 167.82 332.815C167.77 332.947 167.724 333.079 167.674 333.21C167.353 333.993 167.068 334.708 166.812 335.359C166.776 335.452 166.74 335.544 166.705 335.637C162.386 333.883 158.109 332.029 153.523 331.043C154.817 328.336 155.811 325.504 156.944 322.729C161.317 324.041 165.514 325.607 169.83 327.083C169.662 327.82 169.431 328.542 169.174 329.25ZM127.082 153.83C128.208 156.726 128.61 159.843 129.715 162.75C127.759 161.195 125.71 159.768 123.885 158.064C125.293 156.584 126.038 155.314 127.082 153.83ZM101.324 128.053C101.553 127.754 101.414 127.366 101.282 127.053C104.304 123.801 93.5096 126.064 95.0348 121.887C95.4125 119.493 97.7894 118.158 99.8598 117.201C101.068 118.183 101.788 119.624 102.867 120.717C105.558 121.731 103.48 112.587 103.356 111.156C102.917 108.335 100.769 104.162 102.483 101.575C104.15 98.9421 107.539 98.5187 109.67 96.416C111.488 94.8576 112.261 92.5592 114.011 90.9154C116.281 89.0084 119.377 88.5814 122.054 87.4678C126.818 84.8278 126.675 83.7533 132.466 83.8245C134.433 86.2189 136.058 88.8945 137.384 91.6875C125.532 91.9543 125.075 102.375 138.35 93.8222C139.201 96.0317 139.739 98.355 140.317 100.653C139.187 98.1771 135.83 98.3159 133.856 99.6537C133.001 100.116 129.776 105.058 132.555 103.845C133.813 101.497 134.472 100.127 137.444 100.269C138.111 100.305 138.688 100.885 138.934 101.475C137.052 98.6966 134.002 103.009 136.19 104.663C131.639 105.99 133.585 104.201 131.686 104.158C130.424 104.677 131.493 106.343 132.452 106.574C135.62 107.196 140.406 105.585 140.602 101.87C142.277 110.292 144.964 121.151 137.683 127.697C135.919 129.238 134.105 130.778 132.071 131.953C130.556 132.938 128.5 132.806 127.092 133.845C126.462 136.122 124.78 150.852 126.508 151.799C124.862 152.5 123.921 155.876 122.1 157.089C113.957 155.157 105.8 153.304 97.7431 151.069C99.6603 143.562 100.918 135.806 101.324 128.053ZM122.15 158.993C118.807 163.07 115.019 166.767 110.415 169.421C105.786 163.739 101.524 157.815 96.6526 152.339C104.924 155.317 113.547 157.253 122.15 158.993ZM139.65 218.3C138.007 222.395 137.541 226.761 136.318 230.959C131.643 231.389 127.025 232.254 122.389 232.959C122.691 229.981 122.798 227.01 122.962 224.007C123.618 223.719 124.94 223.694 124.716 222.694C124.455 221.886 123.593 222.27 123.026 222.477C123.066 221.338 123.091 220.196 123.083 219.058C123.679 218.791 124.295 218.57 124.904 218.339C125.77 218.054 125.293 216.784 124.452 217.119C124.167 217.261 123.618 217.45 123.062 217.677C123.037 216.699 122.987 215.724 122.902 214.749C128.643 215.848 134.451 216.475 140.277 216.887C139.889 217.193 139.839 217.862 139.65 218.3ZM182.623 213.016C181.711 213.087 180.795 213.162 179.883 213.244C179.441 213.283 178.995 213.322 178.55 213.361C177.534 213.45 176.515 213.546 175.496 213.643C175.225 213.667 174.954 213.696 174.683 213.721C174.68 213.717 174.68 213.721 174.68 213.721C174.163 213.767 173.65 213.817 173.137 213.867C171.886 213.988 170.632 214.105 169.377 214.219C168.02 214.343 166.658 214.468 165.297 214.582C164.959 214.614 164.62 214.639 164.278 214.667C162.917 214.777 161.559 214.881 160.198 214.97C159.178 215.037 158.152 215.094 157.133 215.148C156.235 215.19 155.333 215.229 154.432 215.258C153.972 215.272 153.512 215.286 153.049 215.301C152.536 215.311 152.023 215.318 151.506 215.325C151 215.333 150.494 215.336 149.988 215.336C146.086 215.336 142.184 215.148 138.285 214.674C127.167 213.771 115.931 212.073 105.579 207.729C103.252 206.858 100.929 205.975 98.6732 204.947C97.736 204.605 96.3818 203.346 95.5515 204.424C95.5159 204.413 95.4767 204.403 95.4339 204.385C95.4125 204.378 95.3911 204.371 95.3662 204.36C95.3127 204.342 95.2557 204.321 95.1952 204.296C94.9421 204.2 94.6072 204.057 94.2187 203.894C94.0584 203.826 93.8909 203.755 93.7092 203.677C93.3528 203.527 92.9644 203.36 92.5546 203.189C92.4263 203.136 92.2909 203.083 92.159 203.026C91.9096 202.922 91.6566 202.819 91.4 202.72C91.2468 202.659 91.0935 202.599 90.9367 202.538C90.7158 202.453 90.4913 202.367 90.2703 202.286C90.0458 202.204 89.8213 202.122 89.5968 202.047C89.4757 202.008 89.3581 201.965 89.2369 201.926C89.0872 201.876 88.9411 201.83 88.795 201.784C88.6489 201.741 88.5064 201.699 88.3639 201.656C88.2213 201.617 88.0788 201.578 87.9434 201.542C87.8079 201.51 87.6725 201.478 87.5442 201.446H87.5407C87.1451 201.357 86.7781 201.297 86.4467 201.272C86.2329 201.257 86.0333 201.254 85.8516 201.272C85.8409 201.272 85.8337 201.272 85.8266 201.275C85.7839 201.275 85.7447 201.282 85.7055 201.289C85.6663 201.289 85.6271 201.3 85.5914 201.311C85.4738 201.339 85.3669 201.375 85.2743 201.421C85.2101 201.453 85.1531 201.489 85.1068 201.531C85.0783 201.556 85.0533 201.578 85.0355 201.603C85.0034 201.638 84.9749 201.677 84.95 201.72C84.9001 201.802 84.8645 201.898 84.8502 202.008V202.015C84.811 202.246 84.8502 202.542 84.9749 202.905C85.3954 203.556 86.2827 203.545 86.9563 203.773C89.408 204.321 91.7884 205.1 94.1974 205.794C91.0294 207.16 87.9861 207.968 84.5509 207.505C84.027 207.459 83.546 207.836 83.4925 208.363C83.4177 209.455 84.558 209.476 85.3598 209.498C89.5719 210.074 93.1247 207.822 96.9555 206.576C104.888 209.96 112.988 213.12 121.537 214.493C121.612 215.82 121.669 217.115 121.683 218.439C121.305 218.737 121.284 219.257 121.686 219.481C121.69 220.634 121.676 221.79 121.572 222.939C117.029 224.081 113.056 227.341 108.17 226.924C108.12 226.967 108.074 227.006 108.031 227.042C107.475 227.533 107.489 227.832 107.849 227.995C107.899 228.02 107.956 228.041 108.017 228.059C108.045 228.066 108.074 228.077 108.102 228.081L108.199 228.102C108.248 228.113 108.298 228.12 108.352 228.127C108.362 228.13 108.373 228.13 108.384 228.13C109.132 228.216 110.315 228.12 111.47 227.949C112.051 227.864 112.621 227.753 113.123 227.643C113.64 227.529 114.089 227.412 114.399 227.301C114.52 227.262 114.62 227.223 114.695 227.184C114.748 227.159 114.787 227.134 114.82 227.113C117.022 226.117 119.096 225.074 121.476 224.469C121.312 227.376 121.202 230.287 120.888 233.183C103.769 235.748 86.6284 240.526 69.1885 239.434C68.9105 236.968 69.3274 234.136 68.5256 231.841C69.7658 210.391 69.3951 187.332 80.1428 168.055C84.1161 162.049 90.0316 157.733 94.6392 152.286C95.0312 152.766 95.2201 153.691 95.9292 153.741C100.387 159.381 104.546 165.255 109.193 170.741C109.709 171.285 110.568 171.221 111.605 170.766C111.698 170.727 111.791 170.684 111.887 170.638C112.265 170.453 112.671 170.218 113.088 169.948C113.23 169.855 113.38 169.755 113.526 169.652C113.601 169.599 113.676 169.546 113.754 169.489C113.911 169.378 114.064 169.265 114.221 169.147C114.691 168.795 115.172 168.407 115.657 168.001C115.814 167.87 115.967 167.735 116.124 167.596C116.206 167.528 116.284 167.457 116.363 167.386C116.573 167.201 116.779 167.012 116.99 166.824C117.097 166.728 117.204 166.628 117.31 166.528C117.428 166.418 117.546 166.311 117.66 166.201C118.084 165.803 118.501 165.397 118.9 165.002C118.971 164.927 119.046 164.856 119.114 164.789C119.256 164.643 119.399 164.5 119.534 164.362C119.809 164.081 120.072 163.807 120.325 163.543C120.514 163.348 120.696 163.156 120.867 162.971C121.152 162.661 121.416 162.373 121.651 162.113C121.783 161.967 121.904 161.832 122.011 161.707C122.061 161.651 122.111 161.597 122.157 161.544C122.267 161.416 122.367 161.298 122.453 161.199C122.51 161.128 122.56 161.067 122.606 161.01C123.108 167.226 122.948 173.353 122.802 179.59C116.755 176.516 110.404 174.007 103.972 171.865C103.833 171.566 103.68 171.275 103.541 170.976C103.926 170.581 103.566 169.955 103.088 169.98C102.736 169.183 102.408 168.364 101.902 167.671C102.422 166.212 99.6068 166.045 100.377 167.717C99.6638 168.845 101.645 169.969 101.777 171.175C100.879 170.905 99.9774 170.645 99.0687 170.399C98.9868 169.852 98.2135 169.795 97.793 169.549C96.4709 168.934 95.2771 168.083 93.9835 167.421C93.8268 167.336 93.6557 167.297 93.4847 167.297C93.4419 167.297 93.3956 167.297 93.3528 167.308C93.31 167.311 93.2708 167.318 93.2281 167.329C93.1996 167.336 93.1746 167.343 93.1461 167.354C93.0107 167.397 92.8824 167.471 92.7791 167.567C92.7399 167.599 92.7078 167.635 92.6757 167.674C92.608 167.752 92.5546 167.845 92.5154 167.948C92.4904 168.048 92.4797 168.144 92.4797 168.236C92.4797 168.279 92.4833 168.322 92.4869 168.364C92.4869 168.389 92.494 168.411 92.5011 168.436C92.5154 168.521 92.5439 168.603 92.5831 168.681C92.5938 168.713 92.608 168.741 92.6294 168.77C92.6365 168.784 92.6472 168.798 92.6544 168.813C92.6757 168.848 92.6971 168.88 92.7256 168.912C92.7541 168.955 92.7898 168.994 92.8254 169.03C92.8967 169.104 92.9786 169.176 93.0713 169.247C93.1604 169.318 93.2602 169.382 93.3671 169.446C93.474 169.506 93.5844 169.567 93.702 169.624C93.8196 169.681 93.9408 169.734 94.0691 169.788C94.4504 169.944 94.8673 170.079 95.2771 170.2C95.409 170.239 95.5373 170.275 95.6655 170.311C96.1965 170.464 96.6954 170.599 97.0696 170.737C97.1195 170.755 97.1694 170.773 97.2157 170.794C97.262 170.812 97.3083 170.834 97.3475 170.851C97.3547 170.89 97.3653 170.926 97.3832 170.965C97.3974 171.001 97.4152 171.036 97.4366 171.072C97.458 171.108 97.483 171.143 97.5115 171.179C97.5649 171.25 97.6326 171.317 97.7146 171.378C97.9925 171.602 98.4023 171.798 98.8763 171.972C98.944 171.997 99.0117 172.022 99.083 172.047C99.1507 172.072 99.222 172.097 99.2897 172.118C99.3609 172.143 99.4322 172.164 99.5035 172.186C99.507 172.189 99.5106 172.189 99.5142 172.189C99.6603 172.239 99.8099 172.282 99.9596 172.328C100.565 172.506 101.185 172.669 101.724 172.837C101.83 172.869 101.934 172.901 102.03 172.936C102.083 172.954 102.133 172.972 102.183 172.99C102.23 173.004 102.276 173.022 102.319 173.039C102.408 173.071 102.49 173.104 102.568 173.139C102.607 173.157 102.643 173.171 102.679 173.189C102.75 173.221 102.814 173.253 102.871 173.289C103.056 173.53 103.366 173.627 103.63 173.562C120.92 178.864 135.802 190.722 153.837 193.608C156.096 193.722 158.359 193.814 160.622 193.882C161.235 193.903 161.844 193.921 162.457 193.935C163.697 193.971 164.941 193.996 166.181 194.017C167.824 194.045 169.466 194.063 171.109 194.07C173.14 194.081 175.175 194.081 177.206 194.063C177.652 194.06 178.101 194.056 178.546 194.053C179.48 194.045 180.414 194.031 181.347 194.017C181.978 194.006 182.605 193.996 183.236 193.985C183.881 193.974 184.522 193.96 185.164 193.946C186.13 193.924 187.095 193.903 188.057 193.878C189.023 193.853 189.989 193.825 190.951 193.796C193 193.736 195.049 193.665 197.098 193.586C197.729 193.565 198.356 193.54 198.983 193.515C200.116 193.469 201.253 193.423 202.383 193.377C202.461 193.377 202.536 193.369 202.614 193.366C204.514 193.284 206.413 193.199 208.309 193.11C210.237 193.017 212.168 192.925 214.093 192.829C219.477 192.558 224.858 192.277 230.232 192.01C231.269 191.957 232.309 191.907 233.346 191.857C233.988 191.825 234.629 191.797 235.271 191.765C235.399 192.021 235.513 192.281 235.62 192.548C234.337 192.971 234.918 194.227 236.115 194.01C236.821 196.778 237.17 199.639 238.164 202.325C238.118 202.378 238.075 202.431 238.04 202.492C237.968 202.606 237.922 202.734 237.897 202.866C237.89 202.898 237.886 202.933 237.883 202.969C237.872 203.097 237.883 203.228 237.911 203.353C237.922 203.396 237.936 203.442 237.95 203.485C237.95 203.485 237.95 203.492 237.954 203.495C237.972 203.534 237.99 203.57 238.011 203.609C238.018 203.631 238.032 203.655 238.047 203.673C238.114 203.787 238.203 203.887 238.314 203.961C238.342 203.979 238.367 203.997 238.396 204.015C220.104 208.644 201.321 210.672 182.623 213.016ZM239.939 201.652C238.934 198.995 238.578 196.198 237.829 193.462C241.838 192.516 245.801 191.402 249.642 189.904C253.406 188.317 257.454 186.332 261.609 187.339C261.359 187.723 260.543 188.111 259.481 188.513C259.467 188.52 259.449 188.527 259.431 188.534C257.35 189.313 254.357 190.15 252.864 191.092C252.85 191.1 252.835 191.107 252.821 191.117C251.834 191.747 251.538 192.43 252.668 193.177C253.445 193.17 254.225 193.071 255.009 192.925C255.016 192.925 255.02 192.925 255.027 192.925C256.153 192.715 257.286 192.412 258.419 192.16C258.491 192.146 258.562 192.131 258.633 192.117C259.863 191.843 261.092 191.647 262.311 191.708C262.482 191.715 262.653 191.726 262.82 191.743C263.209 191.783 263.597 191.85 263.982 191.953C264.11 191.989 264.239 192.028 264.367 192.071C264.221 192.199 263.964 192.32 263.626 192.437C263.554 192.462 263.483 192.487 263.405 192.512C263.18 192.583 262.931 192.651 262.656 192.718C262.564 192.743 262.471 192.768 262.371 192.79C262.336 192.797 262.3 192.807 262.264 192.814C261.926 192.893 261.562 192.975 261.185 193.053C260.946 193.103 260.704 193.156 260.454 193.206C260.226 193.252 259.998 193.298 259.766 193.348C259.684 193.366 259.603 193.384 259.524 193.398C259.278 193.448 259.032 193.501 258.79 193.554C258.644 193.586 258.494 193.619 258.348 193.651C258.334 193.651 258.32 193.658 258.305 193.661C258.195 193.686 258.088 193.707 257.978 193.732C257.561 193.828 257.154 193.928 256.77 194.035C256.623 194.074 256.484 194.113 256.349 194.152C256.21 194.195 256.078 194.234 255.946 194.277L255.754 194.341C255.629 194.383 255.508 194.426 255.39 194.469C254.92 194.647 254.524 194.839 254.239 195.049C254.168 195.099 254.104 195.156 254.047 195.209C254.018 195.237 253.99 195.262 253.965 195.291C253.912 195.348 253.872 195.405 253.84 195.458C253.822 195.49 253.808 195.518 253.794 195.547C253.794 195.547 253.793 195.548 253.79 195.55C253.755 195.632 253.733 195.714 253.733 195.8C253.733 195.885 253.744 195.97 253.773 196.059C253.798 196.141 253.84 196.226 253.897 196.308C253.926 196.351 253.958 196.394 253.994 196.436C254.029 196.479 254.068 196.525 254.115 196.568C254.2 196.657 254.304 196.749 254.425 196.842C257.496 197.685 260.85 196.244 263.85 197.383C255.978 199.311 247.764 199.375 239.939 201.656V201.652Z" fill="#27282D"/>
        <path d="M262.163 119.347C262.135 119.454 262.096 119.547 262.042 119.625C261.746 120.087 261.116 120.094 260.742 119.785C260.521 119.603 260.389 119.312 260.471 118.938C260.713 117.899 260.952 116.818 260.816 115.747C259.166 116.825 258.582 119.547 256.765 120.162C255.845 120.034 255.909 118.984 256.415 118.429C257.039 117.412 257.869 115.811 257.007 114.733C255.557 114.697 252.317 119.774 251.074 120.948L251.031 120.991C250.767 121.24 250.418 121.244 250.14 121.105C249.777 120.927 249.527 120.511 249.716 120.073C250.503 118.177 251.672 115.91 250.767 113.875C250.735 113.872 250.703 113.872 250.675 113.872C248.401 115.138 247.097 117.714 245.675 119.845C245.607 119.949 245.536 120.052 245.468 120.151C245.618 120.311 245.682 120.472 245.686 120.617C245.689 120.859 245.522 121.066 245.286 121.197C245.062 121.325 244.77 121.382 244.51 121.333C244.1 121.187 243.925 120.902 243.914 120.525C243.875 118.984 246.566 115.953 247.075 115.035C249.613 111.136 253.198 111.086 252.652 116.433C254.099 114.27 257.987 110.84 258.949 115.234C262.456 111.509 263.044 116.625 262.163 119.347Z" fill="#27282D"/>
        <path d="M92.0677 212.555C94.7261 209.971 87.0146 212.419 86.0703 212.544C85.158 212.864 83.1838 212.982 83.6685 214.39C84.4133 215.7 85.885 214.234 86.9042 214.042C88.5968 213.448 90.3394 213.038 92.0677 212.555ZM113.531 230.173C114.326 229.835 113.859 228.59 113.039 228.85C109.836 229.643 106.714 230.913 103.386 231.049C103.083 230.28 101.593 230.807 101.604 231.533C103.275 233.859 110.954 230.643 113.531 230.173ZM237.92 203.396C237.998 203.667 238.176 203.877 238.397 204.016C220.102 208.644 201.322 210.672 182.624 213.017C167.882 214.173 153.076 216.465 138.287 214.675C127.169 213.771 115.933 212.071 105.581 207.726C103.257 206.855 100.93 205.976 98.6745 204.944C97.7409 204.606 96.3832 203.343 95.5529 204.421C94.017 203.969 83.5046 198.632 84.9763 202.902C85.3968 203.553 86.2841 203.542 86.9541 203.77C89.4058 204.318 91.7862 205.097 94.1987 205.787C91.0307 207.154 87.9875 207.965 84.5522 207.499C84.0284 207.452 83.5473 207.83 83.4939 208.356C83.419 209.448 84.5594 209.47 85.3612 209.491C89.5733 210.068 93.1261 207.812 96.9569 206.57C104.889 209.95 112.989 213.11 121.538 214.487C121.613 215.814 121.666 217.105 121.681 218.432C121.303 218.731 121.282 219.251 121.688 219.475C121.688 220.627 121.677 221.784 121.574 222.933C117.03 224.075 113.057 227.334 108.168 226.918C105.381 229.259 113.991 227.694 114.817 227.106C117.02 226.11 119.094 225.068 121.474 224.463C121.307 227.37 121.2 230.284 120.886 233.18C103.763 235.745 86.6262 240.52 69.1827 239.431C68.9083 236.962 69.3217 234.133 68.5234 231.839C69.7635 210.388 69.3894 187.325 80.137 168.052C84.1139 162.046 90.0258 157.73 94.6335 152.283C95.0255 152.764 95.2143 153.689 95.9235 153.738C100.381 159.378 104.54 165.248 109.191 170.738C111.489 173.257 120.968 163.018 122.604 161.007C123.106 167.223 122.942 173.353 122.796 179.587C116.749 176.513 110.399 174.004 103.966 171.863C103.831 171.564 103.674 171.272 103.539 170.973C103.924 170.578 103.564 169.952 103.086 169.977C102.733 169.18 102.406 168.362 101.9 167.671C102.42 166.209 99.6082 166.042 100.378 167.714C99.6652 168.842 101.647 169.966 101.778 171.176C100.88 170.905 99.9788 170.642 99.0701 170.4C98.9881 169.852 98.2148 169.795 97.7943 169.55C96.4723 168.934 95.2785 168.084 93.9814 167.422C93.4504 167.127 92.727 167.369 92.5167 167.945C92.0535 169.799 96.0696 170.247 97.3453 170.852C97.5912 172.087 101.625 172.56 102.872 173.289C103.058 173.531 103.368 173.627 103.631 173.56C120.922 178.861 135.799 190.72 153.838 193.609C180.946 194.975 208.189 193.046 235.269 191.766C235.397 192.022 235.514 192.281 235.618 192.548C234.335 192.975 234.916 194.228 236.113 194.014C236.819 196.779 237.168 199.639 238.162 202.325C237.913 202.61 237.806 203.026 237.916 203.396H237.92Z" fill="#EF5DA8"/>
        <path d="M257.14 192.402C259.463 191.983 262.072 191.26 264.374 192.068C262.934 193.331 250.736 193.968 254.431 196.839C257.503 197.686 260.856 196.241 263.853 197.38C255.981 199.308 247.768 199.372 239.946 201.653C238.941 198.995 238.584 196.199 237.836 193.463C241.848 192.52 245.808 191.403 249.649 189.905C253.409 188.318 257.46 186.333 261.612 187.34C258.975 189.229 255.415 189.588 252.603 191.243C251.695 191.623 251.659 192.933 252.674 193.178C254.189 193.331 255.668 192.676 257.143 192.402H257.14Z" fill="#EF5DA8"/>
        <path d="M169.838 327.084C169.1 329.959 167.732 332.912 166.713 335.637C162.394 333.883 158.114 332.029 153.531 331.044C154.825 328.336 155.819 325.501 156.949 322.729C161.321 324.042 165.519 325.607 169.838 327.084Z" fill="#EF5DA8"/>
        <path d="M245.69 120.618C245.587 120.813 245.434 121.005 245.291 121.197C245.156 121.375 245.031 121.55 244.963 121.72C244.96 121.735 244.953 121.753 244.946 121.767C244.707 122.482 243.802 122.56 243.52 121.948C243.481 121.859 243.456 121.753 243.445 121.635C243.477 121.368 243.659 120.931 243.919 120.525C244.4 119.771 245.138 119.127 245.68 119.831C245.658 119.81 245.64 119.785 245.615 119.767C245.64 119.792 245.662 119.821 245.68 119.845C245.869 120.105 245.826 120.365 245.69 120.618Z" fill="#27282D"/>
        <path d="M130.056 81.224C129.853 81.1991 129.714 81.0319 129.696 80.8398C129.696 80.8789 129.707 80.9109 129.718 80.9501C128.349 77.5772 124.91 79.9752 122.345 79.776C119.216 79.7511 118.493 77.3245 115.022 78.6303C114.462 78.7904 114.163 77.9365 114.715 77.723C117.78 76.0935 120.26 79.1106 123.282 78.8011C125.434 78.6694 127.583 77.2 129.408 79.0679C129.821 79.4344 131.236 81.1173 130.056 81.224Z" fill="#EF5DA8"/>
        <path d="M121.725 82.4871C119.384 81.0141 116.708 81.7755 114.189 81.9783C112.724 81.9072 111.274 81.3842 109.813 81.7755C109.235 81.9179 108.997 81.0533 109.574 80.8932C112.189 80.3844 114.755 81.5656 117.335 80.605C118.18 80.6085 122.919 81.1422 122.299 82.4195C122.164 82.5903 121.893 82.6366 121.722 82.4907L121.725 82.4871Z" fill="#EF5DA8"/>
        <path d="M102.949 86.4362C102.632 85.7317 103.893 85.5467 104.328 85.2798C105.917 84.5078 107.592 85.1269 109.214 84.8778C112.799 82.896 113.807 83.661 117.449 84.5362C117.934 84.6074 117.848 85.3439 117.353 85.2905C115.51 85.0593 113.665 84.0666 111.794 84.6679C109.057 86.333 107.824 85.4684 105.066 85.9345C104.382 85.995 103.53 87.041 102.949 86.4397V86.4362Z" fill="#EF5DA8"/>
        <path d="M95.8708 93.0079C96.0953 92.0188 97.7772 92.5062 98.5541 92.1824C99.8797 91.9405 100.924 90.8625 102.16 90.4497C102.709 89.8662 108.418 90.1473 106.454 91.204C102.235 89.8947 100.45 93.3708 96.3696 93.3886C96.1345 93.4384 95.8993 93.2392 95.8672 93.0079H95.8708Z" fill="#EF5DA8"/>
        <path d="M96.3997 96.893C95.8936 95.8897 98.9654 94.2246 99.867 94.0965C100.662 94.1249 102.985 93.054 103.16 94.1605C103.124 94.4452 102.839 94.5661 102.579 94.5128C101.171 94.68 99.6781 94.8401 98.4701 95.6157C97.7431 95.8719 97.1979 97.32 96.3997 96.893Z" fill="#EF5DA8"/>
        <path d="M92.3451 108.613C92.0885 108.125 92.6658 107.933 93.0008 107.748C94.0734 106.983 95.0285 105.966 96.3577 105.66C96.8387 105.613 97.9826 105.158 98.0682 105.891C98.0147 106.506 97.2058 106.24 96.796 106.389C95.3278 106.339 93.4284 109.488 92.3451 108.616V108.613Z" fill="#EF5DA8"/>
        <path d="M94.5252 112.199C93.7199 111.292 95.3128 109.748 96.2108 109.388C96.6847 109.207 98.5235 108.452 98.6376 109.239C98.6696 109.466 98.5021 109.676 98.2776 109.708C94.7533 110.011 95.6371 112.487 94.5252 112.199Z" fill="#EF5DA8"/>
        <path d="M123.328 245.06C123.528 243.79 128.442 244.028 129.732 243.519C130.936 243.498 135.002 241.836 135.423 243.199C135.391 243.448 135.159 243.601 134.942 243.569C132.754 243.359 124.354 246.437 123.328 245.056V245.06Z" fill="#EF5DA8"/>
        <path d="M181.552 261.536C180.155 260.75 183.027 260.22 183.448 259.697C185.953 258.245 185.721 254.79 187.81 252.89C188.173 252.442 188.868 252.976 188.512 253.438C187.956 254.121 187.432 254.833 187.026 255.612C186.22 258.373 184.57 260.945 181.556 261.536H181.552Z" fill="#EF5DA8"/>
        <path d="M184.608 262.308C184.077 262.237 184.109 261.436 184.651 261.422C185.542 261.109 186.326 260.529 186.995 259.874C188.293 258.793 188.713 257.021 189.978 255.943C191.272 254.95 192.726 254.196 194.012 253.2C194.475 252.858 195.01 253.552 194.547 253.911C193.171 255 191.646 255.726 190.313 256.8C188.795 258.903 187.402 261.71 184.608 262.304V262.308Z" fill="#EF5DA8"/>
        <path d="M188.999 262.294C188.557 261.967 188.978 261.259 189.459 261.547C190.884 261.181 192.089 260.352 193.35 259.637C193.867 259.348 194.309 260.12 193.799 260.423C192.751 260.964 190.079 262.792 188.995 262.294H188.999Z" fill="#EF5DA8"/>
        <path d="M112.486 252.104C111.698 251.051 120.803 247.137 121.861 248.038C122.089 248.322 121.833 248.778 121.466 248.721C120.04 248.742 118.701 249.482 117.378 249.97C116.249 250.14 112.853 252.713 112.486 252.104Z" fill="#EF5DA8"/>
        <path d="M103.526 248.745C103.291 248.727 103.123 248.485 103.152 248.265C103.426 247.518 104.573 248.091 105.194 247.92C109.135 247.244 112.891 245.486 116.946 246.771C118.856 248.325 112.502 246.61 111.79 247.208C109.021 247.685 106.409 249.151 103.522 248.749L103.526 248.745Z" fill="#EF5DA8"/>
        <path d="M168.439 295.101C168.122 294.735 168.457 294.415 168.824 294.301C171.183 292.974 172.972 290.839 174.907 288.989C178.039 288.22 170.371 294.525 169.69 294.806C169.562 295.229 168.756 295.333 168.436 295.098L168.439 295.101Z" fill="#EF5DA8"/>
        <path d="M171.082 288.954C172.717 286.883 175.03 285.001 176.366 282.535C176.84 282.091 177.503 280.685 178.234 281.247C178.565 281.792 177.724 282.091 177.478 282.482C176.634 283.482 172.254 290.231 171.078 288.954H171.082Z" fill="#EF5DA8"/>
        <path d="M582.383 271.302C580.045 275.564 577.811 279.912 575.042 283.911C568.513 294.208 563.214 305.259 556.465 315.438C555.271 317.281 554.024 319.085 552.93 320.988C552.388 321.789 551.975 323.333 550.731 322.927C549.709 322.525 550.011 321.081 549.88 320.255C549.21 315.595 548.868 310.887 548.618 306.187C536.142 320.889 523.524 335.48 513.909 352.298C512.135 355.927 510.054 352.376 508.176 350.925C506.351 349.487 504.341 348.317 502.513 346.883C497.863 342.489 491.602 340.048 487.147 335.501C486.662 334.444 487.81 333.829 488.533 333.313C491.755 330.627 494.848 327.798 498.212 325.283C504.633 318.982 512.302 314.218 519.016 308.255C524.229 304.255 529.083 299.797 534.414 295.948C522.309 293.873 507.395 293.489 529.311 286.583C546.737 280.318 564.358 274.518 581.962 269.057C583.06 269.331 582.846 270.533 582.383 271.302Z" fill="#27282D"/>
    </g>
    <defs>
        <clipPath id="clip0_1744_26954">
            <rect width="633" height="419" fill="white"/>
        </clipPath>
    </defs>
</svg>
