<svg width="540" height="407" viewBox="0 0 540 407" fill="none" xmlns="http://www.w3.org/2000/svg">
    <path d="M156.566 155.527C153.951 155.112 153.438 158.855 154.699 160.375C156.712 207.912 141.855 254.626 130.747 300.49C128.132 307.745 131.397 307.108 136.667 303.861C150.673 296.491 161.03 283.353 170.676 271.109C186.638 250.189 199.877 226.921 206.557 201.307C215.33 181.082 209.665 175.839 194.543 162.253C188.951 154.962 177.958 173.708 158.555 155.964C158.224 155.301 157.226 155.13 156.566 155.527Z" fill="#FFB507"/>
    <path d="M139.177 29.397C100.199 52.5916 111.469 122.1 95.7461 161.193C83.4939 201.656 57.8176 236.935 46.7318 277.707C45.3604 285.694 43.5688 294.052 45.911 302.018C48.1957 310.87 57.898 309.7 61.5045 302.257C61.3401 307.45 59.9059 312.875 60.8308 317.955C63.9064 323.021 69.4479 318.168 70.7915 314.232C71.2535 336.627 89.7384 358.979 97.4831 324.66C100.369 311.739 98.8191 298.329 100.817 285.284C103.803 258.593 111.349 232.931 117.824 206.968C123.847 188.967 127.561 170.293 128.711 151.389C129.502 146.173 128.527 140.683 129.902 135.622C131.396 135.097 133.008 135.729 134.525 135.377C140.144 133.353 132.461 124.509 131.888 120.946C127.961 109.955 126.632 98.364 126.879 86.7386C122.512 49.689 158.961 24.7516 191.136 44.6018C203.003 53.0121 214.925 70.7727 213.882 85.3688C215.975 88.8731 221.846 83.9354 224.946 83.455C242.675 78.1493 238.79 93.7593 229.744 102.135C228.492 104.129 223.286 105.648 225.592 108.433C235.962 119.933 245.497 132.763 261.133 137.341C267.655 140.973 267.461 122.17 267.202 118.483C266.959 111.749 265.204 105.206 263.269 98.7797C247.484 51.0766 189.579 8.57117 139.177 29.397Z" fill="#FFB507"/>
    <path d="M157.899 90.2316C154.84 88.8123 154.332 102.697 153.554 105.025C150.372 116.975 148.931 132.569 164.023 117.349C164.817 116.262 167.094 114.678 165.68 113.288C165.011 112.804 164.027 113.126 163.567 113.74C150.306 128.71 154.268 116.383 156.439 105.492C156.378 101.046 159.67 93.9542 157.899 90.2316Z" fill="black"/>
    <path d="M131.26 89.9676C130.684 91.1488 127.341 95.8786 129.352 96.4878C131.666 96.7728 131.629 93.4745 132.675 92.1066C135.399 86.3291 143.017 86.8258 148.004 89.0461C158.125 89.3897 137.678 78.7994 131.26 89.9676Z" fill="black"/>
    <path d="M166.897 81.739C166.582 82.3178 166.787 83.1214 167.453 83.3114C169.496 83.7719 170.233 79.7355 171.283 78.4342C177.331 66.6186 187.368 70.0134 197.859 72.207C198.895 71.8418 199.142 70.2914 198.023 69.8728C185.034 64.5851 171.699 67.4675 166.897 81.739Z" fill="black"/>
    <path d="M136.729 102.01C138.978 96.3528 144.036 94.801 149.824 100.584C145.882 103.691 140.999 107.17 135.646 106.547C135.831 104.84 136.2 103.309 136.729 102.01ZM138.039 96.0444C135.218 97.6851 130.924 107.171 134.016 109.19C138.85 110.564 144.149 108.304 147.922 105.287C152.814 102.916 154.662 99.1651 148.948 96.1436C145.594 93.9791 141.259 93.406 138.039 96.0444Z" fill="black"/>
    <path d="M178.467 90.5404C180.558 81.3374 191.194 78.4587 198.326 84.1403C193.443 90.2521 185.449 95.2148 177.344 93.8901C177.723 92.7866 178.075 91.6713 178.467 90.5404ZM181.953 81.1927C179.252 82.1052 171.721 95.8476 175.863 96.565C181.037 98.0533 186.427 96.7102 190.94 94.013C195.372 92.0285 198.213 87.8612 201.708 85.114C202.752 82.998 198.855 81.4116 197.455 80.5143C192.637 77.9773 186.39 77.8451 181.953 81.1927Z" fill="black"/>
    <path d="M179.565 86.0417C177.801 87.7169 177.825 94.1293 181.422 93.7014C186.953 92.484 184.81 79.4687 179.565 86.0417Z" fill="black"/>
    <path d="M138.596 98.8864C136.084 100.563 135.368 106.883 139.028 107.588C144.194 107.967 144.158 96.0905 138.596 98.8864Z" fill="black"/>
    <path d="M182.273 91.2753C180.893 90.2566 180.317 87.8302 181.566 86.5177C183.697 86.3988 184.777 92.0975 182.273 91.2753ZM182.621 83.6261C176.372 83.7211 177.083 95.0124 183.286 94.3454C188.498 93.6402 187.769 83.2184 182.621 83.6261Z" fill="black"/>
    <path d="M196.123 80.8436C197.117 79.973 196.992 78.4567 197.395 77.2984C197.641 76.4296 198.049 74.8835 196.697 74.8521C194.876 75.0072 195.064 77.4286 194.618 78.763C193.952 80.0028 194.444 81.8727 196.123 80.8436Z" fill="black"/>
    <path d="M190.904 80.4785C192.913 80.794 192.798 78.5021 192.602 77.1501C192.562 76.1903 193.066 74.198 191.51 74.3383C189.756 74.2625 189.503 80.2628 190.904 80.4785Z" fill="black"/>
    <path d="M187.952 80.1765C188.327 79.0064 187.63 77.7626 187.563 76.5637C187.136 75.1445 184.987 76.133 185.191 77.391C185.186 78.9814 186.111 82.631 187.952 80.1765Z" fill="black"/>
    <path d="M146.92 97.6733C149.09 98.7413 151.318 90.0519 148.617 90.7372C147.292 91.1719 147.51 92.6963 147.104 93.788C146.971 94.998 145.222 96.9396 146.92 97.6733Z" fill="black"/>
    <path d="M143.722 95.9669C145.891 95.3114 144.988 86.5696 142.484 90.7848C142.566 92.2501 141.124 96.5663 143.722 95.9669Z" fill="black"/>
    <path d="M138.704 97.4749C141.485 97.7339 140.067 93.8713 140.044 92.2691C139.932 91.7008 139.29 91.456 138.765 91.619C136.671 92.404 138.116 95.3031 138.107 96.8268C138.177 97.1169 138.391 97.3721 138.704 97.4749Z" fill="black"/>
    <path d="M173.161 142.68C177.043 138.508 172.302 132.332 171.572 127.63C172.015 126.229 169.792 125.658 169.029 126.596C166.655 127.877 161.468 128.073 161.564 131.462C162.492 135.633 167.836 146.879 173.161 142.68ZM170.893 141.083C168.243 139.32 165.07 134.179 164.256 131.098C165.899 130.605 167.417 129.799 169.017 129.255C169.191 131.41 173.945 140.939 170.893 141.083Z" fill="black"/>
    <path d="M194.394 106.033C196.014 106.571 197.087 104.239 195.467 103.474C194.091 102.75 192.363 100.053 190.784 101.678C189.315 103.123 193.288 105.36 194.394 106.033Z" fill="black"/>
    <path d="M188.189 107.969C194.549 107.24 181.432 98.7123 183.514 104.649C185.034 105.793 186.732 106.754 188.189 107.969Z" fill="black"/>
    <path d="M181.173 109.551C184.777 108.28 177.278 102.245 176.823 106.306C176.816 107.375 180.178 109.673 181.173 109.551Z" fill="black"/>
    <path d="M149.364 122.455C152.213 120.599 147.117 117.877 145.533 117.03C141.417 117.982 146.99 121.105 148.263 122.37C148.263 122.37 148.263 122.37 148.248 122.331C148.568 122.567 148.972 122.611 149.364 122.455Z" fill="black"/>
    <path d="M144.907 125.565C149.647 125.728 142.54 118.335 140.951 120.508C139.934 122.636 143.709 124.202 144.907 125.565Z" fill="black"/>
    <path d="M140.533 126.892C141.696 126.907 142.434 125.276 141.315 124.63C140.119 123.788 138.768 121.125 137.174 122.483C135.601 124.241 139.136 126.289 140.533 126.892Z" fill="black"/>
    <path d="M371.349 127.901C374.354 120.946 378.374 111.568 387.025 110.952C398.183 115.286 411.976 125.633 415.062 137.821C410.434 135.594 406.044 132.819 402.255 129.33C400.503 128.118 398.433 125.013 396.329 124.917C395.134 125.05 394.021 126.649 394.946 127.666C401.007 134.022 408.951 141.81 410.561 150.793C402.707 148.211 396.831 142.032 390.456 137.23C389.094 136.999 387.654 138.977 388.885 139.964C395.449 146.96 404.464 154.3 406.032 164.207C402.272 161.705 398.22 159.499 394.782 156.551C392.165 155.388 384.713 142.548 383.082 148.278C388.427 155.69 395.859 162.931 397.923 172.37C387.675 171.192 382.342 158.715 374.911 153.424C371.69 152.682 368.356 159.269 366.934 162.034C367.822 150.654 367.387 138.799 371.349 127.901ZM156.881 159.37C164.702 167.819 180.057 171.692 189.283 163.427C193.853 167.969 197.939 172.952 202.497 177.521C209.223 184.067 210.824 184.272 207.208 193.694C183.665 229.602 165.957 270.957 135.865 302.542C144.483 255.146 159.47 207.903 156.881 159.37ZM131.45 147.829C131.678 143.767 130.59 139.592 131.53 135.611C134.553 139.972 135.347 145.58 136.471 150.648C141.586 155.133 137.192 137.473 137.618 135.285C140.4 140.127 141.277 145.77 141.848 151.217C146.539 154.576 142.96 138.341 143.742 136.079C146.73 141.497 146.664 147.968 147.516 153.893C151.808 158.25 149.249 142.813 150.658 140.757C155.962 154.878 154.192 174.619 153.304 189.835C114.103 177.445 133.082 189.026 131.45 147.829ZM130.112 58.271C121.136 77.0113 125.042 101.74 131.079 121.313C132.407 125.234 134.107 129.121 136.216 132.664C135.414 133.39 135.031 134.654 135.024 135.724C125.28 123.226 128.952 154.061 128.191 158.38C127.699 164.407 126.749 170.366 126.042 176.365C119.406 200.145 110.399 224.072 105.625 248.657C98.7494 277.956 88.0741 307.174 88.0069 337.563C89.264 371.806 125.31 395.182 155.472 375.62C185.383 355.884 203.294 322.709 223.302 293.852C239.56 305.264 254.79 318.15 270.076 330.832C274.444 334.864 278.508 339.221 282.675 343.491C284.465 346.117 280.277 350.319 279.676 353.439C263.855 387.648 257.948 397.944 257.757 399.377C261.322 409.627 272.535 376.069 272.535 376.069C312.274 293.732 331.32 238.061 373.64 156.742C378.237 162.726 383.071 169.137 389.373 173.355C401.113 179.728 403.526 171.736 397.185 162.496C412.943 174.311 410.003 158.026 401.935 149.925C418.169 159.962 414.038 146.056 407.331 137.21C416.997 144.247 421.108 139.621 415.066 129.763C410.287 121.946 403.144 116.065 395.327 111.517C409.208 84.4324 411.07 81.4742 411.07 81.4742C412.505 78.4545 429.686 42.3809 418.337 54.7331C398.047 97.4751 414.185 65.3942 393.884 108.164C369.7 80.4247 323.744 75.3206 296.453 101.551C287.892 108.803 280.682 117.517 274.661 126.939C260.624 145.962 237.148 121.096 229.054 107.037C238.292 102.807 243.559 84.6743 231.078 81.2958C226.745 80.0411 220.653 80.301 217.119 83.291C215.18 87.3277 224.695 83.0551 226.921 84.1468C239.721 84.3808 235.617 101.326 226.75 104.774C224.721 104.807 223.29 107.666 225.229 108.894C234.82 124.153 256.354 148.699 274.486 131.706C285.634 160.734 293.315 190.864 301.93 220.715C271.445 212.221 238.383 208.789 209.543 196.035C210.625 193.155 211.379 190.134 211.971 187.107C213.383 182.713 211.77 182.308 209.124 179.182C204.719 174.484 200.15 169.942 195.883 165.076C185.109 151.127 191.095 170.515 168.339 163.314C163.487 161.38 159.358 157.775 156.421 153.517C156.205 148.451 154.547 133.111 148.305 140.033C147.832 135.864 142.861 128.191 141.117 136.212C129.08 113.981 124.875 87.0112 130.762 62.0295C131.201 60.7891 132.592 57.9455 130.112 58.271Z" fill="black"/>
    <path d="M103.818 187.626C116.633 168.725 118.198 137.878 120.08 114.871C120.999 87.7748 116.261 37.5977 153.465 35.053C156.076 34.4262 154.904 32.0998 152.47 32.543C99.0065 39.9239 126.322 128.78 110.059 166.34C108.899 170.453 107.685 174.543 106.063 178.522C105.669 180.561 101.31 186.965 103.818 187.626Z" fill="white"/>
    <path d="M60.5187 264.137C62.5249 263.931 62.3214 261.243 62.9094 259.808C67.8496 239.876 81.2169 223.456 90.1827 205.264C92.4827 202.424 112.141 149.334 101.104 169.686C92.7349 201.915 70.4668 227.878 60.342 259.056C60.2121 260.559 58.2992 263.633 60.5187 264.137Z" fill="white"/>
    <path d="M66.4282 289.663C69.098 288.899 67.6324 285.146 68.0655 283.091C68.5383 274.326 71.243 265.81 73.3091 257.343C73.1225 254.241 86.5061 235 81.1272 236.543C73.0306 248.286 68.509 261.834 66.0817 275.799C65.8255 277.671 63.5467 290.465 66.4282 289.663Z" fill="white"/>
    <path d="M87.0561 250.643C89.5583 250.944 93.7814 236.358 96.1872 233.497C108.02 214.01 124.934 182.613 121.736 160.758C117.863 180.175 112.318 200.755 101.857 218.496C99.0164 225.296 84.2572 244.786 87.0561 250.643Z" fill="white"/>
    <path d="M95.2673 214.575C96.1703 212.56 104.494 198.186 101.506 197.805C100.555 197.524 99.4634 198.547 99.8248 199.515C99.9556 201.619 88.5881 218.676 95.2673 214.575Z" fill="white"/>
    <path d="M82.8173 301.133C85.6234 300.656 82.4449 284.171 83.7611 280.223C83.0704 276.707 90.3542 264.288 86.9234 264.105C81.2945 271.942 80.1727 282.962 80.8998 292.635C81.3687 294.333 80.2104 301.827 82.8173 301.133Z" fill="white"/>
    <path d="M155.498 246.808C168.949 225.907 173.164 200.885 175.43 176.614C176.001 174.391 172.859 174.365 173.1 176.517C170.333 197.81 167.547 219.224 157.563 238.569C157.014 240.216 150.095 249.836 155.498 246.808Z" fill="white"/>
    <path d="M153.8 263.592C175.21 242.848 190.152 212.257 191.189 182.255C191.181 180.919 189.551 179.954 188.704 181.311C188.033 208.059 175.433 235.34 158.152 255.626C157.208 257.135 149.681 263.047 153.8 263.592Z" fill="white"/>
    <path d="M177.487 205.254C180.978 205.073 183.429 184.359 183.875 180.619C183.147 179.07 180.848 180.481 181.752 181.847C179.89 187.736 179.393 193.924 177.856 199.889C177.781 201.417 175.402 204.516 177.487 205.254Z" fill="white"/>
    <path d="M158.247 205.099C160.765 205.44 162.254 197.406 162.871 195.301C160.737 192.494 159.764 198.28 159.106 199.653C158.894 201.122 156.562 204.111 158.247 205.099Z" fill="white"/>
    <path d="M230.173 73.2356C234.087 74.4068 245.911 80.1337 247.98 74.8203C247.935 74.0211 246.937 73.8497 246.387 74.2946C237.794 75.2287 227.584 69.2245 220.578 64.8321C215.65 67.5124 228.054 72.1246 230.173 73.2356Z" fill="white"/>
    <path d="M219.207 60.7935C223.808 62.7814 228.959 63.8701 233.918 62.698C235.987 62.4222 235.523 59.1343 233.521 60.609C227.878 61.4853 222.219 59.69 217.287 57.039C215.542 56.4149 212.1 51.9704 210.696 53.8661C208.873 55.9054 217.568 60.1501 219.207 60.7935Z" fill="white"/>
    <path d="M209.499 47.9871C211.741 48.8908 219.833 51.6726 219.04 47.0402C214.78 47.5719 212.23 46.1777 207.922 44.641C206.737 44.2262 205.415 46.1573 206.67 46.8622C207.617 47.3038 208.544 47.6395 209.499 47.9871Z" fill="white"/>
    <path d="M256.996 113.294C263.291 106.849 246.305 80.9534 237.828 83.725C237.029 84.9721 238.645 85.4431 239.51 85.8491C247.802 90.0496 253.174 98.6755 255.482 107.472C256.163 108.904 254.994 113.566 256.996 113.294Z" fill="white"/>
    <path d="M248.625 118.906C253.559 119.219 246.208 97.8757 243.208 100.154C241.481 101.52 245.973 106.841 246.131 109.184C247.515 111.245 247.057 119.301 248.625 118.906Z" fill="white"/>
    <path d="M147.657 199.451C149.265 200.016 151.33 193.434 149.348 193.357C147.778 193.231 147.886 194.935 147.597 195.98C147.496 197.042 146.096 199.004 147.657 199.451Z" fill="white"/>
    <path d="M137.779 196.059C139.599 196.586 140.761 192.018 140.239 190.818C138.95 189.513 137.809 191.328 137.946 192.589C137.818 193.639 136.434 195.413 137.779 196.059Z" fill="white"/>
    <path d="M129.506 192.42C131.028 192.883 132.589 188.293 131.133 187.826C129.584 187.125 127.771 192.223 129.506 192.42Z" fill="white"/>
    <path d="M283.663 133.625C285.034 133.762 287.929 133.681 287.089 131.563C286.092 130.71 284.274 131.159 283.055 131.12C281.385 131.601 281.99 133.812 283.663 133.625Z" fill="white"/>
    <path d="M288.636 143.637C289.984 143.601 292.306 143.792 292.527 142.003C292.407 140.099 290.151 141.334 289.05 141.476C287.817 141.397 287.136 143.573 288.636 143.637Z" fill="white"/>
    <path d="M295.046 158.659C296.378 158.584 298.7 158.776 298.925 157.053C298.809 155.215 296.596 156.501 295.468 156.404C294.207 156.314 293.452 158.587 295.046 158.659Z" fill="white"/>
    <path d="M302.703 177.273C307.276 177.819 306.705 173.803 302.334 174.741C302.401 174.738 302.44 174.722 302.507 174.718C300.426 174.795 300.638 177.388 302.703 177.273Z" fill="white"/>
    <path d="M308.027 192.901C309.577 193.376 312.689 191.665 310.362 190.432C306.702 189.501 304.478 192.992 308.027 192.901Z" fill="white"/>
    <path d="M312.124 207.798C314.12 208.368 316.219 205.993 313.898 205.348C312.84 205.54 311.463 204.815 310.778 205.949C310.062 207.005 311.145 207.733 312.124 207.798Z" fill="white"/>
    <path d="M313.197 221.195C314.569 221.853 317.138 222.151 316.691 219.878C316.243 219.034 315.055 219.301 314.276 218.997C313.024 218.586 311.804 220.658 313.197 221.195Z" fill="white"/>
    <path d="M298.099 233.262C299.41 232.333 298.188 231.025 297.536 230.126C296.826 229.364 296.46 227.354 295.071 228.086C293.114 228.703 296.571 234.844 298.099 233.262Z" fill="white"/>
    <path d="M281.67 232.108C283.571 231.695 282.489 226.905 280.962 226.602C279.051 226.589 279.245 228.395 279.993 229.596C280.418 230.494 280.181 232.472 281.67 232.108Z" fill="white"/>
    <path d="M260.217 227.841C262.154 228.321 262.387 221.012 261.009 220.741C259.921 220.401 258.71 221.925 259.405 222.875C259.828 224.228 258.396 227.542 260.217 227.841Z" fill="white"/>
    <path d="M240.697 221.782C242.62 221.768 243.205 216.203 241.526 215.575C240.426 215.263 239.322 216.54 239.993 217.545C240.557 218.796 238.806 221.42 240.697 221.782Z" fill="white"/>
    <path d="M219.005 218.129C220.896 218.718 222.558 212.839 221.441 211.739C220.418 210.647 218.396 212.243 219.423 213.402C219.571 214.863 217.465 217.105 219.005 218.129Z" fill="white"/>
    <path d="M209.904 211.5C211.379 211.846 212.326 209.655 212.059 208.467C210.729 206.43 208.069 210.708 209.904 211.5Z" fill="white"/>
    <path d="M218.331 288.65C220.061 287.578 218.146 286.295 217.432 285.24C215.087 282.244 213.15 278.904 210.436 276.237C209.436 275.317 207.707 276.91 208.582 277.97C209.097 278.583 209.698 279.298 210.131 279.875C211.905 281.486 216.103 289.67 218.331 288.65Z" fill="white"/>
    <path d="M199.088 291.97C201.099 292.579 213.119 296.05 211.17 291.308C208.824 291.172 206.016 291.128 203.707 290.456C202.125 290.357 199.646 288.798 198.595 290.554C198.315 291.051 198.477 291.803 199.088 291.97Z" fill="white"/>
    <path d="M272.411 312.731C281.484 316.099 292.486 311.396 298.328 304.269C299.207 302.536 296.842 302.294 296.297 303.781C283.158 317.115 269.091 306.876 272.411 312.731Z" fill="white"/>
    <path d="M359.628 158.487C363.807 157.238 354.832 147.023 354.194 144.212C352.914 142.587 348.819 131.457 346.93 133.046C345.054 134.38 347.628 136.695 348.089 138.259C351.838 144.851 355.312 152.982 359.628 158.487Z" fill="white"/>
    <path d="M337.015 146.148C339.579 146.833 342.095 147.628 344.533 148.681C346.058 149.438 347.335 146.935 345.503 146.436C343.982 145.518 334.138 141.752 337.015 146.148Z" fill="white"/>
    <path d="M123.59 18.0809C124.883 18.0221 125.298 15.4066 123.727 15.5077C122.423 15.5939 122.035 18.2212 123.59 18.0809Z" fill="black"/>
    <path d="M123.516 20.7447C127.193 20.0584 121.587 12.274 120.974 10.1569C120.149 8.53275 117.609 10.1978 118.267 11.6843C119.684 14.5716 120.956 17.4937 122.464 20.3224C122.694 20.6169 123.105 20.7944 123.516 20.7447Z" fill="black"/>
    <path d="M102.345 39.5783C106.705 38.2125 100.031 34.0286 98.6764 32.5008C97.629 31.6908 96.5266 29.6545 95.0927 31.0173C93.2647 33.2171 97.5218 34.7967 98.653 36.3905C99.9743 37.3188 100.823 39.1154 102.345 39.5783Z" fill="black"/>
    <path d="M80.9153 61.7786C84.6586 62.2911 88.22 63.3751 91.4929 65.2768C92.8706 66.977 95.4259 63.9215 93.3098 62.8771C91.8811 61.2198 76.4425 56.336 80.9153 61.7786Z" fill="black"/>
</svg>
