<svg width="161" height="41" viewBox="0 0 161 41" fill="none" xmlns="http://www.w3.org/2000/svg">
    <g clip-path="url(#clip0_245_22434)">
        <path d="M18.1813 9.89748C20.4207 9.89748 22.3852 9.02185 24.0749 7.27056C25.7645 5.51927 26.6093 3.48282 26.6093 1.16123C26.6093 0.90625 26.5892 0.543914 26.549 0.0742188C26.254 0.114478 26.0327 0.148028 25.8852 0.174868C23.8201 0.470105 22.0031 1.4833 20.4341 3.21442C18.8652 4.94559 18.0807 6.79753 18.0807 8.77025C18.0807 8.99834 18.1142 9.37414 18.1813 9.89748ZM26.207 40.6757C27.8028 40.6757 29.5662 39.5821 31.4972 37.3946C33.4282 35.2072 34.9033 32.6373 35.9224 29.6849C32.1275 27.7256 30.23 24.9142 30.23 21.2506C30.23 18.1909 31.7654 15.5741 34.8363 13.4001C32.7041 10.7295 29.888 9.39423 26.3881 9.39423C24.913 9.39423 23.5653 9.61566 22.345 10.0585L21.5807 10.3403L20.5548 10.7429C19.8843 10.9979 19.2742 11.1254 18.7244 11.1254C18.2952 11.1254 17.732 10.9778 17.0347 10.6825L16.2502 10.3605L15.506 10.0585C14.4198 9.60224 13.2532 9.3741 12.0061 9.3741C8.66702 9.3741 5.98507 10.5014 3.96018 12.7559C1.93528 15.0104 0.922852 17.9829 0.922852 21.6733C0.922852 26.8668 2.54542 31.6644 5.79061 36.066C8.04348 39.1391 10.1019 40.6757 11.9658 40.6757C12.757 40.6757 13.5415 40.5214 14.3192 40.2127L15.3049 39.8101L16.0894 39.5283C17.189 39.1391 18.2014 38.9446 19.1266 38.9446C20.1056 38.9446 21.232 39.1929 22.5059 39.6894L23.1295 39.9309C24.4302 40.4275 25.4561 40.6757 26.207 40.6757Z" fill="white"/>
    </g>
    <g clip-path="url(#clip1_245_22434)">
        <path d="M57.416 32.0176H61.4399V21.5447C61.4399 19.4792 62.7972 17.9784 64.7365 17.9784C66.6109 17.9784 67.7746 19.1566 67.7746 21.0606V32.0176H71.6851V21.4477C71.6851 19.3987 73.0102 17.9784 74.9491 17.9784C76.9207 17.9784 78.0194 19.1723 78.0194 21.27V32.0176H82.0433V20.286C82.0433 16.8656 79.8293 14.5898 76.452 14.5898C73.9794 14.5898 71.9437 15.9134 71.1192 18.0268H71.022C70.392 15.8324 68.6628 14.5898 66.239 14.5898C63.9121 14.5898 62.1022 15.8973 61.3588 17.8822H61.2781V14.9128H57.416V32.0176ZM90.8506 29.2581C89.1057 29.2581 87.9424 28.3708 87.9424 26.9667C87.9424 25.6117 89.0569 24.7401 90.9962 24.6108L94.9551 24.3687V25.6757C94.9551 27.7412 93.1292 29.2581 90.8506 29.2581ZM89.6385 32.2919C91.8364 32.2919 93.9859 31.1464 94.9717 29.2908H95.0524V32.0176H98.9306V20.2377C98.9306 16.8007 96.1672 14.5576 91.9175 14.5576C87.5544 14.5576 84.8237 16.849 84.6458 20.0439H88.3784C88.637 18.6241 89.8491 17.7042 91.7557 17.7042C93.7435 17.7042 94.9556 18.7369 94.9556 20.5281V21.7546L90.4307 22.0128C86.2616 22.271 83.9185 24.0944 83.9185 27.1282C83.9185 30.2099 86.3262 32.2919 89.6389 32.2919H89.6385ZM116.594 21.0123C116.319 17.4142 113.523 14.5576 108.998 14.5576C104.022 14.5576 100.79 17.9946 100.79 23.4648C100.79 29.0161 104.021 32.356 109.031 32.356C113.329 32.356 116.287 29.8385 116.61 26.0141H112.812C112.441 27.9507 111.115 29.1123 109.079 29.1123C106.526 29.1123 104.878 27.0468 104.878 23.4644C104.878 19.9469 106.51 17.8165 109.047 17.8165C111.196 17.8165 112.472 19.188 112.796 21.0118H116.594V21.0123ZM129.021 8.34497C122.218 8.34497 117.952 12.9762 117.952 20.3831C117.952 27.79 122.218 32.4051 129.021 32.4051C135.808 32.4051 140.074 27.79 140.074 20.3831C140.074 12.9762 135.808 8.34538 129.021 8.34538V8.34497ZM129.021 11.8951C133.174 11.8951 135.824 15.1871 135.824 20.3831C135.824 25.563 133.174 28.8549 129.021 28.8549C124.852 28.8549 122.218 25.563 122.218 20.3831C122.218 15.1871 124.852 11.8951 129.021 11.8951H129.021ZM141.772 25.4663C141.949 29.7584 145.472 32.4051 150.837 32.4051C156.477 32.4051 160.032 29.6295 160.032 25.2081C160.032 21.7389 158.028 19.7862 153.293 18.7051L150.611 18.0921C147.75 17.4142 146.571 16.5103 146.571 14.9612C146.571 13.025 148.349 11.734 150.983 11.734C153.649 11.734 155.475 13.0411 155.669 15.2194H159.644C159.547 11.121 156.154 8.34538 151.015 8.34538C145.941 8.34538 142.337 11.1367 142.337 15.2677C142.337 18.5919 144.373 20.6574 148.671 21.6418L151.693 22.3523C154.635 23.0459 155.83 24.0142 155.83 25.6923C155.83 27.6289 153.875 29.0165 151.063 29.0165C148.219 29.0165 146.07 27.6128 145.812 25.4663H141.772Z" fill="white"/>
    </g>
    <defs>
        <clipPath id="clip0_245_22434">
            <rect width="35.0013" height="40.6015" fill="white" transform="translate(0.920898 0.0742188)"/>
        </clipPath>
        <clipPath id="clip1_245_22434">
            <rect width="103.497" height="24.0602" fill="white" transform="translate(56.9746 8.34497)"/>
        </clipPath>
    </defs>
</svg>
