<svg width="1005" height="339" viewBox="0 0 1005 339" fill="none" xmlns="http://www.w3.org/2000/svg">
    <g filter="url(#filter0_f_201_20214)">
        <path d="M910.5 200.118L845.349 200.118C844.14 200.118 843.536 200.118 842.333 200.208C841.131 200.299 840.815 200.347 840.182 200.443C830.959 201.843 798.653 208.742 772.383 238.941C750.15 264.499 711.763 264.5 711.76 264.5C711.76 264.5 711.76 264.5 711.76 264.5C711.76 264.5 711.76 264.5 711.76 264.5L670.5 264.5" stroke="url(#paint0_linear_201_20214)" stroke-opacity="0.4" stroke-width="3" stroke-linecap="round"/>
        <path d="M910.5 129.882L845.349 129.882C844.14 129.882 843.536 129.882 842.333 129.792C841.131 129.701 840.815 129.653 840.182 129.557C830.959 128.157 798.653 121.258 772.383 91.0593C750.15 65.5008 711.763 65.5 711.76 65.5C711.76 65.5 711.76 65.5 711.76 65.5C711.76 65.5 711.76 65.5 711.76 65.5L670.5 65.5" stroke="url(#paint1_linear_201_20214)" stroke-opacity="0.4" stroke-width="3" stroke-linecap="round"/>
    </g>
    <path d="M910.5 200.118L842.75 200.118C842.75 200.118 803.367 203.322 772.383 238.941C750.149 264.5 711.76 264.5 711.76 264.5L670.5 264.5" stroke="url(#paint2_linear_201_20214)" stroke-linecap="round"/>
    <path d="M910.5 129.882L842.75 129.882C842.75 129.882 803.367 126.678 772.383 91.0593C750.149 65.4999 711.76 65.5 711.76 65.5L670.5 65.5" stroke="url(#paint3_linear_201_20214)" stroke-linecap="round"/>
    <g filter="url(#filter1_f_201_20214)">
        <path d="M93 200.118L158.151 200.118C159.36 200.118 159.964 200.118 161.167 200.208C162.369 200.299 162.685 200.347 163.318 200.443C172.541 201.843 204.847 208.742 231.117 238.941C253.35 264.499 291.737 264.5 291.74 264.5C291.74 264.5 291.74 264.5 291.74 264.5C291.74 264.5 291.74 264.5 291.74 264.5L333 264.5" stroke="url(#paint4_linear_201_20214)" stroke-opacity="0.4" stroke-width="3" stroke-linecap="round"/>
        <path d="M93 129.882L158.151 129.882C159.36 129.882 159.964 129.882 161.167 129.792C162.369 129.701 162.685 129.653 163.318 129.557C172.541 128.157 204.847 121.258 231.117 91.0593C253.35 65.5008 291.737 65.5 291.74 65.5C291.74 65.5 291.74 65.5 291.74 65.5C291.74 65.5 291.74 65.5 291.74 65.5L333 65.5" stroke="url(#paint5_linear_201_20214)" stroke-opacity="0.4" stroke-width="3" stroke-linecap="round"/>
    </g>
    <path d="M93 200.118L160.75 200.118C160.75 200.118 200.133 203.322 231.117 238.941C253.351 264.5 291.74 264.5 291.74 264.5L333 264.5" stroke="url(#paint6_linear_201_20214)" stroke-linecap="round"/>
    <path d="M93 129.882L160.75 129.882C160.75 129.882 200.133 126.678 231.117 91.0593C253.351 65.4999 291.74 65.5 291.74 65.5L333 65.5" stroke="url(#paint7_linear_201_20214)" stroke-linecap="round"/>
    <g filter="url(#filter2_f_201_20214)">
        <ellipse cx="500.74" cy="309.939" rx="305.927" ry="5.04831" fill="black"/>
    </g>
    <g filter="url(#filter3_b_201_20214)">
        <path d="M283.053 15.5066C283.053 7.21868 289.771 0.5 298.059 0.5H705.383C713.671 0.5 720.39 7.21871 720.39 15.5067V295.274C720.39 296.458 719.43 297.418 718.246 297.418H285.197C284.013 297.418 283.053 296.458 283.053 295.274V15.5066Z" fill="#141628" fill-opacity="0.3"/>
        <path d="M283.589 15.5066C283.589 7.51468 290.067 1.03595 298.059 1.03595H705.383C713.375 1.03595 719.854 7.51471 719.854 15.5067V295.274C719.854 296.162 719.134 296.882 718.246 296.882H285.197C284.309 296.882 283.589 296.162 283.589 295.274V15.5066Z" stroke="#4A5568" stroke-width="1.0719"/>
    </g>
    <g filter="url(#filter4_b_201_20214)">
        <path d="M286.194 14.9706C286.194 8.71259 291.267 3.63946 297.525 3.63946H705.921C712.179 3.63946 717.252 8.7126 717.252 14.9706V290.526H286.194V14.9706Z" stroke="black" stroke-width="0.919551"/>
    </g>
    <path d="M230.529 296.345C230.529 295.753 231.009 295.273 231.601 295.273H769.697C770.289 295.273 770.769 295.753 770.769 296.345V298.489H230.529V296.345Z" fill="#A3ACB1"/>
    <path d="M230.529 296.345C230.529 295.753 231.009 295.273 231.601 295.273H769.697C770.289 295.273 770.769 295.753 770.769 296.345V298.489H230.529V296.345Z" fill="url(#paint8_linear_201_20214)"/>
    <path d="M230.529 298.488H770.769L759.86 300.688C745.908 303.502 731.71 304.92 717.477 304.92H283.004C267.362 304.92 251.767 303.208 236.498 299.815L230.529 298.488Z" fill="#647279"/>
    <path d="M230.529 298.488H770.769L759.86 300.688C745.908 303.502 731.71 304.92 717.477 304.92H283.004C267.362 304.92 251.767 303.208 236.498 299.815L230.529 298.488Z" fill="url(#paint9_linear_201_20214)"/>
    <path fill-rule="evenodd" clip-rule="evenodd" d="M461.006 295.273C461.282 297.069 459.944 298.489 464.204 298.489H537.629C541.889 298.489 540.552 297.069 540.828 295.273H461.006Z" fill="#96A1A8"/>
    <path fill-rule="evenodd" clip-rule="evenodd" d="M461.006 295.273C461.282 297.069 459.944 298.489 464.204 298.489H537.629C541.889 298.489 540.552 297.069 540.828 295.273H461.006Z" fill="url(#paint10_linear_201_20214)"/>
    <g style="mix-blend-mode:multiply" opacity="0.7">
        <path d="M230.529 296.345C230.529 295.753 231.009 295.273 231.601 295.273H769.697C770.289 295.273 770.769 295.753 770.769 296.345V298.489H230.529V296.345Z" fill="#2F338E"/>
    </g>
    <g style="mix-blend-mode:multiply" opacity="0.7">
        <path d="M230.529 298.488H770.769L759.86 300.688C745.908 303.502 731.71 304.92 717.477 304.92H283.004C267.362 304.92 251.767 303.208 236.498 299.815L230.529 298.488Z" fill="#2F338E"/>
    </g>
    <path d="M286.36 15.2128C286.36 8.95478 291.433 3.88165 297.691 3.88165H706.087C712.345 3.88165 717.418 8.95479 717.418 15.2128V290.768H286.36V15.2128Z" stroke="#282839" stroke-width="0.919551"/>
    <g filter="url(#filter5_d_201_20214)">
        <rect x="333" y="20.5" width="337" height="252.358" rx="6.90102" fill="white"/>
        <line x1="333" y1="43.2383" x2="670" y2="43.2383" stroke="#5C5171"/>
        <circle cx="345.449" cy="32.9486" r="3.04233" stroke="#5C5171"/>
        <circle cx="356.513" cy="32.9486" r="3.04233" stroke="#5C5171"/>
        <circle cx="367.576" cy="32.9486" r="3.04233" stroke="#5C5171"/>
        <rect opacity="0.5" x="351" y="105.5" width="19.5529" height="18.4027" rx="3.45051" fill="#FDC43A"/>
        <rect x="378.39" y="105.5" width="48.3072" height="18.4027" rx="3.45051" fill="#FDC43A"/>
        <path d="M404.215 117.569H400.378L399.744 119.405H397.715L401.179 109.757H403.429L406.893 119.405H404.85L404.215 117.569ZM403.691 116.024L402.297 111.993L400.903 116.024H403.691Z" fill="#5C5171"/>
        <rect x="434.534" y="105.5" width="48.3072" height="18.4027" rx="3.45051" fill="#FDC43A"/>
        <path d="M460.424 114.464C460.967 114.565 461.413 114.837 461.763 115.278C462.112 115.72 462.287 116.226 462.287 116.796C462.287 117.312 462.158 117.767 461.901 118.163C461.652 118.549 461.289 118.853 460.81 119.074C460.332 119.295 459.766 119.405 459.113 119.405H454.958V109.771H458.933C459.586 109.771 460.148 109.877 460.617 110.089C461.095 110.3 461.454 110.595 461.693 110.972C461.942 111.349 462.066 111.777 462.066 112.256C462.066 112.817 461.914 113.286 461.611 113.663C461.316 114.041 460.921 114.307 460.424 114.464ZM456.89 113.746H458.657C459.117 113.746 459.471 113.645 459.72 113.443C459.968 113.231 460.092 112.932 460.092 112.545C460.092 112.159 459.968 111.86 459.72 111.648C459.471 111.437 459.117 111.331 458.657 111.331H456.89V113.746ZM458.836 117.832C459.306 117.832 459.669 117.721 459.927 117.5C460.194 117.28 460.327 116.967 460.327 116.562C460.327 116.148 460.189 115.826 459.913 115.596C459.637 115.356 459.264 115.237 458.795 115.237H456.89V117.832H458.836Z" fill="#5C5171"/>
        <rect x="490.679" y="105.5" width="48.3072" height="18.4027" rx="3.45051" fill="#FDC43A"/>
        <path d="M509.771 114.574C509.771 113.627 509.982 112.78 510.406 112.035C510.838 111.28 511.422 110.696 512.158 110.282C512.904 109.859 513.737 109.647 514.657 109.647C515.733 109.647 516.676 109.923 517.486 110.475C518.296 111.027 518.862 111.791 519.184 112.766H516.962C516.741 112.306 516.428 111.961 516.023 111.731C515.627 111.501 515.167 111.386 514.643 111.386C514.082 111.386 513.58 111.519 513.138 111.786C512.706 112.044 512.366 112.412 512.117 112.89C511.878 113.369 511.758 113.93 511.758 114.574C511.758 115.209 511.878 115.77 512.117 116.258C512.366 116.737 512.706 117.109 513.138 117.376C513.58 117.634 514.082 117.763 514.643 117.763C515.167 117.763 515.627 117.648 516.023 117.418C516.428 117.178 516.741 116.829 516.962 116.369H519.184C518.862 117.353 518.296 118.121 517.486 118.674C516.686 119.216 515.742 119.488 514.657 119.488C513.737 119.488 512.904 119.281 512.158 118.867C511.422 118.443 510.838 117.859 510.406 117.114C509.982 116.369 509.771 115.522 509.771 114.574Z" fill="#5C5171"/>
        <rect x="546.823" y="105.5" width="48.3072" height="18.4027" rx="3.45051" fill="#FDC43A"/>
        <path d="M570.103 109.771C571.115 109.771 572.003 109.969 572.766 110.365C573.539 110.76 574.133 111.326 574.547 112.062C574.97 112.789 575.182 113.636 575.182 114.602C575.182 115.568 574.97 116.415 574.547 117.141C574.133 117.859 573.539 118.416 572.766 118.812C572.003 119.207 571.115 119.405 570.103 119.405H566.735V109.771H570.103ZM570.034 117.763C571.046 117.763 571.828 117.487 572.38 116.934C572.932 116.382 573.208 115.605 573.208 114.602C573.208 113.599 572.932 112.817 572.38 112.256C571.828 111.685 571.046 111.4 570.034 111.4H568.667V117.763H570.034Z" fill="#5C5171"/>
        <rect x="602.968" y="105.5" width="48.3072" height="18.4027" rx="3.45051" fill="#FDC43A"/>
        <path d="M626.086 111.331V113.746H629.329V115.278H626.086V117.832H629.743V119.405H624.153V109.757H629.743V111.331H626.086Z" fill="#5C5171"/>
        <rect x="351" y="131.74" width="19.5529" height="13.802" rx="3.45051" fill="#FDC43A"/>
        <path d="M359.553 136.34V135.153H361.77V141.861H360.445V136.34H359.553Z" fill="#5C5171"/>
        <rect x="378.39" y="131.74" width="48.3072" height="13.802" rx="3.45051" fill="#FDC43A" fill-opacity="0.25"/>
        <rect x="434.534" y="131.74" width="48.3072" height="13.802" rx="3.45051" fill="#FDC43A" fill-opacity="0.25"/>
        <rect x="490.679" y="131.74" width="48.3072" height="13.802" rx="3.45051" fill="#FDC43A" fill-opacity="0.25"/>
        <rect x="546.823" y="131.74" width="48.3072" height="13.802" rx="3.45051" fill="#FDC43A" fill-opacity="0.25"/>
        <rect x="602.968" y="131.74" width="48.3072" height="13.802" rx="3.45051" fill="#FDC43A" fill-opacity="0.25"/>
        <rect x="351" y="153.379" width="19.5529" height="13.802" rx="3.45051" fill="#FDC43A"/>
        <path d="M359.139 162.046C359.728 161.555 360.197 161.147 360.547 160.822C360.897 160.491 361.188 160.147 361.421 159.792C361.654 159.436 361.771 159.086 361.771 158.743C361.771 158.43 361.697 158.184 361.55 158.007C361.403 157.829 361.176 157.74 360.869 157.74C360.562 157.74 360.326 157.844 360.161 158.053C359.995 158.255 359.909 158.534 359.903 158.89H358.652C358.676 158.154 358.894 157.596 359.305 157.215C359.722 156.835 360.249 156.645 360.887 156.645C361.587 156.645 362.123 156.832 362.498 157.206C362.872 157.574 363.059 158.062 363.059 158.669C363.059 159.148 362.93 159.605 362.672 160.04C362.415 160.476 362.12 160.856 361.789 161.181C361.458 161.5 361.025 161.886 360.492 162.34H363.206V163.408H358.661V162.451L359.139 162.046Z" fill="#5C5171"/>
        <rect x="378.39" y="153.379" width="48.3072" height="13.802" rx="3.45051" fill="#FDC43A" fill-opacity="0.25"/>
        <rect x="434.534" y="153.379" width="48.3072" height="13.802" rx="3.45051" fill="#FDC43A" fill-opacity="0.25"/>
        <rect x="490.679" y="153.379" width="48.3072" height="13.802" rx="3.45051" fill="#FDC43A" fill-opacity="0.25"/>
        <rect x="546.823" y="153.379" width="48.3072" height="13.802" rx="3.45051" fill="#FDC43A" fill-opacity="0.25"/>
        <rect x="602.968" y="153.379" width="48.3072" height="13.802" rx="3.45051" fill="#FDC43A" fill-opacity="0.25"/>
        <rect x="351" y="175.019" width="19.5529" height="13.802" rx="3.45051" fill="#FDC43A"/>
        <path d="M358.64 180.198C358.671 179.585 358.886 179.112 359.284 178.781C359.689 178.444 360.22 178.275 360.876 178.275C361.324 178.275 361.708 178.355 362.026 178.514C362.345 178.668 362.585 178.879 362.744 179.149C362.91 179.413 362.993 179.713 362.993 180.051C362.993 180.437 362.891 180.765 362.689 181.035C362.493 181.299 362.257 181.477 361.98 181.569V181.606C362.336 181.716 362.612 181.913 362.809 182.195C363.011 182.477 363.112 182.839 363.112 183.28C363.112 183.649 363.026 183.977 362.855 184.265C362.689 184.553 362.441 184.78 362.109 184.946C361.784 185.105 361.392 185.185 360.932 185.185C360.238 185.185 359.674 185.01 359.238 184.661C358.803 184.311 358.573 183.796 358.548 183.115H359.8C359.812 183.415 359.913 183.658 360.103 183.842C360.3 184.02 360.567 184.109 360.904 184.109C361.217 184.109 361.456 184.023 361.622 183.851C361.793 183.673 361.879 183.446 361.879 183.17C361.879 182.802 361.763 182.538 361.53 182.379C361.297 182.219 360.935 182.14 360.444 182.14H360.177V181.081H360.444C361.315 181.081 361.75 180.79 361.75 180.207C361.75 179.943 361.671 179.738 361.511 179.591C361.358 179.444 361.134 179.37 360.84 179.37C360.551 179.37 360.327 179.45 360.168 179.609C360.014 179.762 359.926 179.959 359.901 180.198H358.64Z" fill="#5C5171"/>
        <rect x="378.39" y="175.019" width="48.3072" height="13.802" rx="3.45051" fill="#FDC43A" fill-opacity="0.25"/>
        <rect x="434.534" y="175.019" width="48.3072" height="13.802" rx="3.45051" fill="#FDC43A" fill-opacity="0.25"/>
        <rect x="490.679" y="175.019" width="48.3072" height="13.802" rx="3.45051" fill="#FDC43A" fill-opacity="0.25"/>
        <rect x="546.823" y="175.019" width="48.3072" height="13.802" rx="3.45051" fill="#FDC43A" fill-opacity="0.25"/>
        <rect x="602.968" y="175.019" width="48.3072" height="13.802" rx="3.45051" fill="#FDC43A" fill-opacity="0.25"/>
        <rect x="351" y="196.658" width="19.5529" height="13.802" rx="3.45051" fill="#FDC43A"/>
        <path d="M358.279 205.472V204.46L361.288 200.153H362.788V204.349H363.598V205.472H362.788V206.778H361.5V205.472H358.279ZM361.583 201.534L359.696 204.349H361.583V201.534Z" fill="#5C5171"/>
        <rect x="378.39" y="196.658" width="48.3072" height="13.802" rx="3.45051" fill="#FDC43A" fill-opacity="0.25"/>
        <rect x="434.534" y="196.658" width="48.3072" height="13.802" rx="3.45051" fill="#FDC43A" fill-opacity="0.25"/>
        <rect x="490.679" y="196.658" width="48.3072" height="13.802" rx="3.45051" fill="#FDC43A" fill-opacity="0.25"/>
        <rect x="546.823" y="196.658" width="48.3072" height="13.802" rx="3.45051" fill="#FDC43A" fill-opacity="0.25"/>
        <rect x="602.968" y="196.658" width="48.3072" height="13.802" rx="3.45051" fill="#FDC43A" fill-opacity="0.25"/>
        <rect x="351" y="218.297" width="19.5529" height="13.802" rx="3.45051" fill="#FDC43A"/>
        <path d="M362.924 222.823H359.943V224.396C360.072 224.237 360.256 224.108 360.495 224.01C360.734 223.906 360.989 223.854 361.259 223.854C361.749 223.854 362.151 223.961 362.464 224.176C362.777 224.39 363.004 224.666 363.145 225.004C363.286 225.335 363.356 225.691 363.356 226.071C363.356 226.777 363.154 227.344 362.749 227.773C362.35 228.203 361.78 228.417 361.038 228.417C360.338 228.417 359.78 228.243 359.363 227.893C358.946 227.543 358.71 227.086 358.655 226.522H359.906C359.961 226.767 360.084 226.964 360.274 227.111C360.47 227.258 360.719 227.332 361.019 227.332C361.381 227.332 361.654 227.218 361.838 226.991C362.022 226.764 362.114 226.464 362.114 226.09C362.114 225.709 362.019 225.421 361.829 225.225C361.645 225.022 361.372 224.921 361.01 224.921C360.752 224.921 360.538 224.985 360.366 225.114C360.194 225.243 360.072 225.415 359.998 225.629H358.765V221.691H362.924V222.823Z" fill="#5C5171"/>
        <rect x="378.39" y="218.297" width="48.3072" height="13.802" rx="3.45051" fill="#FDC43A" fill-opacity="0.25"/>
        <rect x="434.534" y="218.297" width="48.3072" height="13.802" rx="3.45051" fill="#FDC43A" fill-opacity="0.25"/>
        <rect x="490.679" y="218.297" width="48.3072" height="13.802" rx="3.45051" fill="#FDC43A" fill-opacity="0.25"/>
        <rect x="546.823" y="218.297" width="48.3072" height="13.802" rx="3.45051" fill="#FDC43A" fill-opacity="0.25"/>
        <rect x="602.968" y="218.297" width="48.3072" height="13.802" rx="3.45051" fill="#FDC43A" fill-opacity="0.25"/>
        <rect x="351" y="239.936" width="19.5529" height="13.802" rx="3.45051" fill="#FDC43A"/>
        <path d="M361.911 245.024C361.85 244.766 361.743 244.573 361.589 244.444C361.442 244.315 361.227 244.251 360.945 244.251C360.522 244.251 360.209 244.423 360.007 244.766C359.81 245.103 359.709 245.656 359.703 246.422C359.85 246.177 360.065 245.987 360.347 245.852C360.629 245.711 360.936 245.64 361.267 245.64C361.666 245.64 362.019 245.726 362.325 245.898C362.632 246.07 362.871 246.321 363.043 246.652C363.215 246.977 363.301 247.37 363.301 247.83C363.301 248.266 363.212 248.655 363.034 248.999C362.862 249.336 362.608 249.6 362.27 249.79C361.933 249.98 361.531 250.075 361.065 250.075C360.427 250.075 359.924 249.934 359.556 249.652C359.194 249.37 358.939 248.977 358.792 248.474C358.651 247.965 358.581 247.339 358.581 246.597C358.581 245.475 358.774 244.628 359.16 244.058C359.547 243.481 360.157 243.193 360.991 243.193C361.635 243.193 362.135 243.367 362.491 243.717C362.847 244.067 363.052 244.502 363.108 245.024H361.911ZM360.973 246.698C360.648 246.698 360.375 246.793 360.154 246.984C359.933 247.174 359.823 247.45 359.823 247.812C359.823 248.174 359.924 248.459 360.126 248.667C360.335 248.876 360.626 248.98 361 248.98C361.332 248.98 361.592 248.879 361.783 248.677C361.979 248.474 362.077 248.201 362.077 247.858C362.077 247.502 361.982 247.22 361.792 247.011C361.608 246.803 361.335 246.698 360.973 246.698Z" fill="#5C5171"/>
        <rect x="378.39" y="239.936" width="48.3072" height="13.802" rx="3.45051" fill="#FDC43A" fill-opacity="0.25"/>
        <rect x="434.534" y="239.936" width="48.3072" height="13.802" rx="3.45051" fill="#FDC43A" fill-opacity="0.25"/>
        <rect x="490.679" y="239.936" width="48.3072" height="13.802" rx="3.45051" fill="#FDC43A" fill-opacity="0.25"/>
        <rect x="546.823" y="239.936" width="48.3072" height="13.802" rx="3.45051" fill="#FDC43A" fill-opacity="0.25"/>
        <rect x="602.968" y="239.936" width="48.3072" height="13.802" rx="3.45051" fill="#FDC43A" fill-opacity="0.25"/>
        <path opacity="0.4" d="M430.67 89.5C426.994 89.5 424 86.4546 424 82.7132V75.2715C424 71.5377 426.985 68.5 430.655 68.5H447.33C451.007 68.5 454 71.5454 454 75.2883V82.7269C454 86.4623 451.015 89.5 447.344 89.5H445.934H430.67Z" fill="#5D6483"/>
        <path d="M438.183 59.8302L433.82 64.0989C433.37 64.5401 433.37 65.2501 433.823 65.6898C434.276 66.128 435.006 66.1266 435.456 65.6869L437.846 63.348V65.5904V78.1759C437.846 78.7968 438.363 79.3008 439.001 79.3008C439.64 79.3008 440.156 78.7968 440.156 78.1759V63.348L442.545 65.6869C442.995 66.1266 443.726 66.128 444.179 65.6898C444.405 65.4692 444.519 65.1814 444.519 64.8921C444.519 64.6058 444.405 64.318 444.182 64.0989L439.82 59.8302C439.602 59.6184 439.308 59.4986 439.001 59.4986C438.695 59.4986 438.401 59.6184 438.183 59.8302Z" fill="#5D6483"/>
        <path opacity="0.4" d="M487 75.8182V73.1782C487 71.6182 488.275 70.3282 489.85 70.3282C492.565 70.3282 493.675 68.4082 492.31 66.0532C491.53 64.7032 491.995 62.9482 493.36 62.1682L495.955 60.6832C497.14 59.9782 498.67 60.3982 499.375 61.5832L499.54 61.8682C500.89 64.2232 503.11 64.2232 504.475 61.8682L504.64 61.5832C505.345 60.3982 506.875 59.9782 508.06 60.6832L510.655 62.1682C512.02 62.9482 512.485 64.7032 511.705 66.0532C510.34 68.4082 511.45 70.3282 514.165 70.3282C515.725 70.3282 517.015 71.6032 517.015 73.1782V75.8182C517.015 77.3782 515.74 78.6682 514.165 78.6682C511.45 78.6682 510.34 80.5882 511.705 82.9432C512.485 84.3082 512.02 86.0482 510.655 86.8282L508.06 88.3132C506.875 89.0182 505.345 88.5982 504.64 87.4132L504.475 87.1282C503.125 84.7732 500.905 84.7732 499.54 87.1282L499.375 87.4132C498.67 88.5982 497.14 89.0182 495.955 88.3132L493.36 86.8282C491.995 86.0482 491.53 84.2932 492.31 82.9432C493.675 80.5882 492.565 78.6682 489.85 78.6682C488.275 78.6682 487 77.3782 487 75.8182Z" fill="#5D6483"/>
        <path d="M502 79.375C504.692 79.375 506.875 77.1924 506.875 74.5C506.875 71.8076 504.692 69.625 502 69.625C499.308 69.625 497.125 71.8076 497.125 74.5C497.125 77.1924 499.308 79.375 502 79.375Z" fill="#5D6483"/>
        <path opacity="0.4" d="M571.51 59.5H558.505C553.42 59.5 550 63.07 550 68.38V80.635C550 85.93 553.42 89.5 558.505 89.5H571.51C576.595 89.5 580 85.93 580 80.635V68.38C580 63.07 576.595 59.5 571.51 59.5Z" fill="#5D6483"/>
        <path fill-rule="evenodd" clip-rule="evenodd" d="M563.688 68.7852C563.688 69.5082 564.274 70.0977 564.993 70.0977C565.732 70.0977 566.32 69.5082 566.32 68.7852C566.32 68.0622 565.732 67.4727 565.007 67.4727C564.28 67.4727 563.688 68.0622 563.688 68.7852ZM566.305 73.543C566.305 72.82 565.715 72.2305 564.992 72.2305C564.269 72.2305 563.68 72.82 563.68 73.543V80.173C563.68 80.896 564.269 81.4855 564.992 81.4855C565.715 81.4855 566.305 80.896 566.305 80.173V73.543Z" fill="#5D6483"/>
    </g>
    <path d="M15.5155 135.626C14.6395 135.626 13.8475 135.476 13.1395 135.176C12.4435 134.876 11.8915 134.444 11.4835 133.88C11.0755 133.316 10.8655 132.65 10.8535 131.882H13.5535C13.5895 132.398 13.7695 132.806 14.0935 133.106C14.4295 133.406 14.8855 133.556 15.4615 133.556C16.0495 133.556 16.5115 133.418 16.8475 133.142C17.1835 132.854 17.3515 132.482 17.3515 132.026C17.3515 131.654 17.2375 131.348 17.0095 131.108C16.7815 130.868 16.4935 130.682 16.1455 130.55C15.8095 130.406 15.3415 130.25 14.7415 130.082C13.9255 129.842 13.2595 129.608 12.7435 129.38C12.2395 129.14 11.8015 128.786 11.4295 128.318C11.0695 127.838 10.8895 127.202 10.8895 126.41C10.8895 125.666 11.0755 125.018 11.4475 124.466C11.8195 123.914 12.3415 123.494 13.0135 123.206C13.6855 122.906 14.4535 122.756 15.3175 122.756C16.6135 122.756 17.6635 123.074 18.4675 123.71C19.2835 124.334 19.7335 125.21 19.8175 126.338H17.0455C17.0215 125.906 16.8355 125.552 16.4875 125.276C16.1515 124.988 15.7015 124.844 15.1375 124.844C14.6455 124.844 14.2495 124.97 13.9495 125.222C13.6615 125.474 13.5175 125.84 13.5175 126.32C13.5175 126.656 13.6255 126.938 13.8415 127.166C14.0695 127.382 14.3455 127.562 14.6695 127.706C15.0055 127.838 15.4735 127.994 16.0735 128.174C16.8895 128.414 17.5555 128.654 18.0715 128.894C18.5875 129.134 19.0315 129.494 19.4035 129.974C19.7755 130.454 19.9615 131.084 19.9615 131.864C19.9615 132.536 19.7875 133.16 19.4395 133.736C19.0915 134.312 18.5815 134.774 17.9095 135.122C17.2375 135.458 16.4395 135.626 15.5155 135.626ZM23.4243 124.34C22.9803 124.34 22.6083 124.202 22.3083 123.926C22.0203 123.638 21.8763 123.284 21.8763 122.864C21.8763 122.444 22.0203 122.096 22.3083 121.82C22.6083 121.532 22.9803 121.388 23.4243 121.388C23.8683 121.388 24.2343 121.532 24.5223 121.82C24.8223 122.096 24.9723 122.444 24.9723 122.864C24.9723 123.284 24.8223 123.638 24.5223 123.926C24.2343 124.202 23.8683 124.34 23.4243 124.34ZM24.6663 125.528V135.5H22.1463V125.528H24.6663ZM39.5401 125.384C40.7641 125.384 41.7481 125.762 42.4921 126.518C43.2481 127.262 43.6261 128.306 43.6261 129.65V135.5H41.1061V129.992C41.1061 129.212 40.9081 128.618 40.5121 128.21C40.1161 127.79 39.5761 127.58 38.8921 127.58C38.2081 127.58 37.6621 127.79 37.2541 128.21C36.8581 128.618 36.6601 129.212 36.6601 129.992V135.5H34.1401V129.992C34.1401 129.212 33.9421 128.618 33.5461 128.21C33.1501 127.79 32.6101 127.58 31.9261 127.58C31.2301 127.58 30.6781 127.79 30.2701 128.21C29.8741 128.618 29.6761 129.212 29.6761 129.992V135.5H27.1561V125.528H29.6761V126.734C30.0001 126.314 30.4141 125.984 30.9181 125.744C31.4341 125.504 31.9981 125.384 32.6101 125.384C33.3901 125.384 34.0861 125.552 34.6981 125.888C35.3101 126.212 35.7841 126.68 36.1201 127.292C36.4441 126.716 36.9121 126.254 37.5241 125.906C38.1481 125.558 38.8201 125.384 39.5401 125.384ZM48.5374 126.968C48.8614 126.512 49.3054 126.134 49.8694 125.834C50.4454 125.522 51.0994 125.366 51.8314 125.366C52.6834 125.366 53.4514 125.576 54.1354 125.996C54.8314 126.416 55.3774 127.016 55.7734 127.796C56.1814 128.564 56.3854 129.458 56.3854 130.478C56.3854 131.498 56.1814 132.404 55.7734 133.196C55.3774 133.976 54.8314 134.582 54.1354 135.014C53.4514 135.446 52.6834 135.662 51.8314 135.662C51.0994 135.662 50.4514 135.512 49.8874 135.212C49.3354 134.912 48.8854 134.534 48.5374 134.078V140.252H46.0174V125.528H48.5374V126.968ZM53.8114 130.478C53.8114 129.878 53.6854 129.362 53.4334 128.93C53.1934 128.486 52.8694 128.15 52.4614 127.922C52.0654 127.694 51.6334 127.58 51.1654 127.58C50.7094 127.58 50.2774 127.7 49.8694 127.94C49.4734 128.168 49.1494 128.504 48.8974 128.948C48.6574 129.392 48.5374 129.914 48.5374 130.514C48.5374 131.114 48.6574 131.636 48.8974 132.08C49.1494 132.524 49.4734 132.866 49.8694 133.106C50.2774 133.334 50.7094 133.448 51.1654 133.448C51.6334 133.448 52.0654 133.328 52.4614 133.088C52.8694 132.848 53.1934 132.506 53.4334 132.062C53.6854 131.618 53.8114 131.09 53.8114 130.478ZM60.7366 122.18V135.5H58.2166V122.18H60.7366ZM72.4964 130.298C72.4964 130.658 72.4724 130.982 72.4244 131.27H65.1344C65.1944 131.99 65.4464 132.554 65.8904 132.962C66.3344 133.37 66.8804 133.574 67.5284 133.574C68.4644 133.574 69.1304 133.172 69.5264 132.368H72.2444C71.9564 133.328 71.4044 134.12 70.5884 134.744C69.7724 135.356 68.7704 135.662 67.5824 135.662C66.6224 135.662 65.7584 135.452 64.9904 135.032C64.2344 134.6 63.6404 133.994 63.2084 133.214C62.7884 132.434 62.5784 131.534 62.5784 130.514C62.5784 129.482 62.7884 128.576 63.2084 127.796C63.6284 127.016 64.2164 126.416 64.9724 125.996C65.7284 125.576 66.5984 125.366 67.5824 125.366C68.5304 125.366 69.3764 125.57 70.1204 125.978C70.8764 126.386 71.4584 126.968 71.8664 127.724C72.2864 128.468 72.4964 129.326 72.4964 130.298ZM69.8864 129.578C69.8744 128.93 69.6404 128.414 69.1844 128.03C68.7284 127.634 68.1704 127.436 67.5104 127.436C66.8864 127.436 66.3584 127.628 65.9264 128.012C65.5064 128.384 65.2484 128.906 65.1524 129.578H69.8864ZM81.1448 122.936V135.5H78.6248V122.936H81.1448ZM89.1606 125.384C90.3486 125.384 91.3086 125.762 92.0406 126.518C92.7726 127.262 93.1386 128.306 93.1386 129.65V135.5H90.6186V129.992C90.6186 129.2 90.4206 128.594 90.0246 128.174C89.6286 127.742 89.0886 127.526 88.4046 127.526C87.7086 127.526 87.1566 127.742 86.7486 128.174C86.3526 128.594 86.1546 129.2 86.1546 129.992V135.5H83.6346V125.528H86.1546V126.77C86.4906 126.338 86.9166 126.002 87.4326 125.762C87.9606 125.51 88.5366 125.384 89.1606 125.384ZM98.469 127.598V132.422C98.469 132.758 98.547 133.004 98.703 133.16C98.871 133.304 99.147 133.376 99.531 133.376H100.701V135.5H99.117C96.993 135.5 95.931 134.468 95.931 132.404V127.598H94.743V125.528H95.931V123.062H98.469V125.528H100.701V127.598H98.469ZM111.783 130.298C111.783 130.658 111.759 130.982 111.711 131.27H104.421C104.481 131.99 104.733 132.554 105.177 132.962C105.621 133.37 106.167 133.574 106.815 133.574C107.751 133.574 108.417 133.172 108.813 132.368H111.531C111.243 133.328 110.691 134.12 109.875 134.744C109.059 135.356 108.057 135.662 106.869 135.662C105.909 135.662 105.045 135.452 104.277 135.032C103.521 134.6 102.927 133.994 102.495 133.214C102.075 132.434 101.865 131.534 101.865 130.514C101.865 129.482 102.075 128.576 102.495 127.796C102.915 127.016 103.503 126.416 104.259 125.996C105.015 125.576 105.885 125.366 106.869 125.366C107.817 125.366 108.663 125.57 109.407 125.978C110.163 126.386 110.745 126.968 111.153 127.724C111.573 128.468 111.783 129.326 111.783 130.298ZM109.173 129.578C109.161 128.93 108.927 128.414 108.471 128.03C108.015 127.634 107.457 127.436 106.797 127.436C106.173 127.436 105.645 127.628 105.213 128.012C104.793 128.384 104.535 128.906 104.439 129.578H109.173ZM116.143 127.076C116.467 126.548 116.887 126.134 117.403 125.834C117.931 125.534 118.531 125.384 119.203 125.384V128.03H118.537C117.745 128.03 117.145 128.216 116.737 128.588C116.341 128.96 116.143 129.608 116.143 130.532V135.5H113.623V125.528H116.143V127.076ZM125.472 127.598H123.726V135.5H121.17V127.598H120.036V125.528H121.17V125.024C121.17 123.8 121.518 122.9 122.214 122.324C122.91 121.748 123.96 121.478 125.364 121.514V123.638C124.752 123.626 124.326 123.728 124.086 123.944C123.846 124.16 123.726 124.55 123.726 125.114V125.528H125.472V127.598ZM126.457 130.478C126.457 129.47 126.655 128.576 127.051 127.796C127.459 127.016 128.005 126.416 128.689 125.996C129.385 125.576 130.159 125.366 131.011 125.366C131.755 125.366 132.403 125.516 132.955 125.816C133.519 126.116 133.969 126.494 134.305 126.95V125.528H136.843V135.5H134.305V134.042C133.981 134.51 133.531 134.9 132.955 135.212C132.391 135.512 131.737 135.662 130.993 135.662C130.153 135.662 129.385 135.446 128.689 135.014C128.005 134.582 127.459 133.976 127.051 133.196C126.655 132.404 126.457 131.498 126.457 130.478ZM134.305 130.514C134.305 129.902 134.185 129.38 133.945 128.948C133.705 128.504 133.381 128.168 132.973 127.94C132.565 127.7 132.127 127.58 131.659 127.58C131.191 127.58 130.759 127.694 130.363 127.922C129.967 128.15 129.643 128.486 129.391 128.93C129.151 129.362 129.031 129.878 129.031 130.478C129.031 131.078 129.151 131.606 129.391 132.062C129.643 132.506 129.967 132.848 130.363 133.088C130.771 133.328 131.203 133.448 131.659 133.448C132.127 133.448 132.565 133.334 132.973 133.106C133.381 132.866 133.705 132.53 133.945 132.098C134.185 131.654 134.305 131.126 134.305 130.514ZM138.656 130.514C138.656 129.482 138.867 128.582 139.287 127.814C139.707 127.034 140.289 126.434 141.033 126.014C141.777 125.582 142.629 125.366 143.589 125.366C144.825 125.366 145.845 125.678 146.649 126.302C147.465 126.914 148.011 127.778 148.287 128.894H145.569C145.425 128.462 145.179 128.126 144.831 127.886C144.495 127.634 144.075 127.508 143.571 127.508C142.851 127.508 142.281 127.772 141.861 128.3C141.441 128.816 141.231 129.554 141.231 130.514C141.231 131.462 141.441 132.2 141.861 132.728C142.281 133.244 142.851 133.502 143.571 133.502C144.591 133.502 145.257 133.046 145.569 132.134H148.287C148.011 133.214 147.465 134.072 146.649 134.708C145.833 135.344 144.813 135.662 143.589 135.662C142.629 135.662 141.777 135.452 141.033 135.032C140.289 134.6 139.707 134 139.287 133.232C138.867 132.452 138.656 131.546 138.656 130.514ZM159.403 130.298C159.403 130.658 159.379 130.982 159.331 131.27H152.041C152.101 131.99 152.353 132.554 152.797 132.962C153.241 133.37 153.787 133.574 154.435 133.574C155.371 133.574 156.037 133.172 156.433 132.368H159.151C158.863 133.328 158.311 134.12 157.495 134.744C156.679 135.356 155.677 135.662 154.489 135.662C153.529 135.662 152.665 135.452 151.897 135.032C151.141 134.6 150.547 133.994 150.115 133.214C149.695 132.434 149.485 131.534 149.485 130.514C149.485 129.482 149.695 128.576 150.115 127.796C150.535 127.016 151.123 126.416 151.879 125.996C152.635 125.576 153.505 125.366 154.489 125.366C155.437 125.366 156.283 125.57 157.027 125.978C157.783 126.386 158.365 126.968 158.773 127.724C159.193 128.468 159.403 129.326 159.403 130.298ZM156.793 129.578C156.781 128.93 156.547 128.414 156.091 128.03C155.635 127.634 155.077 127.436 154.417 127.436C153.793 127.436 153.265 127.628 152.833 128.012C152.413 128.384 152.155 128.906 152.059 129.578H156.793Z" fill="white"/>
    <path d="M8.2195 194.918H0.9295V207.5H8.2195V205.448H3.4495V202.118H7.6795V200.12H3.4495V196.97H8.2195V194.918ZM9.86158 202.478C9.86158 205.592 11.8776 207.662 14.3976 207.662C15.9816 207.662 17.1156 206.906 17.7096 206.042V207.5H20.2476V197.528H17.7096V198.95C17.1156 198.122 16.0176 197.366 14.4156 197.366C11.8776 197.366 9.86158 199.364 9.86158 202.478ZM17.7096 202.514C17.7096 204.404 16.4496 205.448 15.0636 205.448C13.7136 205.448 12.4356 204.368 12.4356 202.478C12.4356 200.588 13.7136 199.58 15.0636 199.58C16.4496 199.58 17.7096 200.624 17.7096 202.514ZM30.4488 204.656C30.3768 201.002 24.8508 202.136 24.8508 200.318C24.8508 199.742 25.3368 199.364 26.2728 199.364C27.2628 199.364 27.8748 199.886 27.9468 200.66H30.3588C30.2148 198.68 28.7568 197.366 26.3448 197.366C23.8788 197.366 22.4028 198.698 22.4028 200.354C22.4028 204.008 28.0368 202.874 28.0368 204.656C28.0368 205.232 27.4968 205.682 26.5068 205.682C25.4988 205.682 24.7968 205.106 24.7068 204.35H22.1688C22.2768 206.204 24.0228 207.662 26.5248 207.662C28.9548 207.662 30.4488 206.366 30.4488 204.656ZM36.7654 204.494L34.1914 197.528H31.3654L35.3614 207.248L33.2014 212.216H35.8834L42.0574 197.528H39.3754L36.7654 204.494ZM47.7049 207.5H50.2249V199.328L53.6089 207.5H55.5169L58.8829 199.328V207.5H61.4029V194.936H58.5589L54.5629 204.278L50.5669 194.936H47.7049V207.5ZM63.2463 202.478C63.2463 205.592 65.2623 207.662 67.7823 207.662C69.3663 207.662 70.5003 206.906 71.0943 206.042V207.5H73.6323V197.528H71.0943V198.95C70.5003 198.122 69.4023 197.366 67.8003 197.366C65.2623 197.366 63.2463 199.364 63.2463 202.478ZM71.0943 202.514C71.0943 204.404 69.8343 205.448 68.4483 205.448C67.0983 205.448 65.8203 204.368 65.8203 202.478C65.8203 200.588 67.0983 199.58 68.4483 199.58C69.8343 199.58 71.0943 200.624 71.0943 202.514ZM83.0776 207.5H85.5976V201.65C85.5976 198.896 83.9416 197.384 81.6196 197.384C80.3416 197.384 79.2616 197.924 78.6136 198.77V197.528H76.0936V207.5H78.6136V201.992C78.6136 200.39 79.4956 199.526 80.8636 199.526C82.1956 199.526 83.0776 200.39 83.0776 201.992V207.5ZM87.346 202.478C87.346 205.592 89.362 207.662 91.882 207.662C93.466 207.662 94.6 206.906 95.194 206.042V207.5H97.732V197.528H95.194V198.95C94.6 198.122 93.502 197.366 91.9 197.366C89.362 197.366 87.346 199.364 87.346 202.478ZM95.194 202.514C95.194 204.404 93.934 205.448 92.548 205.448C91.198 205.448 89.92 204.368 89.92 202.478C89.92 200.588 91.198 199.58 92.548 199.58C93.934 199.58 95.194 200.624 95.194 202.514ZM99.5452 202.478C99.5452 205.592 101.561 207.662 104.099 207.662C105.665 207.662 106.799 206.888 107.393 206.024V207.572C107.393 209.426 106.313 210.218 104.927 210.218C103.667 210.218 102.731 209.624 102.479 208.724H99.9772C100.229 211.01 102.191 212.414 104.999 212.414C108.275 212.414 109.931 210.272 109.931 207.572V197.528H107.393V198.95C106.799 198.086 105.665 197.366 104.099 197.366C101.561 197.366 99.5452 199.364 99.5452 202.478ZM107.393 202.514C107.393 204.404 106.133 205.448 104.747 205.448C103.397 205.448 102.119 204.368 102.119 202.478C102.119 200.588 103.397 199.58 104.747 199.58C106.133 199.58 107.393 200.624 107.393 202.514ZM126.342 207.5H128.862V201.65C128.862 198.896 127.17 197.384 124.776 197.384C123.318 197.384 122.004 198.158 121.356 199.292C120.672 198.05 119.394 197.384 117.846 197.384C116.604 197.384 115.542 197.906 114.912 198.734V197.528H112.392V207.5H114.912V201.992C114.912 200.408 115.794 199.58 117.162 199.58C118.494 199.58 119.376 200.408 119.376 201.992V207.5H121.896V201.992C121.896 200.408 122.778 199.58 124.128 199.58C125.46 199.58 126.342 200.408 126.342 201.992V207.5ZM135.538 199.436C136.834 199.436 137.878 200.264 137.914 201.578H133.18C133.378 200.21 134.332 199.436 135.538 199.436ZM140.272 204.368H137.554C137.23 205.034 136.636 205.574 135.556 205.574C134.296 205.574 133.288 204.746 133.162 203.27H140.452C140.506 202.946 140.524 202.622 140.524 202.298C140.524 199.328 138.49 197.366 135.61 197.366C132.658 197.366 130.606 199.364 130.606 202.514C130.606 205.646 132.712 207.662 135.61 207.662C138.076 207.662 139.732 206.204 140.272 204.368ZM149.347 207.5H151.867V201.65C151.867 198.896 150.211 197.384 147.889 197.384C146.611 197.384 145.531 197.924 144.883 198.77V197.528H142.363V207.5H144.883V201.992C144.883 200.39 145.765 199.526 147.133 199.526C148.465 199.526 149.347 200.39 149.347 201.992V207.5ZM154.659 204.404C154.659 206.69 155.937 207.5 157.845 207.5H159.429V205.376H158.259C157.467 205.376 157.197 205.088 157.197 204.422V199.598H159.429V197.528H157.197V195.062H154.659V197.528H153.471V199.598H154.659V204.404Z" fill="white"/>
    <path d="M846.766 135.5H849.664L845.65 129.254L849.592 122.936H846.748L844.3 127.148L841.582 122.936H838.684L842.698 129.164L838.738 135.5H841.582L844.048 131.27L846.766 135.5ZM851.582 122.936V135.5H858.242V133.502H854.102V122.936H851.582ZM868.628 131.864C868.628 127.436 862.184 128.84 862.184 126.32C862.184 125.294 862.922 124.808 863.912 124.844C864.992 124.862 865.658 125.51 865.712 126.338H868.484C868.322 124.07 866.558 122.756 863.984 122.756C861.392 122.756 859.556 124.124 859.556 126.392C859.538 130.946 866.018 129.308 866.018 132.026C866.018 132.926 865.316 133.556 864.128 133.556C862.958 133.556 862.292 132.89 862.22 131.882H859.52C859.556 134.258 861.572 135.626 864.182 135.626C867.044 135.626 868.628 133.844 868.628 131.864ZM878.336 135.5H881.234L877.22 129.254L881.162 122.936H878.318L875.87 127.148L873.152 122.936H870.254L874.268 129.164L870.308 135.5H873.152L875.618 131.27L878.336 135.5ZM896.225 131.864C896.225 127.436 889.781 128.84 889.781 126.32C889.781 125.294 890.519 124.808 891.509 124.844C892.589 124.862 893.255 125.51 893.309 126.338H896.081C895.919 124.07 894.155 122.756 891.581 122.756C888.989 122.756 887.153 124.124 887.153 126.392C887.135 130.946 893.615 129.308 893.615 132.026C893.615 132.926 892.913 133.556 891.725 133.556C890.555 133.556 889.889 132.89 889.817 131.882H887.117C887.153 134.258 889.169 135.626 891.779 135.626C894.641 135.626 896.225 133.844 896.225 131.864ZM900.93 126.968V125.528H898.41V140.252H900.93V134.078C901.542 134.888 902.658 135.662 904.224 135.662C906.78 135.662 908.778 133.592 908.778 130.478C908.778 127.364 906.78 125.366 904.224 125.366C902.676 125.366 901.524 126.122 900.93 126.968ZM906.204 130.478C906.204 132.368 904.926 133.448 903.558 133.448C902.208 133.448 900.93 132.404 900.93 130.514C900.93 128.624 902.208 127.58 903.558 127.58C904.926 127.58 906.204 128.588 906.204 130.478ZM913.129 130.532C913.129 128.606 914.029 128.03 915.523 128.03H916.189V125.384C914.803 125.384 913.759 126.05 913.129 127.076V125.528H910.609V135.5H913.129V130.532ZM922.171 127.436C923.467 127.436 924.511 128.264 924.547 129.578H919.813C920.011 128.21 920.965 127.436 922.171 127.436ZM926.905 132.368H924.187C923.863 133.034 923.269 133.574 922.189 133.574C920.929 133.574 919.921 132.746 919.795 131.27H927.085C927.139 130.946 927.157 130.622 927.157 130.298C927.157 127.328 925.123 125.366 922.243 125.366C919.291 125.366 917.239 127.364 917.239 130.514C917.239 133.646 919.345 135.662 922.243 135.662C924.709 135.662 926.365 134.204 926.905 132.368ZM928.348 130.478C928.348 133.592 930.364 135.662 932.884 135.662C934.468 135.662 935.602 134.906 936.196 134.042V135.5H938.734V125.528H936.196V126.95C935.602 126.122 934.504 125.366 932.902 125.366C930.364 125.366 928.348 127.364 928.348 130.478ZM936.196 130.514C936.196 132.404 934.936 133.448 933.55 133.448C932.2 133.448 930.922 132.368 930.922 130.478C930.922 128.588 932.2 127.58 933.55 127.58C934.936 127.58 936.196 128.624 936.196 130.514ZM940.547 130.478C940.547 133.592 942.563 135.662 945.101 135.662C946.667 135.662 947.783 134.942 948.377 134.024V135.5H950.933V122.18H948.377V126.914C947.693 125.978 946.433 125.366 945.119 125.366C942.563 125.366 940.547 127.364 940.547 130.478ZM948.395 130.514C948.395 132.404 947.135 133.448 945.749 133.448C944.399 133.448 943.121 132.368 943.121 130.478C943.121 128.588 944.399 127.58 945.749 127.58C947.135 127.58 948.395 128.624 948.395 130.514ZM961.134 132.656C961.062 129.002 955.536 130.136 955.536 128.318C955.536 127.742 956.022 127.364 956.958 127.364C957.948 127.364 958.56 127.886 958.632 128.66H961.044C960.9 126.68 959.442 125.366 957.03 125.366C954.564 125.366 953.088 126.698 953.088 128.354C953.088 132.008 958.722 130.874 958.722 132.656C958.722 133.232 958.182 133.682 957.192 133.682C956.184 133.682 955.482 133.106 955.392 132.35H952.854C952.962 134.204 954.708 135.662 957.21 135.662C959.64 135.662 961.134 134.366 961.134 132.656ZM963.203 135.5H965.723V129.992C965.723 128.39 966.605 127.526 967.973 127.526C969.305 127.526 970.187 128.39 970.187 129.992V135.5H972.707V129.65C972.707 126.896 971.069 125.384 968.819 125.384C967.487 125.384 966.371 125.924 965.723 126.77V122.18H963.203V135.5ZM979.387 127.436C980.683 127.436 981.727 128.264 981.763 129.578H977.029C977.227 128.21 978.181 127.436 979.387 127.436ZM984.121 132.368H981.403C981.079 133.034 980.485 133.574 979.405 133.574C978.145 133.574 977.137 132.746 977.011 131.27H984.301C984.355 130.946 984.373 130.622 984.373 130.298C984.373 127.328 982.339 125.366 979.459 125.366C976.507 125.366 974.455 127.364 974.455 130.514C974.455 133.646 976.561 135.662 979.459 135.662C981.925 135.662 983.581 134.204 984.121 132.368ZM990.497 127.436C991.793 127.436 992.837 128.264 992.873 129.578H988.139C988.337 128.21 989.291 127.436 990.497 127.436ZM995.231 132.368H992.513C992.189 133.034 991.595 133.574 990.515 133.574C989.255 133.574 988.247 132.746 988.121 131.27H995.411C995.465 130.946 995.483 130.622 995.483 130.298C995.483 127.328 993.449 125.366 990.569 125.366C987.617 125.366 985.565 127.364 985.565 130.514C985.565 133.646 987.671 135.662 990.569 135.662C993.035 135.662 994.691 134.204 995.231 132.368ZM997.718 132.404C997.718 134.69 998.996 135.5 1000.9 135.5H1002.49V133.376H1001.32C1000.53 133.376 1000.26 133.088 1000.26 132.422V127.598H1002.49V125.528H1000.26V123.062H997.718V125.528H996.53V127.598H997.718V132.404Z" fill="white"/>
    <path d="M841.762 200.642V196.988H843.76C845.182 196.988 845.812 197.672 845.812 198.824C845.812 199.94 845.182 200.642 843.76 200.642H841.762ZM848.404 198.824C848.404 196.646 846.892 194.936 843.868 194.936H839.242V207.5H841.762V202.676H843.868C847.108 202.676 848.404 200.732 848.404 198.824ZM849.545 202.478C849.545 205.592 851.561 207.662 854.081 207.662C855.665 207.662 856.799 206.906 857.393 206.042V207.5H859.931V197.528H857.393V198.95C856.799 198.122 855.701 197.366 854.099 197.366C851.561 197.366 849.545 199.364 849.545 202.478ZM857.393 202.514C857.393 204.404 856.133 205.448 854.747 205.448C853.397 205.448 852.119 204.368 852.119 202.478C852.119 200.588 853.397 199.58 854.747 199.58C856.133 199.58 857.393 200.624 857.393 202.514ZM864.912 202.532C864.912 200.606 865.812 200.03 867.306 200.03H867.972V197.384C866.586 197.384 865.542 198.05 864.912 199.076V197.528H862.392V207.5H864.912V202.532ZM869.022 202.478C869.022 205.592 871.038 207.662 873.558 207.662C875.142 207.662 876.276 206.906 876.87 206.042V207.5H879.408V197.528H876.87V198.95C876.276 198.122 875.178 197.366 873.576 197.366C871.038 197.366 869.022 199.364 869.022 202.478ZM876.87 202.514C876.87 204.404 875.61 205.448 874.224 205.448C872.874 205.448 871.596 204.368 871.596 202.478C871.596 200.588 872.874 199.58 874.224 199.58C875.61 199.58 876.87 200.624 876.87 202.514ZM881.869 207.5H884.389V194.18H881.869V207.5ZM886.879 207.5H889.399V194.18H886.879V207.5ZM896.172 199.436C897.468 199.436 898.512 200.264 898.548 201.578H893.814C894.012 200.21 894.966 199.436 896.172 199.436ZM900.906 204.368H898.188C897.864 205.034 897.27 205.574 896.19 205.574C894.93 205.574 893.922 204.746 893.796 203.27H901.086C901.14 202.946 901.158 202.622 901.158 202.298C901.158 199.328 899.124 197.366 896.244 197.366C893.292 197.366 891.24 199.364 891.24 202.514C891.24 205.646 893.346 207.662 896.244 207.662C898.71 207.662 900.366 206.204 900.906 204.368ZM902.998 207.5H905.518V194.18H902.998V207.5ZM912.261 202.694C912.261 206.006 914.529 207.626 917.283 207.626C920.037 207.626 922.413 206.006 922.413 202.694V194.936H919.875V202.712C919.875 204.44 918.939 205.34 917.319 205.34C915.717 205.34 914.781 204.44 914.781 202.712V194.936H912.261V202.694ZM927.367 198.968V197.528H924.847V212.252H927.367V206.078C927.979 206.888 929.095 207.662 930.661 207.662C933.217 207.662 935.215 205.592 935.215 202.478C935.215 199.364 933.217 197.366 930.661 197.366C929.113 197.366 927.961 198.122 927.367 198.968ZM932.641 202.478C932.641 204.368 931.363 205.448 929.995 205.448C928.645 205.448 927.367 204.404 927.367 202.514C927.367 200.624 928.645 199.58 929.995 199.58C931.363 199.58 932.641 200.588 932.641 202.478ZM937.047 207.5H939.567V194.18H937.047V207.5ZM951.686 202.514C951.686 199.364 949.436 197.366 946.556 197.366C943.676 197.366 941.426 199.364 941.426 202.514C941.426 205.646 943.604 207.662 946.484 207.662C949.382 207.662 951.686 205.646 951.686 202.514ZM943.982 202.514C943.982 200.516 945.188 199.562 946.52 199.562C947.852 199.562 949.094 200.516 949.094 202.514C949.094 204.494 947.816 205.466 946.484 205.466C945.134 205.466 943.982 204.494 943.982 202.514ZM952.887 202.478C952.887 205.592 954.903 207.662 957.423 207.662C959.007 207.662 960.141 206.906 960.735 206.042V207.5H963.273V197.528H960.735V198.95C960.141 198.122 959.043 197.366 957.441 197.366C954.903 197.366 952.887 199.364 952.887 202.478ZM960.735 202.514C960.735 204.404 959.475 205.448 958.089 205.448C956.739 205.448 955.461 204.368 955.461 202.478C955.461 200.588 956.739 199.58 958.089 199.58C959.475 199.58 960.735 200.624 960.735 202.514ZM965.086 202.478C965.086 205.592 967.102 207.662 969.64 207.662C971.206 207.662 972.322 206.942 972.916 206.024V207.5H975.472V194.18H972.916V198.914C972.232 197.978 970.972 197.366 969.658 197.366C967.102 197.366 965.086 199.364 965.086 202.478ZM972.934 202.514C972.934 204.404 971.674 205.448 970.288 205.448C968.938 205.448 967.66 204.368 967.66 202.478C967.66 200.588 968.938 199.58 970.288 199.58C971.674 199.58 972.934 200.624 972.934 202.514ZM977.933 207.5H980.453V197.528H977.933V207.5ZM979.211 196.34C980.093 196.34 980.759 195.692 980.759 194.864C980.759 194.036 980.093 193.388 979.211 193.388C978.311 193.388 977.663 194.036 977.663 194.864C977.663 195.692 978.311 196.34 979.211 196.34ZM989.927 207.5H992.447V201.65C992.447 198.896 990.791 197.384 988.469 197.384C987.191 197.384 986.111 197.924 985.463 198.77V197.528H982.943V207.5H985.463V201.992C985.463 200.39 986.345 199.526 987.713 199.526C989.045 199.526 989.927 200.39 989.927 201.992V207.5ZM994.196 202.478C994.196 205.592 996.212 207.662 998.75 207.662C1000.32 207.662 1001.45 206.888 1002.04 206.024V207.572C1002.04 209.426 1000.96 210.218 999.578 210.218C998.318 210.218 997.382 209.624 997.13 208.724H994.628C994.88 211.01 996.842 212.414 999.65 212.414C1002.93 212.414 1004.58 210.272 1004.58 207.572V197.528H1002.04V198.95C1001.45 198.086 1000.32 197.366 998.75 197.366C996.212 197.366 994.196 199.364 994.196 202.478ZM1002.04 202.514C1002.04 204.404 1000.78 205.448 999.398 205.448C998.048 205.448 996.77 204.368 996.77 202.478C996.77 200.588 998.048 199.58 999.398 199.58C1000.78 199.58 1002.04 200.624 1002.04 202.514Z" fill="white"/>
    <defs>
        <filter id="filter0_f_201_20214" x="663" y="58" width="255" height="214" filterUnits="userSpaceOnUse" color-interpolation-filters="sRGB">
            <feFlood flood-opacity="0" result="BackgroundImageFix"/>
            <feBlend mode="normal" in="SourceGraphic" in2="BackgroundImageFix" result="shape"/>
            <feGaussianBlur stdDeviation="3" result="effect1_foregroundBlur_201_20214"/>
        </filter>
        <filter id="filter1_f_201_20214" x="85.5" y="58" width="255" height="214" filterUnits="userSpaceOnUse" color-interpolation-filters="sRGB">
            <feFlood flood-opacity="0" result="BackgroundImageFix"/>
            <feBlend mode="normal" in="SourceGraphic" in2="BackgroundImageFix" result="shape"/>
            <feGaussianBlur stdDeviation="3" result="effect1_foregroundBlur_201_20214"/>
        </filter>
        <filter id="filter2_f_201_20214" x="171.231" y="281.309" width="659.018" height="57.2605" filterUnits="userSpaceOnUse" color-interpolation-filters="sRGB">
            <feFlood flood-opacity="0" result="BackgroundImageFix"/>
            <feBlend mode="normal" in="SourceGraphic" in2="BackgroundImageFix" result="shape"/>
            <feGaussianBlur stdDeviation="11.7909" result="effect1_foregroundBlur_201_20214"/>
        </filter>
        <filter id="filter3_b_201_20214" x="275.696" y="-6.85641" width="452.05" height="311.63" filterUnits="userSpaceOnUse" color-interpolation-filters="sRGB">
            <feFlood flood-opacity="0" result="BackgroundImageFix"/>
            <feGaussianBlur in="BackgroundImageFix" stdDeviation="3.6782"/>
            <feComposite in2="SourceAlpha" operator="in" result="effect1_backgroundBlur_201_20214"/>
            <feBlend mode="normal" in="SourceGraphic" in2="effect1_backgroundBlur_201_20214" result="shape"/>
        </filter>
        <filter id="filter4_b_201_20214" x="276.539" y="-6.01582" width="450.369" height="306.197" filterUnits="userSpaceOnUse" color-interpolation-filters="sRGB">
            <feFlood flood-opacity="0" result="BackgroundImageFix"/>
            <feGaussianBlur in="BackgroundImageFix" stdDeviation="4.59775"/>
            <feComposite in2="SourceAlpha" operator="in" result="effect1_backgroundBlur_201_20214"/>
            <feBlend mode="normal" in="SourceGraphic" in2="effect1_backgroundBlur_201_20214" result="shape"/>
        </filter>
        <filter id="filter5_d_201_20214" x="328.592" y="16.0922" width="389.893" height="305.251" filterUnits="userSpaceOnUse" color-interpolation-filters="sRGB">
            <feFlood flood-opacity="0" result="BackgroundImageFix"/>
            <feColorMatrix in="SourceAlpha" type="matrix" values="0 0 0 0 0 0 0 0 0 0 0 0 0 0 0 0 0 0 127 0" result="hardAlpha"/>
            <feOffset dx="22.0388" dy="22.0388"/>
            <feGaussianBlur stdDeviation="13.2233"/>
            <feComposite in2="hardAlpha" operator="out"/>
            <feColorMatrix type="matrix" values="0 0 0 0 0.0862745 0 0 0 0 0.0823529 0 0 0 0 0.141176 0 0 0 0.25 0"/>
            <feBlend mode="normal" in2="BackgroundImageFix" result="effect1_dropShadow_201_20214"/>
            <feBlend mode="normal" in="SourceGraphic" in2="effect1_dropShadow_201_20214" result="shape"/>
        </filter>
        <linearGradient id="paint0_linear_201_20214" x1="670.489" y1="252.058" x2="673.133" y2="204.764" gradientUnits="userSpaceOnUse">
            <stop stop-color="#FDC43A"/>
            <stop offset="1" stop-color="#FDC43A" stop-opacity="0"/>
        </linearGradient>
        <linearGradient id="paint1_linear_201_20214" x1="670.489" y1="77.942" x2="673.133" y2="125.236" gradientUnits="userSpaceOnUse">
            <stop stop-color="#FDC43A"/>
            <stop offset="1" stop-color="#FDC43A" stop-opacity="0"/>
        </linearGradient>
        <linearGradient id="paint2_linear_201_20214" x1="667.693" y1="264.527" x2="843.636" y2="207.419" gradientUnits="userSpaceOnUse">
            <stop stop-color="#FDC43A"/>
            <stop offset="1" stop-color="#FDC43A" stop-opacity="0"/>
        </linearGradient>
        <linearGradient id="paint3_linear_201_20214" x1="667.693" y1="65.4725" x2="843.636" y2="122.581" gradientUnits="userSpaceOnUse">
            <stop stop-color="#FDC43A"/>
            <stop offset="1" stop-color="#FDC43A" stop-opacity="0"/>
        </linearGradient>
        <linearGradient id="paint4_linear_201_20214" x1="333.011" y1="252.058" x2="330.367" y2="204.764" gradientUnits="userSpaceOnUse">
            <stop stop-color="#FDC43A"/>
            <stop offset="1" stop-color="#FDC43A" stop-opacity="0"/>
        </linearGradient>
        <linearGradient id="paint5_linear_201_20214" x1="333.011" y1="77.942" x2="330.367" y2="125.236" gradientUnits="userSpaceOnUse">
            <stop stop-color="#FDC43A"/>
            <stop offset="1" stop-color="#FDC43A" stop-opacity="0"/>
        </linearGradient>
        <linearGradient id="paint6_linear_201_20214" x1="335.807" y1="264.527" x2="159.864" y2="207.419" gradientUnits="userSpaceOnUse">
            <stop stop-color="#FDC43A"/>
            <stop offset="1" stop-color="#FDC43A" stop-opacity="0"/>
        </linearGradient>
        <linearGradient id="paint7_linear_201_20214" x1="335.807" y1="65.4725" x2="159.864" y2="122.581" gradientUnits="userSpaceOnUse">
            <stop stop-color="#FDC43A"/>
            <stop offset="1" stop-color="#FDC43A" stop-opacity="0"/>
        </linearGradient>
        <linearGradient id="paint8_linear_201_20214" x1="230.529" y1="296.881" x2="770.769" y2="296.881" gradientUnits="userSpaceOnUse">
            <stop stop-color="#0D1012"/>
            <stop offset="0.0295345" stop-color="#CAD4DB"/>
            <stop offset="0.0625" stop-color="#242729"/>
            <stop offset="0.133609" stop-color="#A3ACB1"/>
            <stop offset="0.865967" stop-color="#A3ACB1"/>
            <stop offset="0.941937" stop-color="#242729"/>
            <stop offset="0.971275" stop-color="#CAD4DB"/>
            <stop offset="0.996436" stop-color="#0D1012"/>
        </linearGradient>
        <linearGradient id="paint9_linear_201_20214" x1="500.649" y1="298.488" x2="500.649" y2="304.92" gradientUnits="userSpaceOnUse">
            <stop stop-color="#7A7F83"/>
            <stop offset="1" stop-color="#0B0B0E"/>
        </linearGradient>
        <linearGradient id="paint10_linear_201_20214" x1="465.008" y1="297.226" x2="538.433" y2="297.226" gradientUnits="userSpaceOnUse">
            <stop stop-color="#3C3C3C"/>
            <stop offset="0.317518" stop-color="#3C3C3C" stop-opacity="0"/>
            <stop offset="0.660584" stop-color="#3C3C3C" stop-opacity="0"/>
            <stop offset="1" stop-color="#444444"/>
        </linearGradient>
    </defs>
</svg>
