<svg width="182" height="41" viewBox="0 0 182 41" fill="none" xmlns="http://www.w3.org/2000/svg">
    <path d="M82.3883 8.54907L75.7475 32.0593H72.5187L67.6817 14.8777C67.4747 14.1455 67.3479 13.3475 67.3048 12.484H67.2397C67.1758 13.2832 67.0331 14.0741 66.8136 14.8451L61.9449 32.0593H58.7474L51.8615 8.54907H54.8939L59.8947 26.5833C60.1052 27.355 60.237 28.1461 60.2882 28.9444H60.3707C60.4252 28.3647 60.5932 27.5784 60.8782 26.5833L66.0758 8.54907H68.715L73.6985 26.7149C73.8733 27.3374 74.0038 28.0703 74.092 28.9115H74.1571C74.2006 28.3439 74.3482 27.5898 74.6006 26.6495L79.4039 8.55021H82.3883V8.54907ZM86.0912 11.0079C85.6099 11.0079 85.2001 10.8436 84.8614 10.5156C84.5228 10.1875 84.354 9.77317 84.354 9.26953C84.354 8.76778 84.5239 8.34853 84.8614 8.0144C85.2012 7.68142 85.6099 7.51493 86.0912 7.51493C86.5831 7.51493 87.0009 7.68255 87.346 8.0144C87.6895 8.34853 87.8621 8.76665 87.8621 9.26953C87.8621 9.75085 87.6895 10.1606 87.346 10.4993C87.0009 10.8387 86.5835 11.0079 86.0912 11.0079ZM87.4027 32.0593H84.7139V15.2705H87.4027V32.0593ZM105.472 32.0593H102.784V22.4853C102.784 18.9223 101.483 17.1409 98.8824 17.1409C97.538 17.1409 96.4251 17.6464 95.5453 18.6574C94.6648 19.6685 94.2255 20.9445 94.2255 22.4853V32.0593H91.5363V15.2705H94.2255V18.0573H94.2906C95.5582 15.9372 97.3942 14.8773 99.7992 14.8773C101.635 14.8773 103.04 15.4702 104.013 16.6558C104.986 17.8416 105.472 19.555 105.472 21.7951V32.059H105.473L105.472 32.0593ZM124.6 32.0593H121.911V29.2063H121.846C120.599 31.3707 118.675 32.4529 116.074 32.4529C113.965 32.4529 112.279 31.7014 111.017 30.198C109.755 28.6958 109.123 26.6487 109.123 24.0582C109.123 21.282 109.822 19.0574 111.222 17.3864C112.621 15.7132 114.483 14.8777 116.813 14.8777C119.118 14.8777 120.796 15.7851 121.846 17.5991H121.911V7.20465H124.6V32.0593ZM121.912 24.4688V21.993C121.912 20.6383 121.463 19.491 120.568 18.5496C119.671 17.6108 118.535 17.1397 117.157 17.1397C115.518 17.1397 114.227 17.7414 113.288 18.9431C112.348 20.1464 111.878 21.8068 111.878 23.9269C111.878 25.862 112.329 27.3892 113.231 28.5089C114.131 29.6289 115.342 30.1893 116.862 30.1893C118.359 30.1893 119.575 29.6494 120.51 28.566C121.444 27.485 121.912 26.1178 121.912 24.4692V24.4688ZM136.353 32.4525C133.872 32.4525 131.891 31.6688 130.41 30.1004C128.929 28.5316 128.189 26.452 128.189 23.8619C128.189 21.0421 128.96 18.8395 130.501 17.2551C132.041 15.6697 134.124 14.8766 136.748 14.8766C139.25 14.8766 141.205 15.647 142.608 17.1885C144.013 18.7286 144.715 20.8665 144.715 23.5989C144.715 26.2771 143.958 28.4215 142.444 30.0342C140.93 31.6465 138.9 32.4525 136.353 32.4525ZM136.55 17.1397C134.822 17.1397 133.456 17.727 132.452 18.9019C131.445 20.0783 130.944 21.6975 130.944 23.7631C130.944 25.7527 131.451 27.32 132.469 28.4684C133.485 29.6149 134.846 30.1893 136.551 30.1893C138.289 30.1893 139.625 29.6263 140.56 28.5002C141.495 27.3749 141.962 25.7735 141.962 23.6969C141.962 21.5976 141.494 19.9811 140.56 18.8436C139.625 17.7084 138.289 17.1397 136.55 17.1397ZM168.945 15.2708L163.912 32.0593H161.124L157.666 20.0416C157.534 19.5822 157.446 19.0642 157.404 18.4849H157.339C157.306 18.878 157.191 19.3855 156.994 20.0098L153.241 32.0601H150.551L145.469 15.272H148.288L151.763 27.8948C151.871 28.2777 151.948 28.7802 151.992 29.4027H152.123C152.156 28.9221 152.255 28.409 152.419 27.8622L156.288 15.2708H158.747L162.222 27.9273C162.331 28.3322 162.413 28.8351 162.469 29.4356H162.6C162.621 29.0095 162.715 28.507 162.878 27.9273L166.289 15.2708H168.945ZM170.191 31.452V28.5664C171.655 29.6494 173.267 30.1897 175.027 30.1897C177.388 30.1897 178.568 29.4027 178.568 27.8285C178.568 27.3805 178.467 27.0006 178.266 26.6888C178.064 26.377 177.79 26.1019 177.446 25.8609C177.102 25.621 176.697 25.4042 176.234 25.2135C175.735 25.0093 175.235 24.8098 174.733 24.6149C173.99 24.3193 173.336 24.0219 172.774 23.7207C172.211 23.4203 171.742 23.0816 171.364 22.704C170.994 22.3379 170.704 21.8996 170.511 21.4163C170.32 20.9357 170.224 20.3735 170.224 19.7279C170.224 18.9412 170.405 18.2439 170.764 17.6377C171.126 17.0304 171.607 16.5229 172.207 16.1124C172.809 15.7026 173.495 15.3934 174.266 15.1853C175.044 14.9773 175.845 14.873 176.65 14.875C178.103 14.875 179.404 15.127 180.553 15.6288V18.3502C179.316 17.5416 177.895 17.1367 176.289 17.1367C175.786 17.1367 175.334 17.1942 174.929 17.3096C174.524 17.4235 174.178 17.5858 173.888 17.7928C173.599 18.0009 173.375 18.2495 173.216 18.5383C173.057 18.8326 172.975 19.163 172.979 19.4979C172.979 19.9353 173.058 20.3008 173.216 20.5971C173.375 20.8915 173.607 21.1533 173.913 21.3838C174.22 21.6119 174.592 21.8204 175.028 22.0055C175.466 22.1916 175.963 22.3941 176.522 22.6128C177.263 22.8977 177.931 23.1902 178.521 23.4895C179.111 23.79 179.614 24.1294 180.029 24.5063C180.434 24.8707 180.76 25.314 180.988 25.8091C181.211 26.3021 181.324 26.8863 181.324 27.5637C181.324 28.3946 181.142 29.1158 180.775 29.7281C180.409 30.3412 179.907 30.8625 179.308 31.2522C178.695 31.6571 177.991 31.9576 177.193 32.1543C176.397 32.3511 175.56 32.4495 174.685 32.4495C172.956 32.4525 171.458 32.1188 170.191 31.452ZM40.0946 0.0742188L17.8137 3.32537V19.471H40.0938L40.0946 0.0742188ZM0.0644531 5.91357V19.471H16.2434V3.55354L0.0644531 5.91357ZM0.0644531 34.7702L16.2434 37.1571V21.0402H0.0644531V34.7702ZM40.0946 40.6757V21.0402H17.8137V37.3894L40.0946 40.6757Z" fill="white"/>
</svg>
