<svg width="540" height="476" viewBox="0 0 540 476" fill="none" xmlns="http://www.w3.org/2000/svg">
    <path d="M310.037 200.551C308.744 200.416 307.791 199.534 306.974 198.584C302.211 196.04 299.08 191.121 295.405 187.288C288.362 178.774 281.693 169.955 275.738 160.626C272.165 160.491 268.456 160.457 265.088 159.269C264.816 159.134 264.645 158.829 264.645 158.523C259.95 151.502 256.785 138.951 257.704 130.504C255.969 128.096 263.284 127.621 264.713 126.536C275.364 122.16 285.402 116.427 295.984 111.882C295.916 111.916 295.814 111.95 295.746 111.983C296.256 111.746 296.766 111.509 297.277 111.271C303.402 108.354 309.526 105.437 315.685 102.587C315.617 102.621 315.515 102.655 315.447 102.689C336.577 92.6145 357.606 82.2686 378.702 72.1262C380.097 71.6513 382.037 69.6838 383.262 71.4138C383.534 71.4138 383.84 71.5156 384.044 71.753C391.224 75.0434 394.082 87.8316 396.566 94.7515C396.532 94.7176 396.532 94.6498 396.498 94.5819C396.634 94.9211 396.702 95.2604 396.668 95.5996C399.186 95.7013 406.195 92.7502 404.562 97.7366C407.012 102.859 407.795 108.557 409.02 114.053C410.347 120.532 408.986 126.4 401.398 126.841C401.602 127.316 401.364 127.892 400.921 128.13C403.541 137.526 406.638 148.177 402.589 157.573C402.384 161.712 393.912 159.134 391.054 159.609C384.521 159.337 377.953 158.964 371.42 158.761C353.386 158.15 335.284 158.286 317.25 158.998C317.318 158.998 317.42 158.998 317.488 158.998C312.555 159.236 307.655 159.507 302.721 159.609C307.11 167.852 311.942 175.857 316.672 183.93C318.203 186.474 320.789 189.324 319.836 192.478C318.203 196.277 314.494 200.755 310.037 200.551ZM281.284 160.694C281.42 160.864 281.523 161.033 281.659 161.203C281.693 161.169 281.727 161.135 281.761 161.101C281.693 160.966 281.625 160.83 281.557 160.694C281.454 160.694 281.352 160.694 281.284 160.694ZM363.39 154.521C372.713 154.69 382.037 155.199 391.36 155.606C385.882 148.822 382.649 140.613 379.655 132.506C379.689 132.607 379.723 132.675 379.757 132.777C379.621 132.472 379.519 132.133 379.383 131.827C379.417 131.929 379.451 131.997 379.485 132.099C376.456 124.161 373.87 115.884 372.918 107.404V107.438C372.884 107.065 372.849 106.726 372.815 106.353C372.815 106.319 372.815 106.319 372.815 106.285V106.319V106.285C371.795 97.126 370.127 87.3228 373.768 78.5372C353.012 88.6118 332.562 99.2291 311.636 108.931C311.704 108.897 311.806 108.863 311.874 108.829C307.655 110.83 303.47 112.865 299.25 114.833C299.318 114.799 299.42 114.765 299.488 114.731C299.352 114.799 299.216 114.867 299.114 114.901C299.182 114.867 299.284 114.833 299.352 114.799C299.148 114.901 298.978 114.969 298.774 115.07C298.842 115.036 298.944 115.002 299.012 114.969C298.434 115.24 297.855 115.511 297.277 115.783C296.29 116.258 295.269 116.698 294.282 117.173C297.413 128.605 301.87 139.799 306.566 150.687C306.6 150.755 306.634 150.823 306.634 150.891V150.925C307.144 152.282 307.723 153.605 308.301 154.928C308.369 155.131 308.437 155.301 308.471 155.504C310.139 155.436 311.806 155.369 313.507 155.301C313.473 155.301 313.405 155.301 313.371 155.301C330.078 154.521 346.717 154.419 363.39 154.521ZM395.103 128.944C391.428 129.928 387.719 130.674 384.112 131.895C387.345 140.036 390.033 149.636 397.314 155.097C401.296 147.804 399.526 139.019 397.689 131.318C397.689 131.318 397.689 131.318 397.689 131.352C397.485 130.335 397.008 129.351 397.11 128.3C396.498 128.503 395.817 128.74 395.103 128.944ZM376.694 103.741C377.579 112.628 380.165 121.278 383.262 129.622C388.944 126.603 395.205 124.941 401.16 122.533C398.131 115.715 395.035 106.794 397.212 99.4327C390.577 100.315 383.908 100.281 377.205 100.62C377.069 100.925 376.694 101.23 376.32 101.129C376.456 102.011 376.592 102.893 376.694 103.741ZM401.908 111.983C402.691 115.002 403.848 118.157 405.481 120.803C406.366 115.138 403.235 104.453 400.683 99.2291C398.573 102.553 400.853 106.76 401.5 110.287C401.466 110.186 401.466 110.084 401.432 110.016C401.5 110.287 401.568 110.559 401.636 110.83C401.602 110.728 401.602 110.627 401.568 110.559C401.67 111 401.806 111.509 401.908 111.983ZM382.411 74.331C373.564 78.7408 375.129 90.2061 375.98 98.4489C381.424 96.8207 387.107 97.0243 392.687 96.1084C390.373 89.9008 388.298 77.8927 383.023 73.8222C382.853 74.0257 382.649 74.1953 382.411 74.331Z" fill="#F900DF"/>
    <path d="M199.348 137.357C197.612 137.458 195.264 135.966 197.374 134.473C205.711 133.422 211.325 129.453 199.688 126.536C195.707 125.315 195.469 120.464 194.89 117.038C194.89 117.072 194.89 117.106 194.924 117.106C194.89 117.038 194.89 116.97 194.856 116.902C194.788 115.851 193.461 113.985 194.856 113.442C194.992 109.304 197.919 120.057 198.293 120.735C198.701 122.262 199.178 123.754 200.981 123.856H200.947C212.074 126.434 209.453 136.407 199.348 137.357Z" fill="white"/>
    <path d="M173.828 144.446C173.658 144.378 173.59 144.209 173.59 144.039C174.917 141.257 176.89 138.747 179.136 136.678C180.463 136.305 179.442 137.764 178.898 138.069C178.217 138.747 177.537 139.46 176.924 140.206C176.924 140.172 176.958 140.172 176.958 140.138C176.958 140.138 176.958 140.172 176.924 140.172C176.822 140.308 176.686 140.477 176.584 140.613C176.584 140.647 176.55 140.647 176.55 140.647C175.87 141.563 175.257 142.479 174.679 143.462C174.679 143.428 174.713 143.428 174.713 143.394C174.679 143.462 174.611 143.564 174.577 143.632C174.406 143.937 174.304 144.582 173.828 144.446Z" fill="white"/>
    <path d="M180.02 142.614C178.523 142.106 184.818 135.254 185.601 134.202C188.425 133.388 184.001 137.56 183.627 138.239C183.627 138.239 183.627 138.239 183.627 138.205C183.627 138.239 183.593 138.239 183.593 138.273C182.402 139.358 181.449 142.241 180.02 142.614Z" fill="white"/>
    <path d="M168.417 146.38C166.886 146.176 172.364 137.051 173.317 138.51C173.487 139.867 171.207 141.156 170.663 142.547C170.016 143.632 169.131 144.751 168.859 145.973C168.791 146.176 168.621 146.414 168.417 146.38Z" fill="white"/>
    <path d="M210.916 133.15C211.188 132.031 214.829 124.975 215.986 125.823C216.394 127.112 213.196 129.758 212.685 131.353C212.175 131.794 211.631 134.677 210.916 133.15Z" fill="white"/>
    <path d="M215.579 132.879C213.877 132.336 216.838 129.996 217.144 129.012C217.96 128.266 218.471 125.959 219.73 126.332C220.07 126.604 220.002 127.079 219.764 127.384C218.097 128.91 217.314 131.556 215.579 132.879Z" fill="white"/>
    <path d="M164.435 132.404C162.563 130.199 164.333 127.214 165.626 125.179C168.416 121.176 173.588 120.396 178.113 121.176C181.652 121.448 185.837 125.077 184.204 128.842C182.06 130.505 178.76 130.538 176.14 131.217C172.873 131.861 169.675 132.675 166.34 131.963C166.068 132.743 165.013 133.015 164.435 132.404ZM165.932 130.64C171.546 130.403 176.854 128.435 182.367 127.418C180.189 120.464 165.013 122.906 165.796 130.572C165.83 130.572 165.898 130.606 165.932 130.64Z" fill="white"/>
    <path d="M165.422 132.777C164.232 132.777 164.129 131.115 165.32 130.945C170.084 130.606 175.154 129.148 179.782 127.655C184.579 129.487 171.411 132.336 170.016 132.404C168.485 132.777 166.954 133.048 165.422 132.777Z" fill="white"/>
    <path d="M162.702 125.348C162.497 125.111 162.668 124.806 162.872 124.636C166.206 118.802 174.407 116.19 180.361 119.446C180.974 119.684 181.11 120.566 180.429 120.803C179.409 120.6 178.456 119.751 177.333 119.582C177.367 119.582 177.401 119.582 177.401 119.616C175.495 119.107 173.454 119.209 171.514 119.582C171.548 119.582 171.548 119.582 171.582 119.548C168.214 120.192 165.39 122.194 163.45 125.009C163.314 125.247 162.974 125.62 162.702 125.348Z" fill="white"/>
    <path d="M205.403 121.99C202.681 121.312 203.634 117.75 204.144 115.749C205.029 112.594 208.261 110.423 211.29 109.541C215.441 108.557 222.518 111.407 220.409 116.597C218.707 118.7 215.407 118.598 213.093 119.853C210.609 120.565 208.057 122.058 205.403 121.99ZM206.288 119.717C206.56 119.751 206.764 119.921 206.9 120.124C210.575 118.361 214.25 116.631 218.163 115.511C218.129 115.511 218.129 115.545 218.095 115.545C218.129 115.511 218.197 115.511 218.231 115.477H218.197C218.299 115.443 218.401 115.375 218.537 115.342C218.027 111.746 212.344 111.305 209.724 112.831C207.547 113.883 205.947 115.613 205.777 118.089C205.743 118.666 205.437 119.751 206.288 119.717Z" fill="white"/>
    <path d="M211.255 117.377C208.635 116.257 209.146 112.051 211.834 111.373C213.467 109.439 216.461 110.661 216.802 113.001C217.346 115.986 214.046 118.802 211.255 117.377Z" fill="white"/>
    <path d="M174.372 128.333C171.48 126.264 173.726 121.074 177.23 122.126C182.368 123.822 178.932 131.251 174.372 128.333Z" fill="white"/>
    <path d="M152.935 123.754C151.914 123.89 150.655 123.517 150.383 122.397C149.975 118.937 154.194 117.174 156.576 115.477C161.68 112.458 167.43 110.627 173.215 109.473C183.661 107.642 194.311 112.56 176.89 115.172C176.924 115.172 176.992 115.138 177.026 115.138C169.064 117.072 161.748 121.142 153.956 123.619C153.82 124.06 153.207 124.195 152.935 123.754Z" fill="white"/>
    <path d="M184.035 113.137C183.014 112.967 182.674 111.644 183.15 110.83C178.761 109.982 173.895 110.83 169.642 112.018C170.833 114.155 163.959 111.984 173.044 109.609C173.01 109.609 173.01 109.609 172.976 109.609C177.059 108.761 182.572 106.081 186.145 109.236C187.131 110.796 185.872 113.239 184.035 113.137Z" fill="white"/>
    <path d="M158.006 173.109C157.972 172.974 157.972 172.838 157.938 172.702C157.938 172.736 157.938 172.77 157.938 172.804C157.835 171.99 157.801 171.176 157.699 170.328C157.699 170.362 157.699 170.396 157.699 170.43C157.631 169.48 157.291 168.53 157.291 167.58V167.614C157.291 167.513 157.325 167.445 157.359 167.343C157.359 167.343 157.359 167.343 157.359 167.377C158.652 165.986 158.516 168.937 158.754 169.683C158.686 170.871 159.775 172.804 158.686 173.618C158.414 173.652 158.074 173.449 158.006 173.109Z" fill="white"/>
    <path d="M160.76 174.195C160.726 172.567 159.399 168.869 160.692 167.852C161.304 167.784 161.304 168.462 161.27 168.903C161.27 168.903 161.27 168.903 161.27 168.869C161.27 169.717 161.304 170.531 161.406 171.346C161.474 171.99 162.223 175.823 160.76 174.195Z" fill="white"/>
    <path d="M199.654 176.807C198.633 176.502 196.251 175.043 197.885 174.059C198.803 174.059 199.212 175.314 200.198 175.484C200.879 175.857 200.369 177.044 199.654 176.807Z" fill="white"/>
    <path d="M201.594 175.009C201.185 174.331 200.267 173.958 200.062 173.245C200.505 171.821 201.798 173.652 202.342 174.127C202.819 174.636 202.104 175.518 201.594 175.009Z" fill="white"/>
    <path d="M35.4065 261.915C31.5275 263.034 40.5445 243.937 41.2931 246.209C39.898 249.5 38.605 252.858 37.7884 256.352C37.7884 256.318 37.8224 256.25 37.8224 256.216C36.9377 257.98 37.8904 261.609 35.4065 261.915Z" fill="white"/>
    <path d="M20.1295 258.184C16.5227 257.878 23.2259 246.345 23.9405 244.276C24.4169 243.597 26.2203 239.527 26.9008 240.341C26.8668 240.545 26.8327 240.952 26.5605 240.918C24.655 244.853 23.7023 249.161 22.6135 253.401V253.367C22.6135 253.435 22.5794 253.502 22.5794 253.536C22.5794 253.536 22.5794 253.536 22.5794 253.502C21.9329 255.029 22.3753 258.048 20.1295 258.184Z" fill="white"/>
    <path d="M57.0827 225.111C54.6328 224.195 65.9636 214.358 66.508 217.071C66.9844 219.005 64.0241 219.31 62.9012 220.362C61.2339 221.481 59.5326 222.702 58.2396 224.296C58.3076 224.873 57.5931 225.382 57.0827 225.111Z" fill="white"/>
    <path d="M53.0322 212.526C50.0379 211.847 55.5502 204.317 57.3876 206.522C58.2042 208.625 54.4954 208.93 54.3933 211.067C54.3933 211.033 54.4273 210.965 54.4273 210.931C54.3252 211.678 53.9509 212.56 53.0322 212.526Z" fill="white"/>
    <path d="M80.663 82.7437C79.37 81.726 70.1148 79.589 71.8841 77.893C72.7348 76.7736 77.7367 79.5212 79.5061 79.5551C80.663 79.9621 83.1469 80.0978 82.4323 81.8957C82.1601 82.5062 81.3435 82.9811 80.663 82.7437Z" fill="white"/>
    <path d="M106.386 53.9108C104.991 52.0112 103.8 49.7724 101.792 48.4834C100.397 53.1645 98.968 42.3098 106.352 51.1293C106.318 51.0954 106.318 51.0614 106.284 51.0614C106.318 51.0954 106.352 51.1293 106.352 51.1632C106.352 51.1632 106.352 51.1293 106.318 51.1293C106.352 51.1632 106.352 51.1971 106.386 51.1971C106.42 51.265 106.488 51.2989 106.522 51.3667C106.522 51.3667 106.522 51.3667 106.522 51.3328C106.556 51.3667 106.556 51.4006 106.59 51.4006C106.59 51.4006 106.59 51.3667 106.556 51.3667C106.59 51.4007 106.59 51.4346 106.624 51.4346L106.59 51.4006C106.658 51.4685 106.726 51.5363 106.76 51.6381C106.726 51.6042 106.726 51.5703 106.692 51.5703C107.032 52.0112 107.373 52.4522 107.713 52.8932C108.325 53.7073 106.998 54.7249 106.386 53.9108Z" fill="white"/>
    <path d="M192.304 28.6395C190.807 25.5526 192.985 21.6517 192.916 18.3274C193.053 16.6314 196.013 16.4618 195.741 18.3953C195.502 21.3803 194.652 24.2975 194.686 27.3165C194.686 28.4359 193.257 29.3518 192.304 28.6395Z" fill="white"/>
    <path d="M250.013 56.3869C248.074 54.2499 252.905 51.7058 254.402 50.5185C257.091 49.7383 256.546 52.7573 254.436 53.3679C252.633 53.8767 251.85 56.9635 250.013 56.3869Z" fill="white"/>
    <path d="M425.896 57.1331C422.562 55.0639 436.717 43.2933 439.303 42.8523C444.917 40.6814 442.229 47.3978 447.061 44.6841C458.255 38.3748 469.382 32.0315 480.917 26.3328C484.218 25.7561 484.081 29.9284 479.998 30.946C480.032 30.946 480.066 30.9121 480.1 30.9121C479.998 30.946 479.896 31.0139 479.794 31.0478C479.862 31.0139 479.93 30.9799 480.032 30.946C470.913 35.1522 462.032 39.7655 453.219 44.5145C449.579 46.3123 443.42 51.3665 441.038 45.5999C438.316 46.1427 436.172 48.178 433.995 49.7722C433.995 49.7722 434.029 49.7722 434.029 49.7383C431.681 51.7397 429.299 53.7749 427.291 56.1155C427.189 56.7939 426.543 57.3027 425.896 57.1331Z" fill="white"/>
    <path d="M438.52 103.469C437.363 103.469 437.805 101.875 438.792 102.282C445.019 100.518 459.344 85.7625 460.739 99.6023C471.525 99.9754 482.346 96.5494 493.064 95.1247C495.82 95.1925 503.17 91.2238 502.864 96.1762C502.149 98.9238 498.576 98.0419 496.433 98.6864C491.907 99.3987 487.348 100.043 482.788 100.722C476.561 100.925 462.474 105.742 457.881 101.977C456.962 100.281 458.187 96.6511 455.022 97.1939C449.136 98.1437 444.474 103.028 438.52 103.469Z" fill="white"/>
    <path d="M495.342 185.389C481.867 182.573 468.223 179.656 456.347 172.329C454.782 171.583 453.285 170.09 454.204 168.259C454.442 166.563 456.892 163.951 454.952 162.729C449.406 160.151 443.009 161.373 437.122 160.83C435.489 159.066 443.451 159.236 444.506 158.727C452.026 157.98 462.71 158.286 457.266 168.733C463.765 172.499 470.979 174.941 478.192 176.976C478.124 176.942 478.022 176.942 477.954 176.908C484.249 178.638 490.816 179.012 497.111 180.64C499.901 181.691 498.03 186.237 495.342 185.389Z" fill="white"/>
    <path d="M129.524 458.216C116.186 458.284 102.882 457.504 89.7476 455.198C83.1124 454.757 76.6814 453.162 70.6247 450.415C58.8516 445.903 56.1294 432.029 54.5982 420.903C54.5982 420.937 54.5982 420.937 54.5982 420.971C54.5642 420.734 54.5302 420.496 54.5302 420.259C54.5302 420.361 54.5642 420.428 54.5642 420.53C52.0463 396.717 50.481 372.837 48.7457 348.957C46.602 314.018 42.9272 273.686 66.5756 244.751C76.6474 233.93 90.9385 228.367 104.345 222.838C118.296 217.037 132.621 212.153 146.436 205.979C145.109 199.873 144.802 193.598 143.816 187.458C143.816 187.492 143.816 187.492 143.816 187.526C143.509 184.846 143.169 182.166 142.523 179.555C142.489 179.521 142.455 179.521 142.421 179.487C133.676 182.641 128.912 172.058 127.891 165.07C115.097 166.461 109.993 151.807 117.241 142.818C113.056 137.73 107.475 133.286 105.774 126.672C103.562 119.616 107.577 112.153 115.574 112.764C113.906 103.266 119.657 93.0557 129.49 91.2579C130.715 75.5864 143.782 61.7466 160.284 66.699C165.15 57.3029 178.523 46.5499 187.812 56.828C191.351 44.0058 215.85 41.5635 215.305 57.6421C225.207 51.6041 238.954 58.4901 231.74 70.4982C238.035 71.7533 237.661 80.4371 234.428 84.5755C230.753 90.4099 223.88 93.2593 217.143 93.0897C217.823 94.5483 218.299 96.0747 218.844 97.5672C221.736 104.759 223.301 112.391 225.445 119.786C226.772 124.094 228.473 128.3 229.902 132.574C230.889 134.677 231.91 137.526 229.324 138.883C216.02 144.684 201.354 147.363 187.131 150.009C191.827 161.373 205.369 160.253 215.237 157.404H215.203C215.237 157.404 215.305 157.37 215.339 157.37H215.373C215.373 157.37 215.373 157.37 215.339 157.37C218.538 157.065 230.719 151.502 232.284 153.605C240.655 166.529 225.955 172.635 215.169 173.924C215.441 181.929 217.789 189.663 218.436 197.635C231.196 202.587 245.623 202.485 258.247 208.048C280.602 215.85 294.485 244.446 306.122 263.645C310.783 272.193 315.479 280.741 320.243 289.255C320.345 289.459 320.447 289.629 320.583 289.832C320.549 289.764 320.481 289.696 320.447 289.595C320.651 289.968 320.889 290.341 321.093 290.714C321.059 290.646 320.991 290.578 320.957 290.477C328.069 303.74 335.929 316.562 343.551 329.52C343.551 329.486 343.517 329.486 343.517 329.452C343.551 329.486 343.585 329.554 343.619 329.588C345.116 332.03 346.647 335.049 349.574 335.897C351.649 331.352 348.587 326.365 348.008 321.752C347.906 321.379 347.838 321.04 347.736 320.666C347.43 319.479 347.158 318.292 346.851 317.105C346.851 317.139 346.851 317.173 346.885 317.206C340.727 295.497 332.424 274.432 323.918 253.537C319.698 244.039 315.921 234.337 311.294 225.043C307.687 219.989 304.522 214.629 300.746 209.71C300.78 209.744 300.78 209.778 300.814 209.778C300.78 209.744 300.746 209.677 300.712 209.643C300.712 209.643 300.712 209.677 300.746 209.677C300.712 209.643 300.712 209.609 300.677 209.575C295.267 201.773 290.81 191.257 293.668 181.759C293.668 181.793 293.634 181.861 293.634 181.895C293.634 181.827 293.668 181.793 293.668 181.726C293.668 181.726 293.668 181.726 293.668 181.759C294.417 176.841 300.848 169.31 302.243 178.232C302.277 182.2 301.46 186.135 301.971 190.104C302.107 190.681 301.8 191.393 301.188 191.563C297.989 191.461 301.086 179.792 299.793 177.35C297.377 174.195 294.689 189.052 296.22 190.681C297.547 194.921 298.534 199.331 300.882 203.198C305.305 209.643 310.171 215.782 314.526 222.295C324.02 241.121 332.05 260.728 339.161 280.538C339.161 280.538 339.161 280.538 339.161 280.572C339.263 280.843 339.4 281.148 339.502 281.42C343.347 291.189 346.647 301.196 349.505 311.304C349.471 311.202 349.471 311.101 349.437 311.033C349.471 311.236 349.539 311.44 349.574 311.643C349.574 311.609 349.574 311.609 349.574 311.576C350.322 316.63 358.386 343.292 346.579 338.034C342.156 335.32 340.318 330.13 337.528 326.026C330.519 315.375 324.19 304.249 318.031 293.089C317.997 293.055 317.997 293.021 317.963 292.987C317.929 292.919 317.895 292.885 317.861 292.817C317.861 292.851 317.895 292.851 317.895 292.885C312.519 283.387 307.381 273.754 302.073 264.188C300.201 260.965 298.228 257.743 296.424 254.486C296.424 254.486 296.424 254.486 296.424 254.452V254.418C296.424 254.418 296.424 254.418 296.424 254.385C289.619 242.614 282.201 230.945 272.265 221.549C272.265 221.549 272.265 221.549 272.299 221.583L272.265 221.549C271.959 221.244 271.653 220.972 271.313 220.667C271.279 220.633 271.245 220.633 271.245 220.599C271.279 220.633 271.313 220.667 271.347 220.701C261.921 210.592 247.494 209.202 234.836 205.606C232.523 213.272 229.664 220.769 227.01 228.333C225.241 232.2 224.73 236.983 222.076 240.273C220.273 241.325 219.116 238.984 217.993 238.001C215.169 234.982 212.209 232.098 209.214 229.249C208.023 227.79 203.26 224.534 207.955 224.704C208.534 224.432 208.976 225.178 208.67 225.653C213.127 228.537 217.347 231.725 220.885 235.66C224.322 225.314 228.235 215.138 231.4 204.69C227.997 203.978 224.594 203.062 221.43 201.637C221.464 201.637 221.464 201.671 221.498 201.671C220.715 201.332 219.933 200.959 219.218 200.518C212.209 212.899 203.43 224.364 196.08 236.61C196.08 236.61 196.08 236.61 196.08 236.576C196.046 236.644 196.012 236.678 195.978 236.746C195.978 236.746 195.978 236.746 195.978 236.712C195.91 236.813 195.876 236.881 195.808 236.983C195.808 236.949 195.842 236.949 195.842 236.915C193.426 240.714 191.793 245.328 188.152 248.143C192.678 267.275 194.345 286.847 196.216 306.352C196.216 306.318 196.216 306.318 196.216 306.284C198.36 324.16 201.593 341.901 202.443 359.879C202.715 376.942 205.063 393.834 205.131 410.897C215.441 410.829 225.717 411.236 235.993 412.118C242.05 413.101 248.617 412.118 254.368 414.289C254.776 414.221 254.946 414.662 255.15 414.933C255.15 414.933 255.15 414.899 255.116 414.899C255.15 414.967 255.218 415.035 255.286 415.069C255.49 415.069 255.661 415.171 255.729 415.34C265.052 415.51 274.647 412.762 283.698 416.222C280.228 390.408 279.785 364.357 279.241 338.373C278.798 329.961 277.846 321.582 276.961 313.204C277.131 310.219 274.443 305.775 277.54 303.774C280.33 302.586 280.942 306.487 282.167 308.15C284.141 311.643 286.318 315.035 288.428 318.462C300.473 339.052 310.681 360.999 326.674 378.977C330.281 382.844 334.364 386.813 339.229 389.017C349.676 392.206 360.972 390.544 371.453 388.237C376.999 386.541 382.103 383.488 384.825 378.197C388.704 372.532 391.392 366.019 391.562 359.065C392.583 337.423 385.71 316.732 377.169 297.125V297.159C377.101 297.023 377.067 296.888 376.999 296.752V296.786C374.005 288.373 370.432 280.199 367.029 271.99C367.063 272.091 367.097 272.159 367.131 272.261C361.925 259.744 356.311 247.227 348.757 235.931C343.823 228.299 337.834 221.447 332.118 214.459C330.042 210.592 327.899 206.759 325.653 202.994C325.687 203.062 325.721 203.13 325.789 203.232C319.222 191.054 323.577 195.362 325.177 186.678C323.577 186.441 322.08 188.34 320.583 187.526C318.712 185.287 323.441 181.42 321.876 178.808C319.868 178.876 317.861 180.877 315.955 180.029C313.744 177.35 319.29 173.551 318.405 170.226C318.405 170.294 318.439 170.328 318.439 170.396C318.371 169.989 318.167 169.582 317.793 169.378C317.827 169.412 317.895 169.412 317.929 169.446C317.725 169.344 317.487 169.276 317.248 169.209C317.282 169.209 317.35 169.243 317.384 169.243C317.248 169.209 317.112 169.209 316.976 169.175C317.01 169.175 317.078 169.175 317.112 169.175C315.649 169.039 314.22 169.48 312.927 170.124C313.608 171.006 311.6 171.719 310.988 172.16C308.231 172.906 310.851 169.446 311.906 169.005C319.154 163.917 322.795 169.243 319.324 176.332C325.347 173.958 325.415 179.996 323.679 183.998C330.042 182.438 327.558 190.986 325.415 193.869C327.286 200.28 332.084 205.301 334.704 211.406C341.203 219.649 348.212 227.621 353.793 236.576C366.723 257.404 374.719 280.775 384.11 303.299C384.076 303.197 384.042 303.129 384.008 303.027C387.275 311.27 390.337 319.615 392.515 328.197C392.549 328.4 392.617 328.57 392.651 328.774C392.651 328.774 392.651 328.774 392.651 328.74C395.407 342.376 397.755 358.726 392.719 372.023C388.874 380.368 383.77 388.983 374.447 391.901C364.715 395.089 353.861 396.412 343.653 395.123C330.927 393.902 323.135 382.301 315.513 373.346C315.513 373.38 315.547 373.38 315.547 373.414C302.073 355.741 292.885 335.354 281.214 316.528C284.005 338.848 283.018 361.338 284.617 383.726C285.298 392.138 285.91 400.517 286.727 408.929C286.693 411.575 288.496 415.204 286.284 417.274C293.838 420.598 302.107 424.77 306.496 432.029C309.865 439.255 303.502 439.865 298.908 435.896C305.135 440.035 303.127 447.124 295.608 442.952C299.214 450.279 289.993 447.226 286.454 445.666C289.347 452.416 278.764 447.735 275.736 447.837C267.91 446.955 260.118 445.462 252.224 446.276C246.575 451.466 222.825 449.6 214.216 450.754C211.732 450.923 209.248 451.127 206.765 451.331C206.833 451.331 206.935 451.331 207.003 451.297C196.284 452.009 185.634 453.535 174.95 454.621C169.846 454.858 164.742 454.892 159.74 456.046C150.076 458.386 139.698 457.301 129.524 458.216ZM91.7551 452.28C112.681 455.469 133.914 454.79 154.908 453.434C164.265 450.957 173.963 451.466 183.422 449.906C204.553 446.378 226.092 447.565 247.256 444.648C247.902 438.78 248.413 432.911 249.434 427.111C249.91 424.024 250.25 420.903 251.203 417.952C220.545 414.594 189.683 415.951 158.889 414.933C153.173 414.39 147.456 413.508 141.706 413.067C133.199 412.152 120.644 414.594 117.887 403.807C114.076 390.951 112.783 377.518 112.171 364.153C111.593 346.209 109.959 328.333 108.496 310.422C107.816 305.131 106.693 299.873 106.829 294.513C106.829 292.715 109.653 292.003 109.959 294.038C110.061 294.852 110.129 295.667 110.231 296.481C110.266 296.752 110.3 297.023 110.334 297.295C110.334 297.261 110.334 297.227 110.334 297.227C113.362 316.867 116.22 336.643 116.628 356.555C117.343 367.783 117.343 379.146 119.589 390.205C120.712 395.361 120.644 401.263 123.74 405.707C123.706 405.673 123.706 405.673 123.672 405.639C123.706 405.673 123.74 405.707 123.774 405.741C123.74 405.707 123.74 405.707 123.706 405.673C129.388 410.218 137.759 407.572 144.564 408.895C163.959 411.745 183.524 411.032 203.056 411.032C203.192 400.686 202.579 390.34 201.661 380.028C200.878 367.342 200.878 354.621 199.245 342.003C199.245 342.037 199.245 342.105 199.245 342.138C197.237 325.822 194.209 309.676 192.61 293.292C192.61 293.326 192.61 293.36 192.61 293.394C192.576 292.953 192.507 292.546 192.473 292.105C192.473 292.173 192.473 292.241 192.507 292.274C191.01 277.688 188.322 263.238 187.165 248.618C184.579 248.245 183.048 245.497 181.109 243.937C178.012 240.918 175.188 237.628 172.194 234.541C163.959 226.026 155.725 217.614 148.341 208.354C147.865 208.455 147.388 208.252 147.082 207.845C144.632 209.744 141.876 211.271 139.222 212.865C143.611 222.465 147.933 232.064 151.574 241.969C153.445 240.07 160.216 226.739 162.734 229.588C163.415 230.334 163.245 231.488 162.666 232.234C159.978 235.626 157.63 239.222 155.283 242.851C153.955 244.446 153.377 247.125 151.199 247.77C148.273 247.668 148.205 242.919 146.98 240.85C143.645 231.861 140.107 222.94 137.861 213.611C120.303 222.329 101.18 227.756 83.9631 237.153C83.9631 237.153 83.9971 237.153 83.9971 237.119C83.9631 237.119 83.9631 237.153 83.929 237.153C83.929 237.153 83.929 237.153 83.895 237.153C83.895 237.153 83.895 237.153 83.929 237.153C83.895 237.187 83.861 237.187 83.827 237.22C57.5245 250.212 51.8081 282.777 50.8553 309.337C50.8553 309.269 50.8553 309.235 50.8553 309.167C50.8553 309.405 50.8553 309.642 50.8553 309.846C50.8553 309.879 50.8553 309.947 50.8553 309.981C50.8553 309.981 50.8553 309.981 50.8553 309.947C50.7192 336.575 53.4754 363.17 55.1427 389.73C57.7627 405.401 54.9725 437.084 69.1956 446.344C69.1275 446.31 69.0935 446.276 69.0255 446.242C69.9782 446.819 70.965 447.294 71.9517 447.735C71.8837 447.701 71.8497 447.667 71.7816 447.667C76.3071 449.533 80.9007 451.432 85.8345 451.704C85.8685 451.704 85.8685 451.704 85.9026 451.704C86.3109 451.738 86.7192 451.771 87.0935 451.805C87.0935 451.805 87.0935 451.805 87.0595 451.805H87.0935H87.1275H87.0935C88.6927 451.975 90.2239 452.111 91.7551 452.28ZM258.859 442.002C267.059 442.307 275.294 443.868 283.154 446.073C281.35 444.716 279.411 443.563 277.471 442.545C276.655 441.663 277.335 440.001 278.56 440.001C283.766 441.12 288.564 443.664 293.77 444.852C290.776 441.086 285.536 439.017 281.01 437.626C279.751 436.948 280.398 434.675 281.827 434.709C284.719 435.286 287.679 435.93 290.402 437.118C293.838 438.169 296.764 441.459 300.405 441.459C297.071 436.371 291.082 433.556 285.774 430.91C282.916 429.519 284.991 426.67 287.577 428.027C291.15 429.18 294.723 430.435 298.194 431.928C300.507 432.877 302.243 434.981 304.761 435.421C300.337 426.398 289.109 422.464 280.023 419.546C271.925 417.443 263.282 419.818 255.286 417.308C255.218 417.647 255.15 418.02 255.116 418.359C255.116 418.257 255.15 418.156 255.15 418.054C253.959 425.991 252.598 434.031 252.7 442.07C254.742 441.934 256.783 441.968 258.859 442.002ZM149.668 206.793C163.007 218.564 175.052 231.725 187.438 244.514C197.169 230.233 206.254 215.409 215.577 200.857C214.829 191.223 211.63 181.827 211.766 172.126C213.4 167.072 237.456 170.498 230.549 155.844C225.037 157.506 219.627 159.507 214.012 160.762C214.012 160.762 214.012 160.762 214.046 160.762C213.57 160.864 213.093 161 212.617 161.101H212.583C200.231 164.222 187.063 162.56 183.558 148.517C184.715 145.464 191.997 146.007 194.957 144.887C198.394 144.107 201.865 143.463 205.301 142.716C205.233 142.75 205.131 142.75 205.063 142.784C212.821 140.477 221.26 139.799 228.541 136.271C228.439 135.898 228.303 135.559 228.167 135.22C223.846 124.636 221.192 113.51 218.129 102.554C217.313 106.217 212.243 105.199 209.453 106.217C205.982 106.251 203.498 109.27 200.129 109.406C200.231 110.322 199.211 110.05 199.313 109.27C191.827 104.114 213.672 95.973 217.143 99.4329C216.768 98.3814 216.53 97.2959 216.258 96.2443C216.02 95.1928 215.713 94.1073 215.509 93.0218C210.099 91.665 205.71 87.2213 201.831 83.4221C199.415 92.5469 189.037 95.532 181.687 89.9011C180.258 100.417 167.838 104.182 159.128 99.7382C159.128 105.64 153.785 110.729 147.797 109.168C148.886 113.408 145.415 117.377 141.025 116.495C144.156 125.824 147.967 134.982 151.846 144.039C153.105 147.872 155.861 151.57 155.521 155.742C152.152 161.644 145.721 149.67 144.19 146.855C144.19 146.855 144.156 146.821 144.156 146.787C144.156 146.787 144.156 146.821 144.19 146.821C143.101 144.344 139.596 146.515 137.793 147.228C132.961 150.145 141.23 157.133 143.952 159.134C147.048 163.408 148.783 173.517 145.041 177.757C147.218 187.221 148.103 196.854 149.668 206.454C149.668 206.488 149.668 206.624 149.668 206.793Z" fill="white"/>
    <path d="M311.497 224.466C310.545 220.158 318.643 219.378 321.229 217.41C324.359 215.477 327.83 214.222 331.131 212.594C331.913 211.915 333.308 211.712 333.717 212.899C337.085 215.341 323.407 219.717 321.705 221.074C319.119 221.447 313.029 227.18 311.497 224.466Z" fill="white"/>
    <path d="M310.375 173.347C308.674 172.465 310.954 170.09 312.213 170.158C314.084 170.904 311.6 173.482 310.375 173.347Z" fill="white"/>
    <path d="M317.249 179.317C315.037 179.114 319.12 173.313 317.657 169.989C317.691 170.023 317.691 170.091 317.725 170.124C316.398 168.53 313.642 171.312 312.451 172.295C311.498 172.906 310.954 174.399 309.763 174.466C305.339 174.704 314.731 166.665 316.432 167.072C322.08 165.206 320.209 179.181 317.249 179.317Z" fill="white"/>
    <path d="M102.849 412.253C102.679 410.998 104.244 411.032 105.129 410.863C105.163 410.863 105.197 410.863 105.231 410.863C105.265 410.863 105.265 410.863 105.299 410.863C105.333 410.863 105.367 410.863 105.401 410.863C105.401 410.863 105.401 410.863 105.367 410.863C105.401 410.863 105.469 410.863 105.503 410.829C106.592 410.863 108.429 409.574 109.178 410.625C109.11 411.066 109.008 411.812 108.531 411.948C108.123 411.982 108.089 411.507 108.225 411.202C106.796 411.371 103.597 413.915 102.849 412.253Z" fill="white"/>
    <path d="M105.399 401.738C103.63 401.331 94.749 399.872 96.1441 397.294C96.4504 396.684 97.1649 396.344 97.8114 396.65C100.431 397.837 102.983 399.431 105.91 399.703C107.169 399.94 106.556 401.941 105.399 401.738Z" fill="white"/>
    <path d="M138.303 373.956C137.384 373.617 135.173 374.024 135.139 372.701C135.717 371.48 137.589 372.701 138.643 372.532C139.494 372.735 139.086 374.092 138.303 373.956Z" fill="white"/>
    <path d="M172.568 258.93C170.935 257.437 175.052 254.69 175.529 252.994C175.971 252.383 176.209 251.128 177.23 251.399C177.741 251.569 177.877 252.247 177.638 252.688C176.482 254.181 174.508 259.201 172.568 258.93Z" fill="white"/>
    <path d="M281.179 294.886C279.478 294.106 282.2 292.172 282.744 291.29C283.765 290.578 284.786 288.068 286.215 288.848C287.202 290.544 282.71 292.647 281.928 294.276C281.928 294.276 281.928 294.275 281.928 294.242C281.792 294.581 281.588 294.886 281.179 294.886Z" fill="white"/>
    <path d="M289.653 304.282C289.551 303.061 292.205 299.194 293.532 300.212C294.451 301.602 292.205 302.484 291.627 303.536C291.218 303.977 291.287 304.757 290.606 304.927C290.164 304.995 289.721 304.723 289.653 304.282Z" fill="white"/>
    <path d="M341.511 357.471C340.66 355.368 343.178 353.332 344.131 351.602C344.199 351.501 344.267 351.433 344.335 351.331C344.335 351.297 344.369 351.297 344.369 351.263C344.369 351.229 344.403 351.229 344.403 351.195C344.437 351.161 344.437 351.128 344.471 351.094C346.921 347.328 348.724 350.246 346.683 350.754L346.649 350.788L346.683 350.754C346.649 350.788 346.649 350.788 346.615 350.822C346.615 350.822 346.615 350.822 346.649 350.788C345.254 352.518 343.892 354.486 343.178 356.589C343.144 357.437 342.089 358.081 341.511 357.471Z" fill="white"/>
    <path d="M350.494 358.929C348.282 357.844 351.447 354.52 352.025 353.027C352.025 353.027 352.025 353.061 351.991 353.061C352.91 352.009 353.829 349.16 355.53 349.805C356.04 350.178 355.972 350.958 355.598 351.399C353.386 352.925 352.161 359.235 350.494 358.929Z" fill="white"/>
    <path d="M414.665 365.476C415.345 361.304 415.686 356.996 414.359 352.925C414.359 352.959 414.393 352.993 414.393 353.061C414.359 352.925 414.325 352.79 414.291 352.654C414.291 352.688 414.325 352.722 414.325 352.79C413.474 351.026 415.72 349.465 415.856 351.704C417.285 355.232 417.795 359.031 417.591 362.83C417.591 362.796 417.591 362.762 417.591 362.728C417.591 362.796 417.591 362.864 417.591 362.932C417.591 363 417.591 363.102 417.591 363.169C417.591 363.135 417.591 363.102 417.591 363.068C417.455 364.424 417.863 366.663 416.06 366.969C415.209 367.036 414.529 366.29 414.665 365.476Z" fill="white"/>
    <path d="M399.084 382.912C397.825 381.758 399.526 380.503 400.241 379.587C401.908 377.281 402.929 374.601 403.712 371.921C403.712 371.955 403.712 371.989 403.677 371.989C404.188 370.123 404.698 368.258 404.868 366.324C404.868 366.935 403.984 367.24 404.052 366.46C404.188 365.883 404.528 365.239 405.073 364.967C407.454 366.121 404.154 376.67 403.065 378.909C403.099 378.841 403.099 378.807 403.133 378.739C402.282 380.198 401.194 383.726 399.084 382.912Z" fill="white"/>
    <path d="M387.48 392.85C385.03 391.901 388.297 390.035 389.386 389.357C390.1 388.95 390.713 388.102 391.563 388.034C394.047 389.051 389.148 391.46 388.399 392.409C388.433 392.376 388.467 392.342 388.501 392.308C388.195 392.545 387.889 392.85 387.48 392.85Z" fill="white"/>
    <path d="M36.3947 455.639C34.8975 455.605 33.9448 453.942 35.0336 452.789C36.769 451.331 39.389 451.975 41.5327 451.602C46.5686 450.923 51.6045 451.738 56.6064 451.331C62.7992 450.754 69.0601 450.822 75.2529 450.042C77.9069 449.397 78.2132 452.416 75.6612 452.823C75.7292 452.789 75.7973 452.789 75.8653 452.755C63.0033 455.876 49.5289 454.519 36.3947 455.639Z" fill="white"/>
    <path d="M306.463 433.115C306.292 433.047 306.156 432.979 306.054 432.843C303.877 433.624 302.754 430.537 304.829 429.621C308.742 428.739 312.928 428.739 316.943 428.061C332.867 426.907 348.894 427.653 364.852 426.602H364.818C364.886 426.602 364.92 426.602 364.988 426.602C364.954 426.602 364.954 426.602 364.92 426.602C364.954 426.602 365.022 426.602 365.056 426.602H365.022C372.78 426.534 380.538 425.618 388.296 425.482C390.44 425.923 396.258 423.99 396.395 427.111C395.544 430.299 388.671 428.875 385.948 429.553C367.71 431.86 349.302 431.147 330.996 432.776C331.098 432.776 331.166 432.776 331.268 432.776C323.714 432.911 316.194 433.149 308.64 433.115C308.164 434.065 307.109 433.454 306.463 433.115Z" fill="white"/>
    <path d="M121.189 132.336C119.045 130.165 116.221 127.214 116.799 123.958C116.935 123.415 117.786 123.517 117.65 124.093C117.514 124.399 117.582 124.772 117.65 125.077C117.65 125.043 117.65 125.043 117.65 125.009C118.398 127.553 120.474 129.419 122.345 131.183C122.924 131.827 121.869 132.981 121.189 132.336Z" fill="white"/>
    <path d="M127.96 107.574C124.897 106.794 128.436 101.977 129.933 100.925C131.124 100.484 133.2 98.1438 134.255 99.3989C134.459 99.8399 134.221 100.417 133.812 100.688C131.975 101.807 129.797 102.587 128.742 104.589C128.777 104.555 128.777 104.521 128.811 104.487C128.504 105.03 128.198 105.573 128.164 106.217C129.049 106.285 128.708 107.608 127.96 107.574Z" fill="white"/>
    <path d="M152.661 92.0718C151.368 91.8682 147.965 91.3594 147.863 89.9008C148.51 88.3404 150.347 90.24 151.504 90.2061C152.253 90.4435 153.852 90.1722 153.614 91.3594C153.512 91.8004 153.103 92.1057 152.661 92.0718Z" fill="white"/>
    <path d="M159.843 81.1493C158.074 79.3515 164.267 74.0937 166.274 74.1276C168.146 74.0598 167.125 76.129 165.764 76.1629C165.798 76.1629 165.832 76.129 165.9 76.129C163.79 76.7395 162.293 78.5034 161.068 80.2673C161.068 80.8779 160.422 81.4207 159.843 81.1493Z" fill="white"/>
    <path d="M189.139 70.3963C187.608 69.1752 193.971 66.9025 194.958 66.5632C195.842 66.4615 197.85 67.0381 197.305 68.1915C197.135 68.4967 196.659 68.7681 196.319 68.5646C194.073 67.2077 191.181 69.4805 189.139 70.3963Z" fill="white"/>
    <path d="M205.711 75.2131C204.588 75.0774 202.921 74.806 202.41 73.7205C202.478 73.517 202.716 73.5509 202.784 73.7205C202.818 73.7545 202.853 73.7545 202.887 73.7884C203.261 73.9919 203.635 74.1276 204.043 74.2294C204.043 74.2294 204.043 74.2294 204.009 74.2294H204.043C204.282 74.2633 204.52 74.2972 204.758 74.3311H204.792C204.792 74.3311 204.792 74.3311 204.758 74.3311C206.187 74.5346 207.616 73.5848 208.977 73.7884C209.964 75.4505 206.663 75.1791 205.711 75.2131Z" fill="white"/>
    <path d="M214.898 65.3422C214.659 64.2567 216.088 64.1889 216.769 63.8157C217.926 63.4426 218.913 62.425 220.104 62.2214C220.954 62.3571 220.818 63.5444 220.104 63.8157C218.811 64.121 215.85 66.5633 214.898 65.3422Z" fill="white"/>
    <path d="M178.42 83.6254C175.902 81.7597 178.318 79.4192 178.863 81.4545C179.101 81.7937 179.407 82.0311 179.679 82.3025C180.394 83.0487 179.169 84.3717 178.42 83.6254Z" fill="white"/>
    <path d="M264.745 140.172C264.269 137.764 267.093 135.287 268.216 133.218C268.556 132.777 269.237 132.675 269.645 133.083C270.768 134.846 266.855 137.628 266.412 139.629C266.412 139.595 266.446 139.528 266.446 139.46C266.446 139.494 266.412 139.528 266.412 139.561V139.528C266.378 140.342 265.289 140.918 264.745 140.172Z" fill="white"/>
    <path d="M270.224 139.494C268.761 138.442 271.551 137.085 271.891 135.966C272.776 135.152 273.218 132.506 274.75 133.083C275.158 133.354 275.192 133.998 274.92 134.405C273.525 136.034 272.402 138.883 270.224 139.494Z" fill="white"/>
    <path d="M276.793 138.069C277.678 135.389 279.175 132.404 281.216 130.437C283.292 130.097 282.577 132.608 281.591 133.456C281.625 133.422 281.659 133.354 281.693 133.32C280.638 134.846 279.549 136.407 278.732 138.103C278.63 139.392 276.691 139.46 276.793 138.069Z" fill="white"/>
</svg>
