<svg width="540" height="485" viewBox="0 0 540 485" fill="none" xmlns="http://www.w3.org/2000/svg">
    <g clip-path="url(#clip0_326_26258)">
        <path d="M479.996 190.996C477.73 200.803 473.497 209.895 469.711 219.196C467.625 225.396 465.657 231.656 463.243 237.738C463.243 237.738 463.243 237.767 463.213 237.797C462.944 238.543 462.706 239.258 462.468 240.003C462.11 241.047 461.782 242.12 461.514 243.193C457.281 243.729 453.018 243.789 448.815 244.683C448.666 245.011 448.487 245.309 448.338 245.637C442.525 256.667 432.896 267.398 419.512 267.13C403.027 266.236 387.854 259.499 374.23 250.556C373.873 250.317 373.515 250.079 373.157 249.84C373.068 249.781 372.949 249.691 372.859 249.632C372.561 249.453 372.293 249.244 371.995 249.036C370.474 251.092 369.103 253.239 367.732 255.415C367.493 255.773 367.225 256.19 366.987 256.577C366.718 256.995 366.45 257.382 366.122 257.71C365.556 258.306 364.87 258.634 363.916 258.336C355.838 258.187 347.849 257.025 339.83 255.802C334.524 254.849 329.128 254.849 323.822 253.805C323.345 253.984 322.987 253.984 322.749 253.835C321.497 253.09 322.868 248.678 322.779 247.515C323.375 240.063 324.895 232.73 326.058 225.367C326.624 221.819 327.429 218.331 328.144 214.814C327.995 214.188 328.055 213.473 328.293 212.846C328.383 212.608 328.502 212.399 328.651 212.191C328.651 211.088 329.128 210.044 329.575 209.567C329.993 209.15 330.41 209.21 330.47 210.134C330.499 210.492 330.499 210.939 330.41 211.535C331.781 212.071 333.153 212.638 334.285 213.562C334.345 213.502 334.405 213.443 334.434 213.353C337.236 209.776 338.906 205.573 340.992 201.608C341.469 200.684 341.976 199.76 342.543 198.866C339.204 197.077 335.478 195.706 332.616 193.112C332.586 193.023 332.527 192.934 332.497 192.844C332.079 192.308 331.93 191.592 331.93 190.847C331.871 189.535 332.169 188.075 332.05 186.882C332.139 184.766 332.139 182.679 332.228 180.562C329.784 182.739 327.489 185.034 324.985 187.121C324.925 187.18 324.865 187.24 324.806 187.299C324.06 188.075 322.838 189.356 322.302 187.747C321.229 188.134 320.006 187.627 318.903 187.508C315.296 187.18 311.57 185.72 307.993 186.465C302.448 188.611 296.457 192.874 293.386 198.031C293.356 198.061 293.327 198.12 293.297 198.15C293.327 198.18 293.356 198.18 293.386 198.21C298.305 201.4 304.744 191.473 304.923 195.825C304.923 195.944 304.923 196.093 304.923 196.272C305.012 196.242 305.072 196.242 305.161 196.242C306.204 196.183 306.175 197.226 306.204 198.269C306.204 198.359 306.204 198.448 306.204 198.538C306.234 199.045 306.294 199.492 306.532 199.79C307.337 200.237 308.172 200.684 308.142 201.727C308.768 201.519 309.066 201.817 309.185 202.264C309.305 202.711 309.215 203.278 309.066 203.725C309.007 203.874 308.947 204.023 308.887 204.142C308.53 204.679 308.112 205.185 307.665 205.662C306.83 206.557 305.906 207.361 305.072 208.226C301.614 211.714 298.275 215.351 294.787 218.808C294.37 219.196 293.684 219.643 293.178 219.375C293.058 219.315 292.969 219.226 292.879 219.107C291.299 216.781 289.541 214.635 287.871 212.37C287.186 211.445 286.5 210.492 285.874 209.508C285.099 208.315 284.384 207.093 283.787 205.811C283.519 205.364 283.251 204.887 282.983 204.44C281.581 202.085 280.091 199.79 278.63 197.465C277.676 195.974 276.454 194.394 276.514 192.635C276.514 192.188 276.633 191.711 276.842 191.205C277.05 190.847 277.319 190.489 277.557 190.161C278.66 188.671 280.031 187.329 280.955 185.66C297.977 163.69 309.513 133.85 337.773 124.132C342.125 122.374 346.627 121.151 351.187 120.078C352.499 119.78 353.841 119.452 355.182 119.154C357.656 118.618 360.101 118.081 362.545 117.485C363.737 117.246 364.93 116.978 366.122 116.71C366.808 116.561 367.493 116.382 368.179 116.203C368.209 116.203 368.209 116.203 368.239 116.173C369.342 115.786 370.057 116.024 370.296 116.859C370.385 117.157 370.415 117.485 370.385 117.932C384.247 116.322 398.078 114.325 411.94 112.805C412.566 112.805 413.192 112.775 413.788 112.775C414.295 112.775 414.802 112.775 415.338 112.775C415.756 112.775 416.173 112.775 416.56 112.775C425.563 112.894 434.566 113.848 443.479 115.07C464.077 118.379 487.478 121.45 490.042 146.639C492.188 162.349 484.944 176.777 479.996 190.996Z" fill="#5D5FEF"/>
        <path d="M364.335 114.951C363.948 116.203 362.964 117.246 361.563 117.127C358.463 117.872 356.764 118.26 355.154 119.363C354.11 120.108 353.097 121.151 351.756 122.85C351.815 123.357 351.517 123.476 351.159 123.596C350.951 123.864 350.623 124.043 350.414 123.625C350.474 122.493 350.712 121.36 351.159 120.257C353.008 115.666 357.986 111.731 362.696 111.225C363.202 111.344 363.56 111.612 363.858 111.94C364.544 112.715 364.663 113.907 364.335 114.951Z" fill="#5D5FEF"/>
        <path d="M367.704 113.312C367.644 114.236 367.138 115.07 366.005 114.951C365.945 114.951 365.856 114.951 365.796 114.951C365.289 114.981 364.723 115.16 364.335 114.921C364.246 114.862 364.157 114.772 364.067 114.683C363.978 114.534 363.888 114.385 363.829 114.236C362.547 114.116 362.577 112.656 363.739 112.358C363.769 112.209 363.799 112.06 363.859 111.91C364.097 111.463 364.544 111.225 365.081 111.135C365.886 111.016 366.839 111.225 367.316 111.702C367.376 111.791 367.436 111.881 367.465 112C367.674 112.447 367.734 112.894 367.704 113.312Z" fill="#5D5FEF"/>
        <path d="M509.716 175.197C502.413 225.039 492.963 274.612 486.137 324.454C484.706 333.964 483.991 343.592 482.291 353.072C481.516 357.603 478.714 360.763 474.958 362.79C473.885 363.386 472.722 363.863 471.5 364.28C469.831 364.549 468.162 364.787 466.492 364.996C432.897 369.378 398.466 365.503 364.692 364.429C363.797 364.4 362.903 364.34 362.009 364.31C358.819 364.161 355.6 364.072 352.41 363.982C349.28 363.893 346.12 363.803 342.96 363.744C342.573 363.744 342.185 363.714 341.798 363.714C320.871 363.297 299.736 363.326 278.959 362.283C276.156 362.134 273.354 361.985 270.552 361.806C263.785 361.359 257.048 360.793 250.371 360.018C248.672 359.809 246.973 359.63 245.273 359.392C244.379 357.812 244.469 354.473 246.496 353.966C247.628 354.056 248.761 354.145 249.894 354.205C280.538 356.411 311.243 356.828 341.947 357.215C342.722 357.215 343.467 357.245 344.242 357.245C347.491 357.275 350.741 357.335 353.99 357.364C354.228 357.364 354.497 357.364 354.735 357.364C387.138 358.408 419.631 360.554 452.124 360.494C460.948 360.167 472.424 362.581 478.744 354.86C479.877 352.982 480.056 350.747 480.413 348.63C482.619 329.224 484.944 309.848 487.836 290.561C493.619 258.128 498.776 225.605 503.635 193.023C506.378 171.053 513.83 149.53 513.651 127.292C513.89 116.233 501.34 112.119 492.367 110.211C466.91 103.295 440.647 110.42 414.772 108.721C414.593 108.75 414.414 108.75 414.236 108.75C412.626 108.721 411.672 107.618 412.566 105.948C412.656 105.829 412.745 105.74 412.864 105.65C413.192 105.442 413.639 105.412 414.027 105.352C418.707 104.994 423.417 105.054 428.097 104.965C441.81 104.488 455.463 102.49 469.205 103.474C483.007 104.458 510.581 106.246 515.142 121.897C518.212 139.753 512.25 157.579 509.716 175.197Z" fill="#5D5FEF"/>
        <path d="M365.02 266.385C363.112 264.06 365.676 260.691 366.421 258.277C367.107 256.399 367.733 254.491 368.18 252.553C368.418 251.748 368.538 250.049 369.7 250.258C372.025 244.564 374.589 248.946 372.234 252.553C370.714 254.461 367.673 268.442 365.02 266.385Z" fill="#5D5FEF"/>
        <path d="M449.113 245.637C447.682 245.667 444.463 245.548 445.804 243.372C447.444 242.597 449.441 242.865 451.2 242.478C460.054 240.51 468.847 238.334 477.969 237.797C479.609 237.976 482.023 236.665 483.216 238.036C484.378 239.467 484.349 243.908 482.113 244.236C481.308 244.207 480.503 244.236 479.698 244.236C469.473 243.998 459.308 245.369 449.113 245.637Z" fill="#5D5FEF"/>
        <path d="M375.365 248.41C375.394 248.588 375.335 249.542 375.007 249.036C374.739 249.542 374.5 250.049 374.232 250.586C370.237 258.754 367.018 267.22 364.246 275.894C360.46 287.729 357.509 299.861 354.468 311.905C354.468 311.934 354.468 311.964 354.438 311.994C353.216 316.913 351.964 321.801 350.623 326.66C348.655 336.915 346.449 347.08 344.273 357.275C344.124 357.901 344.005 358.527 343.856 359.183C343.617 360.226 343.796 362.879 342.991 363.744C342.783 363.953 342.544 364.072 342.216 364.012C342.067 363.923 341.948 363.833 341.829 363.714C340.905 362.82 341.381 361.15 341.501 359.958C341.65 359.064 341.829 358.14 341.978 357.215C343.558 348.153 345.406 339.121 347.433 330.118C350.861 314.886 354.885 299.772 359.267 284.778C361.443 278.756 363.292 272.585 365.438 266.564C366.213 264.388 367.018 262.212 367.912 260.065C368.121 259.529 368.359 259.022 368.598 258.485C369.403 256.995 371.191 252.553 372.861 249.632C372.95 249.483 373.04 249.304 373.159 249.155C373.904 247.933 374.649 247.068 375.245 246.979C375.663 247.307 375.603 247.992 375.365 248.41Z" fill="#5D5FEF"/>
        <path d="M362.037 364.28C360.905 378.47 349.696 412.185 349.368 416.149C346.864 426.225 343.376 436.033 341.439 446.228C339.322 454.485 337.772 462.921 335.268 471.059C334.97 473.861 332.019 479.048 329.873 474.279C327.935 468.764 332.436 454.753 333.629 448.404C339.263 420.114 345.702 391.974 352.468 363.923C353.005 361.746 353.512 359.541 354.048 357.364C354.078 357.305 354.078 357.245 354.108 357.186C354.346 357.245 354.585 357.305 354.794 357.364C356.016 357.662 357.298 357.752 358.55 357.573C358.55 357.633 358.579 357.692 358.579 357.722C358.788 357.931 358.997 358.11 359.235 358.318C361.709 357.096 362.395 359.66 362.037 364.28Z" fill="#5D5FEF"/>
        <path d="M488.73 462.116C488.611 463.607 487.239 466.111 485.6 464.65C484.08 462.981 484.288 460.298 483.871 458.241C483.483 455.498 482.887 452.756 482.44 450.013C476.955 424.049 473.378 397.727 467.774 371.763C467.326 369.497 466.73 367.232 466.492 364.966C466.432 364.429 466.402 363.893 466.402 363.356C466.611 359.69 468.906 359.958 469.413 363.505C471.381 358.02 473.259 358.617 474.988 362.79C480.562 376.324 484.497 427.626 485.004 430.637C486.345 439.222 486.852 447.927 488.581 456.452C488.79 458.301 489.624 460.328 488.73 462.116Z" fill="#5D5FEF"/>
        <path d="M211.141 369.11C211.856 369.855 212.035 370.958 211.916 372.001C211.886 372.359 211.796 372.717 211.677 373.045C207.712 382.524 204.404 392.272 200.826 401.93C196.981 418.415 192.301 434.691 188.127 451.057C187.8 452.398 187.293 456.959 185.266 455.618C185.117 455.498 184.997 455.32 184.908 455.141C181.48 454.455 183.894 447.629 183.865 445.154C189.022 417.282 196.772 389.947 205.566 363.028C205.894 362.015 206.222 361.031 206.55 360.018C206.908 358.915 207.236 357.752 207.742 356.709C207.951 356.291 208.428 355.934 208.875 356.202C210.008 357.096 209.59 358.825 209.501 360.077C210.813 358.825 212.095 360.345 212.422 361.687C213.197 364.251 211.886 366.725 211.141 369.11Z" fill="#5D5FEF"/>
        <path d="M296.1 445.691C295.772 445.601 295.534 445.363 295.295 445.125C294.014 445.601 292.553 442.561 292.106 441.577C290.735 441.249 290.019 438 289.453 436.778C288.171 432.992 286.919 429.415 285.756 425.659C283.312 417.073 280.838 408.518 279.168 399.754C278.811 396.773 271.537 371.822 270.583 361.806C270.315 358.914 270.553 357.275 271.656 357.752C273.206 359.868 272.7 355.218 276.217 357.633C277.618 358.825 278.423 360.465 278.96 362.283C279.884 365.413 279.973 369.08 280.718 371.971C281.344 375.37 282.239 378.738 282.656 382.196C287.694 402.02 293.179 421.724 297.65 441.667C297.949 442.948 297.829 445.9 296.1 445.691Z" fill="#5D5FEF"/>
        <path d="M416.233 115.965C415.995 116.054 415.726 115.875 415.577 115.666C415.458 115.517 415.369 115.368 415.249 115.219C414.713 114.474 414.236 113.729 413.759 112.954C413.58 112.656 413.371 112.328 413.222 112C412.298 110.36 411.493 108.631 410.778 106.843C407.111 97.5421 403.951 87.8837 402.223 78.0166C402.223 75.9598 400.792 71.4585 402.699 70.1766C405.293 67.3745 408.125 63.6781 406.515 59.6836C405.323 55.3314 395.903 55.1823 396.797 60.6077C396.618 62.6944 397.691 65.1686 396.648 67.0466C396.261 67.3745 395.933 67.136 395.515 67.1957C394.8 67.1062 393.906 67.464 393.309 66.9572C390.865 62.5453 390.775 57.2392 388.927 52.5889C384.098 28.4429 376.586 47.9087 363.41 37.8032C362.039 36.6406 360.459 35.6569 358.611 35.5078C352.023 34.4347 346.866 38.459 340.993 40.4563C335.508 41.3506 330.053 38.5186 326.833 34.1068C325.403 42.3045 325.939 50.5618 326.565 58.7893C326.655 59.2066 326.774 59.6538 326.863 60.0711C327.132 61.1443 327.4 62.2174 327.728 63.2608C327.996 64.1849 328.264 65.1388 328.562 66.0629C328.652 66.3312 328.711 66.5697 328.801 66.8081C329.039 67.5534 329.278 68.2688 329.516 69.0141C329.665 69.4612 329.814 69.8786 329.963 70.2959C330.142 70.8623 330.351 71.3988 330.53 71.9652C330.828 72.8297 331.126 73.6644 331.424 74.4991C332.587 77.7483 333.749 81.0274 334.793 84.3065C334.912 84.7238 335.061 85.1114 335.18 85.5287C335.508 86.6317 335.836 87.7346 336.134 88.8674C341.321 105.859 348.595 102.133 363.052 99.6884C364.006 98.7941 364.573 100.374 364.632 101.149C365.288 103.534 366.093 105.889 366.63 108.303C366.957 109.526 367.226 110.778 367.464 112.03C367.554 112.447 367.613 112.864 367.703 113.311C367.882 114.325 368.031 115.368 368.15 116.412C368.15 116.501 368.18 116.561 368.18 116.65C368.209 116.829 368.239 117.097 368.299 117.366C368.597 118.916 369.104 121.509 367.226 121.211C366.391 120.287 366.272 118.946 366.182 117.634C366.153 117.395 366.153 117.127 366.123 116.889C366.093 116.531 366.033 116.203 365.944 115.875C365.914 115.577 365.854 115.279 365.825 114.981C365.646 113.699 365.378 112.417 365.109 111.165C364.483 108.363 363.708 105.621 362.933 102.878C338.102 108.065 338.489 102.133 331.275 80.6399C329.099 73.575 325.82 66.8081 324.657 59.4749C324.151 54.5265 324.121 49.5781 324.061 44.6296C320.484 42.9007 317.235 39.234 318.308 34.9712C319.292 31.1854 320.395 27.1015 322.928 24.0609C325.969 20.9606 330.5 20.0067 334.435 18.4566C346.15 13.8063 347.969 5.37009 362.784 8.55974C368.955 9.42422 374.857 11.7196 381.087 12.1369C387.526 12.4648 392.087 17.8604 395.396 22.8685C397.602 26.5351 397.393 31.0662 399.063 34.9116C403.773 41.5592 404.041 45.0172 403.415 53.3937C406.664 53.8707 408.333 57.0603 408.721 60.0413C409.705 64.8109 407.201 69.4612 403.922 72.7403C404.279 78.0763 405.71 83.2334 407.35 88.2712C409.019 94.0841 410.599 100.016 412.894 105.65C413.312 106.694 413.759 107.737 414.266 108.751C414.951 110.211 415.697 111.642 416.531 113.013C416.561 113.043 416.561 113.103 416.591 113.133C417.127 113.937 417.217 115.458 416.233 115.965Z" fill="white"/>
        <path d="M342.99 89.0165C337.714 86.3933 341.738 77.2715 341.858 72.6808C342.066 70.2364 342.185 67.8516 342.096 65.437C342.126 64.6321 341.679 62.2175 342.394 61.83C342.633 61.5319 342.752 62.5156 342.782 62.605C344.153 68.9843 344.183 75.4531 342.484 81.7728C342.275 82.8757 341.887 84.1277 342.156 85.2009C343.02 86.7808 345.792 86.9597 346.895 85.5586C347.909 84.4854 348.714 83.2632 349.459 81.9814C349.906 81.1467 349.996 79.9842 350.711 79.3582C351.397 79.3284 351.456 80.4611 351.248 80.9083C349.668 84.1873 347.641 90.4474 342.99 89.0165Z" fill="white"/>
        <path d="M351.099 94.1139C349.996 93.9351 347.402 91.9378 348.207 90.7156C348.416 90.4771 348.684 90.656 348.893 90.805C351.903 93.4283 352.291 92.2061 354.527 89.7319C354.527 89.7319 354.527 89.7319 354.497 89.7617C355.481 88.8674 356.226 87.4067 357.359 86.8403C357.925 87.1384 357.925 88.0923 357.597 88.5991C355.451 90.3281 353.96 93.5774 351.099 94.1139Z" fill="white"/>
        <path d="M361.384 81.2063C360.818 80.2226 361.98 79.1494 362.219 78.1657C362.159 77.957 362.189 77.4801 362.487 77.4801C363.471 77.331 362.487 79.7158 362.308 80.1928C362.07 80.4909 361.891 81.7429 361.384 81.2063Z" fill="white"/>
        <path d="M365.826 79.5073C365.05 79.09 366.004 76.3475 366.422 75.9003C366.958 75.8109 367.078 76.7052 366.69 76.9138C366.571 77.4206 366.63 79.8352 365.826 79.5073Z" fill="white"/>
        <path d="M370.834 78.6129C370.118 77.8975 370.893 76.7051 371.043 75.8704C371.162 75.5425 371.311 74.6482 371.788 75.0954C371.937 75.2146 371.877 75.7512 371.639 75.6021C371.311 76.3176 371.788 78.7322 370.834 78.6129Z" fill="white"/>
        <path d="M335.06 85.5882C334.404 85.0517 334.97 83.9785 335.03 83.2631C334.821 82.9948 334.881 82.0707 335.388 82.2793C335.358 82.2495 335.328 82.2197 335.269 82.2197C336.133 82.3688 335.626 83.8891 335.567 84.4853C335.447 84.843 335.537 85.618 335.06 85.5882Z" fill="white"/>
        <path d="M337.297 85.2605C336.671 84.9028 337.357 82.5478 337.863 82.3093C338.191 82.518 337.983 82.9651 337.834 83.2036C337.625 83.6508 337.923 85.2903 337.297 85.2605Z" fill="white"/>
        <path d="M333.093 75.0057C331.96 74.648 329.933 74.499 330.172 72.8594C330.202 72.5017 330.351 71.9353 330.798 71.9055C333.063 72.4421 335.12 72.4719 337.296 71.6968C338.638 71.2199 340.873 71.2199 340.635 69.2524C336.998 68.7457 332.855 68.2091 329.725 70.5044C329.516 70.6833 329.248 70.7131 329.158 70.415C329.516 65.8839 337.773 65.407 341.023 67.2552C342.066 68.0004 341.768 69.6102 341.649 70.7429C340.993 74.3201 336.134 75.0057 333.093 75.0057Z" fill="white"/>
        <path d="M335.358 74.6481C333.003 74.3799 332.854 69.4016 335.179 69.0141C338.548 68.7458 338.637 74.5885 335.358 74.6481ZM335.716 72.1143C335.805 72.0845 335.865 72.0547 335.925 71.9951C335.656 71.9056 335.358 71.8162 335.09 71.9056C335.299 72.0249 335.507 72.0845 335.716 72.1143Z" fill="white"/>
        <path d="M360.162 69.2526C358.671 69.0737 356.644 68.7458 356.555 66.8678C354.498 61.2337 365.498 59.624 369.313 59.8327C372.741 59.4749 373.993 63.7974 371.877 66.0629C368.658 68.5669 364.156 69.342 360.162 69.2526ZM361.086 67.0466C364.544 66.8678 368.27 66.4803 371.281 64.6321C373.129 62.9329 371.4 61.4722 369.403 61.7107C365.349 62.0088 360.519 62.6944 357.628 65.7648C357.837 67.0466 360.043 66.8976 361.086 67.0466Z" fill="white"/>
        <path d="M364.305 68.2391C363.619 68.2093 362.904 67.9112 362.576 67.2852C360.608 66.2717 362.367 62.933 364.245 62.7243C367.554 62.5454 367.703 68.2987 364.305 68.2391Z" fill="white"/>
        <path d="M354.884 62.6943C354.616 62.4558 354.795 61.7404 355.182 61.8C357.358 60.2201 359.892 59.1767 362.485 58.4911C363.38 58.5805 371.577 56.7621 369.729 58.7892C364.751 58.9979 359.504 59.3854 355.331 62.4558C355.301 62.6645 355.063 62.8135 354.884 62.6943Z" fill="white"/>
        <path d="M328.592 66.8677C328.324 66.7186 328.384 65.8243 328.771 66.0628C330.023 65.884 336.373 62.426 336.82 64.5127C336.85 65.407 335.866 64.9599 335.24 65.0493C332.945 65.0195 330.798 66.3609 328.592 66.8677Z" fill="white"/>
        <path d="M327.282 63.3502C326.626 63.2608 326.417 62.5156 326.357 61.9492C326 61.9194 325.493 62.0088 325.314 61.5914C325.225 61.3828 325.284 60.9058 325.553 60.9058C325.881 60.7866 326.208 60.6673 326.507 60.5183C326.745 59.773 327.58 59.773 328.236 59.7134C331.246 58.7595 334.376 58.0143 337.536 58.0441C338.639 58.3124 340.636 57.5075 341.054 58.8787C341.203 59.4749 341.173 60.25 340.726 60.727C339.474 61.2039 338.013 60.7866 336.702 61.0847C333.512 61.5318 330.441 62.754 327.282 63.3502Z" fill="white"/>
        <path d="M351.038 57.9248C350.829 57.895 350.74 57.8652 350.621 57.8055C346.656 52.1119 360.518 51.0089 363.856 50.6512C365.108 50.4425 366.36 50.2637 367.642 50.204C369.133 49.9954 372.859 48.4154 373.634 50.1742C375.244 50.2935 375.184 53.4831 373.425 53.2744C372.382 54.2284 370.653 53.6322 369.371 53.9005C367.106 54.1091 364.87 54.3476 362.604 54.5861C358.61 55.1525 354.824 56.6131 351.038 57.9248Z" fill="white"/>
        <path d="M343.946 202.145C343.558 202.532 342.455 202.264 341.054 201.668C338.073 200.386 333.751 197.703 332.409 197.196C325.434 193.321 318.309 188.849 310.29 187.687C304.328 187.895 298.724 193.619 294.938 197.852C299.559 197.673 302.748 193.082 307.309 192.576C309.962 192.784 306.773 196.779 306.236 198.389C306.206 198.478 306.177 198.567 306.177 198.657C306.206 198.657 306.236 198.657 306.266 198.657C307.637 198.895 309.128 198.448 310.261 197.703C311.453 197.315 311.572 199.819 310.857 200.326C310.171 200.833 309.635 201.578 309.247 202.383C309.038 202.83 308.83 203.307 308.71 203.754C308.859 203.784 309.009 203.844 309.128 203.844C312.556 204.5 313.182 201.101 314.106 201.966C315.209 203.188 313.927 204.619 313.659 205.901C317.087 206.795 319.74 203.903 323.228 206.02C325.493 207.004 327.58 208.315 329.667 209.627C329.965 209.806 330.263 210.014 330.561 210.193C331.634 210.849 332.678 211.475 333.78 212.041C334.168 212.28 334.406 212.816 334.496 213.413C334.705 214.694 334.257 216.245 333.065 215.887C331.426 214.993 329.875 213.919 328.355 212.876C326.447 211.564 324.539 210.283 322.483 209.269C319.502 206.855 312.556 211.535 311.989 206.199C309.933 206.884 308.442 206.646 307.667 205.752C306.892 204.887 306.862 203.337 307.727 201.369C303.762 201.787 304.09 198.895 305.193 196.302C305.282 196.063 305.402 195.825 305.521 195.586C305.342 195.676 305.163 195.765 304.954 195.884C301.586 197.703 293.716 202.025 293.418 198.269C293.418 198.21 293.418 198.15 293.418 198.09C293.418 197.345 293.656 196.332 294.253 194.99C297.949 190.489 303.106 184.944 308.979 183.633C314.017 183.543 319.531 185.064 324.867 187.359C327.282 188.402 329.697 189.595 331.992 190.876C335.957 193.053 339.683 195.497 342.843 197.703C344.035 198.746 345.078 200.743 343.946 202.145Z" fill="white"/>
        <path d="M366.69 257.74H366.631C366.482 257.74 366.303 257.74 366.154 257.74C365.408 257.74 364.693 257.71 363.948 257.71C362.785 255.773 352.829 256.041 350.146 255.624C341.62 254.938 333.124 254.103 324.599 253.775C324.748 251.092 322.929 250.884 323.138 253.716C323.019 253.746 322.929 253.775 322.81 253.865C322.125 254.342 322.035 255.773 322.9 256.071C322.84 256.369 322.751 256.697 322.631 256.995C319.71 256.101 316.55 256.22 313.599 255.296C305.342 252.344 297.054 249.572 288.38 248.082C296.637 248.052 305.729 247.664 300.632 236.873C298.277 231.001 295.832 225.218 293.12 219.494C292.494 218.153 291.838 216.811 291.152 215.47C287.635 208.166 284.028 200.893 279.795 193.977C279.049 192.725 278.304 191.503 277.529 190.34C274.19 185.332 270.226 181.218 263.548 180.652C246.884 181.278 230.191 181.963 213.557 183.096C208.221 183.454 202.885 184.08 197.549 184.497C194.509 184.915 190.693 183.782 188.249 186.018C183.27 189.714 194.061 208.017 195.88 213.294C189.799 214.874 187.652 223.459 195.403 223.995C191.677 228.049 194.389 231.209 199.308 231.001C196.923 236.009 201.126 235.77 204.614 236.873C205.419 236.992 205.628 235.86 205.628 235.234C206.76 237.559 207.923 239.884 209.175 242.15C179.932 246.591 189.143 283.227 193.823 303.498C183.867 331.042 171.317 357.633 160.734 384.968C152.656 405.418 145.293 426.285 136.618 446.496C134.77 450.043 136.26 450.669 139.629 451.087C135.932 457.853 134.024 466.677 127.228 471.059C118.374 472.579 109.282 471.775 100.339 472.43C95.0929 472.997 94.3476 476.842 98.67 479.734C110.266 485.666 124.813 483.371 136.469 478.69C136.201 479.943 133.756 484.712 136.26 484.593C137.9 485.01 139.629 485.04 141.298 485.129C142.64 485.815 143.266 483.281 143.623 482.357C146.873 472.699 151.821 463.726 155.249 454.127C156.263 454.157 157.425 454.694 158.379 454.306C176.802 425.51 189.679 393.405 205.508 363.028C206.313 361.478 207.118 359.958 207.923 358.438C209.294 362.939 210.606 367.47 211.858 372.031C216.717 389.41 221.01 406.968 225.928 424.317C226.822 427.447 226.793 429.087 230.638 428.461C230.847 436.51 231.89 444.528 232.755 452.488C225.72 459.642 214.839 461.222 205.717 464.531C202.378 465.425 200.292 467.363 202.587 470.701C205.151 473.653 209.473 473.712 213.05 473.027C224.289 471.596 234.573 465.067 240.654 455.528C242.413 463.13 242.741 461.58 249.806 459.642C253.502 458.003 248.882 432.277 249.031 427.06C251.386 426.702 254.575 427.745 254.337 424.228C253.8 402.795 252.161 381.421 250.372 360.047C250.223 358.11 250.044 356.172 249.895 354.264C249.21 346.305 248.554 338.346 247.898 330.387C280.868 330.744 313.808 330.416 346.747 330.089C346.986 330.148 347.195 330.178 347.403 330.178C349.788 330.416 349.639 328.986 350.384 326.899C351.696 321.95 353.037 316.972 354.379 312.024C354.379 311.994 354.409 311.964 354.409 311.934C357.717 299.951 361.086 287.967 364.186 275.924C365.051 272.556 365.885 269.217 366.72 265.819C366.988 264.686 367.257 263.553 367.525 262.42C367.614 261.913 367.823 261.019 367.883 260.155C368.032 258.873 367.853 257.71 366.69 257.74ZM152.507 454.634C150.837 459.284 148.661 463.756 146.694 468.287C142.848 466.796 138.824 467.78 134.829 466.945C137.661 462.057 139.599 456.691 141.745 451.504C145.412 452.368 149.108 453.143 152.834 453.74C152.745 454.038 152.626 454.336 152.507 454.634ZM204.763 233.684C203.332 233.475 201.931 233.385 200.53 232.879C201.126 231.448 202.855 229.957 201.812 228.348C201.633 228.079 201.335 228.049 201.037 228.139C199.129 228.497 196.715 228.854 195.105 227.453C195.88 225.605 198.771 224.681 198.98 222.952C199.368 219.733 193.942 221.611 192.183 219.613C192.899 217.467 195.045 216.543 196.923 215.619C199.785 221.581 202.051 227.751 204.882 233.713C204.882 233.713 204.823 233.684 204.763 233.684ZM212.782 241.494C212.096 241.613 211.411 241.732 210.725 241.881C210.964 241.285 210.934 240.719 210.785 240.182C210.487 239.169 209.771 238.244 209.384 237.261C205.538 229.242 202.557 220.865 198.563 212.906C196.327 208.435 194.36 203.844 192.124 199.372C191.081 196.213 188.815 193.023 188.517 189.684C188.487 189.356 188.457 188.999 188.487 188.641C188.487 188.313 188.517 187.985 188.576 187.657C190.246 186.584 192.571 187.27 194.479 187.15C196.089 187.24 197.728 187.21 199.338 187.121C200.709 187.031 202.08 186.942 203.452 186.852C203.899 186.822 204.346 186.793 204.793 186.763C207.088 186.524 209.354 186.316 211.649 186.137C212.365 186.077 213.11 186.018 213.825 185.958C229.356 184.676 244.917 184.11 260.478 183.394C263.28 183.156 265.665 183.573 267.751 184.497C267.9 184.557 268.079 184.646 268.228 184.706C268.944 185.064 269.6 185.451 270.226 185.898C270.524 186.107 270.792 186.286 271.06 186.524C273.147 188.194 274.906 190.4 276.486 192.844C278.483 195.944 280.182 199.402 281.881 202.532C282.239 203.218 282.597 203.933 282.925 204.619C283.819 206.408 284.713 208.196 285.637 209.985C285.697 210.104 285.757 210.223 285.816 210.342C285.876 210.432 285.906 210.551 285.965 210.641C286.204 211.147 286.472 211.624 286.71 212.101C286.919 212.519 287.128 212.966 287.336 213.383C287.456 213.592 287.545 213.8 287.664 214.009C292.225 223.25 296.577 232.61 300.274 242.209C299.678 242.656 299.052 242.984 298.366 243.252C297.77 243.491 297.174 243.67 296.548 243.789C294.461 244.236 292.166 244.147 289.96 244.147C288.678 244.147 287.396 244.177 286.174 244.385C285.995 244.445 285.846 244.564 285.727 244.713C285.697 244.773 285.637 244.832 285.607 244.922C285.518 245.071 285.458 245.28 285.399 245.458C285.309 245.786 285.28 246.144 285.309 246.502C285.339 246.859 285.429 247.217 285.548 247.485C284.147 247.187 282.746 246.919 281.345 246.621C279.377 246.233 277.38 245.816 275.383 245.429C275.234 245.399 275.055 245.369 274.906 245.339C274.31 245.22 273.684 245.101 273.058 244.981C269.51 244.296 265.933 243.64 262.356 243.014C245.901 240.212 229.118 238.692 212.782 241.494ZM235.229 447.897C234.573 441.339 234.215 434.81 233.291 428.282C237.435 428.103 241.578 427.656 245.722 427.209C246.199 433.022 246.944 438.805 247.481 444.618C243.337 445.303 239.074 446.377 235.229 447.897Z" fill="white"/>
        <path d="M267.809 248.618C266.646 248.439 267.302 245.846 268.286 245.786C270.939 245.578 273.622 245.488 276.275 245.25C278.779 245.041 281.283 244.922 283.787 244.832C285.814 244.892 290.375 243.789 289.182 247.336C289.063 247.694 288.556 247.933 288.497 247.396C281.7 248.41 274.695 248.976 267.809 248.618Z" fill="white"/>
        <path d="M269.54 246.919C265.337 246.681 261.163 246.383 256.96 246.651C254.456 242.895 270.762 245.25 272.759 244.952C274.25 245.16 293.358 243.968 290.049 246.532C283.312 246.293 276.366 247.098 269.54 246.919Z" fill="white"/>
        <path d="M249.238 246.114C248.612 245.995 248.821 245.011 249.059 244.624C249.357 244.087 250.043 244.147 250.579 244.057C256.035 243.193 261.52 242.895 267.034 243.103C270.731 243.133 274.368 243.7 278.034 243.938C281.85 244.177 285.725 243.67 289.541 244.087C290.077 244.057 290.375 244.534 290.793 244.683C291.001 244.743 290.852 245.28 290.644 245.22C276.842 246.293 262.95 244.028 249.238 246.114Z" fill="white"/>
        <path d="M217.162 245.25C214.42 244.534 209.471 243.729 209.322 240.212C209.382 239.795 209.799 239.139 210.217 239.616C212.065 241.881 215.135 242.209 217.699 243.193C218.444 243.551 217.997 245.28 217.162 245.25Z" fill="white"/>
        <path d="M205.806 234.101C205.866 233.862 205.985 233.534 206.253 233.475C207.118 233.803 205.687 235.591 205.806 234.101Z" fill="white"/>
        <path d="M238.388 222.356C235.317 222.266 233.678 218.868 234.185 216.126C233.499 211.416 240.743 212.161 242.681 215.052C244.976 218.063 242.204 223.101 238.388 222.356ZM240.266 220.209C245.244 218.391 237.672 214.993 235.437 215.768C235.347 215.887 235.258 216.036 235.228 216.215C235.228 216.185 235.228 216.155 235.228 216.126C235.258 219.047 237.464 220.627 240.266 220.209Z" fill="white"/>
        <path d="M189.41 189.744C188.903 189.684 188.337 189.744 187.92 189.446C187.681 189.058 188.039 188.462 188.516 188.671C196.505 188.074 204.524 187.776 212.543 187.299C231.77 185.839 250.967 184.08 270.284 184.527C270.821 184.646 270.582 185.481 270.374 185.779C270.135 186.196 269.33 185.898 268.883 185.958C242.293 185.481 215.941 189.356 189.41 189.744Z" fill="white"/>
        <path d="M296.666 245.965C295.116 243.491 298.693 244.534 295.593 237.231C288.498 219.733 280.211 202.324 268.823 187.21C267.959 186.405 265.038 186.524 266.111 184.736C266.588 184.11 268.436 184.825 269.151 184.825C270.135 184.378 271.476 187.389 272.043 188.045C273.325 189.893 274.607 191.741 275.56 193.768C281.552 203.844 287.127 214.158 291.688 224.979C294.162 230.285 296.666 235.591 298.454 241.196C298.693 242.299 298.126 246.561 296.666 245.965Z" fill="white"/>
        <path d="M286.293 214.873C286.055 213.443 284.147 211.803 285.399 210.462C285.965 209.925 286.084 210.789 285.876 211.177C286.383 212.101 287.813 212.578 287.694 213.77C287.724 214.396 286.859 215.887 286.293 214.873Z" fill="white"/>
        <path d="M201.93 189.058C201.006 188.939 199.307 188.641 199.277 187.508C199.277 187.061 199.486 186.435 199.993 186.375C200.827 186.524 201.662 186.644 202.497 186.405C204.285 185.988 203.391 189.446 201.93 189.058Z" fill="white"/>
        <path d="M212.007 187.806C209.831 187.24 212.126 185.153 213.468 185.481C214.571 186.316 213.468 188.581 212.007 187.806Z" fill="white"/>
        <path d="M286.472 213.234C286.353 212.936 286.203 212.668 286.084 212.369C285.577 212.876 285.25 210.521 285.518 210.253C286.323 208.107 288.171 211.177 287.903 212.31C287.843 212.906 286.979 214.218 286.472 213.234Z" fill="white"/>
        <path d="M109.163 433.618C109.043 434.155 108.865 434.691 108.626 435.228C108 436.45 106.539 437.136 105.526 435.675C105.049 434.96 104.781 434.185 104.632 433.38C104.304 431.591 104.572 429.683 104.423 427.895C103.558 403.331 103.707 378.381 102.306 353.877C102.485 329.91 97.358 305.823 99.8024 281.976C99.8024 281.946 99.8024 281.886 99.8024 281.856C100.995 280.157 101.889 280.455 102.545 281.976C104.93 287.639 104.214 310.116 104.93 312.203C105.645 322.994 106.808 333.755 106.987 344.546C108.537 372.031 109.043 399.546 109.342 427.09C109.222 429.236 109.61 431.531 109.163 433.618Z" fill="white"/>
        <path d="M129.941 438.626C126.721 437.344 123.233 436.897 119.805 436.271C116.168 435.913 112.651 434.631 109.163 433.618C108.656 433.469 108.179 433.32 107.673 433.201C107.583 431.71 105.795 432.962 105.049 433.171C104.9 433.23 104.781 433.29 104.632 433.35C102.963 434.065 101.323 434.84 99.6239 435.556C97.6565 436.927 79.5321 440.504 83.3776 443.515C93.0061 442.948 102.575 441.816 112.233 442.173C117.54 442.471 122.786 443.097 128.092 442.114C129.404 442.203 131.103 439.669 129.941 438.626ZM95.6294 440.027C98.0142 439.282 100.31 438.238 102.575 437.195C103.231 436.897 103.887 436.599 104.543 436.271C104.632 436.748 105.079 436.867 105.496 436.897C108.746 437.463 111.816 438.775 115.095 439.312C108.597 439.252 102.098 439.49 95.6294 440.027Z" fill="white"/>
        <path d="M169.855 272.764C163.624 282.035 127.107 281.797 115.482 282.125C111.159 282.095 106.837 282.065 102.514 282.035C101.59 282.035 100.696 282.035 99.7718 282.035C79.8887 281.916 59.9757 281.737 40.1224 280.396C36.3961 280.396 21.4316 279.114 24.3828 273.092C31.1794 264.268 73.7479 260.84 86.8344 260.572C87.043 260.572 87.2219 260.572 87.4008 260.572C87.7287 260.572 87.997 260.602 88.2354 260.661C89.9346 261.138 88.5633 263.046 86.894 263.344C86.6257 263.404 86.3872 263.404 86.1189 263.374C82.2138 263.702 78.3088 264.119 74.4037 264.567C63.3442 265.848 52.3444 267.607 41.434 269.783C36.4558 270.916 31.1794 271.631 26.6185 274.076C31.5073 278.756 39.6454 277.623 45.9353 278.249C66.4743 279.084 87.1027 278.607 107.642 278.547C118.492 278.339 129.343 278.368 140.134 277.057C149.584 275.894 159.928 276.282 168.394 271.423C164.519 267.935 152.953 267.279 147.468 266.176C142.132 265.491 136.766 264.924 131.37 264.477C130.476 264.388 129.611 264.328 128.717 264.239C126.601 264.06 124.484 263.881 122.397 263.732C121.891 263.702 121.414 263.642 120.907 263.613C120.579 263.553 120.072 263.672 119.983 263.225C119.983 263.136 119.953 263.076 119.953 262.987C119.953 262.301 120.46 261.466 121.116 261.377C121.682 261.437 122.278 261.466 122.845 261.526C124.872 261.705 126.929 261.854 128.956 261.943C129.284 262.003 129.731 262.063 130.327 262.122C139.329 263.046 176.681 264.119 169.855 272.764Z" fill="white"/>
        <path d="M122.903 244.028C120.578 243.312 118.193 243.133 115.779 243.103C113.156 243.074 110.532 243.193 107.939 242.925C102.066 242.746 95.7466 242.418 90.202 244.564C89.9933 244.654 89.7846 244.743 89.576 244.832C89.5462 244.713 89.4269 244.683 89.3375 244.654C89.2481 243.998 88.8605 244.028 88.5624 244.296C88.4432 244.385 88.3538 244.534 88.2942 244.683C88.1749 244.922 88.1153 245.16 88.0855 245.429C88.0259 245.756 88.0259 246.084 87.9961 246.412C87.7576 249.363 87.221 252.285 87.072 255.236C86.9229 256.995 86.8633 258.783 86.8633 260.572V260.721C86.8633 261.585 86.8931 262.48 86.9229 263.344C86.9229 263.404 86.9229 263.464 86.9229 263.523C86.9527 263.911 86.9527 264.328 86.9825 264.716C87.072 267.249 89.099 267.309 91.1261 267.547C100.814 267.607 110.532 267.369 120.161 266.415C121.234 266.594 121.979 265.491 122.486 263.732C122.575 263.464 122.635 263.195 122.695 262.927C122.784 262.48 122.874 262.033 122.963 261.526C123.052 260.959 123.142 260.333 123.201 259.707C123.231 259.469 123.261 259.231 123.291 258.992C123.41 257.8 123.5 256.518 123.559 255.325C123.678 253 123.678 250.884 123.738 249.542C123.738 249.125 123.768 248.797 123.798 248.559C123.798 248.35 123.798 248.111 123.827 247.843C123.798 246.472 124.036 244.475 122.903 244.028ZM103.05 263.434C98.668 263.165 94.0474 264.119 89.7846 262.927C89.4269 257.77 89.1884 252.643 89.4269 247.485C89.576 247.456 89.7548 247.456 89.9039 247.426C91.5732 247.247 93.2724 247.128 94.9417 247.008C100.606 246.621 106.359 246.591 112.023 247.038C114.08 247.187 116.137 247.426 118.164 247.724C118.968 247.843 119.744 247.962 120.548 248.111C120.071 252.046 120.37 255.981 120.161 259.916C120.101 260.93 120.012 261.943 119.893 262.957C119.863 262.957 119.833 262.957 119.803 262.957C114.259 263.523 108.654 263.493 103.05 263.434Z" fill="#5D5FEF"/>
        <path d="M97.3278 249.87C93.9593 249.84 89.7561 248.559 88.2656 245.279C89.1003 240.778 90.1436 248.439 100.607 247.336C106.748 247.426 113.067 247.247 119 246.144C120.341 250.168 100.219 249.661 97.3278 249.87Z" fill="#5D5FEF"/>
        <path d="M119.954 246.71C119.656 246.651 119.358 246.591 119.06 246.561C118.642 246.472 118.255 246.412 117.837 246.353C109.043 244.892 100.16 244.713 91.2768 245.339C90.7701 245.369 90.2633 245.429 89.7267 245.458C89.6373 246.949 88.9815 245.667 88.3555 245.488C88.2958 245.458 88.2362 245.458 88.1766 245.458C88.117 245.458 88.0872 245.429 88.0574 245.399C87.4313 245.071 87.9679 243.729 88.4449 243.461C88.9815 243.163 89.6373 243.193 90.2335 243.103C95.8973 242.656 101.591 241.583 107.315 242.149C110.146 242.418 112.978 242.686 115.78 243.103C117.48 243.342 119.179 243.61 120.848 243.908C121.802 244.415 120.938 246.74 119.954 246.71Z" fill="#5D5FEF"/>
        <path d="M131.401 264.417C130.894 268.233 119.447 270.35 116.436 271.035C107.017 272.585 97.3581 272.556 87.819 272.287C83.2581 272.168 71.036 271.721 74.3747 264.507C74.4046 264.447 74.4344 264.358 74.4642 264.298C77.7433 261.496 82.483 260.9 86.8054 260.691C87.2824 260.661 87.7295 260.661 88.1767 260.632C88.2959 260.632 88.4152 260.632 88.5344 260.632C90.0249 260.423 89.7268 262.152 88.9816 262.838C88.2661 263.106 87.5507 263.315 86.8353 263.493C83.4369 264.358 79.7703 264.596 76.6105 266.385C80.605 270.201 89.5778 269.098 94.9435 269.753C106.569 270.171 118.613 269.724 129.284 264.686C129.106 264.507 128.897 264.358 128.718 264.209C126.959 262.957 124.753 262.838 122.607 262.897C121.713 262.927 120.818 262.957 119.954 262.987C119.924 262.987 119.865 262.987 119.835 262.987H119.805C118.702 262.629 119.358 260.542 120.163 259.946C120.252 259.886 120.312 259.857 120.401 259.827C121.295 259.708 122.19 259.678 123.114 259.708C125.35 259.797 127.615 260.334 129.493 261.347C129.821 261.615 130.119 261.854 130.358 262.122C131.192 262.927 131.49 263.702 131.401 264.417Z" fill="#5D5FEF"/>
        <path d="M124.365 258.545C124.067 258.634 123.62 258.813 123.203 258.932C122.607 259.111 122.01 259.141 121.742 258.575C121.295 256.667 122.16 255.773 123.441 255.266C124.067 255.027 124.783 254.878 125.498 254.729C126.959 254.282 129.612 252.821 128.211 251.063C126.899 250.019 125.26 249.721 123.59 249.483C122.845 249.363 122.07 249.274 121.355 249.095C120.699 249.035 120.848 248.141 121.384 248.052C122.04 247.933 122.815 247.813 123.65 247.783C125.856 247.664 128.36 247.903 129.701 249.214C131.967 253.119 128.032 257.442 124.365 258.545Z" fill="#5D5FEF"/>
        <path d="M98.9958 228.824C96.939 230.851 100.069 232.819 100.158 234.876C100.158 236.217 99.2343 236.545 98.4593 235.442C91.8415 226.32 102.007 224.442 100.695 221.134C99.443 218.868 96.8197 217.377 96.7303 214.516C96.6707 213.741 96.7005 210.611 97.7736 210.849C98.2506 211.088 98.34 211.833 98.2804 212.28C97.3265 215.321 101.261 216.066 102.126 218.54C104.272 223.28 102.484 225.724 98.9958 228.824Z" fill="white"/>
        <path d="M114.11 226.738C113.514 228.825 110.175 229.421 110.622 231.746C110.503 232.73 112.083 235.413 110.413 235.442C108.982 234.161 108.356 230.315 108.982 228.497C109.579 226.589 111.814 225.963 112.679 224.264C113.603 221.879 111.01 220.269 109.907 218.481C108.237 216.692 107.82 213.353 109.936 211.833C111.278 212.191 110.98 214.158 110.413 215.082C113.275 218.242 116.137 222.326 114.11 226.738Z" fill="white"/>
        <path d="M364.066 182.321C365.229 183.603 367.196 185.928 365.288 187.419C363.351 189.505 360.787 190.877 358.849 192.963C357.955 194.007 357.299 194.215 356.494 192.934C355.391 191.473 354.408 189.893 353.275 188.432C352.142 186.972 349.698 184.795 351.606 183.007C353.633 181.069 355.839 179.281 358.015 177.552C358.104 176.717 358.73 175.852 359.595 176.449C360.131 176.18 360.429 176.836 360.37 177.343C361.353 179.132 362.755 180.682 364.066 182.321Z" fill="white"/>
        <path d="M393.132 179.877C397.872 186.077 394.95 186.047 390.568 190.757C389.674 191.324 388.661 193.917 387.528 192.933C385.59 190.966 384.457 188.372 383.027 186.047C381.536 183.484 382.073 182.261 384.308 180.503C385.769 179.191 387.11 177.73 388.571 176.448C389.883 173.467 392.268 178.774 393.132 179.877Z" fill="white"/>
        <path d="M371.488 197.435C366.062 194.126 362.276 188.73 357.417 184.706C356.583 183.961 346.388 172.961 350.054 173.706C353.811 178.386 358.014 182.59 362.426 186.614C365.526 189.446 368.179 192.963 371.696 195.229C380.967 188.343 389.076 180.205 398.048 173.021C399.539 172.007 402.371 176.508 403.682 177.403C406.306 180.085 408.988 182.709 411.701 185.302C411.254 185.69 410.867 186.077 410.479 186.495C406.574 183.066 402.997 179.281 399.062 175.882C392.563 180.98 386.482 186.554 379.954 191.592C378.106 193.261 376.108 194.722 374.141 196.183C373.336 196.54 372.322 198.389 371.488 197.435Z" fill="white"/>
        <path d="M402.191 196.302C391.847 190.579 383.113 182.381 374.051 174.928C367.672 179.966 361.054 184.646 354.436 189.386C352.23 190.966 350.293 193.351 347.61 194.066C346.656 193.411 347.938 192.665 348.534 192.337C356.672 185.123 365.674 178.923 374.081 172.037C374.111 172.424 374.111 172.842 374.14 173.229C374.409 173.259 374.647 173.319 374.915 173.349C374.915 172.991 374.826 172.663 374.647 172.395C380.848 177.939 387.704 182.768 394.083 188.164C396.855 190.131 399.658 192.129 402.668 193.738C403.443 194.126 403.324 196.69 402.191 196.302Z" fill="white"/>
        <path d="M401.328 195.825C401.686 193.381 403.981 191.592 405.293 189.595C406.932 187.449 408.602 185.302 410.301 183.216C410.36 183.365 410.45 183.484 410.51 183.633C410.48 183.573 410.45 183.514 410.42 183.484C410.748 184.14 411.285 184.587 411.97 184.825C409.168 187.955 406.396 191.145 403.683 194.364C403.087 194.812 401.775 197.703 401.328 195.825Z" fill="white"/>
        <path d="M347.193 194.275C344.779 193.202 343.348 190.757 341.857 188.671C340.665 186.435 335.806 182.977 339.473 180.861C342.782 178.327 346.12 175.793 349.697 173.617C351.098 172.693 351.158 175.346 350.085 175.674C346.597 178.029 343.259 180.562 339.92 183.096C341.917 185.421 343.676 187.955 345.703 190.28C346.448 191.383 348.326 191.86 347.939 193.47C347.849 193.828 347.611 194.394 347.193 194.275Z" fill="white"/>
        <path d="M411.343 185.272C411.492 185.243 411.611 185.243 411.73 185.272C411.402 185.57 411.074 185.869 410.776 186.167C410.746 185.809 410.955 185.392 411.343 185.272Z" fill="white"/>
        <path d="M409.407 230.017C397.513 226.38 386.215 220.865 374.917 215.678C365.199 212.071 356.316 206.586 346.717 202.771C346.061 202.473 346.121 201.34 346.479 200.833C347.164 200.267 349.549 201.847 350.473 202.025C369.969 211.177 389.554 220.478 409.914 227.632C419.99 207.063 425.147 184.527 433.166 163.153C433.464 161.991 436.206 153.316 436.743 158.205C436.802 158.444 436.743 158.891 436.475 158.98C429.439 181.337 422.822 203.993 412.686 225.188C412.12 226.529 411.315 227.722 410.629 229.003C410.51 229.629 410.212 230.375 409.407 230.017Z" fill="white"/>
        <path d="M370.654 247.158C362.009 240.987 353.215 235.085 344.451 229.063C342.752 227.513 333.69 220.627 334.465 218.898C334.644 218.242 335.091 218.391 335.538 218.689C340.814 223.131 346.419 227.096 352.261 230.792C358.79 234.816 364.901 239.497 371.25 243.789C372.294 244.445 372.174 247.605 370.654 247.158Z" fill="white"/>
        <path d="M431.289 163.601C429.858 163.094 427.801 162.915 426.877 161.663C426.519 160.977 426.698 158.861 427.831 159.278C428.785 159.964 429.768 160.649 430.812 161.216C431.348 161.573 432.183 161.752 432.451 162.378C432.69 163.213 432.093 163.809 431.289 163.601Z" fill="white"/>
        <path d="M426.578 168.519C423.656 168.281 421.033 166.79 418.887 164.853C417.992 163.75 415.816 163.273 416.174 161.544C416.234 161.186 416.502 160.56 416.979 160.798C421.033 164.107 424.58 168.191 430.453 166.969C430.96 166.88 430.96 168.161 430.453 168.072C429.201 168.519 427.86 168.668 426.578 168.519Z" fill="white"/>
        <path d="M422.285 175.405C421.898 174.869 421.868 173.587 422.643 173.378C424.402 173.289 426.161 173.02 427.92 173.08C428.516 172.991 428.516 174.571 427.92 174.481C426.31 174.243 423.329 175.912 422.285 175.405Z" fill="white"/>
        <path d="M441.272 177.999C440.229 177.76 436.92 178.297 436.592 177.283C436.443 176.449 436.92 176.329 437.635 176.27C439.364 176.091 441.063 175.853 442.792 175.584C443.299 175.644 443.418 176.329 443.448 176.747C443.448 178.267 442.345 177.999 441.272 177.999Z" fill="white"/>
        <path d="M416.442 230.345C415.428 230.136 410.062 230.375 410.211 229.152C410.152 228.765 410.42 228.497 410.808 228.497C413.431 228.02 416.054 227.722 418.677 227.274C419.363 227.334 419.512 228.258 419.512 228.825C419.542 231.001 417.962 230.375 416.442 230.345Z" fill="white"/>
        <path d="M418.231 239.884C417.426 239.318 417.486 238.036 416.86 237.291C416.055 235.741 414.475 234.757 413.611 233.296C413.163 232.223 414.654 231.18 414.833 232.67C416.144 233.892 421.033 238.572 418.231 239.884Z" fill="white"/>
        <path d="M341.948 218.063C340.994 217.378 336.254 214.546 336.82 213.443C336.94 213.234 337.506 213.323 337.446 213.681C338.668 214.874 342.812 215.47 342.574 217.258C342.544 217.527 342.365 218.182 341.948 218.063Z" fill="white"/>
        <path d="M344.659 211.445C343.556 210.879 342.781 209.776 341.738 209.09C341.321 208.703 339.651 207.808 340.575 207.361V207.332C341.708 207.898 344.838 208.852 345.285 209.895C345.434 210.372 345.375 211.505 344.659 211.445Z" fill="white"/>
        <path d="M333.123 180.026C331.722 174.183 333.242 167.685 331.751 161.812C331.662 161.126 331.871 159.785 332.795 159.904C333.778 160.56 333.778 162.14 334.076 163.183C334.434 165.717 334.047 168.281 333.957 170.844C333.689 174.004 334.136 177.045 333.361 179.966C333.331 180.056 333.242 180.056 333.123 180.026Z" fill="white"/>
        <path d="M331.006 172.603C329.545 171.619 326.505 168.966 326.147 167.267C325.998 166.582 326.564 164.972 327.369 165.896C328.77 167.774 329.933 169.98 331.542 171.649C331.811 171.679 331.811 172.305 331.542 172.305C331.334 172.365 331.244 172.693 331.006 172.603Z" fill="white"/>
        <path d="M322.987 172.722C320.9 172.007 314.551 170.069 315.862 167.088C316.041 167.088 316.101 167.386 316.101 167.536C317.025 170.308 320.781 170.099 323.166 170.636C323.851 170.904 323.851 172.722 322.987 172.722Z" fill="white"/>
        <path d="M324.059 156.566C323.165 155.552 321.615 154.717 321.406 153.316C321.406 153.048 321.704 152.601 321.913 152.988C322.628 154.062 324.805 154.837 324.566 156.238C324.506 156.476 324.298 156.774 324.059 156.566Z" fill="white"/>
        <path d="M464.883 132.211C464.406 131.495 463.869 130.601 463.869 129.737C464.167 127.948 465.211 130.094 465.598 130.691C465.986 131.168 465.688 132.926 464.883 132.211Z" fill="white"/>
        <path d="M467.565 131.615C466.7 131.257 467.207 128.723 467.922 128.455C468.757 128.395 468.757 129.916 468.28 130.333C468.161 130.75 468.221 131.674 467.565 131.615Z" fill="white"/>
        <path d="M471.59 134.745C470.636 133.821 472.157 132.3 473.081 132.151C473.737 132.777 473.081 133.523 472.574 133.97C472.276 134.178 472.008 134.894 471.59 134.745Z" fill="white"/>
        <path d="M459.578 180.711C458.832 179.936 456.686 177.909 458.266 177.104C459.309 177.73 460.8 178.863 460.383 180.235C460.323 180.592 459.935 181.039 459.578 180.711Z" fill="white"/>
        <path d="M462.945 180.115C461.693 179.221 463.869 175.435 464.256 178.148C464.256 178.476 464.137 179.132 463.69 179.102C463.63 179.459 463.511 180.354 462.945 180.115Z" fill="white"/>
        <path d="M465.509 180.413C464.823 179.4 466.373 176.926 467.447 178.088C467.715 178.655 467.655 179.728 466.88 179.728C466.373 179.877 466.105 181.338 465.509 180.413Z" fill="white"/>
        <path d="M453.287 241.345C452.094 240.868 453.167 238.93 453.614 238.185C456.923 231.627 459.964 225.009 463.601 218.63C464.227 217.497 469.533 206.497 470.397 208.017C470.934 209.001 469.95 210.074 469.622 210.909C466.254 218.331 462.915 225.724 458.831 232.789C457.847 234.459 454.807 240.927 453.287 241.345Z" fill="white"/>
        <path d="M334.911 242.09C334.464 241.673 333.391 239.616 334.583 239.735C335.001 240.182 335.597 240.629 335.657 241.255C335.746 241.673 335.388 242.627 334.911 242.09Z" fill="white"/>
        <path d="M338.638 241.136C337.863 240.659 338.459 238.662 339.174 238.334C339.711 238.036 339.92 239.556 339.353 239.765C338.996 240.063 339.323 241.196 338.638 241.136Z" fill="white"/>
        <path d="M342.81 244.952C341.558 243.819 342.721 240.271 344.152 239.675C345.433 239.526 345.463 242.567 344.301 242.746C343.764 243.342 344.003 245.279 342.81 244.952Z" fill="white"/>
        <path d="M354.735 144.075C353.989 143.449 352.648 141.75 353.691 140.945C354.019 141.035 354.228 141.422 354.496 141.631C354.824 142.048 355.42 142.346 355.48 142.913C355.599 143.33 355.39 144.493 354.735 144.075Z" fill="white"/>
        <path d="M358.133 143.986C357.745 143.509 358.163 141.213 358.848 142.286C359.087 142.763 358.997 144.969 358.133 143.986Z" fill="white"/>
        <path d="M437.279 126.13C434.119 125.086 434.924 121.181 435.967 123C436.474 123.655 437.398 123.864 437.815 124.55C437.994 124.997 437.964 126.159 437.279 126.13Z" fill="white"/>
        <path d="M440.707 124.222C439.813 123.596 439.455 119.542 441.214 120.257C441.78 120.794 441.542 121.628 441.601 122.284C441.81 122.94 441.691 124.55 440.707 124.222Z" fill="white"/>
        <path d="M372.561 134.834C372.084 134.626 373.515 131.078 373.903 132.181C374.081 132.39 373.873 132.956 373.634 132.539C373.277 133.016 373.127 134.864 372.561 134.834Z" fill="white"/>
        <path d="M381.057 131.823C381.653 131.704 381.892 133.046 381.236 133.016C381.087 133.582 381.385 136.176 380.61 136.086C379.954 135.639 380.431 134.536 380.461 133.88C380.61 133.254 380.461 132.211 381.057 131.823Z" fill="white"/>
        <path d="M388.927 134.476C388.271 134.238 387.854 130.929 389.046 132.39C389.464 132.896 389.881 134.357 388.927 134.476Z" fill="white"/>
        <path d="M381.802 121.837C381.832 121.807 381.832 121.837 381.802 121.837C381.832 121.807 381.832 121.807 381.802 121.837C381.802 121.807 381.802 121.807 381.802 121.837ZM414.295 112.059C417.156 112.566 413.758 119.273 413.579 121.151C412.834 125.444 411.999 129.588 410.211 133.522C409.704 134.417 409.346 136.593 408.005 136.354C405.918 135.907 404.159 134.596 402.311 133.612C398.525 131.704 395.067 129.26 391.252 127.441C385.916 129.081 380.133 130.512 374.618 128.723C374.499 128.842 374.35 128.723 374.35 128.544C374.29 128.514 374.26 128.485 374.2 128.425C372.471 129.796 370.772 131.197 369.192 132.747C367.493 134.059 361.859 142.078 361.978 135.967C362.157 132.241 363.111 128.604 363.558 124.878C364.244 122.642 363.081 117.843 366.271 117.604C374.111 116.68 381.742 114.653 389.642 114.325C397.869 113.878 406.037 111.761 414.295 112.059Z" fill="white"/>
        <path d="M375.931 127.143C375.662 126.935 375.692 126.517 375.841 126.249C378.494 123.596 381.326 121.092 384.188 118.677C384.397 118.588 384.635 118.677 384.814 118.797C386.93 120.377 389.703 121.688 391.014 124.073C391.163 124.55 390.895 125.832 390.18 125.355C388.48 123.387 386.394 121.39 384.247 120.168C382.548 121.718 380.67 123.059 378.971 124.639C377.958 125.414 377.153 126.875 375.931 127.143Z" fill="white"/>
        <path d="M341.53 34.3155C338.967 34.3155 336.343 33.8683 334.286 32.199C333.75 31.722 332.2 30.5893 333.005 29.844C333.392 29.7248 334.018 29.844 333.66 30.3806C337.148 32.2884 341.679 33.0933 345.376 31.4836C347.82 33.2125 342.901 34.4645 341.53 34.3155Z" fill="white"/>
        <path d="M341.62 29.4565C340.398 29.4565 336.582 28.5921 337.089 26.9227C337.357 26.7737 338.013 26.6544 337.953 27.1314C337.953 27.2506 337.924 27.4891 337.745 27.4593C342.097 30.7384 348.476 24.2398 348.566 26.3265C348.894 27.5785 342.783 29.5758 341.62 29.4565Z" fill="white"/>
        <path d="M371.816 34.1663C366.122 34.2259 365.884 29.516 360.071 29.9929C360.071 30.1718 359.892 30.4401 359.713 30.2314C358.879 28.1149 365.496 29.4862 366.271 30.3507C367.971 31.4536 369.759 32.2585 371.816 32.3181C372.502 32.4672 372.472 34.0769 371.816 34.1663Z" fill="white"/>
        <path d="M373.186 30.2613C369.132 29.6949 365.912 25.9389 361.53 27.3399C361.351 27.8169 361.113 27.1611 361.262 26.9524C363.05 26.1773 365.375 26.5947 367.253 26.863C369.281 27.638 371.188 28.7112 373.424 28.8602C374.199 28.9198 374.974 28.8006 375.66 28.4131C375.928 28.2938 376.047 28.6217 376.107 28.8006C376.345 30.1122 374.11 30.3507 373.186 30.2613Z" fill="white"/>
        <path d="M376.705 19.6491C370.803 19.6491 374.35 16.3104 374.023 18.3672C375.99 18.5759 378.256 18.6951 380.014 17.5922C380.223 17.4431 380.402 17.7412 380.432 17.9201C380.789 19.5894 377.838 19.7087 376.705 19.6491Z" fill="white"/>
        <path d="M375.482 22.63C375.035 21.7655 376.048 21.7655 376.644 21.7953C378.224 21.7655 379.745 21.3184 381.086 20.4539C381.265 20.3347 381.384 20.6328 381.414 20.752C381.205 22.481 377.181 22.63 375.78 22.5406C375.72 22.6896 375.571 22.7791 375.482 22.63Z" fill="white"/>
        <path d="M389.911 37.8331C389.405 37.7437 388.153 37.7735 388.659 36.9388C390.657 37.2071 392.863 36.7003 393.906 34.7627C394.085 34.554 394.264 33.7789 394.621 34.1665C395.039 36.4022 391.849 38.0716 389.911 37.8331Z" fill="white"/>
        <path d="M392.266 41.4697C391.997 41.4697 391.759 41.4398 391.491 41.4398C391.014 41.5293 391.014 40.5456 391.491 40.6648C393.22 40.635 395.336 39.9195 395.813 38.0713C395.873 37.8925 396.022 37.6242 396.23 37.7434C397.303 39.8897 394.173 41.6485 392.266 41.4697Z" fill="white"/>
        <path d="M394.233 44.9874C393.845 44.6296 394.293 44.2719 394.68 44.2421C395.515 43.9142 396.349 43.4671 396.946 42.8112C398.943 39.711 398.078 44.9874 394.233 44.9874Z" fill="white"/>
        <path d="M342.573 22.2423C342.067 22.2125 339.503 22.0336 340.248 21.1394C344.064 22.7789 346.15 18.9632 346.449 19.9171C346.359 21.4375 343.885 22.2423 342.573 22.2423Z" fill="white"/>
        <path d="M247.062 322.755C245.751 315.213 245.87 307.522 244.946 299.921C244.409 294.317 243.902 288.683 243.306 283.078C243.306 280.455 241.875 274.553 243.097 272.585C243.604 272.556 243.574 273.271 243.604 273.659C243.992 279.71 245.065 285.732 245.691 291.753C247.092 301.918 247.241 312.262 248.135 322.457C248.314 323.53 247.271 324.305 247.062 322.755Z" fill="white"/>
        <path d="M248.79 274.076C247.21 274.046 245.63 274.135 244.08 273.986C243.186 273.748 243.156 272.406 243.603 271.751C244.199 271.125 245.273 271.542 246.077 271.423C272.608 271.601 299.139 269.276 325.67 270.469C324.298 268.263 322.361 266.474 320.691 264.596C320.542 264.089 320.632 262.778 321.407 263.046C322.867 263.881 329.336 270.946 327.428 272.377C301.166 271.631 274.993 274.046 248.79 274.076Z" fill="white"/>
        <path d="M205.478 352.237C202.02 338.346 199.427 324.305 195.79 310.474C195.641 309.609 194.27 306.002 195.82 306.39C196.267 306.241 196.297 307.045 196.118 307.314C199.009 315.959 200.977 325.021 203.063 333.844C203.063 333.785 203.034 333.755 203.034 333.695C204.405 339.18 205.329 344.725 206.67 350.21C206.76 351.075 207.177 352.565 206.253 353.042C205.776 353.221 205.538 352.595 205.478 352.237Z" fill="white"/>
        <path d="M335.301 267.041C335.42 266.087 335.211 264.537 335.837 263.881C336.076 264.686 335.539 265.729 335.629 266.594C335.569 266.802 335.718 267.249 335.45 267.339C335.331 267.339 335.301 267.13 335.301 267.041Z" fill="white"/>
        <path d="M335.269 268.859C334.285 268.173 335.806 264.566 335.925 263.434C336.074 263.046 335.955 262.241 336.432 262.122C337.475 263.314 335.984 266.623 335.955 268.233C335.895 268.531 335.657 269.068 335.269 268.859Z" fill="white"/>
        <path d="M339.77 269.873C338.637 268.829 340.515 267.697 341.141 266.921C341.588 266.564 341.946 265.968 342.542 265.908C343.556 265.938 340.098 269.902 339.77 269.873Z" fill="white"/>
        <path d="M242.8 272.705C242.055 269.694 243.068 266.236 240.922 263.702C240.833 263.166 240.892 262.48 241.339 262.152C242.353 261.824 243.009 264.418 243.128 265.163C243.337 265.699 243.814 273.867 242.8 272.705Z" fill="white"/>
        <path d="M247.808 268.293C247.45 268.025 247.718 267.458 247.927 267.16C249.418 264.865 250.819 262.42 251.266 259.678C251.325 259.35 251.623 258.694 252.071 258.962C253.829 260.334 249.298 266.504 248.225 267.846C248.285 268.203 248.106 268.382 247.808 268.293Z" fill="white"/>
    </g>
    <defs>
        <clipPath id="clip0_326_26258">
            <rect width="540" height="485" fill="white"/>
        </clipPath>
    </defs>
</svg>
