<svg width="540" height="583" viewBox="0 0 540 583" fill="none" xmlns="http://www.w3.org/2000/svg">
    <g clip-path="url(#clip0_326_26186)">
        <path d="M249.718 233.413C249.718 233.558 249.718 233.703 249.718 233.897C249.573 237.095 247.934 240.148 247.163 243.249C247.114 243.395 247.114 243.54 247.066 243.685C246.777 244.509 246.198 245.236 245.475 245.575C245.09 245.769 244.608 245.817 244.174 245.672C243.981 245.624 243.836 245.527 243.643 245.43C242.968 244.994 242.727 244.218 242.631 243.443C242.197 243.588 241.763 243.54 241.378 243.395C241.137 243.298 240.944 243.201 240.751 243.007C237.328 240.148 237.714 226.483 243.113 229.681C245.331 228.325 247.934 230.311 248.127 232.686C248.512 232.104 249.525 232.104 249.766 232.831C249.717 233.025 249.718 233.219 249.718 233.413Z" fill="#8DF63A"/>
        <path d="M267.699 143.236C267.266 142.751 266.783 142.363 266.301 141.976C265.385 141.297 264.373 140.813 263.361 140.328C262.541 139.989 261.673 139.65 260.854 139.408C253.864 134.95 248.802 131.461 242.294 130.346C239.064 129.813 235.449 129.813 231.062 130.589C210.525 128.99 177.021 155.204 169.887 173.908C167.91 178.996 166.801 184.423 165.789 189.753C164.97 197.458 163.572 207.779 153.93 208.215C149.158 208.797 143.758 207.828 139.612 210.735C139.564 210.783 139.516 210.783 139.468 210.832C139.42 210.88 139.371 210.88 139.371 210.929C133.538 214.854 130.26 221.686 129.489 228.518C129.73 251.729 102.204 240.342 91.1641 270.142C88.3199 276.684 89.284 283.807 88.9466 290.687C85.9577 308.713 65.5178 298.925 74.87 331.536C76.4609 342.196 64.168 347.284 61.7094 356.733C56.0692 371.076 61.2274 389.247 76.2198 395.11C84.5115 398.018 92.4657 393.802 97.6721 387.357C99.1183 385.564 100.372 383.578 101.336 381.542C102.011 380.186 102.637 378.829 103.168 377.424C107.314 366.666 107.217 354.552 108.76 343.165C108.808 342.729 108.856 342.342 108.953 341.905C111.411 324.704 114.834 307.599 119.799 290.978C121.149 286.859 122.547 282.401 124.186 277.943C127.368 269.221 131.514 260.645 138.07 255.024C146.699 248.918 157.497 252.746 167.139 252.601C190.23 251.923 197.268 232.346 201.463 212.189C203.439 202.691 204.789 193.048 206.862 185.199C208.935 179.675 211.104 174.151 213.418 168.724C214.478 166.204 215.587 163.733 216.744 161.261C219.829 158.015 223.831 155.883 226.964 152.733C226.964 152.733 227.012 152.733 227.012 152.685C227.061 152.636 227.109 152.588 227.157 152.588C233.135 146.24 240.173 141.297 249.332 142.703C249.381 142.703 249.429 142.703 249.429 142.703C252.418 142.896 255.455 142.751 258.299 143.963C260.275 144.35 262.541 145.61 264.566 144.883C265 145.222 265.578 145.416 266.06 145.465C267.266 145.658 268.326 144.786 267.699 143.236ZM245.283 134.95C247.259 135.967 251.116 137.227 251.743 138.875C250.489 138.584 249.236 138.39 247.983 138.196C247.742 136.791 246.344 135.822 245.283 134.95Z" fill="white"/>
        <path d="M238.244 200.608C235.4 200.026 230.917 199.59 230.338 196.053C230.242 194.26 230.82 191.837 233.038 191.837C242.968 186.701 256.467 203.515 238.244 200.608Z" fill="#8DF63A"/>
        <path d="M268.758 207.585C266.781 206.907 264.419 206.035 263.166 204.29C261.72 201.577 263.021 198.573 266.299 198.912C270.59 198.621 274.398 206.907 268.758 207.585Z" fill="#8DF63A"/>
        <path d="M255.311 41.9145C242.198 31.8841 215.299 38.6679 217.854 58.1957C218.914 70.6005 227.447 71.7634 226.145 85.8641C225.229 87.5601 225.518 88.6261 226.531 89.3045C227.158 89.7406 228.025 89.9829 229.038 90.1767C231.111 90.5159 233.714 90.5159 235.594 90.5644C236.365 90.6128 236.992 90.6128 237.474 90.7097C238.534 90.952 239.354 91.0005 240.077 90.9035C244.705 90.0798 243.355 82.2784 244.946 78.2081C245.717 73.5563 248.803 70.2128 252.756 67.9354C252.804 67.8869 252.852 67.8385 252.948 67.79C261.626 62.5568 263.843 48.2622 255.311 41.9145ZM247.019 67.6446C241.427 72.2964 240.897 80.1463 239.595 86.8332C238.824 86.7363 238.052 86.6879 237.281 86.6394C236.606 86.6394 235.883 86.6394 235.208 86.6394C234.437 86.6394 233.714 86.6394 232.991 86.6394C232.171 86.6394 231.4 86.5425 230.628 86.3971C229.664 86.2033 228.748 85.9126 227.881 85.428C232.557 71.7149 222.722 68.1292 222.192 55.8698C221.758 40.7515 244.512 37.8442 253.961 45.8879C260.854 54.4646 255.214 62.896 247.019 67.6446Z" fill="#8DF63A"/>
        <path d="M230.578 87.4632C230.964 75.6399 231.398 63.6712 233.374 51.9933C234.001 48.2138 238.725 45.8394 239.063 51.1696C247.258 43.9012 242.341 60.4731 241.377 63.7682C239.641 71.085 238.291 78.4988 237.761 86.0579C231.349 94.2955 238.291 67.257 238.725 65.3672C238.725 65.4157 238.725 65.4157 238.725 65.4641C239.352 62.6052 240.171 59.7463 240.846 56.8874C240.846 56.8874 240.846 56.8874 240.846 56.9359C240.846 56.8874 240.894 56.8389 240.894 56.742C240.894 56.7905 240.894 56.7905 240.894 56.8389C241.184 55.2883 241.762 53.7378 241.569 52.1872C239.882 53.4955 239.882 56.0152 238.34 57.372C236.7 58.2442 236.122 56.1606 236.315 54.9007C235.785 65.8518 234.676 76.8028 232.844 87.5601C232.458 88.5292 230.867 88.6746 230.578 87.4632Z" fill="#8DF63A"/>
        <path d="M195.775 82.908C190.906 84.5071 185.892 85.3793 180.782 85.8154C180.348 86.3968 179.432 86.5907 178.95 85.9607C177.022 82.4234 184.012 82.7142 185.94 81.6482C188.495 81.5028 196.594 76.8995 197.221 80.6306C197.317 81.5997 196.739 82.6173 195.775 82.908Z" fill="#8DF63A"/>
        <path d="M196.401 50.3458C196.256 51.1696 195.533 52.0902 194.617 52.0418C189.844 51.6541 185.024 51.0242 180.299 50.2489C176.636 46.5662 189.748 48.4076 191.435 48.0199C193.171 48.1653 196.738 47.6323 196.401 50.3458Z" fill="#8DF63A"/>
        <path d="M212.841 25.1483C210.671 21.9502 209.225 18.0737 206.188 15.6024C204.935 10.6599 214.817 21.611 215.347 22.7739C216.504 24.2761 214.19 26.7958 212.841 25.1483Z" fill="#8DF63A"/>
        <path d="M263.073 9.83626C262.784 13.2282 260.952 16.2809 260.614 19.6728C260.325 22.1441 256.613 21.9987 257.047 19.3821C257.818 15.9902 260.18 13.1797 261.145 9.83626C261.386 8.77023 262.976 8.67332 263.073 9.83626Z" fill="#8DF63A"/>
        <path d="M293.685 43.6585C292.577 44.6761 290.937 44.24 289.539 44.4338C286.261 44.4823 282.983 45.3545 279.705 45.3545C279.078 45.2576 278.355 45.306 277.729 45.1122C277.102 44.773 277.584 43.9008 278.259 43.9977C283.08 42.9317 287.708 40.7027 292.673 40.2666C294.408 40.2666 294.794 42.6409 293.685 43.6585Z" fill="#8DF63A"/>
        <path d="M288.574 78.5951C288.188 79.4673 287.128 80.2426 286.164 79.9034C281.632 77.4806 276.812 75.5424 272.135 73.5072C270.4 68.6616 278.692 72.635 280.861 72.8288C283.32 73.9918 289.779 74.864 288.574 78.5951Z" fill="#8DF63A"/>
        <path d="M264.421 99.4802C261.625 97.0574 259.359 94.247 257.286 91.1942C256.563 90.7581 256.563 89.4983 257.575 89.4014C259.889 90.6128 261.48 93.2294 263.987 94.3439C269.675 96.6698 267.265 101.128 264.421 99.4802Z" fill="#8DF63A"/>
        <path d="M240.029 90.8553C239.788 92.7935 238.92 95.0225 238.92 96.4277C238.92 96.3308 238.968 96.2824 238.968 96.1854C238.293 100.837 235.111 105.634 229.857 104.278C224.602 103.987 224.361 98.0752 225.422 94.1018C225.904 92.5997 225.952 90.8068 226.531 89.3047C226.723 88.8201 226.964 88.384 227.254 87.9964C228.7 87.0757 228.796 89.2078 228.989 90.1284C228.989 90.1284 228.989 90.1284 228.989 90.1769C228.989 90.1769 228.989 90.1769 229.037 90.1769C229.616 90.613 229.278 91.7275 228.555 91.7759C228.555 92.0667 228.555 92.309 228.555 92.5997C228.555 92.7451 228.555 92.842 228.555 92.9873C228.459 97.0576 228.314 101.806 233.81 99.5774C235.545 97.5422 235.063 93.5204 235.593 90.613C235.883 88.917 236.509 87.6087 238.1 87.2695C239.98 87.5603 240.221 89.0624 240.029 90.8553Z" fill="white"/>
        <path d="M520.054 430.574C519.421 430.844 518.759 431.069 518.097 431.248C513.897 432.373 509.322 431.563 505.093 432.193C477.559 432.868 450.026 434.353 422.521 436.602C397.175 438.266 371.799 439.526 346.567 443.395C307.554 450.413 268.225 449.558 229.068 452.527C229.039 452.527 229.011 452.527 229.011 452.527C228.176 452.662 227.313 452.797 226.45 452.887C213.733 454.597 200.931 454.102 188.272 456.486C170.52 460.22 152.567 459.995 134.73 461.794C134.787 461.794 134.845 461.794 134.902 461.749C132.716 462.019 130.5 462.244 128.314 462.469C128.342 462.469 128.371 462.469 128.4 462.469C123.653 463.054 118.935 463.729 114.187 464.449C109.728 465.123 105.297 465.798 100.867 466.428C96.7237 467.013 92.5807 467.598 88.409 468.048C88.0062 468.093 87.6321 468.138 87.2294 468.183C84.9853 468.453 82.7699 468.632 80.5258 468.812C65.1048 468.228 49.7413 471.152 34.3203 471.422C33.8024 471.422 33.2846 471.422 32.7667 471.422C32.7379 471.422 32.7379 471.422 32.7092 471.422C31.1556 471.647 29.5732 471.871 28.0196 472.096C20.2227 473.311 12.4547 474.976 4.68665 476.55C4.31263 476.64 3.90984 476.73 3.53582 476.775C3.39197 476.82 3.24812 476.82 3.10427 476.865C2.90287 476.91 2.70148 476.955 2.50008 477C1.86713 476.55 2.52885 476.01 3.8523 475.38C4.05369 475.291 4.25509 475.201 4.45648 475.111C8.11034 473.581 15.1016 471.917 15.7345 471.557C27.0989 468.138 38.5784 467.238 50.1154 466.743C61.6523 464.719 73.2181 464.584 84.8126 464.224C85.388 464.134 85.9635 464.044 86.5389 463.954C87.3444 463.819 88.15 463.684 88.9268 463.549C96.8675 462.289 104.808 461.075 112.778 459.995C131.507 457.431 150.266 455.406 169.053 454.372C177.339 453.562 185.567 451.987 193.824 450.548C205.016 449.558 216.237 448.838 227.428 447.714C230.363 447.444 233.297 447.084 236.232 446.724C253.811 445.959 271.418 445.464 288.997 444.295C293.888 443.98 298.808 443.575 303.699 443.17C323.033 442.675 342.194 438.671 361.442 435.972C365.469 435.612 369.469 435.252 373.496 434.892C384.257 433.948 395.017 433.093 405.777 432.283C424.65 430.889 443.495 429.719 462.369 428.729C480.321 427.784 498.274 426.975 516.227 426.3C516.918 426.39 517.666 426.12 518.385 426.03C519.047 425.94 519.68 426.03 520.226 426.615C520.917 427.739 520.744 429.584 520.054 430.574Z" fill="white"/>
        <path d="M341.914 562.688C341.711 562.911 341.478 563 341.188 563C322.758 561.396 304.909 553.018 287.264 545.175C265.434 533.321 243.021 522.314 219.65 521.69C207.15 520.844 194.563 520.487 182.122 522.715C182.18 522.715 182.238 522.715 182.296 522.671C171.424 524.453 160.523 526.637 149.913 530.826C149.884 530.826 149.826 530.87 149.797 530.87C118.809 541.521 87.9379 562.599 55.6422 555.335C36.8635 552.528 16.4571 540.496 7.62006 513.224C5.43988 504.757 4.68408 495.621 4.39339 486.531C4.30619 484.124 4.27712 481.718 4.24805 479.356C4.30619 478.732 4.27712 477.663 4.36432 476.682C4.36432 476.549 4.39339 476.415 4.42246 476.281C4.4806 475.88 4.56781 475.524 4.68408 475.301C4.82943 475.033 5.03291 474.944 5.29453 475.033C5.3236 475.033 5.35267 475.033 5.38174 475.078C5.41081 475.212 5.41081 475.345 5.43988 475.479C5.46895 475.791 5.52709 476.147 5.55615 476.459C5.61429 477.217 5.67243 477.975 5.7015 478.732C5.84685 481.094 5.90498 483.5 6.25381 485.818C6.25381 485.728 6.25381 485.684 6.22474 485.595C6.63171 489.338 7.03868 493.126 7.41657 496.869C8.1433 503.375 9.21886 510.015 11.5735 515.585C11.5735 515.585 11.5735 515.63 11.6025 515.63C21.8348 539.694 40.6716 549.542 58.6072 551.726C88.4321 557.608 116.92 538.045 145.495 528.152C173.285 516.744 202.383 514.783 230.958 518.437C255.434 521.289 277.962 537.287 301.45 546.824C309.531 549.854 317.525 553.731 325.752 555.647C330.868 557.207 336.042 558.321 341.275 558.677C341.972 558.588 342.408 559.257 342.525 560.059C342.641 561.039 342.438 562.153 341.914 562.688Z" fill="white"/>
        <path d="M513.689 469.843C505.455 481.025 494.544 485.107 484.094 488.701C476.58 491.275 469.008 493.138 461.322 494.203C449.749 496.688 437.772 497.709 426.775 504.231C415.605 510.754 406.162 522.29 396.345 532.451C387.363 541.858 377.949 550.333 367.816 556.412C362.058 559.918 355.926 561.692 349.823 562.802C348.441 563.024 347.059 563.068 345.677 562.89C344.986 562.757 340.984 562.447 337.99 561.737C335.342 561.116 333.471 560.139 335.371 558.675C336.436 558.897 337.501 559.03 338.566 559.163C352.414 560.716 366.203 555.037 378.237 544.299C395.798 531.032 409.934 508.225 428.675 498.507C439.471 493.094 450.987 492.029 462.185 489.722C471.139 488.479 479.977 485.861 488.7 482.667C497.106 479.427 505.656 475.478 512.192 466.293C517.892 457.33 522.21 444.551 519.993 431.817C519.533 431.639 519.015 431.417 518.554 431.107C517.748 430.53 517.143 429.642 517.489 427.956C517.719 426.758 518.237 426.226 518.871 426.048C519.158 425.96 519.475 426.004 519.792 426.093C519.849 426.093 519.878 426.137 519.936 426.137C520.742 426.359 521.548 426.98 522.095 427.601C526.615 442.155 520.512 459.416 513.689 469.843Z" fill="white"/>
        <path d="M260.47 206.519C257.915 207.149 250.25 201.044 252.66 198.815C253.142 198.476 253.817 198.621 254.106 199.202C255.504 201.141 257.047 203.903 259.747 204.048C258.686 198.427 257.384 192.758 257.433 186.991C257.433 187.04 257.433 187.088 257.433 187.137C257.625 185.78 256.999 181.904 259.264 182.485C259.747 182.727 259.747 183.406 259.506 183.842C259.457 185.392 259.554 186.991 259.65 188.542C259.264 191.546 264.808 207.198 260.47 206.519Z" fill="white"/>
        <path d="M247.548 220.136C245.909 219.893 244.415 210.59 246.777 211.995C248.995 217.519 248.368 220.233 253.43 214.224C253.767 213.836 254.394 213.739 254.731 214.127C255.695 216.065 249.669 221.832 247.548 220.136Z" fill="white"/>
        <path d="M236.558 188.348C232.46 189.172 226.29 176.525 229.954 178.027C232.894 184.569 240.463 188.687 245.428 181.613C245.814 181.08 246.585 180.741 247.164 181.225C249.285 184.666 239.643 189.511 236.558 188.348Z" fill="white"/>
        <path d="M228.749 189.802C228.411 187.912 231.448 187.282 231.979 185.441C232.316 184.956 232.123 184.278 232.654 183.89C233.087 183.503 233.811 183.793 233.859 184.375C233.859 184.423 233.859 184.423 233.859 184.472C233.859 184.52 233.859 184.52 233.859 184.569C234.003 186.313 230.629 191.498 228.749 189.802Z" fill="white"/>
        <path d="M231.977 191.643C231.157 189.996 233.712 189.414 234.339 188.203C234.918 187.525 235.11 186.652 235.544 185.877C236.267 185.053 237.328 186.071 236.798 186.895C236.171 188.736 234.243 192.903 231.977 191.643Z" fill="white"/>
        <path d="M235.884 193.776C234.245 191.789 237.668 190.093 238.15 188.252C238.729 187.331 238.15 185.926 239.211 185.344L239.162 185.393C243.212 184.133 238.198 195.665 235.884 193.776Z" fill="white"/>
        <path d="M256.37 175.895C252.417 166.398 239.931 166.01 231.206 167.561C231.061 167.851 230.627 167.706 230.386 167.609C229.76 166.155 233.52 165.719 234.484 165.041C239.401 163.539 244.656 164.12 249.428 165.816C254.924 166.156 261.673 177.93 256.37 175.895Z" fill="white"/>
        <path d="M272.279 210.396C271.123 215.484 269.483 220.427 267.652 225.321C267.7 225.224 267.7 225.175 267.748 225.078C265.097 233.607 257.239 235.254 249.718 233.897C246.681 233.364 243.693 232.298 241.138 230.99C241.089 235.012 241.186 238.985 241.33 243.007C241.33 243.104 241.33 243.249 241.33 243.346C241.379 244.267 241.379 245.139 241.427 246.06C241.427 246.108 241.427 246.205 241.427 246.254C241.427 248.24 238.438 249.161 238.004 246.835C237.618 241.02 237.715 235.157 237.956 229.294C238.149 225.127 242.198 227.501 244.512 228.567C248.465 230.166 252.707 231.475 256.998 230.99C265 230.748 267.555 218.149 269.194 207.537C269.532 205.211 269.869 202.982 270.207 200.996C270.544 199.009 270.881 197.265 271.267 195.908C270.978 196.005 270.64 196.053 270.351 196.102C271.315 200.899 267.17 200.608 269.001 196.053C268.037 195.859 267.121 195.375 266.35 194.793C266.446 195.811 267.314 199.59 265.289 198.331C264.952 197.022 265.868 195.569 265.675 194.163C264.277 192.71 263.216 190.965 262.783 188.979C262.252 188.833 261.674 185.829 262.493 185.829C265.097 188.009 267.459 194.648 271.942 192.371C272.713 187.913 273.581 183.455 274.015 178.9C271.99 178.561 269.869 178.124 267.844 178.464C266.88 178.561 265.386 179.675 264.856 178.367C262.734 177.834 266.977 175.702 267.748 175.508C269.821 174.636 272.183 174.345 274.352 174.926C276.425 163.975 274.883 151.764 266.109 145.61C264.132 144.205 261.77 143.139 258.974 142.412C258.974 142.412 258.974 142.412 258.926 142.412C258.781 142.364 258.637 142.364 258.54 142.315C257.817 142.8 256.95 142.122 256.998 141.298C237.956 135.483 218.335 150.359 212.792 168.482C213.033 168.627 213.225 168.772 213.467 168.918C232.364 181.807 222.047 213.013 201.511 212.383C198.86 212.286 196.064 211.704 193.123 210.445C172.249 200.802 180.589 164.508 204.211 166.447C205.802 154.429 213.081 143.43 223.012 136.598C228.459 133.012 235.497 130.686 242.343 130.444C250.683 130.153 258.733 132.915 263.409 140.426C263.506 140.619 263.65 140.813 263.747 141.007C264.663 141.346 265.53 141.685 266.35 142.073C282.162 149.39 280.909 167.076 278.209 182.389C288.815 188.3 283.223 208.409 272.279 210.396Z" fill="#8DF63A"/>
        <path d="M287.705 273.291C287.85 309.246 282.354 344.764 276.087 380.089C276.039 380.428 275.991 380.719 275.894 381.058C275.894 380.961 275.943 380.864 275.943 380.767C275.027 383.335 276.039 389.586 273.05 390.361C271.652 390.313 271.556 388.326 271.893 385.952C272.231 383.238 273.098 380.04 273.002 378.877C274.786 367.975 276.135 357.023 278.064 346.121C281.004 318.937 284.716 291.414 282.258 264.085C283.27 242.231 261.239 250.323 246.199 247.61C245.09 247.416 244.077 247.174 243.065 246.834C242.487 246.641 241.956 246.447 241.426 246.205C240.558 245.817 239.691 245.332 238.919 244.799C238.871 244.606 238.871 244.412 238.871 244.266C238.871 243.249 239.642 242.958 240.703 242.958C240.896 242.958 241.089 242.958 241.33 243.006C242.824 243.152 244.56 243.636 245.427 243.636C245.958 243.636 246.488 243.685 247.018 243.685C250.344 243.685 253.671 243.394 256.997 243.297C283.607 241.068 286.693 248.288 287.705 273.291Z" fill="white"/>
        <path d="M424.132 319.761C424.325 318.113 424.71 315.448 422.493 315.109C417.961 314.528 413.382 314.964 408.802 314.625C382.481 312.008 354.231 314.334 327.38 315.545C326.898 315.594 326.368 315.642 325.885 315.642C325.837 315.642 325.741 315.642 325.693 315.642C320.92 315.836 316.196 316.708 311.423 317.193C310.845 314.382 308.193 318.646 307.904 319.664C303.035 331.003 298.986 342.971 295.37 355.085C294.454 358.187 293.538 361.288 292.671 364.389C290.935 370.591 289.248 376.794 287.561 382.899C284.09 394.965 280.378 407.03 277.051 419.144C276.521 421.034 276.039 422.972 275.557 424.862C274.979 427.091 274.448 429.32 273.87 431.549C265.723 431.888 257.527 432.421 249.38 433.148C248.223 433.245 247.115 433.342 245.958 433.439C233.472 434.602 221.034 436.104 208.645 437.848C202.089 438.914 195.292 438.963 188.832 439.932C187.964 440.562 187.482 443.663 187.675 446.377C187.675 446.619 187.723 446.813 187.723 447.007C187.868 448.121 188.061 449.139 188.446 449.817C188.784 450.398 189.169 450.738 189.7 450.689C189.748 450.835 189.844 450.931 189.941 451.028C190.23 451.319 190.567 451.513 191.001 451.513C228.41 449.381 265.771 446.28 303.228 444.584H303.324C305.831 444.535 308.29 444.487 310.797 444.39C311.52 444.39 312.243 444.341 312.966 444.341C333.55 442.936 354.328 443.033 374.719 439.884C375.443 440.756 376.841 440.417 377.371 439.447C377.66 439.787 378.19 439.447 378.528 439.399C379.203 439.108 378.672 438.381 378.094 438.769C378.094 438.672 378.046 438.624 378.046 438.527C377.998 438.43 377.901 438.333 377.853 438.236C378.48 436.492 379.106 434.747 379.781 433.051C380.601 430.968 381.42 428.932 382.288 426.849C393.135 400.537 404.656 374.468 414.635 347.817C416.853 341.13 419.745 334.734 422.3 328.192C422.927 325.576 425.53 322.329 424.132 319.761Z" fill="white"/>
        <path d="M249.575 391.573C249.43 381.591 251.648 370.979 253.142 360.9C253.335 357.654 255.553 355.667 257.867 353.729C269.581 343.02 268.28 330.082 264.085 316.175C262.736 314.189 261.53 293.546 266.062 298.101C266.062 298.101 266.062 298.101 266.062 298.053C266.448 324.219 283.272 337.448 257.433 359.834C255.987 367.781 255.071 375.776 253.673 383.723C252.998 386.001 253.48 394.093 249.575 391.573Z" fill="white"/>
        <path d="M255.309 405.916C257.43 409.065 256.9 416.528 251.694 413.669C252.32 417.642 251.212 420.065 249.139 419.92C248.126 419.871 246.921 419.241 245.523 417.884C245.33 417.691 245.138 417.545 244.945 417.303C245.234 419.484 245.668 424.911 242.197 424.184C239.497 423.215 238.196 420.259 235.4 419.29C228.313 416.431 220.263 418.417 213.08 420.162C213.176 420.162 213.224 420.113 213.321 420.113C205.608 422.052 197.894 423.845 190.181 425.88H190.229C176.056 429.998 161.98 434.602 147.903 439.108C146.698 439.496 145.493 439.883 144.24 440.271C144.143 440.32 144.047 440.32 143.95 440.368C132.67 443.712 121.293 450.592 109.193 448.363C86.1015 441.531 95.8876 407.951 97.3338 390.216C97.4302 389.295 97.5267 388.375 97.6713 387.503C99.5032 371.706 101.383 355.909 104.806 340.355C104.951 339.676 105.095 338.998 105.24 338.32C105.24 338.271 105.24 338.223 105.288 338.174C105.288 338.077 105.336 337.98 105.336 337.884C108.759 321.069 112.76 304.4 117.051 287.78C121.052 274.697 123.607 259.239 135.61 250.953C136.671 249.5 148.385 246.786 144.384 250.13C135.948 251.05 130.886 259.191 127.897 266.459C126.499 270.287 125.294 274.164 124.137 278.089C120.136 291.899 117.388 306.096 113.821 320.003C112.037 327.708 110.302 335.461 108.759 343.214C106.493 354.552 104.517 365.988 103.167 377.472C102.926 379.604 102.685 381.736 102.492 383.917C101.287 400.198 90.0545 435.135 107.891 444.39C107.939 444.39 107.988 444.438 108.036 444.438H107.988C108.084 444.487 108.229 444.535 108.325 444.535C108.325 444.535 108.325 444.535 108.277 444.535C112.616 445.941 117.243 445.407 121.534 444.148C121.582 444.148 121.582 444.148 121.63 444.148C146.457 436.298 170.802 426.849 196.014 420.259C197.412 419.871 198.81 419.484 200.208 419.144C201.51 418.805 202.86 418.514 204.161 418.175C206.62 417.594 209.078 417.012 211.537 416.382C221.805 413.572 235.592 411.004 242.583 421.228C242.727 420.307 242.534 419.387 242.342 418.466C242.534 415.898 238.099 411.682 241.956 410.422C244.896 411.391 246.102 415.268 248.994 416.576C249.38 413.087 246.777 410.519 246.343 407.321C248.464 402.233 251.404 409.889 253.718 411.004C253.718 410.858 253.718 410.713 253.67 410.568C252.947 407.757 251.212 405.48 249.669 403.057C248.319 400.198 251.549 398.89 253.429 401.022C245.427 385.952 224.457 388.569 208.837 390.652C207.536 390.846 206.234 390.991 205.029 391.137C204.354 391.234 203.679 391.331 203.053 391.379C185.216 394.383 167.379 397.824 149.735 401.942C147.084 402.669 144.529 403.59 141.877 404.414C141.203 404.607 140.672 404.511 140.287 404.268C138.985 403.396 138.985 400.779 140.769 400.053C141.01 399.956 141.203 399.907 141.444 399.81C142.311 399.52 143.227 399.277 144.095 398.987C144.673 398.793 145.204 398.647 145.782 398.405C146.505 398.211 147.228 398.017 147.952 397.824C164.969 393.269 182.372 390.168 199.726 387.163C215.104 384.886 232.073 381.494 246.825 388.084C247.596 388.181 248.512 388.714 249.524 389.489C250.248 390.071 251.019 390.798 251.79 391.621C256.37 396.515 260.612 404.801 255.309 405.916Z" fill="white"/>
        <path d="M139.034 404.268C134.406 404.608 135.708 399.762 136.093 396.758C136.913 386.485 139.42 376.406 141.396 366.279C144.192 352.517 147.47 338.756 151.905 325.43C152.436 323.977 155.521 313.462 157.064 315.594C152.388 343.698 142.746 371.173 139.805 399.714C144.385 399.132 142.987 405.238 139.034 404.268Z" fill="white"/>
        <path d="M130.116 404.026C128.284 403.542 122.933 405.044 124.186 401.7C125.777 399.665 128.573 402.088 130.694 401.749C132.189 401.991 131.514 404.365 130.116 404.026Z" fill="white"/>
        <path d="M124.91 414.153C123.367 412.457 128.911 408.968 129.875 407.369C132.912 406.885 128.043 410.858 127.61 411.682C126.694 412.36 126.308 414.686 124.91 414.153Z" fill="white"/>
        <path d="M269.097 300.815C267.603 299.506 269.869 297.907 270.592 296.793C271.556 295.969 271.941 294.37 273.05 293.837C275.605 293.546 270.302 302.268 269.097 300.815Z" fill="white"/>
        <path d="M271.942 304.11C270.833 303.044 271.893 301.639 272.809 300.863C272.761 300.912 272.761 300.912 272.713 300.96C272.761 300.912 272.809 300.863 272.858 300.815C273.822 299.991 274.786 298.974 275.943 298.392C277.437 297.956 277.823 300.282 276.521 300.815C274.93 301.687 274.111 305.418 271.942 304.11Z" fill="white"/>
        <path d="M301.397 350.821C300.626 352.081 299.854 353.293 299.035 354.504C297.058 357.847 294.937 361.143 292.72 364.341C286.549 373.305 279.752 381.882 273.919 391.088C273.967 391.04 273.967 390.991 274.015 390.895C272.569 393.075 270.93 398.308 267.652 397.097C265.627 396.128 268.327 391.185 271.894 385.952C273.244 383.965 274.738 381.93 276.136 380.04C278.74 376.503 281.053 373.45 281.68 372.239C286.115 366.424 290.599 360.561 295.467 355.037C296.914 353.39 298.36 351.791 299.854 350.191C300.481 349.271 302.12 349.416 301.397 350.821Z" fill="white"/>
        <path d="M144.048 398.744C143.277 385.274 145.398 371.851 145.253 358.381C145.205 357.218 146.651 356.152 147.616 357.024C148.724 359.059 147.664 361.772 147.712 364.05C148.965 375.34 148.339 386.776 148.05 398.114C147.857 400.198 144.627 401.119 144.048 398.744Z" fill="white"/>
        <path d="M147.905 451.61C147.905 452.046 147.953 452.434 148.001 452.87C148.049 453.742 147.519 454.517 146.892 454.905C146.266 455.293 145.494 455.39 144.916 455.05C144.627 454.857 144.337 454.566 144.145 454.13C144.048 453.403 143.952 452.628 143.904 451.852C143.855 451.416 143.855 450.98 143.855 450.544C143.807 448.363 143.952 446.134 144 443.954C144.193 442.839 143.952 441.531 144.048 440.368C144.096 439.593 144.289 438.818 144.771 438.188C145.977 436.831 147.664 437.703 147.953 439.108C148.049 439.448 148.049 439.835 147.953 440.223C147.953 440.174 147.953 440.126 147.953 440.077C147.905 443.421 147.76 446.764 147.857 450.108C147.857 450.641 147.857 451.125 147.905 451.61Z" fill="white"/>
        <path d="M246.343 434.311C245.283 431.307 246.006 427.818 245.427 424.668C245.524 422.246 243.788 415.752 248.175 417.061C250.007 419.29 248.657 423.021 249.477 425.783C249.38 428.206 251.068 437.122 246.343 434.311Z" fill="white"/>
        <path d="M213.225 294.419C209.561 293.45 208.115 288.992 205.801 286.327C205.849 286.424 205.946 286.521 205.994 286.569C201.173 278.574 194.376 272.032 189.411 264.134C189.459 264.231 189.555 264.328 189.603 264.425C186.229 260.16 183.529 255.509 182.083 250.227C181.649 248.143 184.06 247.707 184.927 249.549C193.412 263.019 204.789 274.455 212.888 288.265C212.839 288.168 212.791 288.071 212.695 288.023C213.08 288.556 213.466 289.137 213.9 289.622C222.722 279.737 231.303 269.222 237.425 257.35C239.016 254.588 240.559 251.778 242.198 249.016C242.728 247.416 243.981 244.121 246.054 246.011C247.404 249.064 242.149 254.636 241.041 257.835C235.159 269.609 227.157 279.93 218.962 290.155C217.419 291.851 215.78 294.419 213.225 294.419Z" fill="white"/>
        <path d="M182.422 393.802C182.373 393.124 183.386 392.978 183.386 393.705C183.482 394.335 182.422 394.529 182.422 393.802Z" fill="white"/>
        <path d="M201.608 422.1C196.884 421.083 205.465 393.85 205.368 388.617C205.609 387.696 206.477 386.873 207.489 386.969C211.105 388.278 207.2 395.207 207.489 398.163C206.718 403.735 205.754 409.211 204.693 414.735C203.826 417.109 204.886 421.809 201.608 422.1Z" fill="white"/>
        <path d="M258.686 430.871C254.444 430.628 250.973 427.866 248.273 424.765C248.321 424.862 248.321 425.008 248.418 425.105C248.418 425.105 248.418 425.104 248.418 425.056C249.189 425.589 248.611 426.994 247.791 426.316C246.441 424.862 246.538 421.276 249.237 422.633C261.578 431.937 275.317 421.858 284.38 412.7C286.791 408.969 290.213 412.264 286.984 414.977C278.981 422.246 270.256 431.452 258.686 430.871Z" fill="white"/>
    </g>
    <defs>
        <clipPath id="clip0_326_26186">
            <rect width="540" height="583" fill="white"/>
        </clipPath>
    </defs>
</svg>
