<svg width="20" height="20" viewBox="0 0 20 20" fill="none" xmlns="http://www.w3.org/2000/svg">
    <path d="M0.839531 6.82031H4.76766V19.4578H0.839531V6.82031ZM2.80359 0.539062C3.40779 0.539062 3.98724 0.779079 4.41447 1.20631C4.8417 1.63354 5.08172 2.21299 5.08172 2.81719C5.08172 3.42138 4.8417 4.00083 4.41447 4.42807C3.98724 4.8553 3.40779 5.09531 2.80359 5.09531C1.54359 5.09531 0.527344 4.07344 0.527344 2.81719C0.527344 1.56094 1.54359 0.539062 2.80359 0.539062ZM7.22859 6.82031H10.9973V8.54531H11.0517C11.5767 7.55344 12.8583 6.50531 14.7689 6.50531C18.742 6.50531 19.4752 9.12281 19.4752 12.5241V19.4569H15.5536V13.3069C15.5536 11.8406 15.5255 9.95625 13.5117 9.95625C11.468 9.95625 11.1548 11.55 11.1548 13.2V19.4513H7.22953V6.82031H7.22859Z" fill="#5D6483"/>
</svg>
