<svg width="19" height="16" viewBox="0 0 19 16" fill="none" xmlns="http://www.w3.org/2000/svg">
    <path d="M18.6147 2.66057C17.9231 2.96603 17.19 3.16694 16.4393 3.25672C17.2311 2.78385 17.8235 2.03864 18.1055 1.16057C17.362 1.60351 16.5474 1.91426 15.6978 2.07903C15.3432 1.70181 14.9149 1.40137 14.4395 1.19629C13.9641 0.991203 13.4517 0.885843 12.9339 0.886724C12.3629 0.886697 11.7993 1.01577 11.2853 1.26428C10.7712 1.51279 10.3199 1.87431 9.96528 2.32181C9.61062 2.76931 9.36173 3.2912 9.23722 3.84846C9.11271 4.40571 9.11579 4.98391 9.24625 5.5398C6.1001 5.37826 3.30779 3.87057 1.43856 1.57826C1.10334 2.15731 0.926885 2.81457 0.927019 3.48365C0.927019 4.79903 1.59625 5.95596 2.61163 6.63749C2.01052 6.61674 1.42279 6.45439 0.89625 6.16365V6.2098C0.89625 8.04826 2.20394 9.57903 3.93625 9.92519C3.61779 10.0136 3.2824 10.059 2.93856 10.059C2.69394 10.059 2.45702 10.036 2.22471 9.99288C2.46722 10.7452 2.93851 11.4031 3.57284 11.8747C4.20717 12.3463 4.97289 12.6081 5.76317 12.6236C4.42131 13.6755 2.76509 14.2463 1.0601 14.2444C0.753942 14.2444 0.452404 14.2267 0.15625 14.1921C1.88878 15.3049 3.90483 15.8958 5.96394 15.8944C12.9301 15.8944 16.7409 10.1198 16.7409 5.11519C16.7409 4.95134 16.737 4.78749 16.7293 4.62519C17.4678 4.09057 18.1101 3.42519 18.6178 2.66365L18.6147 2.66057Z" fill="#5D6483"/>
</svg>
